G04*
G04 #@! TF.GenerationSoftware,Altium Limited,Altium Designer,20.0.13 (296)*
G04*
G04 Layer_Color=8388736*
%FSLAX25Y25*%
%MOIN*%
G70*
G01*
G75*
G04:AMPARAMS|DCode=21|XSize=40mil|YSize=74mil|CornerRadius=10mil|HoleSize=0mil|Usage=FLASHONLY|Rotation=180.000|XOffset=0mil|YOffset=0mil|HoleType=Round|Shape=RoundedRectangle|*
%AMROUNDEDRECTD21*
21,1,0.04000,0.05400,0,0,180.0*
21,1,0.02000,0.07400,0,0,180.0*
1,1,0.02000,-0.01000,0.02700*
1,1,0.02000,0.01000,0.02700*
1,1,0.02000,0.01000,-0.02700*
1,1,0.02000,-0.01000,-0.02700*
%
%ADD21ROUNDEDRECTD21*%
G04:AMPARAMS|DCode=22|XSize=110mil|YSize=140mil|CornerRadius=27.5mil|HoleSize=0mil|Usage=FLASHONLY|Rotation=0.000|XOffset=0mil|YOffset=0mil|HoleType=Round|Shape=RoundedRectangle|*
%AMROUNDEDRECTD22*
21,1,0.11000,0.08500,0,0,0.0*
21,1,0.05500,0.14000,0,0,0.0*
1,1,0.05500,0.02750,-0.04250*
1,1,0.05500,-0.02750,-0.04250*
1,1,0.05500,-0.02750,0.04250*
1,1,0.05500,0.02750,0.04250*
%
%ADD22ROUNDEDRECTD22*%
G04:AMPARAMS|DCode=23|XSize=110mil|YSize=100mil|CornerRadius=25mil|HoleSize=0mil|Usage=FLASHONLY|Rotation=0.000|XOffset=0mil|YOffset=0mil|HoleType=Round|Shape=RoundedRectangle|*
%AMROUNDEDRECTD23*
21,1,0.11000,0.05000,0,0,0.0*
21,1,0.06000,0.10000,0,0,0.0*
1,1,0.05000,0.03000,-0.02500*
1,1,0.05000,-0.03000,-0.02500*
1,1,0.05000,-0.03000,0.02500*
1,1,0.05000,0.03000,0.02500*
%
%ADD23ROUNDEDRECTD23*%
G04:AMPARAMS|DCode=24|XSize=20mil|YSize=20mil|CornerRadius=5mil|HoleSize=0mil|Usage=FLASHONLY|Rotation=270.000|XOffset=0mil|YOffset=0mil|HoleType=Round|Shape=RoundedRectangle|*
%AMROUNDEDRECTD24*
21,1,0.02000,0.01000,0,0,270.0*
21,1,0.01000,0.02000,0,0,270.0*
1,1,0.01000,-0.00500,-0.00500*
1,1,0.01000,-0.00500,0.00500*
1,1,0.01000,0.00500,0.00500*
1,1,0.01000,0.00500,-0.00500*
%
%ADD24ROUNDEDRECTD24*%
G04:AMPARAMS|DCode=25|XSize=23.62mil|YSize=50mil|CornerRadius=5.91mil|HoleSize=0mil|Usage=FLASHONLY|Rotation=90.000|XOffset=0mil|YOffset=0mil|HoleType=Round|Shape=RoundedRectangle|*
%AMROUNDEDRECTD25*
21,1,0.02362,0.03819,0,0,90.0*
21,1,0.01181,0.05000,0,0,90.0*
1,1,0.01181,0.01909,0.00591*
1,1,0.01181,0.01909,-0.00591*
1,1,0.01181,-0.01909,-0.00591*
1,1,0.01181,-0.01909,0.00591*
%
%ADD25ROUNDEDRECTD25*%
G04:AMPARAMS|DCode=26|XSize=51.18mil|YSize=35.43mil|CornerRadius=8.86mil|HoleSize=0mil|Usage=FLASHONLY|Rotation=270.000|XOffset=0mil|YOffset=0mil|HoleType=Round|Shape=RoundedRectangle|*
%AMROUNDEDRECTD26*
21,1,0.05118,0.01772,0,0,270.0*
21,1,0.03347,0.03543,0,0,270.0*
1,1,0.01772,-0.00886,-0.01673*
1,1,0.01772,-0.00886,0.01673*
1,1,0.01772,0.00886,0.01673*
1,1,0.01772,0.00886,-0.01673*
%
%ADD26ROUNDEDRECTD26*%
G04:AMPARAMS|DCode=27|XSize=20mil|YSize=20mil|CornerRadius=5mil|HoleSize=0mil|Usage=FLASHONLY|Rotation=180.000|XOffset=0mil|YOffset=0mil|HoleType=Round|Shape=RoundedRectangle|*
%AMROUNDEDRECTD27*
21,1,0.02000,0.01000,0,0,180.0*
21,1,0.01000,0.02000,0,0,180.0*
1,1,0.01000,-0.00500,0.00500*
1,1,0.01000,0.00500,0.00500*
1,1,0.01000,0.00500,-0.00500*
1,1,0.01000,-0.00500,-0.00500*
%
%ADD27ROUNDEDRECTD27*%
G04:AMPARAMS|DCode=28|XSize=46mil|YSize=14mil|CornerRadius=3.5mil|HoleSize=0mil|Usage=FLASHONLY|Rotation=0.000|XOffset=0mil|YOffset=0mil|HoleType=Round|Shape=RoundedRectangle|*
%AMROUNDEDRECTD28*
21,1,0.04600,0.00700,0,0,0.0*
21,1,0.03900,0.01400,0,0,0.0*
1,1,0.00700,0.01950,-0.00350*
1,1,0.00700,-0.01950,-0.00350*
1,1,0.00700,-0.01950,0.00350*
1,1,0.00700,0.01950,0.00350*
%
%ADD28ROUNDEDRECTD28*%
G04:AMPARAMS|DCode=29|XSize=30mil|YSize=22mil|CornerRadius=5.5mil|HoleSize=0mil|Usage=FLASHONLY|Rotation=90.000|XOffset=0mil|YOffset=0mil|HoleType=Round|Shape=RoundedRectangle|*
%AMROUNDEDRECTD29*
21,1,0.03000,0.01100,0,0,90.0*
21,1,0.01900,0.02200,0,0,90.0*
1,1,0.01100,0.00550,0.00950*
1,1,0.01100,0.00550,-0.00950*
1,1,0.01100,-0.00550,-0.00950*
1,1,0.01100,-0.00550,0.00950*
%
%ADD29ROUNDEDRECTD29*%
G04:AMPARAMS|DCode=30|XSize=75mil|YSize=70mil|CornerRadius=17.5mil|HoleSize=0mil|Usage=FLASHONLY|Rotation=90.000|XOffset=0mil|YOffset=0mil|HoleType=Round|Shape=RoundedRectangle|*
%AMROUNDEDRECTD30*
21,1,0.07500,0.03500,0,0,90.0*
21,1,0.04000,0.07000,0,0,90.0*
1,1,0.03500,0.01750,0.02000*
1,1,0.03500,0.01750,-0.02000*
1,1,0.03500,-0.01750,-0.02000*
1,1,0.03500,-0.01750,0.02000*
%
%ADD30ROUNDEDRECTD30*%
G04:AMPARAMS|DCode=31|XSize=30mil|YSize=40mil|CornerRadius=7.5mil|HoleSize=0mil|Usage=FLASHONLY|Rotation=180.000|XOffset=0mil|YOffset=0mil|HoleType=Round|Shape=RoundedRectangle|*
%AMROUNDEDRECTD31*
21,1,0.03000,0.02500,0,0,180.0*
21,1,0.01500,0.04000,0,0,180.0*
1,1,0.01500,-0.00750,0.01250*
1,1,0.01500,0.00750,0.01250*
1,1,0.01500,0.00750,-0.01250*
1,1,0.01500,-0.00750,-0.01250*
%
%ADD31ROUNDEDRECTD31*%
G04:AMPARAMS|DCode=32|XSize=30mil|YSize=30mil|CornerRadius=7.5mil|HoleSize=0mil|Usage=FLASHONLY|Rotation=180.000|XOffset=0mil|YOffset=0mil|HoleType=Round|Shape=RoundedRectangle|*
%AMROUNDEDRECTD32*
21,1,0.03000,0.01500,0,0,180.0*
21,1,0.01500,0.03000,0,0,180.0*
1,1,0.01500,-0.00750,0.00750*
1,1,0.01500,0.00750,0.00750*
1,1,0.01500,0.00750,-0.00750*
1,1,0.01500,-0.00750,-0.00750*
%
%ADD32ROUNDEDRECTD32*%
G04:AMPARAMS|DCode=33|XSize=30mil|YSize=40mil|CornerRadius=7.5mil|HoleSize=0mil|Usage=FLASHONLY|Rotation=270.000|XOffset=0mil|YOffset=0mil|HoleType=Round|Shape=RoundedRectangle|*
%AMROUNDEDRECTD33*
21,1,0.03000,0.02500,0,0,270.0*
21,1,0.01500,0.04000,0,0,270.0*
1,1,0.01500,-0.01250,-0.00750*
1,1,0.01500,-0.01250,0.00750*
1,1,0.01500,0.01250,0.00750*
1,1,0.01500,0.01250,-0.00750*
%
%ADD33ROUNDEDRECTD33*%
G04:AMPARAMS|DCode=34|XSize=30mil|YSize=30mil|CornerRadius=7.5mil|HoleSize=0mil|Usage=FLASHONLY|Rotation=270.000|XOffset=0mil|YOffset=0mil|HoleType=Round|Shape=RoundedRectangle|*
%AMROUNDEDRECTD34*
21,1,0.03000,0.01500,0,0,270.0*
21,1,0.01500,0.03000,0,0,270.0*
1,1,0.01500,-0.00750,-0.00750*
1,1,0.01500,-0.00750,0.00750*
1,1,0.01500,0.00750,0.00750*
1,1,0.01500,0.00750,-0.00750*
%
%ADD34ROUNDEDRECTD34*%
G04:AMPARAMS|DCode=35|XSize=39.37mil|YSize=70mil|CornerRadius=9.84mil|HoleSize=0mil|Usage=FLASHONLY|Rotation=270.000|XOffset=0mil|YOffset=0mil|HoleType=Round|Shape=RoundedRectangle|*
%AMROUNDEDRECTD35*
21,1,0.03937,0.05031,0,0,270.0*
21,1,0.01968,0.07000,0,0,270.0*
1,1,0.01968,-0.02516,-0.00984*
1,1,0.01968,-0.02516,0.00984*
1,1,0.01968,0.02516,0.00984*
1,1,0.01968,0.02516,-0.00984*
%
%ADD35ROUNDEDRECTD35*%
G04:AMPARAMS|DCode=36|XSize=106.3mil|YSize=110.24mil|CornerRadius=26.57mil|HoleSize=0mil|Usage=FLASHONLY|Rotation=0.000|XOffset=0mil|YOffset=0mil|HoleType=Round|Shape=RoundedRectangle|*
%AMROUNDEDRECTD36*
21,1,0.10630,0.05709,0,0,0.0*
21,1,0.05315,0.11024,0,0,0.0*
1,1,0.05315,0.02657,-0.02854*
1,1,0.05315,-0.02657,-0.02854*
1,1,0.05315,-0.02657,0.02854*
1,1,0.05315,0.02657,0.02854*
%
%ADD36ROUNDEDRECTD36*%
G04:AMPARAMS|DCode=37|XSize=11.81mil|YSize=23.62mil|CornerRadius=2.95mil|HoleSize=0mil|Usage=FLASHONLY|Rotation=90.000|XOffset=0mil|YOffset=0mil|HoleType=Round|Shape=RoundedRectangle|*
%AMROUNDEDRECTD37*
21,1,0.01181,0.01772,0,0,90.0*
21,1,0.00591,0.02362,0,0,90.0*
1,1,0.00591,0.00886,0.00295*
1,1,0.00591,0.00886,-0.00295*
1,1,0.00591,-0.00886,-0.00295*
1,1,0.00591,-0.00886,0.00295*
%
%ADD37ROUNDEDRECTD37*%
G04:AMPARAMS|DCode=38|XSize=11.81mil|YSize=23.62mil|CornerRadius=2.95mil|HoleSize=0mil|Usage=FLASHONLY|Rotation=180.000|XOffset=0mil|YOffset=0mil|HoleType=Round|Shape=RoundedRectangle|*
%AMROUNDEDRECTD38*
21,1,0.01181,0.01772,0,0,180.0*
21,1,0.00591,0.02362,0,0,180.0*
1,1,0.00591,-0.00295,0.00886*
1,1,0.00591,0.00295,0.00886*
1,1,0.00591,0.00295,-0.00886*
1,1,0.00591,-0.00295,-0.00886*
%
%ADD38ROUNDEDRECTD38*%
G04:AMPARAMS|DCode=39|XSize=50mil|YSize=10mil|CornerRadius=2.5mil|HoleSize=0mil|Usage=FLASHONLY|Rotation=0.000|XOffset=0mil|YOffset=0mil|HoleType=Round|Shape=RoundedRectangle|*
%AMROUNDEDRECTD39*
21,1,0.05000,0.00500,0,0,0.0*
21,1,0.04500,0.01000,0,0,0.0*
1,1,0.00500,0.02250,-0.00250*
1,1,0.00500,-0.02250,-0.00250*
1,1,0.00500,-0.02250,0.00250*
1,1,0.00500,0.02250,0.00250*
%
%ADD39ROUNDEDRECTD39*%
G04:AMPARAMS|DCode=40|XSize=86mil|YSize=72mil|CornerRadius=18mil|HoleSize=0mil|Usage=FLASHONLY|Rotation=180.000|XOffset=0mil|YOffset=0mil|HoleType=Round|Shape=RoundedRectangle|*
%AMROUNDEDRECTD40*
21,1,0.08600,0.03600,0,0,180.0*
21,1,0.05000,0.07200,0,0,180.0*
1,1,0.03600,-0.02500,0.01800*
1,1,0.03600,0.02500,0.01800*
1,1,0.03600,0.02500,-0.01800*
1,1,0.03600,-0.02500,-0.01800*
%
%ADD40ROUNDEDRECTD40*%
G04:AMPARAMS|DCode=41|XSize=70mil|YSize=72mil|CornerRadius=17.5mil|HoleSize=0mil|Usage=FLASHONLY|Rotation=180.000|XOffset=0mil|YOffset=0mil|HoleType=Round|Shape=RoundedRectangle|*
%AMROUNDEDRECTD41*
21,1,0.07000,0.03700,0,0,180.0*
21,1,0.03500,0.07200,0,0,180.0*
1,1,0.03500,-0.01750,0.01850*
1,1,0.03500,0.01750,0.01850*
1,1,0.03500,0.01750,-0.01850*
1,1,0.03500,-0.01750,-0.01850*
%
%ADD41ROUNDEDRECTD41*%
%ADD42R,0.08517X0.02400*%
G04:AMPARAMS|DCode=43|XSize=31.62mil|YSize=67.06mil|CornerRadius=9.91mil|HoleSize=0mil|Usage=FLASHONLY|Rotation=180.000|XOffset=0mil|YOffset=0mil|HoleType=Round|Shape=RoundedRectangle|*
%AMROUNDEDRECTD43*
21,1,0.03162,0.04724,0,0,180.0*
21,1,0.01181,0.06706,0,0,180.0*
1,1,0.01981,-0.00591,0.02362*
1,1,0.01981,0.00591,0.02362*
1,1,0.01981,0.00591,-0.02362*
1,1,0.01981,-0.00591,-0.02362*
%
%ADD43ROUNDEDRECTD43*%
G04:AMPARAMS|DCode=44|XSize=47.37mil|YSize=47.37mil|CornerRadius=13.84mil|HoleSize=0mil|Usage=FLASHONLY|Rotation=180.000|XOffset=0mil|YOffset=0mil|HoleType=Round|Shape=RoundedRectangle|*
%AMROUNDEDRECTD44*
21,1,0.04737,0.01968,0,0,180.0*
21,1,0.01968,0.04737,0,0,180.0*
1,1,0.02769,-0.00984,0.00984*
1,1,0.02769,0.00984,0.00984*
1,1,0.02769,0.00984,-0.00984*
1,1,0.02769,-0.00984,-0.00984*
%
%ADD44ROUNDEDRECTD44*%
%ADD45O,0.03150X0.11811*%
G36*
X16609Y127812D02*
X6067D01*
Y121392D01*
X3900D01*
Y130407D01*
X16609D01*
Y127812D01*
D02*
G37*
G36*
X9778Y115021D02*
X7315D01*
Y119849D01*
X9778D01*
Y115021D01*
D02*
G37*
G36*
X13194Y106368D02*
X11814D01*
X11831Y106351D01*
X11880Y106319D01*
X11962Y106237D01*
X12061Y106154D01*
X12176Y106023D01*
X12307Y105892D01*
X12455Y105711D01*
X12603Y105530D01*
X12750Y105317D01*
X12898Y105087D01*
X13029Y104841D01*
X13145Y104562D01*
X13243Y104282D01*
X13325Y103971D01*
X13374Y103658D01*
X13391Y103314D01*
Y103182D01*
X13374Y103018D01*
X13358Y102821D01*
X13325Y102591D01*
X13259Y102329D01*
X13194Y102082D01*
X13095Y101820D01*
X13079Y101787D01*
X13046Y101705D01*
X12980Y101590D01*
X12898Y101442D01*
X12783Y101278D01*
X12652Y101113D01*
X12504Y100949D01*
X12340Y100802D01*
X12324Y100785D01*
X12258Y100752D01*
X12159Y100687D01*
X12044Y100604D01*
X11880Y100539D01*
X11716Y100457D01*
X11519Y100391D01*
X11305Y100325D01*
X11273D01*
X11207Y100309D01*
X11075Y100276D01*
X10879Y100243D01*
X10649Y100227D01*
X10369Y100194D01*
X10041Y100178D01*
X9663D01*
X3900D01*
Y102640D01*
X8629D01*
X8645D01*
X8695D01*
X8777D01*
X8875D01*
X8990D01*
X9138D01*
X9433Y102657D01*
X9778Y102673D01*
X10090Y102706D01*
X10238Y102723D01*
X10369Y102755D01*
X10484Y102772D01*
X10583Y102805D01*
X10599D01*
X10649Y102838D01*
X10731Y102870D01*
X10829Y102936D01*
X10944Y103002D01*
X11059Y103100D01*
X11174Y103199D01*
X11273Y103330D01*
X11289Y103347D01*
X11305Y103396D01*
X11355Y103462D01*
X11404Y103560D01*
X11437Y103691D01*
X11486Y103823D01*
X11502Y103987D01*
X11519Y104168D01*
Y104282D01*
X11502Y104397D01*
X11470Y104545D01*
X11437Y104726D01*
X11371Y104923D01*
X11273Y105120D01*
X11158Y105317D01*
X11141Y105333D01*
X11092Y105399D01*
X11026Y105481D01*
X10911Y105596D01*
X10780Y105711D01*
X10632Y105826D01*
X10435Y105924D01*
X10238Y106007D01*
X10205D01*
X10123Y106039D01*
X10058Y106056D01*
X9975D01*
X9877Y106072D01*
X9762Y106089D01*
X9614Y106105D01*
X9466Y106122D01*
X9286Y106138D01*
X9089Y106154D01*
X8875Y106171D01*
X8645D01*
X8383Y106187D01*
X8104D01*
X3900D01*
Y108650D01*
X13194D01*
Y106368D01*
D02*
G37*
G36*
X16724Y95317D02*
X9910D01*
X13194Y92460D01*
Y89439D01*
X9795Y92608D01*
X3900Y89209D01*
Y91853D01*
X8071Y94184D01*
X6872Y95317D01*
X3900D01*
Y97780D01*
X16724D01*
Y95317D01*
D02*
G37*
D21*
X4000Y24900D02*
D03*
X19600D02*
D03*
D22*
X164900Y47000D02*
D03*
D23*
X83900D02*
D03*
D24*
X21000Y33900D02*
D03*
X17000D02*
D03*
X31100Y4700D02*
D03*
X27100D02*
D03*
X31100Y8700D02*
D03*
X27100D02*
D03*
X59300Y80900D02*
D03*
X55300D02*
D03*
X55550Y56400D02*
D03*
X59550D02*
D03*
X25100Y109800D02*
D03*
X29100D02*
D03*
X25100Y124200D02*
D03*
X29100D02*
D03*
X18500Y112400D02*
D03*
X14500D02*
D03*
X55300Y85000D02*
D03*
X59300D02*
D03*
X55300Y76800D02*
D03*
X59300D02*
D03*
X55550Y52720D02*
D03*
X59550D02*
D03*
X55550Y49040D02*
D03*
X59550D02*
D03*
X55550Y45360D02*
D03*
X59550D02*
D03*
X55550Y41680D02*
D03*
X59550D02*
D03*
X55550Y38000D02*
D03*
X59550D02*
D03*
D25*
X48206Y8700D02*
D03*
X38394Y4960D02*
D03*
Y12440D02*
D03*
D26*
X18434Y5100D02*
D03*
X10166D02*
D03*
D27*
X3900Y7800D02*
D03*
Y3800D02*
D03*
X4000Y15600D02*
D03*
Y11600D02*
D03*
X28900Y120800D02*
D03*
Y116800D02*
D03*
X25300Y120800D02*
D03*
Y116800D02*
D03*
D28*
X10300Y16400D02*
D03*
Y13800D02*
D03*
Y11200D02*
D03*
X18500D02*
D03*
Y13800D02*
D03*
Y16400D02*
D03*
D29*
X39900Y18600D02*
D03*
X45900D02*
D03*
D30*
X29400Y25128D02*
D03*
Y16072D02*
D03*
D31*
X36100Y25400D02*
D03*
D32*
X50100D02*
D03*
D33*
X16300Y69500D02*
D03*
Y51000D02*
D03*
Y65000D02*
D03*
D34*
Y83500D02*
D03*
D35*
X5100Y63726D02*
D03*
Y55852D02*
D03*
Y71600D02*
D03*
Y79474D02*
D03*
D36*
X44400Y116700D02*
D03*
D37*
X34400Y109700D02*
D03*
Y111700D02*
D03*
Y113700D02*
D03*
Y115700D02*
D03*
Y117700D02*
D03*
Y119700D02*
D03*
Y123700D02*
D03*
Y121700D02*
D03*
X54300Y123700D02*
D03*
Y121700D02*
D03*
Y119700D02*
D03*
Y117700D02*
D03*
Y115700D02*
D03*
Y113700D02*
D03*
Y109700D02*
D03*
Y111700D02*
D03*
D38*
X51400Y106700D02*
D03*
X49400D02*
D03*
X47400D02*
D03*
X45400D02*
D03*
X43400D02*
D03*
X41400D02*
D03*
X37400D02*
D03*
X39400D02*
D03*
X51400Y126700D02*
D03*
X49400D02*
D03*
X47400D02*
D03*
X45400D02*
D03*
X43400D02*
D03*
X41400D02*
D03*
X37400D02*
D03*
X39400D02*
D03*
D39*
X49198Y43862D02*
D03*
Y45831D02*
D03*
Y47799D02*
D03*
Y49768D02*
D03*
Y51736D02*
D03*
Y53705D02*
D03*
Y55673D02*
D03*
Y57642D02*
D03*
Y59610D02*
D03*
Y61579D02*
D03*
Y63547D02*
D03*
Y65516D02*
D03*
Y67484D02*
D03*
Y69453D02*
D03*
Y71421D02*
D03*
Y73390D02*
D03*
Y75358D02*
D03*
Y77327D02*
D03*
Y79295D02*
D03*
Y81264D02*
D03*
Y83232D02*
D03*
Y85201D02*
D03*
Y87169D02*
D03*
Y89138D02*
D03*
D40*
X36800Y36000D02*
D03*
D41*
Y97000D02*
D03*
D42*
X8158Y112400D02*
D03*
D43*
X95800Y102500D02*
D03*
X89894D02*
D03*
X107611D02*
D03*
X101706D02*
D03*
X83989D02*
D03*
X78083D02*
D03*
D44*
X114111Y117642D02*
D03*
X71583D02*
D03*
D45*
X104300Y55000D02*
D03*
X129100D02*
D03*
Y76800D02*
D03*
X104300D02*
D03*
M02*
