G04*
G04 #@! TF.GenerationSoftware,Altium Limited,Altium Designer,20.0.13 (296)*
G04*
G04 Layer_Color=65535*
%FSLAX25Y25*%
%MOIN*%
G70*
G01*
G75*
%ADD10C,0.00800*%
%ADD11C,0.00600*%
%ADD12C,0.00700*%
%ADD13C,0.00060*%
%ADD14C,0.00100*%
%ADD15C,0.01000*%
%ADD16C,0.01500*%
%ADD17C,0.00787*%
%ADD18C,0.00500*%
G36*
X2950Y5150D02*
Y6450D01*
X3300D01*
Y5150D01*
X2950D01*
D02*
G37*
G36*
X4850Y6450D02*
Y5150D01*
X4500Y5150D01*
Y6450D01*
X4850Y6450D01*
D02*
G37*
G36*
X29750Y3750D02*
X28450D01*
X28450Y4100D01*
X29750D01*
X29750Y3750D01*
D02*
G37*
G36*
X28450Y5650D02*
X29750D01*
Y5300D01*
X28450D01*
Y5650D01*
D02*
G37*
G36*
X29750Y7750D02*
X28450D01*
X28450Y8100D01*
X29750D01*
X29750Y7750D01*
D02*
G37*
G36*
X3050Y12950D02*
Y14250D01*
X3400D01*
Y12950D01*
X3050D01*
D02*
G37*
G36*
X4950Y14250D02*
Y12950D01*
X4600Y12950D01*
Y14250D01*
X4950Y14250D01*
D02*
G37*
G36*
X18350Y34800D02*
X18700D01*
Y33000D01*
X18350D01*
Y34800D01*
D02*
G37*
G36*
X28450Y9650D02*
X29750D01*
Y9300D01*
X28450D01*
Y9650D01*
D02*
G37*
G36*
X19650Y33000D02*
X19300D01*
Y34800D01*
X19650D01*
Y33000D01*
D02*
G37*
G36*
X58200Y48140D02*
X57850D01*
Y49940D01*
X58200D01*
Y48140D01*
D02*
G37*
G36*
X57250D02*
X56900D01*
Y49940D01*
X57250D01*
Y48140D01*
D02*
G37*
G36*
X58200Y44460D02*
X57850D01*
Y46260D01*
X58200D01*
Y44460D01*
D02*
G37*
G36*
X57250D02*
X56900D01*
Y46260D01*
X57250D01*
Y44460D01*
D02*
G37*
G36*
X58200Y40780D02*
X57850D01*
Y42580D01*
X58200D01*
Y40780D01*
D02*
G37*
G36*
X57250D02*
X56900D01*
Y42580D01*
X57250D01*
Y40780D01*
D02*
G37*
G36*
X58200Y37100D02*
X57850D01*
Y38900D01*
X58200D01*
Y37100D01*
D02*
G37*
G36*
X57250D02*
X56900D01*
Y38900D01*
X57250D01*
Y37100D01*
D02*
G37*
G36*
X47800Y22300D02*
X45800D01*
Y28500D01*
X47800D01*
Y22300D01*
D02*
G37*
G36*
X43850Y17100D02*
X43350D01*
Y20100D01*
X43850D01*
Y17100D01*
D02*
G37*
G36*
X42450D02*
X41950D01*
X41950Y20100D01*
X42450D01*
Y17100D01*
D02*
G37*
G36*
X27750Y124800D02*
X26450D01*
X26450Y125150D01*
X27750D01*
X27750Y124800D01*
D02*
G37*
G36*
X27750Y123250D02*
X26450D01*
Y123600D01*
X27750D01*
Y123250D01*
D02*
G37*
G36*
X26200Y119100D02*
X24400D01*
Y119450D01*
X26200D01*
Y119100D01*
D02*
G37*
G36*
X29850Y118150D02*
X29500Y118150D01*
Y119450D01*
X29850Y119450D01*
Y118150D01*
D02*
G37*
G36*
X28300D02*
X27950D01*
Y119450D01*
X28300D01*
Y118150D01*
D02*
G37*
G36*
X26200D02*
X24400D01*
Y118500D01*
X26200D01*
Y118150D01*
D02*
G37*
G36*
X17050Y111350D02*
X16650D01*
Y112150D01*
X15950D01*
Y112650D01*
X16650D01*
Y113450D01*
X17050D01*
Y111350D01*
D02*
G37*
G36*
X27750Y110400D02*
X26450D01*
X26450Y110750D01*
X27750D01*
X27750Y110400D01*
D02*
G37*
G36*
X27750Y108850D02*
X26450D01*
Y109200D01*
X27750D01*
Y108850D01*
D02*
G37*
G36*
X57950Y84100D02*
X57600D01*
Y85900D01*
X57950D01*
Y84100D01*
D02*
G37*
G36*
X57000D02*
X56650D01*
Y85900D01*
X57000D01*
Y84100D01*
D02*
G37*
G36*
X57950Y81500D02*
X56650D01*
Y81850D01*
X57950D01*
Y81500D01*
D02*
G37*
G36*
Y79950D02*
X56650D01*
X56650Y80300D01*
X57950D01*
X57950Y79950D01*
D02*
G37*
G36*
X19400Y79200D02*
X13200D01*
Y81200D01*
X19400D01*
Y79200D01*
D02*
G37*
G36*
X57950Y75900D02*
X57600D01*
Y77700D01*
X57950D01*
Y75900D01*
D02*
G37*
G36*
X57000D02*
X56650D01*
Y77700D01*
X57000D01*
Y75900D01*
D02*
G37*
G36*
X19400Y60700D02*
X13200D01*
Y62700D01*
X19400D01*
Y60700D01*
D02*
G37*
G36*
X58200Y55500D02*
X57850D01*
Y57300D01*
X58200D01*
Y55500D01*
D02*
G37*
G36*
X57250D02*
X56900D01*
Y57300D01*
X57250D01*
Y55500D01*
D02*
G37*
G36*
X58200Y51820D02*
X57850D01*
Y53620D01*
X58200D01*
Y51820D01*
D02*
G37*
G36*
X57250D02*
X56900D01*
Y53620D01*
X57250D01*
Y51820D01*
D02*
G37*
G36*
X144786Y112185D02*
X144855Y112180D01*
X144930Y112174D01*
X145095Y112148D01*
X145106D01*
X145133Y112143D01*
X145175Y112132D01*
X145229Y112116D01*
X145292Y112095D01*
X145362Y112073D01*
X145500Y112015D01*
X145404Y111535D01*
X145399D01*
X145388Y111546D01*
X145372Y111551D01*
X145346Y111567D01*
X145292Y111594D01*
X145223Y111626D01*
X145218D01*
X145207Y111631D01*
X145191Y111642D01*
X145170Y111652D01*
X145111Y111673D01*
X145042Y111695D01*
X145037D01*
X145026Y111700D01*
X145005Y111706D01*
X144983Y111711D01*
X144914Y111727D01*
X144839Y111743D01*
X144834D01*
X144823Y111748D01*
X144802D01*
X144775Y111753D01*
X144738D01*
X144701Y111759D01*
X144568D01*
X144514Y111753D01*
X144450Y111748D01*
X144370Y111738D01*
X144285Y111722D01*
X144200Y111700D01*
X144114Y111673D01*
X144104Y111668D01*
X144077Y111658D01*
X144035Y111636D01*
X143987Y111615D01*
X143923Y111578D01*
X143859Y111540D01*
X143789Y111492D01*
X143725Y111439D01*
X143720Y111434D01*
X143699Y111412D01*
X143667Y111386D01*
X143624Y111343D01*
X143576Y111295D01*
X143528Y111237D01*
X143475Y111172D01*
X143427Y111103D01*
X143422Y111093D01*
X143406Y111071D01*
X143384Y111034D01*
X143358Y110986D01*
X143326Y110922D01*
X143288Y110858D01*
X143256Y110783D01*
X143224Y110704D01*
X143219Y110693D01*
X143214Y110666D01*
X143198Y110624D01*
X143182Y110570D01*
X143160Y110506D01*
X143139Y110432D01*
X143123Y110352D01*
X143107Y110272D01*
Y110261D01*
X143102Y110234D01*
X143096Y110192D01*
X143091Y110138D01*
X143080Y110074D01*
X143075Y110000D01*
X143070Y109851D01*
Y109840D01*
Y109813D01*
X143075Y109776D01*
Y109728D01*
X143080Y109669D01*
X143091Y109606D01*
X143118Y109478D01*
X143123Y109472D01*
X143128Y109451D01*
X143139Y109419D01*
X143160Y109382D01*
X143208Y109296D01*
X143278Y109206D01*
X143283Y109200D01*
X143299Y109190D01*
X143320Y109168D01*
X143352Y109147D01*
X143395Y109121D01*
X143443Y109094D01*
X143496Y109067D01*
X143555Y109040D01*
X143560D01*
X143587Y109030D01*
X143619Y109025D01*
X143672Y109014D01*
X143731Y109003D01*
X143800Y108993D01*
X143875Y108987D01*
X143960Y108982D01*
X144035D01*
X144077Y108987D01*
X144088D01*
X144120Y108993D01*
X144157D01*
X144205Y108998D01*
X144216D01*
X144248Y109003D01*
X144290Y109014D01*
X144333Y109019D01*
X144338D01*
X144344Y109025D01*
X144370Y109030D01*
X144408Y109040D01*
X144445Y109051D01*
X144669Y110176D01*
X143955D01*
X144029Y110575D01*
X145229D01*
X144866Y108769D01*
X144855Y108763D01*
X144823Y108753D01*
X144775Y108731D01*
X144711Y108710D01*
X144637Y108683D01*
X144552Y108657D01*
X144456Y108630D01*
X144360Y108609D01*
X144349D01*
X144317Y108598D01*
X144264Y108593D01*
X144200Y108582D01*
X144125Y108572D01*
X144040Y108566D01*
X143864Y108555D01*
X143811D01*
X143757Y108561D01*
X143683Y108566D01*
X143597Y108572D01*
X143507Y108588D01*
X143411Y108603D01*
X143315Y108630D01*
X143304Y108635D01*
X143278Y108646D01*
X143230Y108662D01*
X143176Y108689D01*
X143112Y108721D01*
X143043Y108763D01*
X142974Y108811D01*
X142910Y108865D01*
X142905Y108870D01*
X142883Y108891D01*
X142851Y108929D01*
X142814Y108976D01*
X142777Y109035D01*
X142734Y109099D01*
X142691Y109179D01*
X142654Y109264D01*
Y109270D01*
X142649Y109275D01*
X142643Y109307D01*
X142627Y109355D01*
X142611Y109424D01*
X142595Y109504D01*
X142585Y109600D01*
X142574Y109707D01*
X142569Y109824D01*
Y109829D01*
Y109835D01*
Y109851D01*
Y109872D01*
X142574Y109931D01*
Y110000D01*
X142579Y110085D01*
X142590Y110187D01*
X142606Y110288D01*
X142622Y110394D01*
Y110400D01*
X142627Y110405D01*
Y110421D01*
X142633Y110442D01*
X142649Y110501D01*
X142665Y110570D01*
X142691Y110655D01*
X142723Y110746D01*
X142755Y110847D01*
X142798Y110943D01*
Y110949D01*
X142803Y110954D01*
X142819Y110986D01*
X142846Y111039D01*
X142883Y111103D01*
X142926Y111178D01*
X142974Y111258D01*
X143027Y111343D01*
X143091Y111428D01*
Y111434D01*
X143102Y111439D01*
X143123Y111466D01*
X143160Y111508D01*
X143208Y111562D01*
X143267Y111626D01*
X143336Y111689D01*
X143411Y111759D01*
X143496Y111823D01*
X143501D01*
X143507Y111828D01*
X143539Y111849D01*
X143581Y111881D01*
X143646Y111919D01*
X143725Y111961D01*
X143811Y112009D01*
X143907Y112052D01*
X144013Y112089D01*
X144019D01*
X144024Y112095D01*
X144040Y112100D01*
X144061Y112105D01*
X144093Y112111D01*
X144120Y112121D01*
X144200Y112143D01*
X144296Y112159D01*
X144402Y112174D01*
X144520Y112185D01*
X144642Y112190D01*
X144727D01*
X144786Y112185D01*
D02*
G37*
G36*
X168654Y110416D02*
X169464Y108604D01*
X168872D01*
X168281Y109963D01*
X167151Y108604D01*
X166533D01*
X168073Y110437D01*
X167337Y112143D01*
X167886D01*
X168446Y110879D01*
X169507Y112143D01*
X170088D01*
X168654Y110416D01*
D02*
G37*
G36*
X157034Y108604D02*
X156555D01*
X156880Y110229D01*
X155393D01*
X155068Y108604D01*
X154588D01*
X155297Y112143D01*
X155777D01*
X155478Y110645D01*
X156960D01*
X157264Y112143D01*
X157743D01*
X157034Y108604D01*
D02*
G37*
G36*
X150937D02*
X150457D01*
X150782Y110229D01*
X149295Y110229D01*
X148970Y108603D01*
X148490D01*
X149199Y112143D01*
X149679D01*
X149381Y110645D01*
X150862Y110645D01*
X151166Y112143D01*
X151646D01*
X150937Y108604D01*
D02*
G37*
G36*
X171553Y109867D02*
X171298Y108604D01*
X170812D01*
X171068Y109877D01*
X170242Y112143D01*
X170802D01*
X171244Y110847D01*
X171399Y110325D01*
X171729Y110799D01*
X172710Y112143D01*
X173291D01*
X171553Y109867D01*
D02*
G37*
G36*
X141759Y108603D02*
X141156D01*
X140570Y110810D01*
X140405Y111519D01*
X140053Y109733D01*
X139824Y108603D01*
X139376D01*
X140090Y112143D01*
X140687D01*
X141247Y110048D01*
X141439Y109238D01*
X141812Y111135D01*
X142020Y112143D01*
X142467D01*
X141759Y108603D01*
D02*
G37*
G36*
X129537D02*
X128919D01*
X128732Y109861D01*
X128695Y110266D01*
X128476Y109829D01*
X127831Y108603D01*
X127218D01*
X127682Y112143D01*
X128130D01*
X127789Y109739D01*
X127693Y109072D01*
X127975Y109632D01*
X128663Y110949D01*
X128999D01*
X129207Y109536D01*
X129281Y109072D01*
X129393Y109557D01*
X130043Y112143D01*
X130486D01*
X129537Y108603D01*
D02*
G37*
G36*
X126488D02*
X125870D01*
X125683Y109861D01*
X125646Y110266D01*
X125427Y109829D01*
X124783Y108603D01*
X124170D01*
X124633Y112143D01*
X125081D01*
X124740Y109739D01*
X124644Y109072D01*
X124926Y109632D01*
X125614Y110949D01*
X125950D01*
X126158Y109536D01*
X126232Y109072D01*
X126344Y109557D01*
X126995Y112143D01*
X127437D01*
X126488Y108603D01*
D02*
G37*
G36*
X123439D02*
X122821D01*
X122635Y109861D01*
X122597Y110266D01*
X122379Y109829D01*
X121734Y108603D01*
X121121D01*
X121585Y112143D01*
X122032D01*
X121691Y109739D01*
X121595Y109072D01*
X121878Y109632D01*
X122565Y110949D01*
X122901D01*
X123109Y109536D01*
X123184Y109072D01*
X123295Y109557D01*
X123946Y112143D01*
X124388D01*
X123439Y108603D01*
D02*
G37*
G36*
X160339Y109835D02*
Y109829D01*
Y109824D01*
X160334Y109808D01*
X160328Y109787D01*
X160312Y109728D01*
X160296Y109659D01*
X160270Y109573D01*
X160238Y109488D01*
X160200Y109392D01*
X160158Y109302D01*
X160152Y109291D01*
X160136Y109264D01*
X160110Y109216D01*
X160073Y109163D01*
X160030Y109099D01*
X159977Y109035D01*
X159918Y108966D01*
X159849Y108902D01*
X159838Y108897D01*
X159817Y108875D01*
X159779Y108843D01*
X159726Y108806D01*
X159662Y108769D01*
X159588Y108726D01*
X159508Y108683D01*
X159417Y108646D01*
X159406Y108641D01*
X159374Y108630D01*
X159326Y108619D01*
X159257Y108604D01*
X159177Y108582D01*
X159087Y108572D01*
X158985Y108561D01*
X158873Y108555D01*
X158820D01*
X158756Y108561D01*
X158681Y108566D01*
X158596Y108577D01*
X158500Y108593D01*
X158410Y108614D01*
X158324Y108641D01*
X158314Y108646D01*
X158287Y108657D01*
X158250Y108678D01*
X158202Y108705D01*
X158143Y108737D01*
X158090Y108779D01*
X158031Y108827D01*
X157983Y108881D01*
X157978Y108886D01*
X157967Y108907D01*
X157946Y108945D01*
X157919Y108987D01*
X157898Y109046D01*
X157871Y109110D01*
X157855Y109184D01*
X157839Y109264D01*
Y109275D01*
X157834Y109302D01*
Y109350D01*
Y109408D01*
Y109483D01*
X157839Y109568D01*
X157850Y109659D01*
X157866Y109760D01*
X158346Y112143D01*
X158825D01*
X158351Y109797D01*
Y109787D01*
X158346Y109760D01*
X158340Y109723D01*
X158330Y109675D01*
X158324Y109616D01*
X158319Y109552D01*
X158314Y109430D01*
Y109424D01*
Y109403D01*
X158319Y109376D01*
X158324Y109339D01*
X158346Y109254D01*
X158362Y109211D01*
X158383Y109168D01*
X158388Y109163D01*
X158394Y109152D01*
X158410Y109131D01*
X158436Y109110D01*
X158463Y109089D01*
X158495Y109062D01*
X158537Y109035D01*
X158580Y109014D01*
X158585D01*
X158607Y109003D01*
X158633Y108998D01*
X158671Y108987D01*
X158719Y108977D01*
X158777Y108971D01*
X158841Y108961D01*
X158953D01*
X158980Y108966D01*
X159012D01*
X159049Y108971D01*
X159140Y108987D01*
X159241Y109014D01*
X159342Y109051D01*
X159444Y109105D01*
X159539Y109179D01*
X159545Y109184D01*
X159550Y109190D01*
X159577Y109222D01*
X159619Y109270D01*
X159667Y109339D01*
X159721Y109430D01*
X159769Y109536D01*
X159817Y109659D01*
X159849Y109803D01*
X160323Y112143D01*
X160803D01*
X160339Y109835D01*
D02*
G37*
G36*
X175924Y111764D02*
X173589Y109051D01*
X175418D01*
X175327Y108604D01*
X172880D01*
X172950Y108961D01*
X175306Y111706D01*
X173552D01*
X173637Y112143D01*
X176004D01*
X175924Y111764D01*
D02*
G37*
G36*
X163596Y111738D02*
X162780D01*
X162236Y109014D01*
X163057D01*
X162972Y108604D01*
X160856D01*
X160936Y109014D01*
X161751D01*
X162295Y111738D01*
X161480D01*
X161560Y112143D01*
X163681D01*
X163596Y111738D01*
D02*
G37*
G36*
X154449D02*
X153634D01*
X153090Y109014D01*
X153911D01*
X153826Y108604D01*
X151710D01*
X151790Y109014D01*
X152605D01*
X153149Y111738D01*
X152333D01*
X152413Y112143D01*
X154535D01*
X154449Y111738D01*
D02*
G37*
G36*
X148485Y111764D02*
X146151Y109051D01*
X147979D01*
X147888Y108603D01*
X145442D01*
X145511Y108961D01*
X147867Y111706D01*
X146113D01*
X146198Y112143D01*
X148565D01*
X148485Y111764D01*
D02*
G37*
G36*
X139179Y111738D02*
X137649D01*
X137431Y110640D01*
X138896D01*
X138816Y110234D01*
X137345D01*
X137106Y109014D01*
X138635D01*
X138550Y108603D01*
X136541D01*
X137250Y112143D01*
X139264D01*
X139179Y111738D01*
D02*
G37*
G36*
X135197Y112137D02*
X135267Y112132D01*
X135341Y112121D01*
X135501Y112089D01*
X135512D01*
X135538Y112079D01*
X135576Y112068D01*
X135629Y112052D01*
X135682Y112031D01*
X135746Y112004D01*
X135810Y111972D01*
X135869Y111935D01*
X135874Y111929D01*
X135896Y111913D01*
X135922Y111892D01*
X135960Y111860D01*
X136002Y111823D01*
X136045Y111775D01*
X136082Y111722D01*
X136119Y111663D01*
X136125Y111658D01*
X136135Y111636D01*
X136146Y111599D01*
X136168Y111551D01*
X136183Y111492D01*
X136194Y111428D01*
X136205Y111354D01*
X136210Y111268D01*
Y111263D01*
Y111242D01*
Y111205D01*
X136205Y111162D01*
X136199Y111109D01*
X136189Y111055D01*
X136162Y110927D01*
Y110922D01*
X136152Y110901D01*
X136141Y110869D01*
X136125Y110826D01*
X136109Y110778D01*
X136082Y110725D01*
X136024Y110608D01*
X136018Y110602D01*
X136008Y110581D01*
X135986Y110549D01*
X135960Y110512D01*
X135928Y110469D01*
X135890Y110421D01*
X135842Y110368D01*
X135794Y110314D01*
X135789Y110309D01*
X135768Y110293D01*
X135741Y110266D01*
X135704Y110234D01*
X135656Y110197D01*
X135602Y110160D01*
X135538Y110117D01*
X135475Y110080D01*
X135464Y110074D01*
X135443Y110064D01*
X135405Y110048D01*
X135357Y110027D01*
X135293Y110000D01*
X135224Y109973D01*
X135149Y109947D01*
X135064Y109925D01*
X135054D01*
X135027Y109915D01*
X134979Y109909D01*
X134920Y109899D01*
X134846Y109888D01*
X134766Y109883D01*
X134670Y109872D01*
X134110D01*
X133854Y108603D01*
X133375D01*
X134083Y112143D01*
X135139D01*
X135197Y112137D01*
D02*
G37*
G36*
X165088Y109451D02*
X165147Y109440D01*
X165205Y109419D01*
X165211D01*
X165221Y109414D01*
X165253Y109392D01*
X165296Y109360D01*
X165344Y109323D01*
X165349D01*
X165355Y109312D01*
X165376Y109286D01*
X165408Y109238D01*
X165435Y109184D01*
Y109179D01*
X165440Y109168D01*
X165445Y109152D01*
X165451Y109136D01*
X165461Y109083D01*
X165466Y109019D01*
Y109014D01*
Y109003D01*
Y108982D01*
X165461Y108961D01*
X165451Y108902D01*
X165424Y108838D01*
Y108833D01*
X165419Y108822D01*
X165408Y108806D01*
X165397Y108790D01*
X165365Y108737D01*
X165323Y108689D01*
X165317D01*
X165312Y108678D01*
X165280Y108651D01*
X165232Y108619D01*
X165173Y108593D01*
X165168D01*
X165157Y108588D01*
X165141Y108582D01*
X165120Y108577D01*
X165061Y108561D01*
X164997Y108555D01*
X164965D01*
X164939Y108561D01*
X164885Y108572D01*
X164822Y108593D01*
X164816D01*
X164811Y108598D01*
X164779Y108614D01*
X164736Y108646D01*
X164688Y108683D01*
Y108689D01*
X164678Y108694D01*
X164656Y108721D01*
X164624Y108763D01*
X164598Y108817D01*
Y108822D01*
X164592Y108833D01*
X164587Y108849D01*
X164582Y108870D01*
X164571Y108918D01*
X164566Y108982D01*
Y108987D01*
Y108998D01*
Y109019D01*
X164571Y109046D01*
X164582Y109105D01*
X164603Y109168D01*
Y109174D01*
X164608Y109184D01*
X164619Y109200D01*
X164630Y109222D01*
X164662Y109270D01*
X164704Y109318D01*
X164710Y109323D01*
X164715Y109328D01*
X164747Y109355D01*
X164795Y109387D01*
X164854Y109419D01*
X164859D01*
X164869Y109424D01*
X164885Y109430D01*
X164907Y109440D01*
X164965Y109451D01*
X165029Y109456D01*
X165067D01*
X165088Y109451D01*
D02*
G37*
G36*
X131552Y109451D02*
X131610Y109440D01*
X131669Y109419D01*
X131674D01*
X131685Y109414D01*
X131717Y109392D01*
X131760Y109360D01*
X131807Y109323D01*
X131813D01*
X131818Y109312D01*
X131840Y109286D01*
X131871Y109238D01*
X131898Y109184D01*
Y109179D01*
X131904Y109168D01*
X131909Y109152D01*
X131914Y109136D01*
X131925Y109083D01*
X131930Y109019D01*
Y109014D01*
Y109003D01*
Y108982D01*
X131925Y108961D01*
X131914Y108902D01*
X131887Y108838D01*
Y108833D01*
X131882Y108822D01*
X131871Y108806D01*
X131861Y108790D01*
X131829Y108737D01*
X131786Y108689D01*
X131781D01*
X131775Y108678D01*
X131744Y108651D01*
X131696Y108619D01*
X131637Y108593D01*
X131632D01*
X131621Y108588D01*
X131605Y108582D01*
X131584Y108577D01*
X131525Y108561D01*
X131461Y108555D01*
X131429D01*
X131402Y108561D01*
X131349Y108572D01*
X131285Y108593D01*
X131280D01*
X131274Y108598D01*
X131243Y108614D01*
X131200Y108646D01*
X131152Y108683D01*
Y108689D01*
X131141Y108694D01*
X131120Y108721D01*
X131088Y108763D01*
X131061Y108817D01*
Y108822D01*
X131056Y108833D01*
X131051Y108849D01*
X131045Y108870D01*
X131035Y108918D01*
X131029Y108982D01*
Y108987D01*
Y108998D01*
Y109019D01*
X131035Y109046D01*
X131045Y109105D01*
X131067Y109168D01*
Y109174D01*
X131072Y109184D01*
X131083Y109200D01*
X131093Y109222D01*
X131125Y109270D01*
X131168Y109318D01*
X131173Y109323D01*
X131179Y109328D01*
X131211Y109355D01*
X131258Y109387D01*
X131317Y109419D01*
X131323D01*
X131333Y109424D01*
X131349Y109430D01*
X131370Y109440D01*
X131429Y109451D01*
X131493Y109456D01*
X131530D01*
X131552Y109451D01*
D02*
G37*
G36*
X143485Y104261D02*
X143011D01*
X143384Y106462D01*
X143523Y107309D01*
X143256Y106819D01*
X142457Y105412D01*
X142121D01*
X141892Y106766D01*
X141839Y107309D01*
X141647Y106430D01*
X141156Y104261D01*
X140703D01*
X141583Y107800D01*
X142132D01*
X142340Y106462D01*
X142398Y106009D01*
X142643Y106462D01*
X143411Y107800D01*
X144024D01*
X143485Y104261D01*
D02*
G37*
G36*
X167673Y104261D02*
X167071D01*
X166484Y106467D01*
X166319Y107176D01*
X165968Y105391D01*
X165738Y104261D01*
X165291D01*
X166005Y107800D01*
X166602D01*
X167161Y105705D01*
X167353Y104895D01*
X167726Y106792D01*
X167934Y107800D01*
X168382D01*
X167673Y104261D01*
D02*
G37*
G36*
X155451D02*
X154833D01*
X154647Y105518D01*
X154609Y105923D01*
X154391Y105487D01*
X153746Y104261D01*
X153133D01*
X153597Y107800D01*
X154044D01*
X153703Y105396D01*
X153607Y104730D01*
X153890Y105289D01*
X154577Y106606D01*
X154913D01*
X155121Y105193D01*
X155196Y104730D01*
X155307Y105215D01*
X155958Y107800D01*
X156400D01*
X155451Y104261D01*
D02*
G37*
G36*
X137159Y104261D02*
X136541D01*
X136354Y105518D01*
X136317Y105923D01*
X136098Y105487D01*
X135453Y104261D01*
X134840D01*
X135304Y107800D01*
X135752D01*
X135411Y105396D01*
X135315Y104730D01*
X135597Y105289D01*
X136285Y106606D01*
X136620D01*
X136828Y105193D01*
X136903Y104730D01*
X137015Y105215D01*
X137665Y107800D01*
X138108D01*
X137159Y104261D01*
D02*
G37*
G36*
X134110D02*
X133492D01*
X133305Y105518D01*
X133268Y105923D01*
X133049Y105487D01*
X132404Y104261D01*
X131791D01*
X132255Y107800D01*
X132703D01*
X132362Y105396D01*
X132266Y104730D01*
X132548Y105289D01*
X133236Y106606D01*
X133572D01*
X133780Y105193D01*
X133854Y104730D01*
X133966Y105215D01*
X134616Y107800D01*
X135059D01*
X134110Y104261D01*
D02*
G37*
G36*
X131061D02*
X130443D01*
X130256Y105518D01*
X130219Y105923D01*
X130001Y105487D01*
X129356Y104261D01*
X128743D01*
X129207Y107800D01*
X129654D01*
X129313Y105396D01*
X129217Y104730D01*
X129500Y105289D01*
X130187Y106606D01*
X130523D01*
X130731Y105193D01*
X130806Y104730D01*
X130917Y105215D01*
X131568Y107800D01*
X132010D01*
X131061Y104261D01*
D02*
G37*
G36*
X164912Y105492D02*
Y105487D01*
Y105481D01*
X164907Y105465D01*
X164901Y105444D01*
X164885Y105385D01*
X164869Y105316D01*
X164843Y105231D01*
X164811Y105145D01*
X164774Y105049D01*
X164731Y104959D01*
X164726Y104948D01*
X164710Y104921D01*
X164683Y104874D01*
X164646Y104820D01*
X164603Y104756D01*
X164550Y104692D01*
X164491Y104623D01*
X164422Y104559D01*
X164411Y104554D01*
X164390Y104532D01*
X164353Y104500D01*
X164299Y104463D01*
X164235Y104426D01*
X164161Y104383D01*
X164081Y104341D01*
X163990Y104303D01*
X163979Y104298D01*
X163947Y104287D01*
X163900Y104277D01*
X163830Y104261D01*
X163750Y104239D01*
X163660Y104229D01*
X163558Y104218D01*
X163446Y104213D01*
X163393D01*
X163329Y104218D01*
X163254Y104223D01*
X163169Y104234D01*
X163073Y104250D01*
X162983Y104271D01*
X162897Y104298D01*
X162887Y104303D01*
X162860Y104314D01*
X162823Y104335D01*
X162775Y104362D01*
X162716Y104394D01*
X162663Y104437D01*
X162604Y104484D01*
X162556Y104538D01*
X162551Y104543D01*
X162540Y104564D01*
X162519Y104602D01*
X162492Y104644D01*
X162471Y104703D01*
X162444Y104767D01*
X162428Y104842D01*
X162412Y104921D01*
Y104932D01*
X162407Y104959D01*
Y105007D01*
Y105065D01*
Y105140D01*
X162412Y105225D01*
X162423Y105316D01*
X162439Y105417D01*
X162919Y107800D01*
X163398D01*
X162924Y105455D01*
Y105444D01*
X162919Y105417D01*
X162913Y105380D01*
X162903Y105332D01*
X162897Y105273D01*
X162892Y105209D01*
X162887Y105087D01*
Y105081D01*
Y105060D01*
X162892Y105033D01*
X162897Y104996D01*
X162919Y104911D01*
X162935Y104868D01*
X162956Y104826D01*
X162961Y104820D01*
X162967Y104810D01*
X162983Y104788D01*
X163009Y104767D01*
X163036Y104746D01*
X163068Y104719D01*
X163111Y104692D01*
X163153Y104671D01*
X163159D01*
X163180Y104660D01*
X163207Y104655D01*
X163244Y104644D01*
X163292Y104634D01*
X163350Y104628D01*
X163414Y104618D01*
X163526D01*
X163553Y104623D01*
X163585D01*
X163622Y104628D01*
X163713Y104644D01*
X163814Y104671D01*
X163915Y104708D01*
X164017Y104762D01*
X164113Y104836D01*
X164118Y104842D01*
X164123Y104847D01*
X164150Y104879D01*
X164193Y104927D01*
X164241Y104996D01*
X164294Y105087D01*
X164342Y105193D01*
X164390Y105316D01*
X164422Y105460D01*
X164896Y107800D01*
X165376D01*
X164912Y105492D01*
D02*
G37*
G36*
X162039Y107389D02*
X160531D01*
X160302Y106243D01*
X161730D01*
X161650Y105838D01*
X160222D01*
X159907Y104261D01*
X159417D01*
X160126Y107800D01*
X162125D01*
X162039Y107389D01*
D02*
G37*
G36*
X149690Y104261D02*
X149178D01*
X149087Y105033D01*
X147611D01*
X147206Y104261D01*
X146694D01*
X148576Y107800D01*
X149237D01*
X149690Y104261D01*
D02*
G37*
G36*
X146827Y107395D02*
X146012D01*
X145468Y104671D01*
X146289D01*
X146204Y104261D01*
X144088D01*
X144168Y104671D01*
X144983D01*
X145527Y107395D01*
X144711D01*
X144791Y107800D01*
X146913D01*
X146827Y107395D01*
D02*
G37*
G36*
X157466Y105108D02*
X157525Y105097D01*
X157583Y105076D01*
X157589D01*
X157599Y105071D01*
X157631Y105049D01*
X157674Y105017D01*
X157722Y104980D01*
X157727D01*
X157733Y104970D01*
X157754Y104943D01*
X157786Y104895D01*
X157813Y104842D01*
Y104836D01*
X157818Y104826D01*
X157823Y104810D01*
X157829Y104794D01*
X157839Y104740D01*
X157845Y104676D01*
Y104671D01*
Y104660D01*
Y104639D01*
X157839Y104618D01*
X157829Y104559D01*
X157802Y104495D01*
Y104490D01*
X157797Y104479D01*
X157786Y104463D01*
X157775Y104447D01*
X157743Y104394D01*
X157701Y104346D01*
X157695D01*
X157690Y104335D01*
X157658Y104308D01*
X157610Y104277D01*
X157551Y104250D01*
X157546D01*
X157535Y104245D01*
X157519Y104239D01*
X157498Y104234D01*
X157439Y104218D01*
X157376Y104213D01*
X157344D01*
X157317Y104218D01*
X157264Y104229D01*
X157200Y104250D01*
X157194D01*
X157189Y104255D01*
X157157Y104271D01*
X157114Y104303D01*
X157066Y104341D01*
Y104346D01*
X157056Y104351D01*
X157034Y104378D01*
X157002Y104420D01*
X156976Y104474D01*
Y104479D01*
X156971Y104490D01*
X156965Y104506D01*
X156960Y104527D01*
X156949Y104575D01*
X156944Y104639D01*
Y104644D01*
Y104655D01*
Y104676D01*
X156949Y104703D01*
X156960Y104762D01*
X156981Y104826D01*
Y104831D01*
X156986Y104842D01*
X156997Y104858D01*
X157008Y104879D01*
X157040Y104927D01*
X157082Y104975D01*
X157088Y104980D01*
X157093Y104985D01*
X157125Y105012D01*
X157173Y105044D01*
X157232Y105076D01*
X157237D01*
X157248Y105081D01*
X157264Y105087D01*
X157285Y105097D01*
X157344Y105108D01*
X157407Y105113D01*
X157445D01*
X157466Y105108D01*
D02*
G37*
G36*
X152040Y107842D02*
X152083Y107837D01*
X152136Y107832D01*
X152189Y107821D01*
X152253Y107810D01*
X152387Y107773D01*
X152451Y107746D01*
X152520Y107714D01*
X152584Y107677D01*
X152648Y107640D01*
X152706Y107587D01*
X152760Y107533D01*
X152765Y107528D01*
X152770Y107517D01*
X152786Y107501D01*
X152802Y107475D01*
X152824Y107443D01*
X152845Y107405D01*
X152872Y107357D01*
X152898Y107309D01*
X152920Y107251D01*
X152946Y107181D01*
X152968Y107112D01*
X152989Y107032D01*
X153005Y106947D01*
X153021Y106856D01*
X153026Y106760D01*
X153032Y106654D01*
Y106648D01*
Y106643D01*
Y106627D01*
Y106606D01*
Y106553D01*
X153026Y106483D01*
X153021Y106398D01*
X153010Y106302D01*
X152994Y106201D01*
X152978Y106094D01*
Y106089D01*
Y106083D01*
X152973Y106068D01*
X152968Y106046D01*
X152957Y105988D01*
X152941Y105918D01*
X152920Y105833D01*
X152893Y105737D01*
X152866Y105636D01*
X152829Y105534D01*
Y105529D01*
X152824Y105524D01*
X152818Y105508D01*
X152813Y105487D01*
X152792Y105433D01*
X152765Y105369D01*
X152728Y105289D01*
X152685Y105204D01*
X152637Y105108D01*
X152584Y105017D01*
X152578Y105007D01*
X152557Y104975D01*
X152525Y104932D01*
X152488Y104874D01*
X152435Y104810D01*
X152376Y104740D01*
X152312Y104666D01*
X152237Y104596D01*
X152227Y104591D01*
X152205Y104570D01*
X152163Y104538D01*
X152110Y104495D01*
X152040Y104453D01*
X151966Y104404D01*
X151880Y104357D01*
X151790Y104314D01*
X151784D01*
X151779Y104308D01*
X151747Y104298D01*
X151694Y104282D01*
X151625Y104266D01*
X151544Y104245D01*
X151449Y104229D01*
X151347Y104218D01*
X151235Y104213D01*
X151182D01*
X151145Y104218D01*
X151102Y104223D01*
X151049Y104229D01*
X150996Y104239D01*
X150932Y104250D01*
X150804Y104287D01*
X150734Y104314D01*
X150665Y104346D01*
X150601Y104378D01*
X150537Y104420D01*
X150478Y104469D01*
X150425Y104522D01*
X150420Y104527D01*
X150415Y104538D01*
X150399Y104554D01*
X150383Y104580D01*
X150361Y104612D01*
X150340Y104650D01*
X150319Y104698D01*
X150292Y104746D01*
X150265Y104804D01*
X150244Y104874D01*
X150223Y104943D01*
X150201Y105023D01*
X150185Y105108D01*
X150169Y105199D01*
X150164Y105300D01*
X150159Y105401D01*
Y105406D01*
Y105412D01*
Y105428D01*
Y105449D01*
X150164Y105502D01*
Y105572D01*
X150169Y105657D01*
X150180Y105753D01*
X150191Y105854D01*
X150207Y105961D01*
Y105966D01*
Y105972D01*
X150212Y105988D01*
X150217Y106009D01*
X150228Y106068D01*
X150244Y106137D01*
X150265Y106222D01*
X150287Y106318D01*
X150319Y106419D01*
X150351Y106520D01*
Y106526D01*
X150356Y106531D01*
X150361Y106547D01*
X150367Y106569D01*
X150393Y106622D01*
X150420Y106686D01*
X150457Y106766D01*
X150500Y106851D01*
X150548Y106942D01*
X150601Y107032D01*
Y107037D01*
X150606Y107043D01*
X150628Y107075D01*
X150660Y107117D01*
X150702Y107176D01*
X150750Y107240D01*
X150809Y107309D01*
X150878Y107384D01*
X150948Y107453D01*
X150958Y107464D01*
X150985Y107485D01*
X151022Y107517D01*
X151075Y107560D01*
X151145Y107603D01*
X151219Y107650D01*
X151305Y107698D01*
X151395Y107741D01*
X151401D01*
X151406Y107746D01*
X151438Y107757D01*
X151491Y107773D01*
X151560Y107794D01*
X151640Y107816D01*
X151736Y107832D01*
X151838Y107842D01*
X151950Y107848D01*
X152003D01*
X152040Y107842D01*
D02*
G37*
G36*
X139174Y105108D02*
X139232Y105097D01*
X139291Y105076D01*
X139296D01*
X139307Y105071D01*
X139339Y105049D01*
X139381Y105017D01*
X139429Y104980D01*
X139435D01*
X139440Y104970D01*
X139461Y104943D01*
X139493Y104895D01*
X139520Y104841D01*
Y104836D01*
X139525Y104825D01*
X139531Y104810D01*
X139536Y104794D01*
X139547Y104740D01*
X139552Y104676D01*
Y104671D01*
Y104660D01*
Y104639D01*
X139547Y104618D01*
X139536Y104559D01*
X139509Y104495D01*
Y104490D01*
X139504Y104479D01*
X139493Y104463D01*
X139483Y104447D01*
X139451Y104394D01*
X139408Y104346D01*
X139403D01*
X139397Y104335D01*
X139365Y104308D01*
X139318Y104277D01*
X139259Y104250D01*
X139253D01*
X139243Y104245D01*
X139227Y104239D01*
X139206Y104234D01*
X139147Y104218D01*
X139083Y104213D01*
X139051D01*
X139024Y104218D01*
X138971Y104229D01*
X138907Y104250D01*
X138902D01*
X138896Y104255D01*
X138864Y104271D01*
X138822Y104303D01*
X138774Y104341D01*
Y104346D01*
X138763Y104351D01*
X138742Y104378D01*
X138710Y104420D01*
X138683Y104474D01*
Y104479D01*
X138678Y104490D01*
X138673Y104506D01*
X138667Y104527D01*
X138657Y104575D01*
X138651Y104639D01*
Y104644D01*
Y104655D01*
Y104676D01*
X138657Y104703D01*
X138667Y104762D01*
X138689Y104825D01*
Y104831D01*
X138694Y104841D01*
X138705Y104858D01*
X138715Y104879D01*
X138747Y104927D01*
X138790Y104975D01*
X138795Y104980D01*
X138801Y104985D01*
X138832Y105012D01*
X138880Y105044D01*
X138939Y105076D01*
X138944D01*
X138955Y105081D01*
X138971Y105087D01*
X138992Y105097D01*
X139051Y105108D01*
X139115Y105113D01*
X139152D01*
X139174Y105108D01*
D02*
G37*
G36*
X134868Y124459D02*
X134967Y124440D01*
X135075Y124400D01*
X135085D01*
X135104Y124390D01*
X135163Y124361D01*
X135242Y124302D01*
X135331Y124223D01*
X135341D01*
X135351Y124203D01*
X135390Y124154D01*
X135449Y124065D01*
X135498Y123967D01*
Y123957D01*
X135508Y123947D01*
X135518Y123918D01*
X135538Y123878D01*
X135557Y123780D01*
X135567Y123662D01*
Y123652D01*
Y123632D01*
Y123602D01*
X135557Y123563D01*
X135538Y123455D01*
X135498Y123346D01*
Y123337D01*
X135488Y123327D01*
X135459Y123268D01*
X135400Y123189D01*
X135331Y123100D01*
X135311Y123080D01*
X135262Y123041D01*
X135173Y122982D01*
X135075Y122933D01*
X135065D01*
X135055Y122923D01*
X135026Y122913D01*
X134986Y122903D01*
X134888Y122883D01*
X134769Y122874D01*
X134710D01*
X134661Y122883D01*
X134563Y122903D01*
X134444Y122933D01*
X134434D01*
X134425Y122943D01*
X134366Y122972D01*
X134287Y123031D01*
X134198Y123100D01*
Y123110D01*
X134178Y123120D01*
X134139Y123169D01*
X134080Y123248D01*
X134031Y123346D01*
Y123356D01*
X134021Y123376D01*
X134011Y123406D01*
X134001Y123445D01*
X133981Y123543D01*
X133972Y123662D01*
Y123671D01*
Y123691D01*
Y123721D01*
X133981Y123760D01*
X134001Y123859D01*
X134031Y123967D01*
Y123977D01*
X134041Y123996D01*
X134070Y124056D01*
X134129Y124134D01*
X134198Y124223D01*
X134208Y124233D01*
X134218Y124243D01*
X134267Y124292D01*
X134346Y124351D01*
X134444Y124400D01*
X134454D01*
X134474Y124410D01*
X134503Y124420D01*
X134543Y124440D01*
X134641Y124459D01*
X134769Y124469D01*
X134828D01*
X134868Y124459D01*
D02*
G37*
G36*
X158114Y123819D02*
X158262Y123809D01*
X158331D01*
X158380Y123800D01*
X158508Y123790D01*
X158646Y123770D01*
X158675D01*
X158715Y123760D01*
X158764Y123750D01*
X158892Y123731D01*
X159030Y123701D01*
X159040D01*
X159069Y123691D01*
X159109Y123681D01*
X159158Y123671D01*
X159217Y123662D01*
X159286Y123642D01*
X159444Y123593D01*
Y122371D01*
X159424Y122381D01*
X159375Y122401D01*
X159286Y122440D01*
X159178Y122480D01*
X159050Y122529D01*
X158912Y122578D01*
X158774Y122617D01*
X158626Y122657D01*
X158606D01*
X158557Y122667D01*
X158488Y122687D01*
X158400Y122706D01*
X158291Y122716D01*
X158173Y122736D01*
X157927Y122746D01*
X157848D01*
X157759Y122736D01*
X157651Y122726D01*
X157533Y122706D01*
X157395Y122667D01*
X157257Y122627D01*
X157129Y122568D01*
X157119Y122558D01*
X157080Y122539D01*
X157011Y122499D01*
X156942Y122450D01*
X156853Y122381D01*
X156764Y122302D01*
X156676Y122204D01*
X156587Y122096D01*
X156577Y122086D01*
X156558Y122046D01*
X156518Y121977D01*
X156469Y121898D01*
X156420Y121790D01*
X156370Y121672D01*
X156321Y121534D01*
X156282Y121376D01*
Y121357D01*
X156262Y121308D01*
X156252Y121219D01*
X156233Y121110D01*
X156213Y120973D01*
X156203Y120815D01*
X156183Y120648D01*
Y120460D01*
Y120450D01*
Y120441D01*
Y120411D01*
Y120372D01*
X156193Y120273D01*
Y120145D01*
X156203Y119997D01*
X156223Y119830D01*
X156252Y119672D01*
X156282Y119505D01*
X156292Y119485D01*
X156301Y119436D01*
X156321Y119357D01*
X156361Y119259D01*
X156400Y119150D01*
X156459Y119032D01*
X156518Y118914D01*
X156597Y118806D01*
X156607Y118796D01*
X156636Y118756D01*
X156686Y118707D01*
X156745Y118648D01*
X156824Y118569D01*
X156922Y118500D01*
X157030Y118431D01*
X157149Y118362D01*
X157168Y118352D01*
X157208Y118343D01*
X157277Y118313D01*
X157375Y118293D01*
X157493Y118264D01*
X157631Y118234D01*
X157779Y118224D01*
X157947Y118215D01*
X158055D01*
X158163Y118224D01*
X158301Y118244D01*
X158311D01*
X158331Y118254D01*
X158370D01*
X158429Y118264D01*
X158547Y118293D01*
X158695Y118323D01*
X158705D01*
X158725Y118333D01*
X158764Y118343D01*
X158813Y118362D01*
X158941Y118402D01*
X159079Y118451D01*
X159089D01*
X159109Y118461D01*
X159148Y118481D01*
X159197Y118500D01*
X159316Y118550D01*
X159444Y118609D01*
Y117456D01*
X159424Y117446D01*
X159365Y117427D01*
X159286Y117397D01*
X159168Y117358D01*
X159040Y117318D01*
X158902Y117269D01*
X158597Y117200D01*
X158577D01*
X158528Y117190D01*
X158449Y117171D01*
X158341Y117161D01*
X158212Y117141D01*
X158065Y117121D01*
X157917Y117111D01*
X157631D01*
X157572Y117121D01*
X157493D01*
X157326Y117141D01*
X157129Y117161D01*
X156922Y117200D01*
X156705Y117249D01*
X156499Y117318D01*
X156489D01*
X156479Y117328D01*
X156449Y117338D01*
X156410Y117358D01*
X156311Y117407D01*
X156183Y117476D01*
X156036Y117555D01*
X155888Y117663D01*
X155730Y117791D01*
X155582Y117929D01*
X155563Y117949D01*
X155523Y118008D01*
X155454Y118096D01*
X155376Y118215D01*
X155287Y118362D01*
X155189Y118530D01*
X155100Y118727D01*
X155021Y118944D01*
Y118953D01*
X155011Y118973D01*
X155001Y119003D01*
X154991Y119052D01*
X154982Y119111D01*
X154962Y119180D01*
X154942Y119259D01*
X154932Y119347D01*
X154893Y119554D01*
X154863Y119800D01*
X154844Y120066D01*
X154834Y120362D01*
Y120372D01*
Y120401D01*
Y120441D01*
Y120500D01*
X154844Y120569D01*
Y120657D01*
X154854Y120756D01*
X154863Y120854D01*
X154883Y121081D01*
X154923Y121327D01*
X154972Y121583D01*
X155041Y121829D01*
Y121839D01*
X155051Y121859D01*
X155060Y121889D01*
X155080Y121938D01*
X155100Y121987D01*
X155129Y122056D01*
X155189Y122204D01*
X155277Y122371D01*
X155376Y122558D01*
X155494Y122736D01*
X155632Y122913D01*
Y122923D01*
X155651Y122933D01*
X155701Y122982D01*
X155789Y123071D01*
X155898Y123169D01*
X156036Y123277D01*
X156203Y123386D01*
X156380Y123494D01*
X156587Y123593D01*
X156597D01*
X156617Y123602D01*
X156646Y123612D01*
X156686Y123632D01*
X156735Y123652D01*
X156804Y123671D01*
X156952Y123711D01*
X157139Y123750D01*
X157355Y123790D01*
X157582Y123819D01*
X157838Y123829D01*
X157976D01*
X158114Y123819D01*
D02*
G37*
G36*
X176277Y117200D02*
X175214D01*
X175184Y117949D01*
X175174Y117939D01*
X175154Y117919D01*
X175125Y117880D01*
X175085Y117830D01*
X174977Y117712D01*
X174849Y117584D01*
X174839Y117574D01*
X174820Y117555D01*
X174790Y117525D01*
X174741Y117496D01*
X174623Y117397D01*
X174485Y117308D01*
X174475D01*
X174455Y117289D01*
X174416Y117269D01*
X174366Y117249D01*
X174297Y117220D01*
X174229Y117190D01*
X174071Y117141D01*
X174061D01*
X174031Y117131D01*
X173992Y117121D01*
X173933Y117111D01*
X173854Y117102D01*
X173775Y117092D01*
X173578Y117082D01*
X173500D01*
X173421Y117092D01*
X173312Y117102D01*
X173184Y117121D01*
X173047Y117161D01*
X172909Y117200D01*
X172771Y117259D01*
X172751Y117269D01*
X172712Y117289D01*
X172652Y117338D01*
X172574Y117387D01*
X172475Y117466D01*
X172377Y117555D01*
X172278Y117653D01*
X172190Y117771D01*
X172180Y117791D01*
X172150Y117830D01*
X172111Y117899D01*
X172052Y117998D01*
X171993Y118116D01*
X171933Y118254D01*
X171874Y118412D01*
X171825Y118579D01*
Y118589D01*
Y118599D01*
X171815Y118628D01*
X171805Y118658D01*
X171786Y118756D01*
X171766Y118894D01*
X171746Y119042D01*
X171727Y119229D01*
X171717Y119426D01*
X171707Y119643D01*
Y119653D01*
Y119672D01*
Y119712D01*
Y119761D01*
X171717Y119820D01*
Y119889D01*
X171737Y120056D01*
X171756Y120244D01*
X171786Y120450D01*
X171835Y120657D01*
X171904Y120854D01*
Y120864D01*
X171914Y120874D01*
X171924Y120904D01*
X171943Y120943D01*
X171983Y121032D01*
X172042Y121150D01*
X172121Y121288D01*
X172219Y121426D01*
X172327Y121573D01*
X172446Y121702D01*
X172465Y121721D01*
X172505Y121761D01*
X172584Y121820D01*
X172682Y121889D01*
X172800Y121967D01*
X172948Y122056D01*
X173106Y122135D01*
X173273Y122204D01*
X173283D01*
X173293Y122214D01*
X173322Y122223D01*
X173362Y122233D01*
X173460Y122253D01*
X173588Y122292D01*
X173746Y122322D01*
X173923Y122342D01*
X174120Y122361D01*
X174327Y122371D01*
X174445D01*
X174563Y122361D01*
X174701Y122342D01*
X174731D01*
X174770Y122332D01*
X174820Y122322D01*
X174938Y122302D01*
X175056Y122273D01*
Y124272D01*
X176277D01*
Y117200D01*
D02*
G37*
G36*
X169441Y122381D02*
X169530Y122371D01*
X169638Y122361D01*
X169757Y122332D01*
X169865Y122302D01*
X169983Y122253D01*
X169993Y122243D01*
X170032Y122233D01*
X170092Y122194D01*
X170160Y122155D01*
X170229Y122105D01*
X170318Y122036D01*
X170397Y121958D01*
X170476Y121859D01*
X170485Y121849D01*
X170505Y121810D01*
X170545Y121761D01*
X170594Y121682D01*
X170643Y121583D01*
X170692Y121475D01*
X170742Y121347D01*
X170781Y121209D01*
Y121189D01*
X170801Y121140D01*
X170811Y121061D01*
X170830Y120953D01*
X170850Y120815D01*
X170860Y120657D01*
X170870Y120490D01*
Y120303D01*
X169648D01*
Y120313D01*
Y120352D01*
Y120401D01*
Y120470D01*
X169638Y120618D01*
X169619Y120776D01*
Y120785D01*
X169609Y120815D01*
X169599Y120844D01*
X169589Y120894D01*
X169550Y121002D01*
X169491Y121110D01*
Y121120D01*
X169481Y121130D01*
X169441Y121179D01*
X169372Y121248D01*
X169294Y121298D01*
X169284D01*
X169274Y121308D01*
X169215Y121337D01*
X169126Y121357D01*
X169018Y121367D01*
X168969D01*
X168919Y121357D01*
X168851Y121337D01*
X168762Y121308D01*
X168673Y121268D01*
X168565Y121219D01*
X168456Y121140D01*
X168447Y121130D01*
X168407Y121101D01*
X168348Y121042D01*
X168269Y120963D01*
X168181Y120864D01*
X168072Y120736D01*
X167964Y120588D01*
X167836Y120411D01*
Y117200D01*
X166585D01*
Y122283D01*
X167688D01*
X167727Y121534D01*
X167737Y121544D01*
X167747Y121564D01*
X167777Y121603D01*
X167816Y121652D01*
X167905Y121761D01*
X168013Y121879D01*
X168023Y121889D01*
X168043Y121908D01*
X168072Y121938D01*
X168112Y121967D01*
X168230Y122056D01*
X168358Y122145D01*
X168368Y122155D01*
X168397Y122164D01*
X168437Y122184D01*
X168486Y122214D01*
X168555Y122243D01*
X168624Y122273D01*
X168791Y122322D01*
X168801D01*
X168831Y122332D01*
X168880Y122342D01*
X168949Y122361D01*
X169018Y122371D01*
X169106Y122381D01*
X169304Y122391D01*
X169372D01*
X169441Y122381D01*
D02*
G37*
G36*
X141044Y122381D02*
X141142Y122371D01*
X141241Y122361D01*
X141359Y122342D01*
X141477Y122302D01*
X141586Y122263D01*
X141595Y122253D01*
X141635Y122243D01*
X141694Y122214D01*
X141763Y122174D01*
X141832Y122115D01*
X141921Y122056D01*
X141999Y121987D01*
X142078Y121898D01*
X142088Y121889D01*
X142108Y121859D01*
X142147Y121810D01*
X142186Y121741D01*
X142236Y121662D01*
X142285Y121564D01*
X142334Y121455D01*
X142374Y121337D01*
Y121327D01*
X142393Y121278D01*
X142403Y121209D01*
X142423Y121120D01*
X142443Y121012D01*
X142452Y120894D01*
X142472Y120756D01*
Y120608D01*
Y117200D01*
X141251D01*
Y120510D01*
Y120519D01*
Y120549D01*
Y120588D01*
X141241Y120638D01*
X141221Y120775D01*
X141172Y120933D01*
X141093Y121081D01*
X141044Y121150D01*
X140985Y121219D01*
X140916Y121268D01*
X140827Y121307D01*
X140729Y121337D01*
X140620Y121347D01*
X140571D01*
X140512Y121337D01*
X140433Y121317D01*
X140345Y121288D01*
X140246Y121239D01*
X140138Y121179D01*
X140029Y121091D01*
X140020Y121081D01*
X139980Y121042D01*
X139921Y120992D01*
X139852Y120913D01*
X139763Y120815D01*
X139665Y120697D01*
X139557Y120569D01*
X139438Y120411D01*
Y117200D01*
X138217D01*
Y122283D01*
X139271D01*
X139301Y121524D01*
X139310Y121534D01*
X139330Y121554D01*
X139359Y121593D01*
X139399Y121642D01*
X139507Y121760D01*
X139626Y121879D01*
X139635Y121889D01*
X139655Y121908D01*
X139685Y121938D01*
X139734Y121977D01*
X139842Y122066D01*
X139980Y122154D01*
X139990Y122164D01*
X140020Y122174D01*
X140059Y122194D01*
X140108Y122214D01*
X140167Y122243D01*
X140246Y122273D01*
X140404Y122322D01*
X140413D01*
X140443Y122332D01*
X140492Y122342D01*
X140551Y122361D01*
X140630Y122371D01*
X140709Y122381D01*
X140906Y122391D01*
X140975D01*
X141044Y122381D01*
D02*
G37*
G36*
X130623Y119377D02*
X127510D01*
Y120460D01*
X130623D01*
Y119377D01*
D02*
G37*
G36*
X163019Y122381D02*
X163157D01*
X163305Y122361D01*
X163462Y122342D01*
X163630Y122322D01*
X163788Y122283D01*
X163807D01*
X163856Y122263D01*
X163935Y122233D01*
X164024Y122204D01*
X164132Y122155D01*
X164241Y122096D01*
X164359Y122036D01*
X164457Y121958D01*
X164467Y121948D01*
X164497Y121918D01*
X164546Y121869D01*
X164605Y121810D01*
X164674Y121731D01*
X164733Y121642D01*
X164802Y121534D01*
X164851Y121416D01*
X164861Y121406D01*
X164871Y121357D01*
X164891Y121298D01*
X164920Y121209D01*
X164940Y121091D01*
X164960Y120963D01*
X164970Y120825D01*
X164979Y120667D01*
Y117200D01*
X163926D01*
X163896Y117860D01*
X163886Y117850D01*
X163866Y117830D01*
X163837Y117801D01*
X163797Y117762D01*
X163689Y117653D01*
X163561Y117545D01*
X163551Y117535D01*
X163531Y117525D01*
X163492Y117496D01*
X163443Y117466D01*
X163325Y117387D01*
X163177Y117298D01*
X163167D01*
X163137Y117279D01*
X163098Y117269D01*
X163039Y117239D01*
X162970Y117220D01*
X162891Y117190D01*
X162714Y117141D01*
X162704D01*
X162674Y117131D01*
X162625Y117121D01*
X162556Y117111D01*
X162478Y117102D01*
X162389Y117092D01*
X162182Y117082D01*
X162113D01*
X162044Y117092D01*
X161946Y117102D01*
X161837Y117111D01*
X161729Y117131D01*
X161611Y117161D01*
X161493Y117200D01*
X161483Y117210D01*
X161443Y117220D01*
X161384Y117249D01*
X161315Y117279D01*
X161158Y117377D01*
X160990Y117505D01*
X160980Y117515D01*
X160961Y117545D01*
X160921Y117584D01*
X160882Y117643D01*
X160833Y117712D01*
X160783Y117801D01*
X160734Y117899D01*
X160695Y117998D01*
Y118008D01*
X160675Y118047D01*
X160665Y118106D01*
X160645Y118195D01*
X160626Y118283D01*
X160616Y118402D01*
X160596Y118520D01*
Y118648D01*
Y118668D01*
Y118707D01*
X160606Y118776D01*
X160616Y118865D01*
X160635Y118963D01*
X160655Y119071D01*
X160695Y119190D01*
X160744Y119308D01*
X160754Y119318D01*
X160774Y119357D01*
X160803Y119416D01*
X160862Y119485D01*
X160921Y119574D01*
X161000Y119653D01*
X161099Y119741D01*
X161207Y119830D01*
X161217Y119840D01*
X161266Y119869D01*
X161335Y119909D01*
X161424Y119958D01*
X161532Y120017D01*
X161670Y120076D01*
X161818Y120135D01*
X161985Y120185D01*
X161995D01*
X162005Y120194D01*
X162034D01*
X162074Y120204D01*
X162172Y120224D01*
X162300Y120254D01*
X162458Y120273D01*
X162655Y120293D01*
X162862Y120303D01*
X163088Y120313D01*
X163758D01*
Y120618D01*
Y120628D01*
Y120648D01*
Y120687D01*
X163748Y120736D01*
X163738Y120854D01*
X163699Y120973D01*
Y120982D01*
X163689Y121002D01*
X163669Y121032D01*
X163650Y121061D01*
X163591Y121150D01*
X163512Y121239D01*
X163502Y121248D01*
X163492Y121258D01*
X163462Y121278D01*
X163433Y121298D01*
X163325Y121357D01*
X163197Y121406D01*
X163187D01*
X163167Y121416D01*
X163118Y121426D01*
X163068Y121445D01*
X162999Y121455D01*
X162921Y121465D01*
X162822Y121475D01*
X162645D01*
X162556Y121465D01*
X162438D01*
X162310Y121445D01*
X162152Y121426D01*
X161995Y121406D01*
X161827Y121367D01*
X161808D01*
X161758Y121347D01*
X161670Y121327D01*
X161561Y121288D01*
X161433Y121248D01*
X161295Y121199D01*
X160990Y121081D01*
Y122056D01*
X161010Y122066D01*
X161059Y122076D01*
X161128Y122105D01*
X161236Y122135D01*
X161355Y122174D01*
X161502Y122214D01*
X161660Y122253D01*
X161827Y122292D01*
X161847D01*
X161877Y122302D01*
X161916Y122312D01*
X162005Y122322D01*
X162133Y122342D01*
X162280Y122361D01*
X162448Y122371D01*
X162635Y122391D01*
X162921D01*
X163019Y122381D01*
D02*
G37*
G36*
X145122Y120125D02*
X146895Y122283D01*
X148412D01*
X146363Y119958D01*
X148589Y117200D01*
X146993D01*
X145122Y119741D01*
Y117200D01*
X143900D01*
Y124272D01*
X145122D01*
Y120125D01*
D02*
G37*
G36*
X135469Y118146D02*
X136936D01*
Y117200D01*
X132612D01*
Y118146D01*
X134218D01*
Y121337D01*
X132780D01*
Y122283D01*
X135469D01*
Y118146D01*
D02*
G37*
G36*
X122851Y118254D02*
X125609D01*
Y117200D01*
X121600D01*
Y123740D01*
X122851D01*
Y118254D01*
D02*
G37*
%LPC*%
G36*
X134995Y111738D02*
X134483D01*
X134190Y110277D01*
X134696D01*
X134744Y110282D01*
X134803Y110288D01*
X134867Y110293D01*
X134931Y110304D01*
X134995Y110320D01*
X135000D01*
X135021Y110330D01*
X135054Y110336D01*
X135091Y110352D01*
X135139Y110368D01*
X135181Y110389D01*
X135277Y110437D01*
X135283Y110442D01*
X135299Y110453D01*
X135320Y110464D01*
X135347Y110485D01*
X135416Y110538D01*
X135480Y110608D01*
X135485Y110613D01*
X135496Y110624D01*
X135512Y110645D01*
X135528Y110671D01*
X135571Y110735D01*
X135613Y110810D01*
Y110815D01*
X135624Y110826D01*
X135629Y110847D01*
X135640Y110879D01*
X135661Y110943D01*
X135682Y111023D01*
Y111029D01*
X135688Y111039D01*
Y111061D01*
X135693Y111087D01*
X135698Y111156D01*
X135704Y111226D01*
Y111231D01*
Y111237D01*
Y111268D01*
X135693Y111311D01*
X135682Y111364D01*
X135661Y111428D01*
X135629Y111487D01*
X135581Y111551D01*
X135522Y111604D01*
X135512Y111610D01*
X135491Y111626D01*
X135448Y111647D01*
X135389Y111673D01*
X135315Y111695D01*
X135224Y111716D01*
X135117Y111732D01*
X134995Y111738D01*
D02*
G37*
G36*
X148816Y107357D02*
X147829Y105465D01*
X149034D01*
X148816Y107357D01*
D02*
G37*
G36*
X151960Y107427D02*
X151859D01*
X151816Y107421D01*
X151763Y107416D01*
X151704Y107400D01*
X151635Y107384D01*
X151566Y107357D01*
X151497Y107325D01*
X151491Y107320D01*
X151465Y107309D01*
X151433Y107283D01*
X151390Y107256D01*
X151342Y107213D01*
X151289Y107171D01*
X151235Y107117D01*
X151182Y107059D01*
X151177Y107053D01*
X151161Y107032D01*
X151134Y106995D01*
X151102Y106952D01*
X151065Y106899D01*
X151022Y106835D01*
X150979Y106766D01*
X150942Y106686D01*
X150937Y106675D01*
X150926Y106648D01*
X150910Y106606D01*
X150884Y106553D01*
X150862Y106489D01*
X150830Y106414D01*
X150804Y106339D01*
X150777Y106254D01*
Y106243D01*
X150766Y106217D01*
X150756Y106174D01*
X150740Y106121D01*
X150724Y106052D01*
X150708Y105982D01*
X150681Y105822D01*
Y105812D01*
X150676Y105785D01*
X150670Y105748D01*
Y105694D01*
X150665Y105636D01*
X150660Y105566D01*
X150654Y105433D01*
Y105428D01*
Y105401D01*
Y105369D01*
X150660Y105327D01*
Y105273D01*
X150670Y105220D01*
X150686Y105103D01*
Y105097D01*
X150692Y105076D01*
X150702Y105049D01*
X150713Y105017D01*
X150750Y104932D01*
X150798Y104847D01*
X150804Y104842D01*
X150814Y104831D01*
X150830Y104810D01*
X150852Y104788D01*
X150884Y104762D01*
X150916Y104735D01*
X151001Y104687D01*
X151006D01*
X151022Y104676D01*
X151049Y104671D01*
X151086Y104660D01*
X151129Y104650D01*
X151177Y104644D01*
X151230Y104634D01*
X151331D01*
X151374Y104639D01*
X151427Y104644D01*
X151486Y104655D01*
X151555Y104676D01*
X151619Y104698D01*
X151688Y104730D01*
X151699Y104735D01*
X151720Y104746D01*
X151752Y104772D01*
X151795Y104799D01*
X151848Y104836D01*
X151902Y104884D01*
X151955Y104932D01*
X152008Y104991D01*
X152014Y104996D01*
X152030Y105017D01*
X152056Y105055D01*
X152088Y105097D01*
X152126Y105156D01*
X152168Y105220D01*
X152205Y105289D01*
X152243Y105364D01*
X152248Y105375D01*
X152259Y105401D01*
X152280Y105444D01*
X152301Y105497D01*
X152328Y105561D01*
X152355Y105636D01*
X152381Y105716D01*
X152408Y105796D01*
X152413Y105806D01*
X152419Y105833D01*
X152429Y105876D01*
X152445Y105934D01*
X152461Y105998D01*
X152483Y106073D01*
X152509Y106227D01*
Y106238D01*
X152515Y106265D01*
X152520Y106307D01*
X152525Y106361D01*
X152531Y106419D01*
X152536Y106483D01*
X152541Y106616D01*
Y106627D01*
Y106648D01*
Y106686D01*
X152536Y106728D01*
X152531Y106782D01*
X152525Y106835D01*
X152504Y106952D01*
Y106958D01*
X152499Y106979D01*
X152488Y107006D01*
X152477Y107037D01*
X152440Y107123D01*
X152387Y107203D01*
X152381Y107208D01*
X152371Y107219D01*
X152355Y107240D01*
X152333Y107261D01*
X152301Y107288D01*
X152269Y107320D01*
X152184Y107368D01*
X152179Y107373D01*
X152163Y107379D01*
X152136Y107389D01*
X152104Y107400D01*
X152061Y107411D01*
X152014Y107416D01*
X151960Y107427D01*
D02*
G37*
G36*
X174268Y121406D02*
X174219D01*
X174160Y121396D01*
X174091Y121386D01*
X174012Y121376D01*
X173923Y121357D01*
X173825Y121317D01*
X173736Y121278D01*
X173726Y121268D01*
X173697Y121258D01*
X173657Y121229D01*
X173598Y121189D01*
X173529Y121140D01*
X173470Y121081D01*
X173401Y121012D01*
X173332Y120933D01*
X173322Y120923D01*
X173303Y120894D01*
X173273Y120844D01*
X173234Y120785D01*
X173194Y120707D01*
X173155Y120618D01*
X173116Y120519D01*
X173076Y120401D01*
Y120391D01*
X173066Y120342D01*
X173047Y120283D01*
X173037Y120194D01*
X173017Y120086D01*
X172997Y119968D01*
X172987Y119840D01*
Y119692D01*
Y119672D01*
Y119623D01*
Y119544D01*
X172997Y119446D01*
Y119328D01*
X173007Y119209D01*
X173017Y119091D01*
X173037Y118973D01*
Y118963D01*
X173047Y118924D01*
X173066Y118865D01*
X173076Y118806D01*
X173135Y118638D01*
X173204Y118481D01*
X173214Y118471D01*
X173224Y118451D01*
X173253Y118421D01*
X173283Y118372D01*
X173372Y118283D01*
X173490Y118205D01*
X173500D01*
X173519Y118195D01*
X173559Y118185D01*
X173598Y118165D01*
X173716Y118136D01*
X173864Y118126D01*
X173913D01*
X173982Y118136D01*
X174061Y118156D01*
X174150Y118185D01*
X174248Y118234D01*
X174347Y118293D01*
X174455Y118372D01*
X174465Y118382D01*
X174504Y118421D01*
X174563Y118471D01*
X174632Y118550D01*
X174721Y118648D01*
X174829Y118766D01*
X174938Y118894D01*
X175056Y119052D01*
Y121278D01*
X175046D01*
X175026Y121288D01*
X174997Y121298D01*
X174957Y121308D01*
X174898Y121317D01*
X174839Y121337D01*
X174691Y121367D01*
X174682D01*
X174652Y121376D01*
X174613D01*
X174563Y121386D01*
X174495Y121396D01*
X174425D01*
X174268Y121406D01*
D02*
G37*
G36*
X163758Y119446D02*
X162901D01*
X162822Y119436D01*
X162743Y119426D01*
X162655Y119416D01*
X162478Y119377D01*
X162468D01*
X162448Y119367D01*
X162408Y119357D01*
X162359Y119337D01*
X162241Y119278D01*
X162133Y119209D01*
X162123D01*
X162113Y119190D01*
X162054Y119141D01*
X161995Y119071D01*
X161936Y118973D01*
Y118963D01*
X161926Y118953D01*
X161916Y118924D01*
X161906Y118884D01*
X161887Y118786D01*
X161877Y118677D01*
Y118668D01*
Y118628D01*
X161887Y118569D01*
X161906Y118500D01*
X161926Y118431D01*
X161955Y118352D01*
X162005Y118274D01*
X162074Y118205D01*
X162083Y118195D01*
X162113Y118185D01*
X162152Y118156D01*
X162212Y118126D01*
X162290Y118096D01*
X162389Y118077D01*
X162497Y118057D01*
X162615Y118047D01*
X162665D01*
X162714Y118057D01*
X162783Y118067D01*
X162862Y118087D01*
X162950Y118126D01*
X163049Y118165D01*
X163147Y118224D01*
X163157Y118234D01*
X163197Y118264D01*
X163256Y118303D01*
X163325Y118362D01*
X163413Y118441D01*
X163522Y118530D01*
X163640Y118638D01*
X163758Y118756D01*
Y119446D01*
D02*
G37*
%LPD*%
D10*
X85524Y77701D02*
G03*
X85524Y16299I31376J-30701D01*
G01*
X152492Y72694D02*
G03*
X148276Y77701I-35592J-25694D01*
G01*
Y16299D02*
G03*
X152493Y21307I-31376J30701D01*
G01*
X85524Y77701D02*
X148276D01*
X85524Y16299D02*
X148276D01*
X152495Y21306D02*
X166461D01*
Y30858D01*
X152492Y72694D02*
X166461D01*
Y63142D02*
Y72694D01*
X12300Y1500D02*
X21300D01*
Y8700D01*
X12300D02*
X21300D01*
X7300D02*
X12300D01*
X7300D02*
X7300Y1500D01*
X12300Y1500D01*
D11*
X13890Y16904D02*
G03*
X14890Y16896I510J1093D01*
G01*
X33550Y125515D02*
Y126200D01*
X34900Y127550D01*
X35585D01*
X33550Y105850D02*
Y107885D01*
X53215Y127550D02*
X55250D01*
Y105850D02*
Y107885D01*
X33550Y105850D02*
X35585D01*
X53215D02*
X55250D01*
Y125515D02*
Y127550D01*
D12*
X105202Y133452D02*
X116247Y122407D01*
X69447D02*
X80492Y133452D01*
X69447Y99200D02*
X116247D01*
X69447D02*
Y122407D01*
X80492Y133452D02*
X105202D01*
X116247Y99200D02*
Y122407D01*
D13*
X14200Y36880D02*
Y37120D01*
X14140Y36700D02*
Y37240D01*
X14080Y36640D02*
Y37360D01*
X14020Y36580D02*
Y37420D01*
X13960Y36520D02*
Y37480D01*
X13900Y36460D02*
Y37540D01*
X13840Y36400D02*
Y37600D01*
X13780Y36340D02*
Y37660D01*
X13720Y36280D02*
Y37720D01*
X13660Y36220D02*
Y37780D01*
X13600Y36160D02*
Y37840D01*
X13540Y36100D02*
Y37900D01*
X13480Y36040D02*
Y37960D01*
X13420Y35980D02*
Y38020D01*
X13360Y35920D02*
Y38080D01*
X13300Y35860D02*
Y38140D01*
X13240Y35800D02*
Y38200D01*
X13180Y35740D02*
Y38260D01*
X13120Y35680D02*
Y38320D01*
X13060Y35620D02*
Y38380D01*
X13000Y37060D02*
Y38440D01*
Y35560D02*
Y36940D01*
X12940Y37120D02*
Y38500D01*
Y35500D02*
Y36880D01*
X12880Y37180D02*
Y38560D01*
Y35440D02*
Y36820D01*
X12820Y37240D02*
Y38620D01*
Y35380D02*
Y36760D01*
X12760Y37300D02*
Y38680D01*
Y35320D02*
Y36700D01*
X12700Y37360D02*
Y38740D01*
Y35260D02*
Y36640D01*
X12640Y37420D02*
Y38800D01*
Y35200D02*
Y36580D01*
X12580Y37480D02*
Y38860D01*
Y35140D02*
Y36520D01*
X12520Y37540D02*
Y38920D01*
Y35080D02*
Y36460D01*
X12460Y37600D02*
Y38980D01*
Y35020D02*
Y36400D01*
X12400Y37660D02*
Y39040D01*
Y34960D02*
Y36340D01*
X12340Y37720D02*
Y39100D01*
Y34900D02*
Y36280D01*
X12280Y37780D02*
Y39160D01*
Y34840D02*
Y36220D01*
X12220Y37840D02*
Y39220D01*
Y34780D02*
Y36160D01*
X12160Y37900D02*
Y39280D01*
Y34720D02*
Y36100D01*
X12100Y37960D02*
Y39340D01*
Y34660D02*
Y36040D01*
X12040Y38020D02*
Y39400D01*
Y34600D02*
Y35980D01*
X11980Y38080D02*
Y39460D01*
Y34540D02*
Y35920D01*
X11920Y38140D02*
Y39520D01*
Y34480D02*
Y35860D01*
X11860Y38200D02*
Y39580D01*
Y34420D02*
Y35800D01*
X11800Y38260D02*
Y39640D01*
Y34360D02*
Y35740D01*
X11740Y38320D02*
Y39700D01*
Y34300D02*
Y35680D01*
X11680Y38380D02*
Y39760D01*
Y34240D02*
Y35620D01*
X11620Y38440D02*
Y39820D01*
Y34180D02*
Y35560D01*
X11560Y38500D02*
Y39880D01*
Y34120D02*
Y35500D01*
X11500Y38560D02*
Y39940D01*
Y34060D02*
Y35440D01*
X11440Y38620D02*
Y40000D01*
Y34000D02*
Y35380D01*
X11380Y38680D02*
Y40060D01*
Y33940D02*
Y35320D01*
X11320Y38740D02*
Y40120D01*
Y33880D02*
Y35260D01*
X11260Y38800D02*
Y40180D01*
Y33820D02*
Y35200D01*
X11200Y38860D02*
Y40240D01*
Y33760D02*
Y35140D01*
X11140Y38920D02*
Y40300D01*
Y33700D02*
Y35080D01*
X11080Y38980D02*
Y40360D01*
Y33640D02*
Y35020D01*
X11020Y39040D02*
Y40420D01*
Y33580D02*
Y34960D01*
X10960Y39100D02*
Y40480D01*
Y33520D02*
Y34900D01*
X10900Y39160D02*
Y40540D01*
Y33460D02*
Y34840D01*
X10840Y39220D02*
Y40600D01*
Y33400D02*
Y34780D01*
X10780Y39280D02*
Y40660D01*
Y33340D02*
Y34720D01*
X10720Y39340D02*
Y40720D01*
Y33280D02*
Y34660D01*
X10660Y39400D02*
Y40780D01*
Y33220D02*
Y34600D01*
X10600Y39460D02*
Y40840D01*
Y33160D02*
Y34540D01*
X10540Y39520D02*
Y40900D01*
Y33100D02*
Y34480D01*
X10480Y39580D02*
Y40960D01*
Y33040D02*
Y34420D01*
X10420Y39640D02*
Y41020D01*
Y32980D02*
Y34360D01*
X10360Y39700D02*
Y41080D01*
Y32920D02*
Y34300D01*
X10300Y39760D02*
Y41140D01*
Y32860D02*
Y34240D01*
X10240Y39820D02*
Y41200D01*
Y32800D02*
Y34180D01*
X10180Y39880D02*
Y41260D01*
Y32740D02*
Y34120D01*
X10120Y39940D02*
Y41320D01*
Y32680D02*
Y34060D01*
X10060Y40000D02*
Y41380D01*
Y32620D02*
Y34000D01*
X10000Y40060D02*
Y41440D01*
Y32560D02*
Y33940D01*
X9940Y40120D02*
Y41500D01*
Y32500D02*
Y33880D01*
X9880Y40180D02*
Y41560D01*
Y32440D02*
Y33820D01*
X9820Y40240D02*
Y41620D01*
Y32380D02*
Y33760D01*
X9760Y40300D02*
Y41680D01*
Y32320D02*
Y33700D01*
X9700Y40360D02*
Y41740D01*
Y32260D02*
Y33640D01*
X9640Y40420D02*
Y41800D01*
Y32200D02*
Y33580D01*
X9580Y40480D02*
Y41860D01*
Y32140D02*
Y33520D01*
X9520Y40540D02*
Y41920D01*
Y32080D02*
Y33460D01*
X9460Y39700D02*
Y41980D01*
Y32020D02*
Y34300D01*
X9400Y39520D02*
Y42040D01*
Y31960D02*
Y34480D01*
X9340Y39400D02*
Y42100D01*
Y31900D02*
Y34600D01*
X9280Y39400D02*
Y42160D01*
Y31840D02*
Y34600D01*
X9220Y39340D02*
Y42160D01*
Y31840D02*
Y34660D01*
X9160Y39280D02*
Y42220D01*
Y31780D02*
Y34720D01*
X9100Y39280D02*
Y42220D01*
Y31780D02*
Y34720D01*
X9040Y39280D02*
Y42220D01*
Y31780D02*
Y34720D01*
X8980Y39280D02*
Y42220D01*
Y31780D02*
Y34720D01*
X8920Y39280D02*
Y42220D01*
Y31780D02*
Y34720D01*
X8860Y39280D02*
Y42220D01*
Y31780D02*
Y34720D01*
X8800Y39280D02*
Y42220D01*
Y31780D02*
Y34720D01*
X8740Y39280D02*
Y42160D01*
Y31840D02*
Y34720D01*
X8680Y39280D02*
Y42160D01*
Y31840D02*
Y34720D01*
X8620Y39280D02*
Y42100D01*
Y31900D02*
Y34720D01*
X8560Y39280D02*
Y41980D01*
Y32020D02*
Y34720D01*
X8500Y39280D02*
Y41860D01*
Y32140D02*
Y34720D01*
X8440Y39280D02*
Y40240D01*
Y33760D02*
Y34720D01*
X8380Y39280D02*
Y40240D01*
Y33760D02*
Y34720D01*
X8320Y39280D02*
Y40240D01*
Y33760D02*
Y34720D01*
X8260Y39280D02*
Y40240D01*
Y33760D02*
Y34720D01*
X8200Y39280D02*
Y40240D01*
Y33760D02*
Y34720D01*
X8140Y39280D02*
Y40240D01*
Y33760D02*
Y34720D01*
X8080Y39280D02*
Y40240D01*
Y33760D02*
Y34720D01*
X8020Y39280D02*
Y40240D01*
Y33760D02*
Y34720D01*
X7960Y39280D02*
Y40240D01*
Y33760D02*
Y34720D01*
X7900Y39280D02*
Y40240D01*
Y33760D02*
Y34720D01*
X7840Y39280D02*
Y40240D01*
Y33760D02*
Y34720D01*
X7780Y39280D02*
Y40240D01*
Y33760D02*
Y34720D01*
X7720Y39280D02*
Y40240D01*
Y33760D02*
Y34720D01*
X7660Y39280D02*
Y40240D01*
Y33760D02*
Y34720D01*
X7600Y39280D02*
Y40240D01*
Y33760D02*
Y34720D01*
X7540Y39280D02*
Y40240D01*
Y33760D02*
Y34720D01*
X7480Y39280D02*
Y40240D01*
Y33760D02*
Y34720D01*
X7420Y39280D02*
Y40240D01*
Y33760D02*
Y34720D01*
X7360Y39280D02*
Y40240D01*
Y33760D02*
Y34720D01*
X7300Y39280D02*
Y40240D01*
Y33760D02*
Y34720D01*
X7240Y39280D02*
Y40240D01*
Y33760D02*
Y34720D01*
X7180Y39280D02*
Y40240D01*
Y33760D02*
Y34720D01*
X7120Y39280D02*
Y40240D01*
Y33760D02*
Y34720D01*
X7060Y39280D02*
Y40240D01*
Y33760D02*
Y34720D01*
X7000Y39280D02*
Y40240D01*
Y33760D02*
Y34720D01*
X6940Y39280D02*
Y40240D01*
Y33760D02*
Y34720D01*
X6880Y39280D02*
Y40240D01*
Y33760D02*
Y34720D01*
X6820Y39280D02*
Y40240D01*
Y33760D02*
Y34720D01*
X6760Y39280D02*
Y40240D01*
Y33760D02*
Y34720D01*
X6700Y39280D02*
Y40240D01*
Y33760D02*
Y34720D01*
X6640Y39280D02*
Y40240D01*
Y33760D02*
Y34720D01*
X6580Y39280D02*
Y40240D01*
Y33760D02*
Y34720D01*
X6520Y39280D02*
Y40240D01*
Y33760D02*
Y34720D01*
X6460Y33760D02*
Y40240D01*
X6400Y33760D02*
Y40240D01*
X6340Y33760D02*
Y40240D01*
X6280Y33760D02*
Y40240D01*
X6220Y33760D02*
Y40240D01*
X6160Y33760D02*
Y40240D01*
X6100Y33760D02*
Y40240D01*
X6040Y33760D02*
Y40240D01*
X5980Y33760D02*
Y40240D01*
X5920Y33760D02*
Y40240D01*
X5860Y33760D02*
Y40240D01*
X5800Y33760D02*
Y40240D01*
X5740Y33820D02*
Y40180D01*
X5680Y33880D02*
Y40120D01*
X5620Y33880D02*
Y40120D01*
X5560Y34000D02*
Y40000D01*
X5500Y34120D02*
Y39880D01*
X4960Y34180D02*
Y39820D01*
X4900Y34000D02*
Y40000D01*
X4840Y33940D02*
Y40060D01*
X4780Y33880D02*
Y40120D01*
X4720Y33820D02*
Y40180D01*
X4660Y33760D02*
Y40240D01*
X4600Y33760D02*
Y40240D01*
X4540Y33760D02*
Y40240D01*
X4480Y33760D02*
Y40240D01*
X4420Y33760D02*
Y40240D01*
X4360Y33760D02*
Y40240D01*
X4300Y33760D02*
Y40240D01*
X4240Y33820D02*
Y40180D01*
X4180Y33880D02*
Y40120D01*
X4120Y33880D02*
Y40120D01*
X4060Y34000D02*
Y40000D01*
X4000Y34120D02*
Y39880D01*
X3460Y34180D02*
Y39820D01*
X3400Y34000D02*
Y40000D01*
X3340Y33940D02*
Y40060D01*
X3280Y33880D02*
Y40120D01*
X3220Y33820D02*
Y40180D01*
X3160Y33760D02*
Y40240D01*
X3100Y33760D02*
Y40240D01*
X3040Y33760D02*
Y40240D01*
X2980Y33760D02*
Y40240D01*
X2920Y33760D02*
Y40240D01*
X2860Y33760D02*
Y40240D01*
X2800Y33760D02*
Y40240D01*
X2740Y33820D02*
Y40180D01*
X2680Y33880D02*
Y40120D01*
X2620Y33880D02*
Y40120D01*
X2560Y34000D02*
Y40000D01*
X2500Y34120D02*
Y39880D01*
D14*
X18350Y34800D02*
X18700D01*
X18350Y33000D02*
X18700D01*
Y34800D01*
X18350Y33000D02*
Y34800D01*
X19650Y33000D02*
Y34800D01*
X19300Y33000D02*
Y34800D01*
X19650D01*
X19300Y33000D02*
X19650D01*
X28450Y3750D02*
X29750D01*
X28450D02*
X28450Y4100D01*
X29750D01*
X29750Y3750D01*
X28450Y5300D02*
Y5650D01*
Y5300D02*
X29750D01*
Y5650D01*
X28450D02*
X29750D01*
X28450Y7750D02*
X29750D01*
X28450D02*
X28450Y8100D01*
X29750D01*
X29750Y7750D01*
X28450Y9300D02*
Y9650D01*
Y9300D02*
X29750D01*
Y9650D01*
X28450D02*
X29750D01*
X4850Y5150D02*
Y6450D01*
X4500Y5150D02*
X4850Y5150D01*
X4500Y5150D02*
Y6450D01*
X4850Y6450D01*
X2950Y5150D02*
X3300D01*
Y6450D01*
X2950D02*
X3300D01*
X2950Y5150D02*
Y6450D01*
X4950Y12950D02*
Y14250D01*
X4600Y12950D02*
X4950Y12950D01*
X4600Y12950D02*
Y14250D01*
X4950Y14250D01*
X3050Y12950D02*
X3400D01*
Y14250D01*
X3050D02*
X3400D01*
X3050Y12950D02*
Y14250D01*
X41950Y20100D02*
X42450D01*
X43350D02*
X43850D01*
X41950Y17100D02*
X41950Y20100D01*
X42450Y17100D02*
Y20100D01*
X41950Y17100D02*
X42450D01*
X43350D02*
X43850D01*
X43350D02*
Y20100D01*
X43850Y17100D02*
Y20100D01*
X29850Y118150D02*
Y119450D01*
X29500Y118150D02*
X29850Y118150D01*
X29500Y118150D02*
Y119450D01*
X29850Y119450D01*
X27950Y118150D02*
X28300D01*
Y119450D01*
X27950D02*
X28300D01*
X27950Y118150D02*
Y119450D01*
X56650Y79950D02*
X57950D01*
X56650D02*
X56650Y80300D01*
X57950D01*
X57950Y79950D01*
X56650Y81500D02*
Y81850D01*
Y81500D02*
X57950D01*
Y81850D01*
X56650D02*
X57950D01*
X57850Y55500D02*
X58200D01*
X57850Y57300D02*
X58200D01*
X57850Y55500D02*
Y57300D01*
X58200Y55500D02*
Y57300D01*
X56900Y55500D02*
Y57300D01*
X57250Y55500D02*
Y57300D01*
X56900Y55500D02*
X57250D01*
X56900Y57300D02*
X57250D01*
X26450Y110750D02*
X27750D01*
X27750Y110400D02*
X27750Y110750D01*
X26450Y110400D02*
X27750D01*
X26450Y110750D02*
X26450Y110400D01*
X27750Y108850D02*
Y109200D01*
X26450D02*
X27750D01*
X26450Y108850D02*
Y109200D01*
Y108850D02*
X27750D01*
X26450Y125150D02*
X27750D01*
X27750Y124800D02*
X27750Y125150D01*
X26450Y124800D02*
X27750D01*
X26450Y125150D02*
X26450Y124800D01*
X27750Y123250D02*
Y123600D01*
X26450D02*
X27750D01*
X26450Y123250D02*
Y123600D01*
Y123250D02*
X27750D01*
X16650Y111350D02*
X17050D01*
X15950Y112650D02*
X16650D01*
X15950Y112150D02*
X16650D01*
Y113450D02*
X17050D01*
X16650Y112650D02*
Y113450D01*
X15950Y112150D02*
Y112650D01*
X16650Y111350D02*
Y112150D01*
X17050Y111350D02*
Y113450D01*
X24400Y118150D02*
Y118500D01*
X26200Y118150D02*
Y118500D01*
X24400D02*
X26200D01*
X24400Y118150D02*
X26200D01*
X24400Y119450D02*
X26200D01*
X24400Y119100D02*
X26200D01*
X24400D02*
Y119450D01*
X26200Y119100D02*
Y119450D01*
X57600Y84100D02*
X57950D01*
X57600Y85900D02*
X57950D01*
X57600Y84100D02*
Y85900D01*
X57950Y84100D02*
Y85900D01*
X56650Y84100D02*
Y85900D01*
X57000Y84100D02*
Y85900D01*
X56650Y84100D02*
X57000D01*
X56650Y85900D02*
X57000D01*
X57600Y75900D02*
X57950D01*
X57600Y77700D02*
X57950D01*
X57600Y75900D02*
Y77700D01*
X57950Y75900D02*
Y77700D01*
X56650Y75900D02*
Y77700D01*
X57000Y75900D02*
Y77700D01*
X56650Y75900D02*
X57000D01*
X56650Y77700D02*
X57000D01*
X57850Y51820D02*
X58200D01*
X57850Y53620D02*
X58200D01*
X57850Y51820D02*
Y53620D01*
X58200Y51820D02*
Y53620D01*
X56900Y51820D02*
Y53620D01*
X57250Y51820D02*
Y53620D01*
X56900Y51820D02*
X57250D01*
X56900Y53620D02*
X57250D01*
X57850Y48140D02*
X58200D01*
X57850Y49940D02*
X58200D01*
X57850Y48140D02*
Y49940D01*
X58200Y48140D02*
Y49940D01*
X56900Y48140D02*
Y49940D01*
X57250Y48140D02*
Y49940D01*
X56900Y48140D02*
X57250D01*
X56900Y49940D02*
X57250D01*
X57850Y44460D02*
X58200D01*
X57850Y46260D02*
X58200D01*
X57850Y44460D02*
Y46260D01*
X58200Y44460D02*
Y46260D01*
X56900Y44460D02*
Y46260D01*
X57250Y44460D02*
Y46260D01*
X56900Y44460D02*
X57250D01*
X56900Y46260D02*
X57250D01*
X57850Y40780D02*
X58200D01*
X57850Y42580D02*
X58200D01*
X57850Y40780D02*
Y42580D01*
X58200Y40780D02*
Y42580D01*
X56900Y40780D02*
Y42580D01*
X57250Y40780D02*
Y42580D01*
X56900Y40780D02*
X57250D01*
X56900Y42580D02*
X57250D01*
X57850Y37100D02*
X58200D01*
X57850Y38900D02*
X58200D01*
X57850Y37100D02*
Y38900D01*
X58200Y37100D02*
Y38900D01*
X56900Y37100D02*
Y38900D01*
X57250Y37100D02*
Y38900D01*
X56900Y37100D02*
X57250D01*
X56900Y38900D02*
X57250D01*
D15*
X120500Y114800D02*
X176600D01*
X27800Y36000D02*
X31300D01*
X42300D02*
X47800D01*
Y42000D01*
X42300Y97000D02*
X47800D01*
Y91000D02*
Y97000D01*
X27800Y36000D02*
Y97000D01*
X31300D01*
D16*
X35231Y130284D02*
X180900D01*
X35231Y4300D02*
X180900D01*
X35231Y130284D02*
X35231Y4300D01*
X180900Y130284D02*
X180900Y4300D01*
D17*
X46843Y2598D02*
Y5944D01*
X42513Y2598D02*
X46843D01*
Y11456D02*
Y14802D01*
X42513D02*
X46843D01*
D18*
X33140Y25521D02*
X33337D01*
X33140Y15679D02*
X33337D01*
X25463Y25521D02*
X25660D01*
X25463Y15679D02*
X25660D01*
X33337D02*
Y25521D01*
X25463Y15679D02*
Y25521D01*
X38400Y28500D02*
X47800D01*
Y22300D02*
Y28500D01*
X38400Y22300D02*
X47800D01*
X38400D02*
Y28500D01*
X45800Y22300D02*
Y28500D01*
X13200Y71800D02*
Y81200D01*
X19400D01*
Y71800D02*
Y81200D01*
X13200Y71800D02*
X19400D01*
X13200Y79200D02*
X19400D01*
X13200Y53300D02*
Y62700D01*
X19400D01*
Y53300D02*
Y62700D01*
X13200Y53300D02*
X19400D01*
X13200Y60700D02*
X19400D01*
M02*
