G04*
G04 #@! TF.GenerationSoftware,Altium Limited,Altium Designer,20.0.13 (296)*
G04*
G04 Layer_Physical_Order=1*
G04 Layer_Color=255*
%FSLAX25Y25*%
%MOIN*%
G70*
G01*
G75*
%ADD11C,0.00600*%
%ADD15C,0.01000*%
%ADD16C,0.01500*%
G04:AMPARAMS|DCode=19|XSize=23.62mil|YSize=59.06mil|CornerRadius=5.91mil|HoleSize=0mil|Usage=FLASHONLY|Rotation=180.000|XOffset=0mil|YOffset=0mil|HoleType=Round|Shape=RoundedRectangle|*
%AMROUNDEDRECTD19*
21,1,0.02362,0.04724,0,0,180.0*
21,1,0.01181,0.05906,0,0,180.0*
1,1,0.01181,-0.00591,0.02362*
1,1,0.01181,0.00591,0.02362*
1,1,0.01181,0.00591,-0.02362*
1,1,0.01181,-0.00591,-0.02362*
%
%ADD19ROUNDEDRECTD19*%
G04:AMPARAMS|DCode=20|XSize=39.37mil|YSize=39.37mil|CornerRadius=9.84mil|HoleSize=0mil|Usage=FLASHONLY|Rotation=180.000|XOffset=0mil|YOffset=0mil|HoleType=Round|Shape=RoundedRectangle|*
%AMROUNDEDRECTD20*
21,1,0.03937,0.01968,0,0,180.0*
21,1,0.01968,0.03937,0,0,180.0*
1,1,0.01968,-0.00984,0.00984*
1,1,0.01968,0.00984,0.00984*
1,1,0.01968,0.00984,-0.00984*
1,1,0.01968,-0.00984,-0.00984*
%
%ADD20ROUNDEDRECTD20*%
G04:AMPARAMS|DCode=21|XSize=40mil|YSize=74mil|CornerRadius=10mil|HoleSize=0mil|Usage=FLASHONLY|Rotation=180.000|XOffset=0mil|YOffset=0mil|HoleType=Round|Shape=RoundedRectangle|*
%AMROUNDEDRECTD21*
21,1,0.04000,0.05400,0,0,180.0*
21,1,0.02000,0.07400,0,0,180.0*
1,1,0.02000,-0.01000,0.02700*
1,1,0.02000,0.01000,0.02700*
1,1,0.02000,0.01000,-0.02700*
1,1,0.02000,-0.01000,-0.02700*
%
%ADD21ROUNDEDRECTD21*%
G04:AMPARAMS|DCode=22|XSize=110mil|YSize=140mil|CornerRadius=27.5mil|HoleSize=0mil|Usage=FLASHONLY|Rotation=0.000|XOffset=0mil|YOffset=0mil|HoleType=Round|Shape=RoundedRectangle|*
%AMROUNDEDRECTD22*
21,1,0.11000,0.08500,0,0,0.0*
21,1,0.05500,0.14000,0,0,0.0*
1,1,0.05500,0.02750,-0.04250*
1,1,0.05500,-0.02750,-0.04250*
1,1,0.05500,-0.02750,0.04250*
1,1,0.05500,0.02750,0.04250*
%
%ADD22ROUNDEDRECTD22*%
G04:AMPARAMS|DCode=23|XSize=110mil|YSize=100mil|CornerRadius=25mil|HoleSize=0mil|Usage=FLASHONLY|Rotation=0.000|XOffset=0mil|YOffset=0mil|HoleType=Round|Shape=RoundedRectangle|*
%AMROUNDEDRECTD23*
21,1,0.11000,0.05000,0,0,0.0*
21,1,0.06000,0.10000,0,0,0.0*
1,1,0.05000,0.03000,-0.02500*
1,1,0.05000,-0.03000,-0.02500*
1,1,0.05000,-0.03000,0.02500*
1,1,0.05000,0.03000,0.02500*
%
%ADD23ROUNDEDRECTD23*%
G04:AMPARAMS|DCode=24|XSize=20mil|YSize=20mil|CornerRadius=5mil|HoleSize=0mil|Usage=FLASHONLY|Rotation=270.000|XOffset=0mil|YOffset=0mil|HoleType=Round|Shape=RoundedRectangle|*
%AMROUNDEDRECTD24*
21,1,0.02000,0.01000,0,0,270.0*
21,1,0.01000,0.02000,0,0,270.0*
1,1,0.01000,-0.00500,-0.00500*
1,1,0.01000,-0.00500,0.00500*
1,1,0.01000,0.00500,0.00500*
1,1,0.01000,0.00500,-0.00500*
%
%ADD24ROUNDEDRECTD24*%
G04:AMPARAMS|DCode=25|XSize=23.62mil|YSize=50mil|CornerRadius=5.91mil|HoleSize=0mil|Usage=FLASHONLY|Rotation=90.000|XOffset=0mil|YOffset=0mil|HoleType=Round|Shape=RoundedRectangle|*
%AMROUNDEDRECTD25*
21,1,0.02362,0.03819,0,0,90.0*
21,1,0.01181,0.05000,0,0,90.0*
1,1,0.01181,0.01909,0.00591*
1,1,0.01181,0.01909,-0.00591*
1,1,0.01181,-0.01909,-0.00591*
1,1,0.01181,-0.01909,0.00591*
%
%ADD25ROUNDEDRECTD25*%
G04:AMPARAMS|DCode=26|XSize=51.18mil|YSize=35.43mil|CornerRadius=8.86mil|HoleSize=0mil|Usage=FLASHONLY|Rotation=270.000|XOffset=0mil|YOffset=0mil|HoleType=Round|Shape=RoundedRectangle|*
%AMROUNDEDRECTD26*
21,1,0.05118,0.01772,0,0,270.0*
21,1,0.03347,0.03543,0,0,270.0*
1,1,0.01772,-0.00886,-0.01673*
1,1,0.01772,-0.00886,0.01673*
1,1,0.01772,0.00886,0.01673*
1,1,0.01772,0.00886,-0.01673*
%
%ADD26ROUNDEDRECTD26*%
G04:AMPARAMS|DCode=27|XSize=20mil|YSize=20mil|CornerRadius=5mil|HoleSize=0mil|Usage=FLASHONLY|Rotation=180.000|XOffset=0mil|YOffset=0mil|HoleType=Round|Shape=RoundedRectangle|*
%AMROUNDEDRECTD27*
21,1,0.02000,0.01000,0,0,180.0*
21,1,0.01000,0.02000,0,0,180.0*
1,1,0.01000,-0.00500,0.00500*
1,1,0.01000,0.00500,0.00500*
1,1,0.01000,0.00500,-0.00500*
1,1,0.01000,-0.00500,-0.00500*
%
%ADD27ROUNDEDRECTD27*%
G04:AMPARAMS|DCode=28|XSize=46mil|YSize=14mil|CornerRadius=3.5mil|HoleSize=0mil|Usage=FLASHONLY|Rotation=0.000|XOffset=0mil|YOffset=0mil|HoleType=Round|Shape=RoundedRectangle|*
%AMROUNDEDRECTD28*
21,1,0.04600,0.00700,0,0,0.0*
21,1,0.03900,0.01400,0,0,0.0*
1,1,0.00700,0.01950,-0.00350*
1,1,0.00700,-0.01950,-0.00350*
1,1,0.00700,-0.01950,0.00350*
1,1,0.00700,0.01950,0.00350*
%
%ADD28ROUNDEDRECTD28*%
G04:AMPARAMS|DCode=29|XSize=30mil|YSize=22mil|CornerRadius=5.5mil|HoleSize=0mil|Usage=FLASHONLY|Rotation=90.000|XOffset=0mil|YOffset=0mil|HoleType=Round|Shape=RoundedRectangle|*
%AMROUNDEDRECTD29*
21,1,0.03000,0.01100,0,0,90.0*
21,1,0.01900,0.02200,0,0,90.0*
1,1,0.01100,0.00550,0.00950*
1,1,0.01100,0.00550,-0.00950*
1,1,0.01100,-0.00550,-0.00950*
1,1,0.01100,-0.00550,0.00950*
%
%ADD29ROUNDEDRECTD29*%
G04:AMPARAMS|DCode=30|XSize=75mil|YSize=70mil|CornerRadius=17.5mil|HoleSize=0mil|Usage=FLASHONLY|Rotation=90.000|XOffset=0mil|YOffset=0mil|HoleType=Round|Shape=RoundedRectangle|*
%AMROUNDEDRECTD30*
21,1,0.07500,0.03500,0,0,90.0*
21,1,0.04000,0.07000,0,0,90.0*
1,1,0.03500,0.01750,0.02000*
1,1,0.03500,0.01750,-0.02000*
1,1,0.03500,-0.01750,-0.02000*
1,1,0.03500,-0.01750,0.02000*
%
%ADD30ROUNDEDRECTD30*%
G04:AMPARAMS|DCode=31|XSize=30mil|YSize=40mil|CornerRadius=7.5mil|HoleSize=0mil|Usage=FLASHONLY|Rotation=180.000|XOffset=0mil|YOffset=0mil|HoleType=Round|Shape=RoundedRectangle|*
%AMROUNDEDRECTD31*
21,1,0.03000,0.02500,0,0,180.0*
21,1,0.01500,0.04000,0,0,180.0*
1,1,0.01500,-0.00750,0.01250*
1,1,0.01500,0.00750,0.01250*
1,1,0.01500,0.00750,-0.01250*
1,1,0.01500,-0.00750,-0.01250*
%
%ADD31ROUNDEDRECTD31*%
G04:AMPARAMS|DCode=32|XSize=30mil|YSize=30mil|CornerRadius=7.5mil|HoleSize=0mil|Usage=FLASHONLY|Rotation=180.000|XOffset=0mil|YOffset=0mil|HoleType=Round|Shape=RoundedRectangle|*
%AMROUNDEDRECTD32*
21,1,0.03000,0.01500,0,0,180.0*
21,1,0.01500,0.03000,0,0,180.0*
1,1,0.01500,-0.00750,0.00750*
1,1,0.01500,0.00750,0.00750*
1,1,0.01500,0.00750,-0.00750*
1,1,0.01500,-0.00750,-0.00750*
%
%ADD32ROUNDEDRECTD32*%
G04:AMPARAMS|DCode=33|XSize=30mil|YSize=40mil|CornerRadius=7.5mil|HoleSize=0mil|Usage=FLASHONLY|Rotation=270.000|XOffset=0mil|YOffset=0mil|HoleType=Round|Shape=RoundedRectangle|*
%AMROUNDEDRECTD33*
21,1,0.03000,0.02500,0,0,270.0*
21,1,0.01500,0.04000,0,0,270.0*
1,1,0.01500,-0.01250,-0.00750*
1,1,0.01500,-0.01250,0.00750*
1,1,0.01500,0.01250,0.00750*
1,1,0.01500,0.01250,-0.00750*
%
%ADD33ROUNDEDRECTD33*%
G04:AMPARAMS|DCode=34|XSize=30mil|YSize=30mil|CornerRadius=7.5mil|HoleSize=0mil|Usage=FLASHONLY|Rotation=270.000|XOffset=0mil|YOffset=0mil|HoleType=Round|Shape=RoundedRectangle|*
%AMROUNDEDRECTD34*
21,1,0.03000,0.01500,0,0,270.0*
21,1,0.01500,0.03000,0,0,270.0*
1,1,0.01500,-0.00750,-0.00750*
1,1,0.01500,-0.00750,0.00750*
1,1,0.01500,0.00750,0.00750*
1,1,0.01500,0.00750,-0.00750*
%
%ADD34ROUNDEDRECTD34*%
G04:AMPARAMS|DCode=35|XSize=39.37mil|YSize=70mil|CornerRadius=9.84mil|HoleSize=0mil|Usage=FLASHONLY|Rotation=270.000|XOffset=0mil|YOffset=0mil|HoleType=Round|Shape=RoundedRectangle|*
%AMROUNDEDRECTD35*
21,1,0.03937,0.05031,0,0,270.0*
21,1,0.01968,0.07000,0,0,270.0*
1,1,0.01968,-0.02516,-0.00984*
1,1,0.01968,-0.02516,0.00984*
1,1,0.01968,0.02516,0.00984*
1,1,0.01968,0.02516,-0.00984*
%
%ADD35ROUNDEDRECTD35*%
G04:AMPARAMS|DCode=36|XSize=106.3mil|YSize=110.24mil|CornerRadius=26.57mil|HoleSize=0mil|Usage=FLASHONLY|Rotation=0.000|XOffset=0mil|YOffset=0mil|HoleType=Round|Shape=RoundedRectangle|*
%AMROUNDEDRECTD36*
21,1,0.10630,0.05709,0,0,0.0*
21,1,0.05315,0.11024,0,0,0.0*
1,1,0.05315,0.02657,-0.02854*
1,1,0.05315,-0.02657,-0.02854*
1,1,0.05315,-0.02657,0.02854*
1,1,0.05315,0.02657,0.02854*
%
%ADD36ROUNDEDRECTD36*%
G04:AMPARAMS|DCode=37|XSize=11.81mil|YSize=23.62mil|CornerRadius=2.95mil|HoleSize=0mil|Usage=FLASHONLY|Rotation=90.000|XOffset=0mil|YOffset=0mil|HoleType=Round|Shape=RoundedRectangle|*
%AMROUNDEDRECTD37*
21,1,0.01181,0.01772,0,0,90.0*
21,1,0.00591,0.02362,0,0,90.0*
1,1,0.00591,0.00886,0.00295*
1,1,0.00591,0.00886,-0.00295*
1,1,0.00591,-0.00886,-0.00295*
1,1,0.00591,-0.00886,0.00295*
%
%ADD37ROUNDEDRECTD37*%
G04:AMPARAMS|DCode=38|XSize=11.81mil|YSize=23.62mil|CornerRadius=2.95mil|HoleSize=0mil|Usage=FLASHONLY|Rotation=180.000|XOffset=0mil|YOffset=0mil|HoleType=Round|Shape=RoundedRectangle|*
%AMROUNDEDRECTD38*
21,1,0.01181,0.01772,0,0,180.0*
21,1,0.00591,0.02362,0,0,180.0*
1,1,0.00591,-0.00295,0.00886*
1,1,0.00591,0.00295,0.00886*
1,1,0.00591,0.00295,-0.00886*
1,1,0.00591,-0.00295,-0.00886*
%
%ADD38ROUNDEDRECTD38*%
G04:AMPARAMS|DCode=39|XSize=50mil|YSize=10mil|CornerRadius=2.5mil|HoleSize=0mil|Usage=FLASHONLY|Rotation=0.000|XOffset=0mil|YOffset=0mil|HoleType=Round|Shape=RoundedRectangle|*
%AMROUNDEDRECTD39*
21,1,0.05000,0.00500,0,0,0.0*
21,1,0.04500,0.01000,0,0,0.0*
1,1,0.00500,0.02250,-0.00250*
1,1,0.00500,-0.02250,-0.00250*
1,1,0.00500,-0.02250,0.00250*
1,1,0.00500,0.02250,0.00250*
%
%ADD39ROUNDEDRECTD39*%
G04:AMPARAMS|DCode=40|XSize=86mil|YSize=72mil|CornerRadius=18mil|HoleSize=0mil|Usage=FLASHONLY|Rotation=180.000|XOffset=0mil|YOffset=0mil|HoleType=Round|Shape=RoundedRectangle|*
%AMROUNDEDRECTD40*
21,1,0.08600,0.03600,0,0,180.0*
21,1,0.05000,0.07200,0,0,180.0*
1,1,0.03600,-0.02500,0.01800*
1,1,0.03600,0.02500,0.01800*
1,1,0.03600,0.02500,-0.01800*
1,1,0.03600,-0.02500,-0.01800*
%
%ADD40ROUNDEDRECTD40*%
G04:AMPARAMS|DCode=41|XSize=70mil|YSize=72mil|CornerRadius=17.5mil|HoleSize=0mil|Usage=FLASHONLY|Rotation=180.000|XOffset=0mil|YOffset=0mil|HoleType=Round|Shape=RoundedRectangle|*
%AMROUNDEDRECTD41*
21,1,0.07000,0.03700,0,0,180.0*
21,1,0.03500,0.07200,0,0,180.0*
1,1,0.03500,-0.01750,0.01850*
1,1,0.03500,0.01750,0.01850*
1,1,0.03500,0.01750,-0.01850*
1,1,0.03500,-0.01750,-0.01850*
%
%ADD41ROUNDEDRECTD41*%
%ADD42R,0.08517X0.02400*%
%ADD45O,0.03150X0.11811*%
%ADD46C,0.01575*%
%ADD47C,0.01400*%
%ADD48C,0.02000*%
%ADD49C,0.02362*%
G36*
X56702Y132380D02*
X56711Y132276D01*
X56726Y132176D01*
X56747Y132081D01*
X56775Y131991D01*
X56809Y131906D01*
X56850Y131825D01*
X56897Y131750D01*
X56951Y131679D01*
X57011Y131613D01*
X56587Y131189D01*
X56521Y131249D01*
X56450Y131303D01*
X56375Y131350D01*
X56294Y131391D01*
X56209Y131425D01*
X56119Y131453D01*
X56024Y131474D01*
X55924Y131489D01*
X55820Y131498D01*
X55710Y131500D01*
X56700Y132490D01*
X56702Y132380D01*
D02*
G37*
G36*
X42300Y131073D02*
X41800Y130782D01*
X41400Y130862D01*
X40854Y130753D01*
X40391Y130444D01*
X40081Y129981D01*
X40074Y129943D01*
X39531Y129778D01*
X38305Y131005D01*
X38073Y131159D01*
X37800Y131214D01*
X32500D01*
X32227Y131159D01*
X31995Y131005D01*
X28595Y127605D01*
X28441Y127373D01*
X28386Y127100D01*
Y125851D01*
X28367Y125808D01*
X28365Y125701D01*
X28358Y125622D01*
X28350Y125568D01*
X28249Y125548D01*
X27951Y125349D01*
X27752Y125051D01*
X27682Y124700D01*
Y123700D01*
X27752Y123349D01*
X27951Y123051D01*
X28249Y122852D01*
X28600Y122782D01*
X29280D01*
X29487Y122282D01*
X29419Y122214D01*
X29400Y122218D01*
X28400D01*
X28049Y122148D01*
X27751Y121949D01*
X27552Y121651D01*
X27482Y121300D01*
Y120300D01*
X27552Y119949D01*
X27751Y119651D01*
X28049Y119452D01*
X28400Y119382D01*
X29400D01*
X29751Y119452D01*
X30049Y119651D01*
X30248Y119949D01*
X30318Y120300D01*
Y120585D01*
X30336Y120625D01*
X30367Y120679D01*
X30408Y120739D01*
X30546Y120906D01*
X30634Y120998D01*
X30645Y121027D01*
X30672Y121043D01*
X30678Y121069D01*
X32279Y122670D01*
X32735Y122640D01*
X32781Y122592D01*
X32895Y122320D01*
X32859Y122267D01*
X32805Y121995D01*
Y121405D01*
X32859Y121133D01*
X33013Y120904D01*
Y120496D01*
X32859Y120267D01*
X32805Y119995D01*
Y119405D01*
X32859Y119133D01*
X32954Y118992D01*
X32966Y118876D01*
X32862Y118697D01*
X32644Y118433D01*
X32618Y118433D01*
X32574Y118414D01*
X31300D01*
X31027Y118359D01*
X30795Y118205D01*
X30496Y117905D01*
X30049Y117949D01*
X29751Y118148D01*
X29400Y118218D01*
X28400D01*
X28049Y118148D01*
X27751Y117949D01*
X27552Y117651D01*
X27532Y117551D01*
X27478Y117542D01*
X27399Y117535D01*
X27292Y117533D01*
X27249Y117514D01*
X26951D01*
X26908Y117533D01*
X26801Y117535D01*
X26722Y117542D01*
X26668Y117551D01*
X26648Y117651D01*
X26449Y117949D01*
X26151Y118148D01*
X25800Y118218D01*
X24800D01*
X24449Y118148D01*
X24151Y117949D01*
X23952Y117651D01*
X23882Y117300D01*
Y116300D01*
X23952Y115949D01*
X24151Y115651D01*
X24449Y115452D01*
X24800Y115382D01*
X25800D01*
X26151Y115452D01*
X26449Y115651D01*
X26648Y115949D01*
X26668Y116050D01*
X26722Y116058D01*
X26801Y116065D01*
X26908Y116067D01*
X26951Y116086D01*
X27249D01*
X27292Y116067D01*
X27399Y116065D01*
X27478Y116058D01*
X27532Y116050D01*
X27552Y115949D01*
X27751Y115651D01*
X28049Y115452D01*
X28400Y115382D01*
X29400D01*
X29751Y115452D01*
X30049Y115651D01*
X30248Y115949D01*
X30270Y116060D01*
X30328Y116066D01*
X30409Y116067D01*
X30496Y116105D01*
X30673Y116141D01*
X30905Y116295D01*
X31596Y116986D01*
X32568D01*
X32609Y116967D01*
X32644Y116966D01*
X32966Y116530D01*
X32954Y116408D01*
X32859Y116267D01*
X32805Y115995D01*
Y115405D01*
X32859Y115133D01*
X33013Y114903D01*
Y114497D01*
X32859Y114267D01*
X32805Y113995D01*
Y113405D01*
X32859Y113133D01*
X33013Y112903D01*
Y112496D01*
X32859Y112267D01*
X32805Y111995D01*
Y111405D01*
X32859Y111133D01*
X33013Y110904D01*
Y110496D01*
X32859Y110267D01*
X32805Y109995D01*
Y109405D01*
X32843Y109214D01*
X32841Y109210D01*
X32824Y109183D01*
X32736Y109075D01*
X32675Y109011D01*
X32658Y108967D01*
X31004Y107314D01*
X26096D01*
X25814Y107596D01*
Y108149D01*
X25833Y108192D01*
X25835Y108299D01*
X25842Y108378D01*
X25850Y108432D01*
X25951Y108452D01*
X26249Y108651D01*
X26448Y108949D01*
X26518Y109300D01*
Y110300D01*
X26448Y110651D01*
X26277Y110906D01*
X26666Y111225D01*
X27357Y110533D01*
X27373Y110491D01*
X27581Y110267D01*
X27647Y110185D01*
X27682Y110134D01*
Y109951D01*
X27681Y109949D01*
X27682Y109947D01*
Y109300D01*
X27752Y108949D01*
X27951Y108651D01*
X28249Y108452D01*
X28600Y108382D01*
X29600D01*
X29951Y108452D01*
X30249Y108651D01*
X30448Y108949D01*
X30518Y109300D01*
Y110300D01*
X30448Y110651D01*
X30249Y110949D01*
X29951Y111148D01*
X29600Y111218D01*
X28953D01*
X28951Y111219D01*
X28949Y111218D01*
X28765D01*
X28719Y111250D01*
X28527Y111413D01*
X28415Y111521D01*
X28371Y111539D01*
X27005Y112905D01*
X26773Y113059D01*
X26500Y113114D01*
X20151D01*
X20108Y113133D01*
X20001Y113136D01*
X19922Y113142D01*
X19868Y113151D01*
X19848Y113251D01*
X19649Y113549D01*
X19351Y113748D01*
X19000Y113818D01*
X18000D01*
X17649Y113748D01*
X17624Y113731D01*
X17124Y113998D01*
Y130807D01*
X3500D01*
Y113680D01*
X3467Y113600D01*
Y111200D01*
X3500Y111120D01*
Y88809D01*
X17124D01*
Y110801D01*
X17624Y111069D01*
X17649Y111052D01*
X18000Y110982D01*
X19000D01*
X19351Y111052D01*
X19649Y111251D01*
X19848Y111549D01*
X19868Y111650D01*
X19922Y111658D01*
X20001Y111664D01*
X20108Y111667D01*
X20151Y111686D01*
X24393D01*
X24442Y111186D01*
X24249Y111148D01*
X23951Y110949D01*
X23752Y110651D01*
X23682Y110300D01*
Y109300D01*
X23752Y108949D01*
X23951Y108651D01*
X24249Y108452D01*
X24349Y108432D01*
X24358Y108378D01*
X24364Y108299D01*
X24367Y108192D01*
X24386Y108149D01*
Y107300D01*
X24441Y107027D01*
X24595Y106795D01*
X25295Y106095D01*
X25527Y105941D01*
X25800Y105886D01*
X31300D01*
X31573Y105941D01*
X31805Y106095D01*
X34070Y108361D01*
X34114Y108378D01*
X34115Y108379D01*
X34115Y108379D01*
X34202Y108462D01*
X34242Y108496D01*
X34344Y108517D01*
X34499Y108494D01*
X34680Y108120D01*
X34683Y108094D01*
X34642Y107930D01*
X27595Y100884D01*
X27441Y100652D01*
X27386Y100379D01*
Y86400D01*
X27441Y86127D01*
X27595Y85895D01*
X37786Y75704D01*
Y75314D01*
X37767Y75273D01*
X37764Y75204D01*
X37758Y75155D01*
X37746Y75106D01*
X37730Y75057D01*
X37709Y75006D01*
X37681Y74954D01*
X37646Y74899D01*
X37604Y74842D01*
X37555Y74784D01*
X37488Y74714D01*
X37480Y74693D01*
X37306Y74433D01*
X36775Y74539D01*
X36774Y74548D01*
X36619Y74780D01*
X26814Y84585D01*
Y100786D01*
X26833Y100827D01*
X26836Y100896D01*
X26842Y100945D01*
X26854Y100994D01*
X26870Y101043D01*
X26891Y101094D01*
X26919Y101146D01*
X26954Y101201D01*
X26996Y101258D01*
X27045Y101316D01*
X27112Y101386D01*
X27120Y101407D01*
X27419Y101854D01*
X27527Y102400D01*
X27419Y102946D01*
X27109Y103409D01*
X26646Y103719D01*
X26100Y103827D01*
X25554Y103719D01*
X25091Y103409D01*
X24781Y102946D01*
X24673Y102400D01*
X24781Y101854D01*
X25080Y101407D01*
X25088Y101386D01*
X25155Y101316D01*
X25204Y101258D01*
X25246Y101201D01*
X25281Y101146D01*
X25309Y101094D01*
X25330Y101043D01*
X25346Y100994D01*
X25358Y100945D01*
X25364Y100896D01*
X25368Y100827D01*
X25386Y100786D01*
Y92062D01*
X24924Y91871D01*
X24114Y92681D01*
Y98486D01*
X24133Y98527D01*
X24136Y98596D01*
X24142Y98645D01*
X24154Y98694D01*
X24170Y98743D01*
X24191Y98794D01*
X24219Y98846D01*
X24254Y98901D01*
X24295Y98958D01*
X24345Y99016D01*
X24412Y99086D01*
X24420Y99107D01*
X24719Y99554D01*
X24827Y100100D01*
X24719Y100646D01*
X24409Y101109D01*
X23946Y101419D01*
X23400Y101527D01*
X22854Y101419D01*
X22391Y101109D01*
X22081Y100646D01*
X21973Y100100D01*
X22081Y99554D01*
X22380Y99107D01*
X22388Y99086D01*
X22455Y99016D01*
X22504Y98958D01*
X22546Y98901D01*
X22581Y98846D01*
X22609Y98794D01*
X22630Y98743D01*
X22646Y98694D01*
X22658Y98645D01*
X22664Y98596D01*
X22668Y98527D01*
X22686Y98486D01*
Y92386D01*
X22741Y92113D01*
X22895Y91881D01*
X24386Y90390D01*
Y83875D01*
X24441Y83602D01*
X24595Y83370D01*
X32086Y75880D01*
Y72796D01*
X26049Y66758D01*
X26007Y66743D01*
X25956Y66696D01*
X25916Y66666D01*
X25874Y66640D01*
X25828Y66616D01*
X25776Y66596D01*
X25719Y66578D01*
X25657Y66564D01*
X25587Y66553D01*
X25510Y66547D01*
X25414Y66545D01*
X25393Y66536D01*
X24866Y66431D01*
X24403Y66122D01*
X24093Y65658D01*
X23985Y65112D01*
X24093Y64566D01*
X24403Y64103D01*
X24866Y63793D01*
X25412Y63685D01*
X25958Y63793D01*
X26422Y64103D01*
X26731Y64566D01*
X26836Y65093D01*
X26845Y65114D01*
X26847Y65210D01*
X26853Y65287D01*
X26864Y65356D01*
X26878Y65420D01*
X26895Y65476D01*
X26916Y65527D01*
X26940Y65574D01*
X26966Y65616D01*
X26996Y65656D01*
X27043Y65707D01*
X27058Y65749D01*
X33305Y71995D01*
X33459Y72227D01*
X33514Y72500D01*
Y75213D01*
X33976Y75404D01*
X35401Y73980D01*
Y59314D01*
X35382Y59273D01*
X35379Y59204D01*
X35372Y59155D01*
X35361Y59106D01*
X35344Y59057D01*
X35323Y59006D01*
X35295Y58954D01*
X35261Y58899D01*
X35219Y58842D01*
X35169Y58784D01*
X35102Y58714D01*
X35094Y58693D01*
X34795Y58246D01*
X34687Y57700D01*
X34795Y57154D01*
X35105Y56691D01*
X35568Y56381D01*
X36114Y56273D01*
X36661Y56381D01*
X37124Y56691D01*
X37433Y57154D01*
X37542Y57700D01*
X37433Y58246D01*
X37135Y58693D01*
X37126Y58714D01*
X37060Y58784D01*
X37010Y58842D01*
X36968Y58899D01*
X36933Y58954D01*
X36906Y59006D01*
X36884Y59057D01*
X36868Y59106D01*
X36856Y59155D01*
X36850Y59204D01*
X36847Y59273D01*
X36828Y59314D01*
Y72782D01*
X37328Y72934D01*
X37491Y72691D01*
X37954Y72381D01*
X38500Y72273D01*
X39046Y72381D01*
X39509Y72691D01*
X39819Y73154D01*
X39927Y73700D01*
X39819Y74246D01*
X39520Y74693D01*
X39512Y74714D01*
X39445Y74784D01*
X39395Y74842D01*
X39354Y74899D01*
X39319Y74954D01*
X39291Y75006D01*
X39270Y75057D01*
X39254Y75106D01*
X39242Y75155D01*
X39236Y75204D01*
X39233Y75273D01*
X39214Y75314D01*
Y76000D01*
X39159Y76273D01*
X39005Y76505D01*
X28814Y86696D01*
Y100051D01*
X29130Y100309D01*
X29586Y100111D01*
Y93300D01*
X29641Y93027D01*
X29795Y92795D01*
X33565Y89025D01*
X33564Y89004D01*
X33558Y88955D01*
X33546Y88906D01*
X33530Y88857D01*
X33509Y88806D01*
X33481Y88754D01*
X33446Y88699D01*
X33404Y88642D01*
X33355Y88584D01*
X33288Y88514D01*
X33280Y88493D01*
X32981Y88046D01*
X32873Y87500D01*
X32981Y86954D01*
X33291Y86491D01*
X33754Y86181D01*
X34300Y86073D01*
X34846Y86181D01*
X35309Y86491D01*
X35619Y86954D01*
X35727Y87500D01*
X35619Y88046D01*
X35320Y88493D01*
X35312Y88514D01*
X35245Y88584D01*
X35195Y88642D01*
X35154Y88699D01*
X35119Y88754D01*
X35091Y88806D01*
X35070Y88857D01*
X35054Y88906D01*
X35042Y88955D01*
X35036Y89004D01*
X35032Y89073D01*
X35014Y89114D01*
Y89300D01*
X34959Y89573D01*
X34805Y89805D01*
X33923Y90686D01*
X34130Y91186D01*
X34604D01*
X37254Y88536D01*
X37269Y88495D01*
X37316Y88443D01*
X37346Y88404D01*
X37373Y88362D01*
X37396Y88315D01*
X37417Y88264D01*
X37434Y88207D01*
X37449Y88144D01*
X37459Y88074D01*
X37465Y87998D01*
X37467Y87902D01*
X37477Y87880D01*
X37581Y87354D01*
X37891Y86891D01*
X38354Y86581D01*
X38900Y86473D01*
X39446Y86581D01*
X39909Y86891D01*
X39922Y86909D01*
X40602Y87027D01*
X40686Y86964D01*
Y65800D01*
X40741Y65527D01*
X40895Y65295D01*
X42300Y63891D01*
Y55741D01*
X42232Y55668D01*
X42216Y55625D01*
X40836Y54246D01*
X40795Y54230D01*
X40743Y54184D01*
X40704Y54154D01*
X40662Y54127D01*
X40615Y54104D01*
X40564Y54083D01*
X40507Y54066D01*
X40444Y54051D01*
X40374Y54041D01*
X40298Y54035D01*
X40202Y54033D01*
X40180Y54023D01*
X39654Y53919D01*
X39207Y53620D01*
X39186Y53612D01*
X39116Y53545D01*
X39058Y53496D01*
X39001Y53454D01*
X38946Y53419D01*
X38894Y53391D01*
X38843Y53370D01*
X38794Y53354D01*
X38745Y53342D01*
X38696Y53336D01*
X38627Y53333D01*
X38586Y53314D01*
X32896D01*
X23746Y62464D01*
X23731Y62505D01*
X23684Y62557D01*
X23654Y62596D01*
X23627Y62638D01*
X23604Y62685D01*
X23583Y62736D01*
X23566Y62793D01*
X23551Y62856D01*
X23541Y62926D01*
X23535Y63002D01*
X23533Y63098D01*
X23524Y63120D01*
X23419Y63646D01*
X23109Y64109D01*
X22646Y64419D01*
X22100Y64527D01*
X21554Y64419D01*
X21091Y64109D01*
X20781Y63646D01*
X20673Y63100D01*
X20781Y62554D01*
X21091Y62091D01*
X21554Y61781D01*
X22080Y61677D01*
X22102Y61667D01*
X22198Y61665D01*
X22274Y61659D01*
X22344Y61649D01*
X22407Y61634D01*
X22464Y61617D01*
X22515Y61596D01*
X22562Y61573D01*
X22604Y61546D01*
X22643Y61516D01*
X22695Y61470D01*
X22736Y61454D01*
X32095Y52095D01*
X32327Y51941D01*
X32600Y51886D01*
X38586D01*
X38627Y51868D01*
X38696Y51864D01*
X38745Y51858D01*
X38794Y51846D01*
X38843Y51830D01*
X38894Y51809D01*
X38946Y51781D01*
X39001Y51746D01*
X39058Y51705D01*
X39116Y51655D01*
X39186Y51588D01*
X39207Y51580D01*
X39654Y51281D01*
X40200Y51173D01*
X40746Y51281D01*
X41209Y51591D01*
X41519Y52054D01*
X41623Y52580D01*
X41633Y52602D01*
X41635Y52698D01*
X41641Y52775D01*
X41645Y52801D01*
X41800Y52916D01*
X42024Y52863D01*
X42160Y52782D01*
X42300Y52611D01*
Y46545D01*
X21765D01*
X18790Y49519D01*
X18773Y49563D01*
X18676Y49664D01*
X18606Y49745D01*
X18600Y49752D01*
X18633Y49801D01*
X18722Y50250D01*
Y51750D01*
X18633Y52199D01*
X18379Y52579D01*
X17999Y52833D01*
X17550Y52922D01*
X15050D01*
X14601Y52833D01*
X14221Y52579D01*
X14014Y52269D01*
X13725Y52281D01*
X13514Y52352D01*
Y58404D01*
X16805Y61695D01*
X16959Y61927D01*
X17014Y62200D01*
Y62843D01*
X17033Y62886D01*
X17036Y62990D01*
X17042Y63064D01*
X17044Y63077D01*
X17550D01*
X17999Y63167D01*
X18379Y63421D01*
X18633Y63801D01*
X18722Y64250D01*
Y65750D01*
X18633Y66199D01*
X18379Y66579D01*
X17999Y66833D01*
X17562Y66920D01*
X17500Y67014D01*
X17372Y67250D01*
X17500Y67486D01*
X17562Y67580D01*
X17999Y67667D01*
X18379Y67921D01*
X18633Y68301D01*
X18722Y68750D01*
Y70250D01*
X18633Y70699D01*
X18379Y71079D01*
X17999Y71333D01*
X17550Y71422D01*
X15050D01*
X14601Y71333D01*
X14221Y71079D01*
X13967Y70699D01*
X13878Y70250D01*
Y68750D01*
X13967Y68301D01*
X14221Y67921D01*
X14601Y67667D01*
X15038Y67580D01*
X15100Y67486D01*
X15228Y67250D01*
X15100Y67014D01*
X15038Y66920D01*
X14601Y66833D01*
X14221Y66579D01*
X13967Y66199D01*
X13878Y65750D01*
Y64250D01*
X13967Y63801D01*
X14221Y63421D01*
X14601Y63167D01*
X15050Y63077D01*
X15556D01*
X15558Y63064D01*
X15564Y62990D01*
X15567Y62886D01*
X15586Y62843D01*
Y62496D01*
X12295Y59205D01*
X12141Y58973D01*
X12086Y58700D01*
Y56746D01*
X11586Y56594D01*
X11509Y56709D01*
X11046Y57019D01*
X10500Y57127D01*
X9954Y57019D01*
X9527Y56734D01*
X9250Y56789D01*
X9147Y56832D01*
X9077Y56880D01*
X9007Y56951D01*
X9003Y56957D01*
X8920Y57376D01*
X8614Y57834D01*
X8156Y58140D01*
X7616Y58248D01*
X2584D01*
X2044Y58140D01*
X1586Y57834D01*
X1418Y57582D01*
X918Y57734D01*
Y61844D01*
X1418Y61996D01*
X1586Y61744D01*
X2044Y61438D01*
X2584Y61330D01*
X7616D01*
X8156Y61438D01*
X8614Y61744D01*
X8920Y62202D01*
X9027Y62742D01*
Y64710D01*
X8920Y65250D01*
X8614Y65708D01*
X8567Y66184D01*
X13218Y70835D01*
X13373Y71067D01*
X13427Y71340D01*
Y79284D01*
X13373Y79557D01*
X13218Y79789D01*
X12743Y80264D01*
X12728Y80305D01*
X12681Y80357D01*
X12652Y80396D01*
X12625Y80438D01*
X12601Y80485D01*
X12581Y80536D01*
X12563Y80593D01*
X12549Y80656D01*
X12539Y80726D01*
X12532Y80802D01*
X12530Y80898D01*
X12521Y80920D01*
X12416Y81446D01*
X12107Y81909D01*
X11644Y82219D01*
X11098Y82327D01*
X10551Y82219D01*
X10088Y81909D01*
X9779Y81446D01*
X9670Y80900D01*
X9779Y80354D01*
X10088Y79891D01*
X10551Y79581D01*
X11078Y79476D01*
X11099Y79467D01*
X11196Y79465D01*
X11272Y79459D01*
X11342Y79449D01*
X11405Y79434D01*
X11462Y79417D01*
X11513Y79396D01*
X11559Y79373D01*
X11602Y79346D01*
X11641Y79316D01*
X11692Y79269D01*
X11734Y79254D01*
X12000Y78988D01*
Y78404D01*
X11883Y78315D01*
X11500Y78182D01*
X11146Y78419D01*
X10600Y78527D01*
X10054Y78419D01*
X9591Y78109D01*
X9281Y77646D01*
X9177Y77120D01*
X9167Y77098D01*
X9165Y77002D01*
X9159Y76925D01*
X9149Y76856D01*
X9134Y76793D01*
X9117Y76736D01*
X9096Y76685D01*
X9073Y76638D01*
X9046Y76596D01*
X9016Y76557D01*
X8969Y76505D01*
X8954Y76464D01*
X6821Y74330D01*
X6777Y74313D01*
X6696Y74236D01*
X6625Y74175D01*
X6559Y74125D01*
X6498Y74084D01*
X6441Y74052D01*
X6391Y74028D01*
X6346Y74013D01*
X6306Y74003D01*
X6272Y73998D01*
X6216Y73996D01*
X6214Y73996D01*
X2584D01*
X2044Y73888D01*
X1586Y73582D01*
X1418Y73330D01*
X918Y73482D01*
Y133582D01*
X42300D01*
Y131073D01*
D02*
G37*
G36*
X45088Y129317D02*
X45044Y129370D01*
X44995Y129419D01*
X44940Y129461D01*
X44880Y129498D01*
X44814Y129529D01*
X44743Y129555D01*
X44665Y129575D01*
X44583Y129589D01*
X44494Y129597D01*
X44400Y129600D01*
Y130200D01*
X44494Y130203D01*
X44583Y130211D01*
X44665Y130226D01*
X44743Y130245D01*
X44814Y130271D01*
X44880Y130302D01*
X44940Y130339D01*
X44995Y130381D01*
X45044Y130429D01*
X45088Y130483D01*
Y129317D01*
D02*
G37*
G36*
X38485Y128806D02*
X38453Y128438D01*
X38066Y128176D01*
X38062Y128177D01*
X37967Y128241D01*
X37695Y128295D01*
X37105D01*
X36833Y128241D01*
X36604Y128087D01*
X36450Y127857D01*
X36396Y127586D01*
Y125814D01*
X36450Y125543D01*
X36604Y125313D01*
X36833Y125159D01*
X37105Y125105D01*
X37695D01*
X37967Y125159D01*
X38197Y125313D01*
X38603D01*
X38833Y125159D01*
X39105Y125105D01*
X39695D01*
X39967Y125159D01*
X40196Y125313D01*
X40604D01*
X40833Y125159D01*
X41105Y125105D01*
X41695D01*
X41800Y125126D01*
X42215Y124878D01*
X42300Y124781D01*
Y110414D01*
X39798D01*
X39765Y110431D01*
X39752Y110427D01*
X39740Y110433D01*
X39638Y110436D01*
X39556Y110445D01*
X39478Y110460D01*
X39405Y110480D01*
X39334Y110506D01*
X39266Y110538D01*
X39199Y110576D01*
X39134Y110620D01*
X39070Y110672D01*
X38995Y110741D01*
X38952Y110757D01*
X37914Y111796D01*
Y116627D01*
X37931Y116659D01*
X37914Y116716D01*
Y122800D01*
X37859Y123073D01*
X37705Y123305D01*
X36805Y124205D01*
X36573Y124359D01*
X36300Y124414D01*
X36232D01*
X36191Y124433D01*
X36003Y124440D01*
X35942Y124447D01*
X35889Y124456D01*
X35850Y124466D01*
X35825Y124474D01*
X35817Y124478D01*
X35804Y124489D01*
X35803Y124489D01*
X35796Y124506D01*
X35736Y124530D01*
X35557Y124650D01*
X35286Y124704D01*
X33514D01*
X33243Y124650D01*
X33064Y124530D01*
X33004Y124506D01*
X32997Y124489D01*
X32996Y124489D01*
X32983Y124478D01*
X32975Y124474D01*
X32950Y124466D01*
X32911Y124456D01*
X32864Y124448D01*
X32710Y124435D01*
X32618Y124433D01*
X32574Y124414D01*
X32300D01*
X32027Y124359D01*
X31795Y124205D01*
X30962Y123371D01*
X30501Y123618D01*
X30518Y123700D01*
Y124700D01*
X30448Y125051D01*
X30249Y125349D01*
X29951Y125548D01*
X29851Y125568D01*
X29842Y125622D01*
X29836Y125701D01*
X29833Y125808D01*
X29814Y125851D01*
Y126804D01*
X32796Y129786D01*
X37504D01*
X38485Y128806D01*
D02*
G37*
G36*
X54924Y128641D02*
X54856Y128561D01*
X54796Y128480D01*
X54744Y128398D01*
X54700Y128314D01*
X54664Y128230D01*
X54636Y128144D01*
X54616Y128058D01*
X54604Y127970D01*
X54600Y127881D01*
X54000D01*
X53996Y127970D01*
X53984Y128058D01*
X53964Y128144D01*
X53936Y128230D01*
X53900Y128314D01*
X53856Y128398D01*
X53804Y128480D01*
X53744Y128561D01*
X53676Y128641D01*
X53600Y128720D01*
X55000D01*
X54924Y128641D01*
D02*
G37*
G36*
X43702Y128368D02*
X43718Y128181D01*
X43732Y128100D01*
X43750Y128028D01*
X43772Y127963D01*
X43798Y127908D01*
X43828Y127860D01*
X43862Y127821D01*
X43900Y127790D01*
X42900D01*
X42938Y127821D01*
X42972Y127860D01*
X43002Y127908D01*
X43028Y127963D01*
X43050Y128028D01*
X43068Y128100D01*
X43082Y128181D01*
X43092Y128270D01*
X43100Y128474D01*
X43700D01*
X43702Y128368D01*
D02*
G37*
G36*
X42024Y128641D02*
X41956Y128561D01*
X41896Y128480D01*
X41844Y128398D01*
X41800Y128314D01*
X41764Y128230D01*
X41736Y128144D01*
X41729Y128115D01*
X41732Y128100D01*
X41750Y128028D01*
X41772Y127963D01*
X41798Y127908D01*
X41828Y127860D01*
X41862Y127821D01*
X41899Y127790D01*
X40900D01*
X40938Y127821D01*
X40972Y127860D01*
X41002Y127908D01*
X41028Y127963D01*
X41050Y128028D01*
X41068Y128100D01*
X41071Y128115D01*
X41064Y128144D01*
X41036Y128230D01*
X41000Y128314D01*
X40956Y128398D01*
X40904Y128480D01*
X40844Y128561D01*
X40776Y128641D01*
X40700Y128720D01*
X42100D01*
X42024Y128641D01*
D02*
G37*
G36*
X39702Y128368D02*
X39718Y128181D01*
X39732Y128100D01*
X39750Y128028D01*
X39772Y127963D01*
X39798Y127908D01*
X39828Y127860D01*
X39862Y127821D01*
X39900Y127790D01*
X38901D01*
X38938Y127821D01*
X38972Y127860D01*
X39002Y127908D01*
X39028Y127963D01*
X39050Y128028D01*
X39068Y128100D01*
X39082Y128181D01*
X39092Y128270D01*
X39100Y128474D01*
X39700D01*
X39702Y128368D01*
D02*
G37*
G36*
X29403Y125678D02*
X29412Y125570D01*
X29427Y125475D01*
X29448Y125393D01*
X29474Y125324D01*
X29507Y125267D01*
X29546Y125223D01*
X29590Y125191D01*
X29641Y125172D01*
X29698Y125166D01*
X28502D01*
X28559Y125172D01*
X28609Y125191D01*
X28654Y125223D01*
X28693Y125267D01*
X28726Y125324D01*
X28752Y125393D01*
X28773Y125475D01*
X28788Y125570D01*
X28797Y125678D01*
X28800Y125798D01*
X29400D01*
X29403Y125678D01*
D02*
G37*
G36*
X54603Y124768D02*
X54612Y124664D01*
X54627Y124572D01*
X54648Y124492D01*
X54675Y124425D01*
X54708Y124370D01*
X54747Y124327D01*
X54792Y124297D01*
X54843Y124278D01*
X54900Y124272D01*
X53700D01*
X53757Y124278D01*
X53808Y124297D01*
X53853Y124327D01*
X53892Y124370D01*
X53925Y124425D01*
X53952Y124492D01*
X53973Y124572D01*
X53988Y124664D01*
X53997Y124768D01*
X54000Y124884D01*
X54600D01*
X54603Y124768D01*
D02*
G37*
G36*
X35521Y124162D02*
X35560Y124128D01*
X35608Y124098D01*
X35663Y124072D01*
X35728Y124050D01*
X35800Y124032D01*
X35881Y124018D01*
X35970Y124008D01*
X36174Y124000D01*
Y123400D01*
X36068Y123398D01*
X35881Y123382D01*
X35800Y123368D01*
X35728Y123350D01*
X35663Y123328D01*
X35608Y123302D01*
X35560Y123272D01*
X35521Y123238D01*
X35490Y123201D01*
Y124199D01*
X35521Y124162D01*
D02*
G37*
G36*
X33310Y123201D02*
X33279Y123238D01*
X33240Y123272D01*
X33192Y123302D01*
X33137Y123328D01*
X33072Y123350D01*
X33000Y123368D01*
X32919Y123382D01*
X32830Y123392D01*
X32626Y123400D01*
Y124000D01*
X32732Y124002D01*
X32919Y124018D01*
X33000Y124032D01*
X33072Y124050D01*
X33137Y124072D01*
X33192Y124098D01*
X33240Y124128D01*
X33279Y124162D01*
X33310Y124199D01*
Y123201D01*
D02*
G37*
G36*
X30322Y121298D02*
X30223Y121194D01*
X30062Y121000D01*
X30000Y120909D01*
X29950Y120823D01*
X29912Y120740D01*
X29887Y120661D01*
X29874Y120586D01*
X29874Y120516D01*
X29886Y120449D01*
X29522Y121761D01*
X29545Y121705D01*
X29578Y121668D01*
X29621Y121649D01*
X29675Y121648D01*
X29738Y121666D01*
X29812Y121702D01*
X29895Y121757D01*
X29989Y121830D01*
X30093Y121921D01*
X30206Y122031D01*
X30322Y121298D01*
D02*
G37*
G36*
X55420Y122162D02*
X55457Y122128D01*
X55501Y122098D01*
X55552Y122072D01*
X55609Y122050D01*
X55674Y122032D01*
X55745Y122018D01*
X55823Y122008D01*
X55908Y122002D01*
X56000Y122000D01*
Y121400D01*
X55908Y121398D01*
X55745Y121382D01*
X55674Y121368D01*
X55609Y121350D01*
X55552Y121328D01*
X55501Y121302D01*
X55457Y121272D01*
X55420Y121238D01*
X55390Y121201D01*
Y122199D01*
X55420Y122162D01*
D02*
G37*
G36*
X33310Y117201D02*
X33279Y117238D01*
X33240Y117272D01*
X33192Y117302D01*
X33137Y117328D01*
X33072Y117350D01*
X33000Y117368D01*
X32919Y117382D01*
X32830Y117392D01*
X32626Y117400D01*
Y118000D01*
X32732Y118002D01*
X32919Y118018D01*
X33000Y118032D01*
X33072Y118050D01*
X33137Y118072D01*
X33192Y118098D01*
X33240Y118128D01*
X33279Y118162D01*
X33310Y118200D01*
Y117201D01*
D02*
G37*
G36*
X29890Y117262D02*
X29906Y117228D01*
X29932Y117198D01*
X29968Y117172D01*
X30014Y117150D01*
X30071Y117132D01*
X30138Y117118D01*
X30215Y117108D01*
X30302Y117102D01*
X30400Y117100D01*
Y116500D01*
X30302Y116498D01*
X30138Y116482D01*
X30071Y116468D01*
X30014Y116450D01*
X29968Y116428D01*
X29932Y116402D01*
X29906Y116372D01*
X29890Y116338D01*
X29885Y116300D01*
Y117300D01*
X29890Y117262D01*
D02*
G37*
G36*
X27934Y116202D02*
X27928Y116259D01*
X27909Y116309D01*
X27877Y116354D01*
X27833Y116393D01*
X27776Y116426D01*
X27707Y116452D01*
X27625Y116473D01*
X27530Y116488D01*
X27422Y116497D01*
X27302Y116500D01*
Y117100D01*
X27422Y117103D01*
X27530Y117112D01*
X27625Y117127D01*
X27707Y117148D01*
X27776Y117174D01*
X27833Y117207D01*
X27877Y117246D01*
X27909Y117290D01*
X27928Y117341D01*
X27934Y117398D01*
Y116202D01*
D02*
G37*
G36*
X26272Y117341D02*
X26291Y117290D01*
X26323Y117246D01*
X26367Y117207D01*
X26424Y117174D01*
X26493Y117148D01*
X26575Y117127D01*
X26670Y117112D01*
X26777Y117103D01*
X26898Y117100D01*
Y116500D01*
X26777Y116497D01*
X26670Y116488D01*
X26575Y116473D01*
X26493Y116452D01*
X26424Y116426D01*
X26367Y116393D01*
X26323Y116354D01*
X26291Y116309D01*
X26272Y116259D01*
X26266Y116202D01*
Y117398D01*
X26272Y117341D01*
D02*
G37*
G36*
X37500Y116700D02*
X36900Y115376D01*
X36896Y115486D01*
X36883Y115575D01*
X36862Y115644D01*
X36832Y115692D01*
X36794Y115720D01*
X36747Y115727D01*
X36692Y115714D01*
X36628Y115680D01*
X36556Y115626D01*
X36476Y115551D01*
Y116400D01*
X36556Y116487D01*
X36628Y116577D01*
X36692Y116670D01*
X36747Y116768D01*
X36794Y116868D01*
X36832Y116972D01*
X36862Y117080D01*
X36883Y117191D01*
X36896Y117306D01*
X36900Y117424D01*
X37500Y116700D01*
D02*
G37*
G36*
X35521Y116162D02*
X35560Y116128D01*
X35608Y116098D01*
X35663Y116072D01*
X35728Y116050D01*
X35800Y116032D01*
X35881Y116018D01*
X35970Y116008D01*
X36174Y116000D01*
Y115400D01*
X36068Y115398D01*
X35881Y115382D01*
X35800Y115368D01*
X35728Y115350D01*
X35663Y115328D01*
X35608Y115302D01*
X35560Y115272D01*
X35521Y115238D01*
X35490Y115200D01*
Y116200D01*
X35521Y116162D01*
D02*
G37*
G36*
X19472Y112941D02*
X19491Y112891D01*
X19523Y112846D01*
X19567Y112807D01*
X19624Y112774D01*
X19693Y112748D01*
X19775Y112727D01*
X19870Y112712D01*
X19977Y112703D01*
X20098Y112700D01*
Y112100D01*
X19977Y112097D01*
X19870Y112088D01*
X19775Y112073D01*
X19693Y112052D01*
X19624Y112026D01*
X19567Y111993D01*
X19523Y111954D01*
X19491Y111909D01*
X19472Y111859D01*
X19466Y111802D01*
Y112998D01*
X19472Y112941D01*
D02*
G37*
G36*
X55421Y112162D02*
X55460Y112128D01*
X55508Y112098D01*
X55563Y112072D01*
X55628Y112050D01*
X55700Y112032D01*
X55781Y112018D01*
X55870Y112008D01*
X56074Y112000D01*
Y111400D01*
X55968Y111398D01*
X55781Y111382D01*
X55700Y111368D01*
X55628Y111350D01*
X55563Y111328D01*
X55508Y111302D01*
X55460Y111272D01*
X55421Y111238D01*
X55390Y111200D01*
Y112199D01*
X55421Y112162D01*
D02*
G37*
G36*
X28236Y111092D02*
X28455Y110907D01*
X28551Y110839D01*
X28639Y110789D01*
X28718Y110755D01*
X28789Y110737D01*
X28852Y110737D01*
X28905Y110753D01*
X28951Y110786D01*
X28114Y109949D01*
X28147Y109994D01*
X28163Y110048D01*
X28163Y110111D01*
X28146Y110182D01*
X28111Y110261D01*
X28061Y110349D01*
X27993Y110445D01*
X27909Y110550D01*
X27690Y110785D01*
X28115Y111210D01*
X28236Y111092D01*
D02*
G37*
G36*
X38787Y110344D02*
X38877Y110272D01*
X38970Y110208D01*
X39068Y110153D01*
X39168Y110106D01*
X39272Y110068D01*
X39380Y110038D01*
X39491Y110017D01*
X39606Y110004D01*
X39724Y110000D01*
X39000Y109400D01*
X37676Y110000D01*
X37786Y110004D01*
X37875Y110017D01*
X37944Y110038D01*
X37992Y110068D01*
X38020Y110106D01*
X38027Y110153D01*
X38014Y110208D01*
X37980Y110272D01*
X37926Y110344D01*
X37852Y110424D01*
X38700D01*
X38787Y110344D01*
D02*
G37*
G36*
X53210Y109201D02*
X53179Y109238D01*
X53140Y109272D01*
X53092Y109302D01*
X53037Y109328D01*
X52972Y109350D01*
X52900Y109368D01*
X52819Y109382D01*
X52730Y109392D01*
X52526Y109400D01*
Y110000D01*
X52632Y110002D01*
X52819Y110018D01*
X52900Y110032D01*
X52972Y110050D01*
X53037Y110072D01*
X53092Y110098D01*
X53140Y110128D01*
X53179Y110162D01*
X53210Y110199D01*
Y109201D01*
D02*
G37*
G36*
X34664Y109128D02*
X34589Y109131D01*
X34512Y109124D01*
X34433Y109107D01*
X34352Y109079D01*
X34268Y109040D01*
X34182Y108992D01*
X34094Y108932D01*
X34003Y108863D01*
X33911Y108782D01*
X33816Y108692D01*
X32988Y108712D01*
X33060Y108788D01*
X33174Y108928D01*
X33216Y108992D01*
X33247Y109052D01*
X33268Y109108D01*
X33278Y109161D01*
X33278Y109209D01*
X33268Y109254D01*
X33247Y109294D01*
X34664Y109128D01*
D02*
G37*
G36*
X25641Y108828D02*
X25591Y108809D01*
X25546Y108777D01*
X25507Y108733D01*
X25474Y108676D01*
X25448Y108607D01*
X25427Y108525D01*
X25412Y108430D01*
X25403Y108323D01*
X25400Y108202D01*
X24800D01*
X24797Y108323D01*
X24788Y108430D01*
X24773Y108525D01*
X24752Y108607D01*
X24726Y108676D01*
X24693Y108733D01*
X24654Y108777D01*
X24610Y108809D01*
X24559Y108828D01*
X24502Y108834D01*
X25698D01*
X25641Y108828D01*
D02*
G37*
G36*
X49862Y105579D02*
X49828Y105540D01*
X49798Y105492D01*
X49772Y105437D01*
X49750Y105372D01*
X49732Y105300D01*
X49718Y105219D01*
X49708Y105130D01*
X49700Y104926D01*
X49100D01*
X49098Y105032D01*
X49082Y105219D01*
X49068Y105300D01*
X49050Y105372D01*
X49028Y105437D01*
X49002Y105492D01*
X48972Y105540D01*
X48938Y105579D01*
X48900Y105610D01*
X49900D01*
X49862Y105579D01*
D02*
G37*
G36*
X47862D02*
X47828Y105540D01*
X47798Y105492D01*
X47772Y105437D01*
X47750Y105372D01*
X47732Y105300D01*
X47718Y105219D01*
X47708Y105130D01*
X47700Y104926D01*
X47100D01*
X47098Y105032D01*
X47082Y105219D01*
X47068Y105300D01*
X47050Y105372D01*
X47028Y105437D01*
X47002Y105492D01*
X46972Y105540D01*
X46938Y105579D01*
X46900Y105610D01*
X47899D01*
X47862Y105579D01*
D02*
G37*
G36*
X45862D02*
X45828Y105540D01*
X45798Y105492D01*
X45772Y105437D01*
X45750Y105372D01*
X45732Y105300D01*
X45718Y105219D01*
X45708Y105130D01*
X45700Y104926D01*
X45100D01*
X45098Y105032D01*
X45082Y105219D01*
X45068Y105300D01*
X45050Y105372D01*
X45028Y105437D01*
X45002Y105492D01*
X44972Y105540D01*
X44938Y105579D01*
X44901Y105610D01*
X45900D01*
X45862Y105579D01*
D02*
G37*
G36*
X43862D02*
X43828Y105540D01*
X43798Y105492D01*
X43772Y105437D01*
X43750Y105372D01*
X43732Y105300D01*
X43718Y105219D01*
X43708Y105130D01*
X43700Y104926D01*
X43100D01*
X43098Y105032D01*
X43082Y105219D01*
X43068Y105300D01*
X43050Y105372D01*
X43028Y105437D01*
X43002Y105492D01*
X42972Y105540D01*
X42938Y105579D01*
X42900Y105610D01*
X43900D01*
X43862Y105579D01*
D02*
G37*
G36*
X41862D02*
X41828Y105540D01*
X41798Y105492D01*
X41772Y105437D01*
X41750Y105372D01*
X41732Y105300D01*
X41718Y105219D01*
X41708Y105130D01*
X41700Y104926D01*
X41100D01*
X41098Y105032D01*
X41082Y105219D01*
X41068Y105300D01*
X41050Y105372D01*
X41028Y105437D01*
X41002Y105492D01*
X40972Y105540D01*
X40938Y105579D01*
X40900Y105610D01*
X41899D01*
X41862Y105579D01*
D02*
G37*
G36*
X39862D02*
X39828Y105540D01*
X39798Y105492D01*
X39772Y105437D01*
X39750Y105372D01*
X39732Y105300D01*
X39718Y105219D01*
X39708Y105130D01*
X39700Y104926D01*
X39100D01*
X39098Y105032D01*
X39082Y105219D01*
X39068Y105300D01*
X39050Y105372D01*
X39028Y105437D01*
X39002Y105492D01*
X38972Y105540D01*
X38938Y105579D01*
X38901Y105610D01*
X39900D01*
X39862Y105579D01*
D02*
G37*
G36*
X37862D02*
X37828Y105540D01*
X37798Y105492D01*
X37772Y105437D01*
X37750Y105372D01*
X37732Y105300D01*
X37718Y105219D01*
X37708Y105130D01*
X37700Y104926D01*
X37100D01*
X37098Y105032D01*
X37082Y105219D01*
X37068Y105300D01*
X37050Y105372D01*
X37028Y105437D01*
X37002Y105492D01*
X36972Y105540D01*
X36938Y105579D01*
X36900Y105610D01*
X37900D01*
X37862Y105579D01*
D02*
G37*
G36*
X89664Y106579D02*
X89757Y106417D01*
X89861Y106261D01*
X89976Y106108D01*
X90102Y105959D01*
X90240Y105815D01*
X90389Y105675D01*
X90720Y105407D01*
X90902Y105279D01*
X88714Y104862D01*
X88718Y104923D01*
X88710Y105005D01*
X88689Y105106D01*
X88656Y105227D01*
X88552Y105529D01*
X88304Y106131D01*
X88196Y106372D01*
X89583Y106744D01*
X89664Y106579D01*
D02*
G37*
G36*
X54086Y102400D02*
X54043Y102438D01*
X53993Y102472D01*
X53936Y102502D01*
X53872Y102528D01*
X53800Y102550D01*
X53721Y102568D01*
X53635Y102582D01*
X53542Y102592D01*
X53334Y102600D01*
Y103600D01*
X53442Y103602D01*
X53635Y103618D01*
X53721Y103632D01*
X53800Y103650D01*
X53872Y103672D01*
X53936Y103698D01*
X53993Y103728D01*
X54043Y103762D01*
X54086Y103800D01*
Y102400D01*
D02*
G37*
G36*
X52557Y103762D02*
X52607Y103728D01*
X52664Y103698D01*
X52728Y103672D01*
X52800Y103650D01*
X52879Y103632D01*
X52965Y103618D01*
X53058Y103608D01*
X53266Y103600D01*
Y102600D01*
X53158Y102598D01*
X52965Y102582D01*
X52879Y102568D01*
X52800Y102550D01*
X52728Y102528D01*
X52664Y102502D01*
X52607Y102472D01*
X52557Y102438D01*
X52514Y102400D01*
Y103800D01*
X52557Y103762D01*
D02*
G37*
G36*
X55803Y103033D02*
X55815Y102973D01*
X55834Y102912D01*
X55861Y102848D01*
X55896Y102782D01*
X55939Y102713D01*
X55990Y102643D01*
X56049Y102570D01*
X56190Y102417D01*
X55483Y101710D01*
X55406Y101785D01*
X55257Y101910D01*
X55187Y101961D01*
X55118Y102004D01*
X55052Y102039D01*
X54988Y102066D01*
X54927Y102085D01*
X54867Y102097D01*
X54810Y102100D01*
X55800Y103090D01*
X55803Y103033D01*
D02*
G37*
G36*
X26724Y101607D02*
X26656Y101527D01*
X26596Y101446D01*
X26544Y101363D01*
X26500Y101280D01*
X26464Y101195D01*
X26436Y101110D01*
X26416Y101023D01*
X26404Y100935D01*
X26400Y100846D01*
X25800D01*
X25796Y100935D01*
X25784Y101023D01*
X25764Y101110D01*
X25736Y101195D01*
X25700Y101280D01*
X25656Y101363D01*
X25604Y101446D01*
X25544Y101527D01*
X25476Y101607D01*
X25400Y101686D01*
X26800D01*
X26724Y101607D01*
D02*
G37*
G36*
X52802Y99880D02*
X52811Y99776D01*
X52826Y99676D01*
X52847Y99581D01*
X52875Y99491D01*
X52909Y99406D01*
X52950Y99325D01*
X52997Y99250D01*
X53051Y99179D01*
X53111Y99113D01*
X52687Y98689D01*
X52621Y98749D01*
X52550Y98803D01*
X52475Y98850D01*
X52394Y98891D01*
X52309Y98925D01*
X52219Y98953D01*
X52124Y98974D01*
X52024Y98989D01*
X51920Y98998D01*
X51810Y99000D01*
X52800Y99990D01*
X52802Y99880D01*
D02*
G37*
G36*
X24024Y99307D02*
X23956Y99227D01*
X23896Y99146D01*
X23844Y99063D01*
X23800Y98980D01*
X23764Y98895D01*
X23736Y98810D01*
X23716Y98723D01*
X23704Y98635D01*
X23700Y98546D01*
X23100D01*
X23096Y98635D01*
X23084Y98723D01*
X23064Y98810D01*
X23036Y98895D01*
X23000Y98980D01*
X22956Y99063D01*
X22904Y99146D01*
X22844Y99227D01*
X22776Y99307D01*
X22700Y99386D01*
X24100D01*
X24024Y99307D01*
D02*
G37*
G36*
X108664Y99777D02*
X108590Y99634D01*
X108524Y99481D01*
X108468Y99320D01*
X108420Y99151D01*
X108381Y98972D01*
X108350Y98785D01*
X108315Y98383D01*
X108311Y98170D01*
X106911D01*
X106907Y98383D01*
X106872Y98785D01*
X106841Y98972D01*
X106802Y99151D01*
X106754Y99320D01*
X106698Y99481D01*
X106632Y99634D01*
X106558Y99777D01*
X106475Y99912D01*
X108747D01*
X108664Y99777D01*
D02*
G37*
G36*
X102768Y99790D02*
X102702Y99654D01*
X102644Y99505D01*
X102594Y99342D01*
X102552Y99165D01*
X102517Y98975D01*
X102471Y98555D01*
X102459Y98324D01*
X102455Y98080D01*
X100955D01*
X100952Y98324D01*
X100921Y98772D01*
X100894Y98975D01*
X100817Y99342D01*
X100767Y99505D01*
X100709Y99654D01*
X100643Y99790D01*
X100570Y99912D01*
X102841D01*
X102768Y99790D01*
D02*
G37*
G36*
X85051D02*
X84986Y99654D01*
X84928Y99505D01*
X84878Y99342D01*
X84835Y99165D01*
X84801Y98975D01*
X84754Y98555D01*
X84743Y98324D01*
X84739Y98080D01*
X83239D01*
X83235Y98324D01*
X83204Y98772D01*
X83177Y98975D01*
X83100Y99342D01*
X83050Y99505D01*
X82992Y99654D01*
X82927Y99790D01*
X82853Y99912D01*
X85124D01*
X85051Y99790D01*
D02*
G37*
G36*
X108312Y96338D02*
X108343Y95921D01*
X108357Y95845D01*
X108373Y95780D01*
X108392Y95727D01*
X108414Y95685D01*
X108438Y95654D01*
X106784D01*
X106808Y95685D01*
X106830Y95727D01*
X106849Y95780D01*
X106865Y95845D01*
X106879Y95921D01*
X106900Y96107D01*
X106910Y96338D01*
X106911Y96471D01*
X108311D01*
X108312Y96338D01*
D02*
G37*
G36*
X52802Y95780D02*
X52811Y95676D01*
X52826Y95576D01*
X52847Y95481D01*
X52875Y95391D01*
X52909Y95306D01*
X52950Y95225D01*
X52997Y95150D01*
X53051Y95079D01*
X53111Y95013D01*
X52687Y94589D01*
X52621Y94649D01*
X52550Y94703D01*
X52475Y94750D01*
X52394Y94791D01*
X52309Y94825D01*
X52219Y94853D01*
X52124Y94874D01*
X52024Y94889D01*
X51920Y94898D01*
X51810Y94900D01*
X52800Y95890D01*
X52802Y95780D01*
D02*
G37*
G36*
X40686Y104634D02*
Y88836D01*
X40602Y88774D01*
X39922Y88891D01*
X39909Y88909D01*
X39446Y89219D01*
X38920Y89324D01*
X38898Y89333D01*
X38802Y89335D01*
X38726Y89341D01*
X38656Y89351D01*
X38593Y89366D01*
X38536Y89383D01*
X38485Y89404D01*
X38438Y89427D01*
X38396Y89454D01*
X38357Y89484D01*
X38305Y89530D01*
X38264Y89546D01*
X35405Y92405D01*
X35173Y92559D01*
X34900Y92614D01*
X33896D01*
X32214Y94296D01*
Y100204D01*
X33596Y101586D01*
X38400D01*
X38673Y101641D01*
X38905Y101795D01*
X39905Y102795D01*
X40059Y103027D01*
X40114Y103300D01*
Y104711D01*
X40361Y104852D01*
X40686Y104634D01*
D02*
G37*
G36*
X34604Y88965D02*
X34616Y88877D01*
X34636Y88790D01*
X34664Y88705D01*
X34700Y88620D01*
X34744Y88537D01*
X34796Y88454D01*
X34856Y88373D01*
X34924Y88293D01*
X35000Y88214D01*
X33600D01*
X33676Y88293D01*
X33744Y88373D01*
X33804Y88454D01*
X33856Y88537D01*
X33900Y88620D01*
X33936Y88705D01*
X33964Y88790D01*
X33984Y88877D01*
X33996Y88965D01*
X34000Y89054D01*
X34600D01*
X34604Y88965D01*
D02*
G37*
G36*
X38079Y89151D02*
X38150Y89097D01*
X38225Y89050D01*
X38306Y89009D01*
X38391Y88975D01*
X38481Y88947D01*
X38576Y88926D01*
X38676Y88911D01*
X38780Y88902D01*
X38890Y88900D01*
X37900Y87910D01*
X37898Y88020D01*
X37889Y88124D01*
X37874Y88224D01*
X37853Y88319D01*
X37825Y88409D01*
X37791Y88494D01*
X37750Y88575D01*
X37703Y88650D01*
X37649Y88721D01*
X37589Y88787D01*
X38013Y89211D01*
X38079Y89151D01*
D02*
G37*
G36*
X51646Y87576D02*
X51673Y87554D01*
X51710Y87534D01*
X51758Y87517D01*
X51817Y87502D01*
X51886Y87490D01*
X51966Y87481D01*
X52158Y87471D01*
X52269Y87469D01*
Y86869D01*
X52158Y86868D01*
X51886Y86848D01*
X51817Y86836D01*
X51758Y86822D01*
X51710Y86804D01*
X51673Y86785D01*
X51646Y86762D01*
X51630Y86737D01*
Y87602D01*
X51646Y87576D01*
D02*
G37*
G36*
X59803Y86822D02*
X59832Y86512D01*
X59856Y86377D01*
X59888Y86256D01*
X59927Y86148D01*
X59972Y86054D01*
X60025Y85973D01*
X60085Y85906D01*
X60152Y85852D01*
X58448D01*
X58515Y85906D01*
X58575Y85973D01*
X58628Y86054D01*
X58673Y86148D01*
X58712Y86256D01*
X58744Y86377D01*
X58768Y86512D01*
X58786Y86660D01*
X58797Y86822D01*
X58800Y86998D01*
X59800D01*
X59803Y86822D01*
D02*
G37*
G36*
X51646Y85608D02*
X51674Y85585D01*
X51712Y85566D01*
X51761Y85548D01*
X51821Y85534D01*
X51892Y85522D01*
X51974Y85513D01*
X52170Y85502D01*
X52284Y85501D01*
Y84901D01*
X52170Y84899D01*
X51892Y84880D01*
X51821Y84868D01*
X51761Y84853D01*
X51712Y84836D01*
X51674Y84816D01*
X51646Y84794D01*
X51630Y84769D01*
Y85633D01*
X51646Y85608D01*
D02*
G37*
G36*
X60204Y85785D02*
X60268Y85725D01*
X60343Y85672D01*
X60428Y85627D01*
X60525Y85588D01*
X60633Y85556D01*
X60752Y85532D01*
X60882Y85514D01*
X61023Y85504D01*
X61175Y85500D01*
Y84500D01*
X61023Y84496D01*
X60752Y84468D01*
X60633Y84444D01*
X60525Y84412D01*
X60428Y84373D01*
X60343Y84328D01*
X60268Y84275D01*
X60204Y84215D01*
X60152Y84148D01*
Y85852D01*
X60204Y85785D01*
D02*
G37*
G36*
X56248Y84710D02*
X56228Y84660D01*
X56225Y84601D01*
X56240Y84533D01*
X56272Y84455D01*
X56322Y84369D01*
X56388Y84273D01*
X56472Y84168D01*
X56693Y83931D01*
X56198Y83578D01*
X56078Y83694D01*
X55862Y83877D01*
X55765Y83944D01*
X55677Y83996D01*
X55596Y84032D01*
X55522Y84051D01*
X55457Y84055D01*
X55399Y84043D01*
X55349Y84014D01*
X56286Y84751D01*
X56248Y84710D01*
D02*
G37*
G36*
X51646Y83639D02*
X51674Y83617D01*
X51712Y83597D01*
X51761Y83580D01*
X51821Y83565D01*
X51892Y83553D01*
X51974Y83544D01*
X52170Y83534D01*
X52284Y83532D01*
Y82932D01*
X52170Y82931D01*
X51892Y82911D01*
X51821Y82899D01*
X51761Y82885D01*
X51712Y82868D01*
X51674Y82848D01*
X51646Y82825D01*
X51630Y82800D01*
Y83665D01*
X51646Y83639D01*
D02*
G37*
G36*
X105056Y83758D02*
X105105Y83281D01*
X105148Y83057D01*
X105204Y82843D01*
X105271Y82639D01*
X105351Y82444D01*
X105444Y82259D01*
X105548Y82084D01*
X105665Y81919D01*
X102935D01*
X103052Y82084D01*
X103156Y82259D01*
X103249Y82444D01*
X103329Y82639D01*
X103396Y82843D01*
X103452Y83057D01*
X103495Y83281D01*
X103525Y83515D01*
X103544Y83758D01*
X103550Y84012D01*
X105050D01*
X105056Y83758D01*
D02*
G37*
G36*
X58436Y82192D02*
X58655Y82007D01*
X58751Y81939D01*
X58839Y81889D01*
X58918Y81854D01*
X58989Y81837D01*
X59052Y81837D01*
X59105Y81853D01*
X59151Y81886D01*
X58314Y81049D01*
X58347Y81094D01*
X58363Y81148D01*
X58363Y81211D01*
X58346Y81282D01*
X58311Y81361D01*
X58261Y81449D01*
X58193Y81545D01*
X58109Y81650D01*
X57890Y81885D01*
X58315Y82310D01*
X58436Y82192D01*
D02*
G37*
G36*
X54436D02*
X54655Y82007D01*
X54751Y81939D01*
X54839Y81889D01*
X54918Y81854D01*
X54989Y81837D01*
X55051Y81837D01*
X55106Y81853D01*
X55151Y81886D01*
X54314Y81049D01*
X54347Y81094D01*
X54363Y81148D01*
X54363Y81211D01*
X54346Y81282D01*
X54312Y81361D01*
X54261Y81449D01*
X54193Y81545D01*
X54109Y81650D01*
X53890Y81885D01*
X54315Y82310D01*
X54436Y82192D01*
D02*
G37*
G36*
X51646Y81671D02*
X51674Y81648D01*
X51712Y81629D01*
X51761Y81611D01*
X51821Y81597D01*
X51892Y81585D01*
X51974Y81576D01*
X52170Y81565D01*
X52284Y81564D01*
Y80964D01*
X52170Y80963D01*
X51892Y80943D01*
X51821Y80931D01*
X51761Y80916D01*
X51712Y80899D01*
X51674Y80879D01*
X51646Y80857D01*
X51630Y80832D01*
Y81696D01*
X51646Y81671D01*
D02*
G37*
G36*
X12100Y80780D02*
X12108Y80676D01*
X12123Y80576D01*
X12145Y80481D01*
X12173Y80391D01*
X12207Y80306D01*
X12248Y80225D01*
X12295Y80150D01*
X12348Y80079D01*
X12409Y80013D01*
X11984Y79589D01*
X11919Y79649D01*
X11848Y79703D01*
X11772Y79750D01*
X11692Y79791D01*
X11607Y79825D01*
X11517Y79853D01*
X11422Y79874D01*
X11322Y79889D01*
X11217Y79898D01*
X11108Y79900D01*
X12098Y80890D01*
X12100Y80780D01*
D02*
G37*
G36*
X54436Y78092D02*
X54655Y77907D01*
X54751Y77839D01*
X54839Y77789D01*
X54918Y77754D01*
X54989Y77737D01*
X55051Y77737D01*
X55106Y77753D01*
X55151Y77786D01*
X54314Y76949D01*
X54347Y76995D01*
X54363Y77048D01*
X54363Y77111D01*
X54346Y77182D01*
X54312Y77261D01*
X54261Y77349D01*
X54193Y77445D01*
X54109Y77550D01*
X53890Y77785D01*
X54315Y78210D01*
X54436Y78092D01*
D02*
G37*
G36*
X60184Y77540D02*
X60212Y77489D01*
X60258Y77445D01*
X60323Y77407D01*
X60406Y77374D01*
X60508Y77347D01*
X60628Y77327D01*
X60767Y77312D01*
X61100Y77300D01*
Y76300D01*
X60924Y76297D01*
X60628Y76273D01*
X60508Y76253D01*
X60406Y76226D01*
X60323Y76193D01*
X60258Y76155D01*
X60212Y76111D01*
X60184Y76060D01*
X60175Y76004D01*
Y77596D01*
X60184Y77540D01*
D02*
G37*
G36*
X59717Y75814D02*
X59640Y75870D01*
X59549Y75897D01*
X59443Y75896D01*
X59324Y75866D01*
X59189Y75808D01*
X59041Y75722D01*
X58878Y75608D01*
X58700Y75465D01*
X58302Y75095D01*
X57595Y75802D01*
X57794Y76009D01*
X58108Y76378D01*
X58222Y76541D01*
X58308Y76689D01*
X58366Y76824D01*
X58396Y76943D01*
X58397Y77049D01*
X58370Y77140D01*
X58314Y77217D01*
X59717Y75814D01*
D02*
G37*
G36*
X10590Y76100D02*
X10480Y76098D01*
X10376Y76089D01*
X10276Y76074D01*
X10181Y76053D01*
X10091Y76025D01*
X10006Y75991D01*
X9925Y75950D01*
X9850Y75903D01*
X9779Y75849D01*
X9713Y75789D01*
X9289Y76213D01*
X9349Y76279D01*
X9403Y76350D01*
X9450Y76425D01*
X9491Y76506D01*
X9525Y76591D01*
X9553Y76681D01*
X9574Y76776D01*
X9589Y76876D01*
X9598Y76980D01*
X9600Y77090D01*
X10590Y76100D01*
D02*
G37*
G36*
X51461Y75864D02*
X51494Y75863D01*
X52466Y75858D01*
Y74858D01*
X51448Y74851D01*
Y75866D01*
X51461Y75864D01*
D02*
G37*
G36*
X38804Y75165D02*
X38816Y75077D01*
X38836Y74990D01*
X38864Y74905D01*
X38900Y74820D01*
X38944Y74737D01*
X38996Y74654D01*
X39056Y74573D01*
X39124Y74493D01*
X39200Y74414D01*
X37800D01*
X37876Y74493D01*
X37944Y74573D01*
X38004Y74654D01*
X38056Y74737D01*
X38100Y74820D01*
X38136Y74905D01*
X38164Y74990D01*
X38184Y75077D01*
X38196Y75165D01*
X38200Y75254D01*
X38800D01*
X38804Y75165D01*
D02*
G37*
G36*
X7838Y73910D02*
X7770Y73829D01*
X7720Y73757D01*
X7688Y73694D01*
X7674Y73641D01*
X7677Y73597D01*
X7699Y73562D01*
X7738Y73536D01*
X7795Y73520D01*
X7871Y73513D01*
X6227Y73563D01*
X6307Y73566D01*
X6389Y73577D01*
X6471Y73598D01*
X6555Y73627D01*
X6639Y73666D01*
X6724Y73715D01*
X6811Y73772D01*
X6898Y73839D01*
X6986Y73915D01*
X7075Y74000D01*
X7924D01*
X7838Y73910D01*
D02*
G37*
G36*
X51646Y73797D02*
X51674Y73774D01*
X51712Y73755D01*
X51761Y73737D01*
X51821Y73723D01*
X51892Y73711D01*
X51974Y73702D01*
X52170Y73691D01*
X52284Y73690D01*
Y73090D01*
X52170Y73089D01*
X51892Y73069D01*
X51821Y73057D01*
X51761Y73042D01*
X51712Y73025D01*
X51674Y73005D01*
X51646Y72983D01*
X51630Y72958D01*
Y73822D01*
X51646Y73797D01*
D02*
G37*
G36*
X46766Y70989D02*
X46749Y71014D01*
X46722Y71037D01*
X46684Y71057D01*
X46634Y71074D01*
X46574Y71088D01*
X46503Y71100D01*
X46422Y71109D01*
X46225Y71120D01*
X46111Y71121D01*
Y71721D01*
X46225Y71723D01*
X46503Y71742D01*
X46574Y71754D01*
X46634Y71769D01*
X46684Y71786D01*
X46722Y71806D01*
X46749Y71828D01*
X46766Y71854D01*
Y70989D01*
D02*
G37*
G36*
X130348Y71516D02*
X130244Y71341D01*
X130151Y71156D01*
X130071Y70961D01*
X130004Y70757D01*
X129948Y70543D01*
X129905Y70319D01*
X129875Y70085D01*
X129856Y69842D01*
X129850Y69588D01*
X128350D01*
X128344Y69842D01*
X128295Y70319D01*
X128252Y70543D01*
X128196Y70757D01*
X128129Y70961D01*
X128049Y71156D01*
X127956Y71341D01*
X127852Y71516D01*
X127735Y71681D01*
X130465D01*
X130348Y71516D01*
D02*
G37*
G36*
X55680Y70695D02*
X55721Y70673D01*
X55775Y70654D01*
X55839Y70638D01*
X55915Y70624D01*
X56101Y70604D01*
X56333Y70593D01*
X56466Y70592D01*
Y69192D01*
X56333Y69191D01*
X55915Y69160D01*
X55839Y69147D01*
X55775Y69130D01*
X55721Y69111D01*
X55680Y69089D01*
X55649Y69065D01*
Y70719D01*
X55680Y70695D01*
D02*
G37*
G36*
X46766Y69021D02*
X46749Y69046D01*
X46722Y69068D01*
X46684Y69088D01*
X46634Y69105D01*
X46574Y69120D01*
X46503Y69132D01*
X46422Y69141D01*
X46225Y69152D01*
X46111Y69153D01*
Y69753D01*
X46225Y69754D01*
X46503Y69774D01*
X46574Y69786D01*
X46634Y69800D01*
X46684Y69818D01*
X46722Y69837D01*
X46749Y69860D01*
X46766Y69885D01*
Y69021D01*
D02*
G37*
G36*
X16843Y68003D02*
X16792Y67985D01*
X16747Y67954D01*
X16708Y67912D01*
X16675Y67857D01*
X16648Y67789D01*
X16627Y67710D01*
X16612Y67618D01*
X16603Y67514D01*
X16600Y67397D01*
X16000D01*
X15997Y67514D01*
X15988Y67618D01*
X15973Y67710D01*
X15952Y67789D01*
X15925Y67857D01*
X15892Y67912D01*
X15853Y67954D01*
X15808Y67985D01*
X15757Y68003D01*
X15700Y68010D01*
X16900D01*
X16843Y68003D01*
D02*
G37*
G36*
X46766Y67052D02*
X46749Y67077D01*
X46722Y67100D01*
X46684Y67120D01*
X46634Y67137D01*
X46574Y67151D01*
X46503Y67163D01*
X46422Y67172D01*
X46225Y67183D01*
X46111Y67184D01*
Y67784D01*
X46225Y67786D01*
X46503Y67805D01*
X46574Y67817D01*
X46634Y67832D01*
X46684Y67849D01*
X46722Y67869D01*
X46749Y67891D01*
X46766Y67917D01*
Y67052D01*
D02*
G37*
G36*
X16603Y66986D02*
X16612Y66882D01*
X16627Y66790D01*
X16648Y66711D01*
X16675Y66644D01*
X16708Y66588D01*
X16747Y66545D01*
X16792Y66515D01*
X16843Y66497D01*
X16900Y66491D01*
X15700D01*
X15757Y66497D01*
X15808Y66515D01*
X15853Y66545D01*
X15892Y66588D01*
X15925Y66644D01*
X15952Y66711D01*
X15973Y66790D01*
X15988Y66882D01*
X15997Y66986D01*
X16000Y67102D01*
X16600D01*
X16603Y66986D01*
D02*
G37*
G36*
X7838Y66036D02*
X7770Y65955D01*
X7720Y65883D01*
X7688Y65820D01*
X7674Y65767D01*
X7677Y65723D01*
X7699Y65688D01*
X7738Y65662D01*
X7795Y65646D01*
X7871Y65639D01*
X6227Y65689D01*
X6307Y65692D01*
X6389Y65703D01*
X6471Y65724D01*
X6555Y65753D01*
X6639Y65792D01*
X6724Y65841D01*
X6811Y65898D01*
X6898Y65965D01*
X6986Y66041D01*
X7075Y66126D01*
X7924D01*
X7838Y66036D01*
D02*
G37*
G36*
X26723Y65999D02*
X26663Y65933D01*
X26610Y65863D01*
X26562Y65787D01*
X26522Y65707D01*
X26487Y65622D01*
X26459Y65531D01*
X26438Y65436D01*
X26423Y65337D01*
X26414Y65232D01*
X26412Y65122D01*
X25422Y66112D01*
X25532Y66114D01*
X25637Y66123D01*
X25736Y66138D01*
X25831Y66159D01*
X25921Y66187D01*
X26007Y66221D01*
X26087Y66262D01*
X26163Y66309D01*
X26233Y66363D01*
X26299Y66423D01*
X26723Y65999D01*
D02*
G37*
G36*
X46766Y65084D02*
X46749Y65109D01*
X46722Y65131D01*
X46684Y65151D01*
X46634Y65168D01*
X46574Y65183D01*
X46503Y65195D01*
X46422Y65204D01*
X46225Y65215D01*
X46111Y65216D01*
Y65816D01*
X46225Y65817D01*
X46503Y65837D01*
X46574Y65849D01*
X46634Y65863D01*
X46684Y65881D01*
X46722Y65900D01*
X46749Y65923D01*
X46766Y65948D01*
Y65084D01*
D02*
G37*
G36*
Y63115D02*
X46749Y63140D01*
X46722Y63163D01*
X46684Y63183D01*
X46634Y63200D01*
X46574Y63214D01*
X46503Y63226D01*
X46422Y63235D01*
X46225Y63246D01*
X46111Y63247D01*
Y63847D01*
X46225Y63849D01*
X46503Y63868D01*
X46574Y63880D01*
X46634Y63895D01*
X46684Y63912D01*
X46722Y63932D01*
X46749Y63954D01*
X46766Y63980D01*
Y63115D01*
D02*
G37*
G36*
X16843Y63503D02*
X16792Y63485D01*
X16747Y63455D01*
X16708Y63412D01*
X16675Y63357D01*
X16648Y63289D01*
X16627Y63210D01*
X16612Y63118D01*
X16603Y63014D01*
X16600Y62897D01*
X16000D01*
X15997Y63014D01*
X15988Y63118D01*
X15973Y63210D01*
X15952Y63289D01*
X15925Y63357D01*
X15892Y63412D01*
X15853Y63455D01*
X15808Y63485D01*
X15757Y63503D01*
X15700Y63510D01*
X16900D01*
X16843Y63503D01*
D02*
G37*
G36*
X23102Y62980D02*
X23111Y62876D01*
X23126Y62776D01*
X23147Y62681D01*
X23175Y62591D01*
X23209Y62506D01*
X23250Y62425D01*
X23297Y62350D01*
X23351Y62279D01*
X23411Y62213D01*
X22987Y61789D01*
X22921Y61849D01*
X22850Y61903D01*
X22775Y61950D01*
X22694Y61991D01*
X22609Y62025D01*
X22519Y62053D01*
X22424Y62074D01*
X22324Y62089D01*
X22220Y62098D01*
X22110Y62100D01*
X23100Y63090D01*
X23102Y62980D01*
D02*
G37*
G36*
X129856Y61958D02*
X129905Y61481D01*
X129948Y61257D01*
X130004Y61043D01*
X130071Y60839D01*
X130151Y60644D01*
X130244Y60459D01*
X130348Y60284D01*
X130465Y60119D01*
X127735D01*
X127852Y60284D01*
X127956Y60459D01*
X128049Y60644D01*
X128129Y60839D01*
X128196Y61043D01*
X128252Y61257D01*
X128295Y61481D01*
X128325Y61715D01*
X128344Y61958D01*
X128350Y62212D01*
X129850D01*
X129856Y61958D01*
D02*
G37*
G36*
X49741Y61077D02*
X49690Y61059D01*
X49645Y61028D01*
X49606Y60985D01*
X49573Y60930D01*
X49546Y60863D01*
X49525Y60783D01*
X49510Y60691D01*
X49501Y60595D01*
X49510Y60498D01*
X49525Y60406D01*
X49546Y60326D01*
X49573Y60259D01*
X49606Y60204D01*
X49645Y60161D01*
X49690Y60130D01*
X49741Y60112D01*
X49798Y60106D01*
X48598D01*
X48655Y60112D01*
X48706Y60130D01*
X48751Y60161D01*
X48790Y60204D01*
X48823Y60259D01*
X48850Y60326D01*
X48871Y60406D01*
X48886Y60498D01*
X48894Y60595D01*
X48886Y60691D01*
X48871Y60783D01*
X48850Y60863D01*
X48823Y60930D01*
X48790Y60985D01*
X48751Y61028D01*
X48706Y61059D01*
X48655Y61077D01*
X48598Y61083D01*
X49798D01*
X49741Y61077D01*
D02*
G37*
G36*
X56248Y61626D02*
X56276Y61620D01*
X56317Y61614D01*
X56440Y61604D01*
X56845Y61595D01*
X56980Y61594D01*
Y60020D01*
X56234Y59980D01*
Y61634D01*
X56248Y61626D01*
D02*
G37*
G36*
X46766Y59178D02*
X46749Y59203D01*
X46722Y59226D01*
X46684Y59246D01*
X46634Y59263D01*
X46574Y59277D01*
X46503Y59289D01*
X46422Y59298D01*
X46225Y59309D01*
X46111Y59310D01*
Y59910D01*
X46225Y59912D01*
X46503Y59931D01*
X46574Y59943D01*
X46634Y59958D01*
X46684Y59975D01*
X46722Y59995D01*
X46749Y60017D01*
X46766Y60043D01*
Y59178D01*
D02*
G37*
G36*
X36418Y59165D02*
X36430Y59077D01*
X36450Y58990D01*
X36478Y58905D01*
X36514Y58820D01*
X36558Y58737D01*
X36610Y58654D01*
X36670Y58573D01*
X36738Y58493D01*
X36814Y58414D01*
X35414D01*
X35490Y58493D01*
X35558Y58573D01*
X35618Y58654D01*
X35670Y58737D01*
X35714Y58820D01*
X35750Y58905D01*
X35778Y58990D01*
X35798Y59077D01*
X35810Y59165D01*
X35814Y59254D01*
X36414D01*
X36418Y59165D01*
D02*
G37*
G36*
X54091Y59059D02*
X54949Y59001D01*
X55139Y59000D01*
Y58000D01*
X54942Y57993D01*
X54751Y57972D01*
X54566Y57936D01*
X54386Y57887D01*
X54213Y57823D01*
X54045Y57745D01*
X53883Y57653D01*
X53727Y57547D01*
X53577Y57427D01*
X53432Y57293D01*
X53932Y58500D01*
X54067Y59072D01*
X54091Y59059D01*
D02*
G37*
G36*
X51461Y58148D02*
X51494Y58147D01*
X52466Y58142D01*
Y57142D01*
X51448Y57134D01*
Y58149D01*
X51461Y58148D01*
D02*
G37*
G36*
X9786Y55000D02*
X9707Y55076D01*
X9627Y55144D01*
X9546Y55204D01*
X9463Y55256D01*
X9380Y55300D01*
X9295Y55336D01*
X9210Y55364D01*
X9123Y55384D01*
X9052Y55394D01*
X8987Y55388D01*
X8895Y55373D01*
X8815Y55352D01*
X8748Y55325D01*
X8693Y55292D01*
X8650Y55253D01*
X8619Y55208D01*
X8601Y55157D01*
X8595Y55100D01*
Y56300D01*
X8601Y56243D01*
X8619Y56192D01*
X8650Y56147D01*
X8693Y56108D01*
X8748Y56075D01*
X8815Y56048D01*
X8895Y56027D01*
X8987Y56012D01*
X9052Y56006D01*
X9123Y56016D01*
X9210Y56036D01*
X9295Y56064D01*
X9380Y56100D01*
X9463Y56144D01*
X9546Y56196D01*
X9627Y56256D01*
X9707Y56324D01*
X9786Y56400D01*
Y55000D01*
D02*
G37*
G36*
X58759Y57906D02*
X59128Y57592D01*
X59291Y57478D01*
X59439Y57392D01*
X59574Y57334D01*
X59693Y57304D01*
X59799Y57303D01*
X59890Y57330D01*
X59967Y57386D01*
X58564Y55983D01*
X58620Y56060D01*
X58647Y56151D01*
X58646Y56257D01*
X58616Y56376D01*
X58558Y56511D01*
X58472Y56659D01*
X58358Y56822D01*
X58215Y57000D01*
X57845Y57398D01*
X58552Y58105D01*
X58759Y57906D01*
D02*
G37*
G36*
X54584Y55802D02*
X54578Y55859D01*
X54559Y55910D01*
X54527Y55954D01*
X54483Y55993D01*
X54426Y56026D01*
X54357Y56052D01*
X54275Y56073D01*
X54180Y56088D01*
X54072Y56097D01*
X53952Y56100D01*
Y56700D01*
X54072Y56703D01*
X54180Y56712D01*
X54275Y56727D01*
X54357Y56748D01*
X54426Y56774D01*
X54483Y56807D01*
X54527Y56846D01*
X54559Y56890D01*
X54578Y56941D01*
X54584Y56998D01*
Y55802D01*
D02*
G37*
G36*
X51646Y56080D02*
X51674Y56058D01*
X51712Y56038D01*
X51761Y56021D01*
X51821Y56006D01*
X51892Y55994D01*
X51974Y55985D01*
X52170Y55975D01*
X52284Y55973D01*
Y55373D01*
X52170Y55372D01*
X51892Y55352D01*
X51821Y55340D01*
X51761Y55326D01*
X51712Y55309D01*
X51674Y55289D01*
X51646Y55266D01*
X51630Y55241D01*
Y56106D01*
X51646Y56080D01*
D02*
G37*
G36*
X46766Y55241D02*
X46749Y55266D01*
X46722Y55289D01*
X46684Y55309D01*
X46634Y55326D01*
X46574Y55340D01*
X46503Y55352D01*
X46422Y55361D01*
X46225Y55372D01*
X46111Y55373D01*
Y55973D01*
X46225Y55975D01*
X46503Y55994D01*
X46574Y56006D01*
X46634Y56021D01*
X46684Y56038D01*
X46722Y56058D01*
X46749Y56080D01*
X46766Y56106D01*
Y55241D01*
D02*
G37*
G36*
X43579Y56459D02*
X43597Y56357D01*
X43627Y56267D01*
X43669Y56189D01*
X43723Y56123D01*
X43789Y56069D01*
X43867Y56027D01*
X43957Y55997D01*
X44059Y55979D01*
X44173Y55973D01*
X43998Y55373D01*
X43879Y55369D01*
X43765Y55356D01*
X43653Y55335D01*
X43546Y55305D01*
X43442Y55267D01*
X43341Y55221D01*
X43244Y55165D01*
X43150Y55102D01*
X43060Y55030D01*
X42973Y54949D01*
X42549Y55373D01*
X42630Y55460D01*
X42702Y55550D01*
X42765Y55644D01*
X42821Y55741D01*
X42867Y55841D01*
X42905Y55946D01*
X42935Y56053D01*
X42956Y56165D01*
X42969Y56279D01*
X42973Y56398D01*
X43573Y56573D01*
X43579Y56459D01*
D02*
G37*
G36*
X12086Y54654D02*
Y44300D01*
X12141Y44027D01*
X12295Y43795D01*
X20286Y35804D01*
Y35551D01*
X20267Y35508D01*
X20265Y35401D01*
X20258Y35322D01*
X20249Y35268D01*
X20149Y35248D01*
X19851Y35049D01*
X19652Y34751D01*
X19582Y34400D01*
Y33400D01*
X19652Y33049D01*
X19851Y32751D01*
X20149Y32552D01*
X20500Y32482D01*
X21500D01*
X21851Y32552D01*
X22149Y32751D01*
X22348Y33049D01*
X22418Y33400D01*
Y34400D01*
X22348Y34751D01*
X22149Y35049D01*
X21851Y35248D01*
X21751Y35268D01*
X21742Y35322D01*
X21735Y35401D01*
X21733Y35508D01*
X21714Y35551D01*
Y36100D01*
X21659Y36373D01*
X21505Y36605D01*
X13514Y44596D01*
Y49648D01*
X13725Y49719D01*
X14014Y49731D01*
X14221Y49421D01*
X14601Y49167D01*
X15050Y49077D01*
X17098D01*
X17123Y49066D01*
X17177Y49036D01*
X17238Y48994D01*
X17408Y48852D01*
X17503Y48761D01*
X17547Y48744D01*
X17581Y48710D01*
X17593Y48694D01*
X17597Y48694D01*
X20965Y45326D01*
X21196Y45171D01*
X21469Y45117D01*
X42300D01*
Y28463D01*
X41838Y28271D01*
X39105Y31005D01*
X38873Y31159D01*
X38600Y31214D01*
X25200D01*
X24927Y31159D01*
X24695Y31005D01*
X22165Y28474D01*
X21667Y28523D01*
X21609Y28609D01*
X21146Y28919D01*
X20600Y29027D01*
X18600D01*
X18054Y28919D01*
X17591Y28609D01*
X17578Y28591D01*
X16898Y28473D01*
X16814Y28536D01*
Y29504D01*
X17505Y30195D01*
X17659Y30427D01*
X17714Y30700D01*
Y32249D01*
X17733Y32292D01*
X17736Y32399D01*
X17742Y32478D01*
X17751Y32532D01*
X17851Y32552D01*
X18149Y32751D01*
X18348Y33049D01*
X18418Y33400D01*
Y34400D01*
X18348Y34751D01*
X18149Y35049D01*
X17851Y35248D01*
X17500Y35318D01*
X16500D01*
X16214Y35261D01*
X16058Y35313D01*
X15714Y35558D01*
Y38300D01*
X15659Y38573D01*
X15505Y38805D01*
X5814Y48496D01*
Y53222D01*
X5833Y53265D01*
X5835Y53369D01*
X5842Y53443D01*
X5844Y53456D01*
X7616D01*
X8156Y53564D01*
X8614Y53870D01*
X8920Y54328D01*
X8947Y54467D01*
X8948Y54469D01*
X8950Y54473D01*
X8964Y54498D01*
X8987Y54530D01*
X9025Y54568D01*
X9081Y54608D01*
X9143Y54635D01*
X9483Y54688D01*
X9500Y54682D01*
X9507Y54680D01*
X9954Y54381D01*
X10500Y54273D01*
X11046Y54381D01*
X11509Y54691D01*
X11586Y54806D01*
X12086Y54654D01*
D02*
G37*
G36*
X60335Y55494D02*
X60275Y55427D01*
X60222Y55346D01*
X60177Y55252D01*
X60138Y55144D01*
X60106Y55023D01*
X60082Y54888D01*
X60064Y54740D01*
X60053Y54578D01*
X60053Y54560D01*
X60053Y54542D01*
X60082Y54232D01*
X60106Y54097D01*
X60138Y53976D01*
X60177Y53868D01*
X60222Y53774D01*
X60275Y53693D01*
X60335Y53626D01*
X60402Y53572D01*
X58698D01*
X58765Y53626D01*
X58825Y53693D01*
X58878Y53774D01*
X58923Y53868D01*
X58962Y53976D01*
X58994Y54097D01*
X59018Y54232D01*
X59036Y54380D01*
X59047Y54542D01*
X59047Y54560D01*
X59047Y54578D01*
X59018Y54888D01*
X58994Y55023D01*
X58962Y55144D01*
X58923Y55252D01*
X58878Y55346D01*
X58825Y55427D01*
X58765Y55494D01*
X58698Y55548D01*
X60402D01*
X60335Y55494D01*
D02*
G37*
G36*
X5643Y53882D02*
X5592Y53864D01*
X5547Y53833D01*
X5508Y53790D01*
X5475Y53735D01*
X5448Y53668D01*
X5427Y53588D01*
X5412Y53497D01*
X5403Y53393D01*
X5400Y53276D01*
X4800D01*
X4797Y53393D01*
X4788Y53497D01*
X4773Y53588D01*
X4752Y53668D01*
X4725Y53735D01*
X4692Y53790D01*
X4653Y53833D01*
X4608Y53864D01*
X4557Y53882D01*
X4500Y53888D01*
X5700D01*
X5643Y53882D01*
D02*
G37*
G36*
X51646Y54112D02*
X51674Y54089D01*
X51712Y54070D01*
X51761Y54052D01*
X51821Y54038D01*
X51892Y54026D01*
X51974Y54017D01*
X52170Y54006D01*
X52284Y54005D01*
Y53405D01*
X52170Y53404D01*
X51892Y53384D01*
X51821Y53372D01*
X51761Y53357D01*
X51712Y53340D01*
X51674Y53320D01*
X51646Y53298D01*
X51630Y53273D01*
Y54137D01*
X51646Y54112D01*
D02*
G37*
G36*
X41511Y53487D02*
X41451Y53421D01*
X41397Y53350D01*
X41350Y53275D01*
X41309Y53194D01*
X41275Y53109D01*
X41247Y53019D01*
X41226Y52924D01*
X41211Y52824D01*
X41202Y52720D01*
X41200Y52610D01*
X40210Y53600D01*
X40320Y53602D01*
X40424Y53611D01*
X40524Y53626D01*
X40619Y53647D01*
X40709Y53675D01*
X40794Y53709D01*
X40875Y53750D01*
X40950Y53797D01*
X41021Y53851D01*
X41087Y53911D01*
X41511Y53487D01*
D02*
G37*
G36*
X54584Y52122D02*
X54578Y52179D01*
X54559Y52229D01*
X54527Y52274D01*
X54483Y52313D01*
X54426Y52346D01*
X54357Y52372D01*
X54275Y52393D01*
X54180Y52408D01*
X54072Y52417D01*
X53952Y52420D01*
Y53020D01*
X54072Y53023D01*
X54180Y53032D01*
X54275Y53047D01*
X54357Y53068D01*
X54426Y53094D01*
X54483Y53127D01*
X54527Y53166D01*
X54559Y53211D01*
X54578Y53261D01*
X54584Y53318D01*
Y52122D01*
D02*
G37*
G36*
X84299Y52803D02*
X84334Y52632D01*
X84376Y52481D01*
X84426Y52350D01*
X84483Y52240D01*
X84548Y52149D01*
X84621Y52079D01*
X84702Y52028D01*
X84790Y51998D01*
X84886Y51988D01*
X82873D01*
X82967Y51998D01*
X83049Y52028D01*
X83118Y52078D01*
X83175Y52149D01*
X83220Y52239D01*
X83252Y52350D01*
X83272Y52480D01*
X83280Y52631D01*
X83276Y52802D01*
X83259Y52992D01*
X84272Y52994D01*
X84299Y52803D01*
D02*
G37*
G36*
X39486Y51900D02*
X39407Y51976D01*
X39327Y52044D01*
X39246Y52104D01*
X39163Y52156D01*
X39080Y52200D01*
X38995Y52236D01*
X38910Y52264D01*
X38823Y52284D01*
X38735Y52296D01*
X38646Y52300D01*
Y52900D01*
X38735Y52904D01*
X38823Y52916D01*
X38910Y52936D01*
X38995Y52964D01*
X39080Y53000D01*
X39163Y53044D01*
X39246Y53096D01*
X39327Y53156D01*
X39407Y53224D01*
X39486Y53300D01*
Y51900D01*
D02*
G37*
G36*
X51646Y52143D02*
X51674Y52121D01*
X51712Y52101D01*
X51761Y52084D01*
X51821Y52069D01*
X51892Y52057D01*
X51974Y52048D01*
X52170Y52038D01*
X52284Y52036D01*
Y51436D01*
X52170Y51435D01*
X51892Y51415D01*
X51821Y51403D01*
X51761Y51389D01*
X51712Y51372D01*
X51674Y51352D01*
X51646Y51329D01*
X51630Y51304D01*
Y52169D01*
X51646Y52143D01*
D02*
G37*
G36*
X60335Y51814D02*
X60275Y51747D01*
X60222Y51666D01*
X60177Y51572D01*
X60138Y51464D01*
X60106Y51343D01*
X60082Y51208D01*
X60064Y51060D01*
X60053Y50898D01*
X60053Y50880D01*
X60053Y50862D01*
X60082Y50552D01*
X60106Y50417D01*
X60138Y50296D01*
X60177Y50188D01*
X60222Y50094D01*
X60275Y50013D01*
X60335Y49946D01*
X60402Y49892D01*
X58698D01*
X58765Y49946D01*
X58825Y50013D01*
X58878Y50094D01*
X58923Y50188D01*
X58962Y50296D01*
X58994Y50417D01*
X59018Y50552D01*
X59036Y50700D01*
X59047Y50862D01*
X59047Y50880D01*
X59047Y50898D01*
X59018Y51208D01*
X58994Y51343D01*
X58962Y51464D01*
X58923Y51572D01*
X58878Y51666D01*
X58825Y51747D01*
X58765Y51814D01*
X58698Y51868D01*
X60402D01*
X60335Y51814D01*
D02*
G37*
G36*
X45080Y49556D02*
X45015Y49487D01*
X44958Y49417D01*
X44909Y49347D01*
X44868Y49277D01*
X44835Y49206D01*
X44810Y49135D01*
X44793Y49064D01*
X44783Y48992D01*
X44782Y48920D01*
X44789Y48847D01*
X43947Y49689D01*
X44020Y49682D01*
X44092Y49683D01*
X44164Y49692D01*
X44235Y49710D01*
X44306Y49735D01*
X44377Y49768D01*
X44447Y49809D01*
X44517Y49858D01*
X44587Y49915D01*
X44656Y49980D01*
X45080Y49556D01*
D02*
G37*
G36*
X46766Y49336D02*
X46749Y49361D01*
X46722Y49383D01*
X46684Y49403D01*
X46634Y49420D01*
X46574Y49435D01*
X46503Y49447D01*
X46422Y49456D01*
X46225Y49466D01*
X46111Y49468D01*
Y50068D01*
X46225Y50069D01*
X46503Y50089D01*
X46574Y50101D01*
X46634Y50115D01*
X46684Y50133D01*
X46722Y50152D01*
X46749Y50175D01*
X46766Y50200D01*
Y49336D01*
D02*
G37*
G36*
X18158Y49908D02*
X18121Y49873D01*
X18102Y49829D01*
X18101Y49775D01*
X18117Y49713D01*
X18150Y49641D01*
X18202Y49561D01*
X18271Y49471D01*
X18357Y49372D01*
X18461Y49263D01*
X17803Y49073D01*
X17697Y49175D01*
X17499Y49339D01*
X17407Y49402D01*
X17320Y49452D01*
X17238Y49490D01*
X17160Y49514D01*
X17086Y49525D01*
X17018Y49524D01*
X16954Y49510D01*
X18212Y49933D01*
X18158Y49908D01*
D02*
G37*
G36*
X54362Y50166D02*
X54560Y50001D01*
X54644Y49946D01*
X54718Y49910D01*
X54782Y49892D01*
X54836Y49892D01*
X54879Y49910D01*
X54913Y49947D01*
X54936Y50003D01*
X54564Y48699D01*
X54576Y48765D01*
X54576Y48836D01*
X54564Y48910D01*
X54539Y48989D01*
X54501Y49071D01*
X54451Y49158D01*
X54389Y49250D01*
X54315Y49345D01*
X54228Y49444D01*
X54128Y49548D01*
X54248Y50277D01*
X54362Y50166D01*
D02*
G37*
G36*
X130348Y49716D02*
X130244Y49541D01*
X130151Y49356D01*
X130071Y49161D01*
X130004Y48957D01*
X129948Y48743D01*
X129905Y48519D01*
X129875Y48285D01*
X129856Y48042D01*
X129850Y47788D01*
X128350D01*
X128344Y48042D01*
X128295Y48519D01*
X128252Y48743D01*
X128196Y48957D01*
X128129Y49161D01*
X128049Y49356D01*
X127956Y49541D01*
X127852Y49716D01*
X127735Y49881D01*
X130465D01*
X130348Y49716D01*
D02*
G37*
G36*
X51646Y48206D02*
X51674Y48184D01*
X51712Y48164D01*
X51761Y48147D01*
X51821Y48132D01*
X51892Y48120D01*
X51974Y48111D01*
X52170Y48101D01*
X52284Y48099D01*
Y47499D01*
X52170Y47498D01*
X51892Y47478D01*
X51821Y47466D01*
X51761Y47452D01*
X51712Y47435D01*
X51674Y47415D01*
X51646Y47392D01*
X51630Y47367D01*
Y48232D01*
X51646Y48206D01*
D02*
G37*
G36*
X170395Y47543D02*
X170414Y47492D01*
X170444Y47447D01*
X170487Y47408D01*
X170542Y47375D01*
X170610Y47348D01*
X170689Y47327D01*
X170781Y47312D01*
X170885Y47303D01*
X171001Y47300D01*
Y46700D01*
X170885Y46697D01*
X170781Y46688D01*
X170689Y46673D01*
X170610Y46652D01*
X170542Y46625D01*
X170487Y46592D01*
X170444Y46553D01*
X170414Y46508D01*
X170395Y46457D01*
X170389Y46400D01*
Y47600D01*
X170395Y47543D01*
D02*
G37*
G36*
X60335Y48134D02*
X60275Y48067D01*
X60222Y47986D01*
X60177Y47892D01*
X60138Y47784D01*
X60106Y47663D01*
X60082Y47528D01*
X60064Y47380D01*
X60053Y47218D01*
X60053Y47200D01*
X60053Y47182D01*
X60082Y46872D01*
X60106Y46737D01*
X60138Y46616D01*
X60177Y46508D01*
X60222Y46414D01*
X60275Y46333D01*
X60335Y46266D01*
X60402Y46212D01*
X58698D01*
X58765Y46266D01*
X58825Y46333D01*
X58878Y46414D01*
X58923Y46508D01*
X58962Y46616D01*
X58994Y46737D01*
X59018Y46872D01*
X59036Y47020D01*
X59047Y47182D01*
X59047Y47200D01*
X59047Y47218D01*
X59018Y47528D01*
X58994Y47663D01*
X58962Y47784D01*
X58923Y47892D01*
X58878Y47986D01*
X58825Y48067D01*
X58765Y48134D01*
X58698Y48188D01*
X60402D01*
X60335Y48134D01*
D02*
G37*
G36*
X54686Y46652D02*
X54905Y46467D01*
X55001Y46399D01*
X55089Y46349D01*
X55168Y46314D01*
X55239Y46297D01*
X55301Y46297D01*
X55356Y46313D01*
X55401Y46346D01*
X54564Y45509D01*
X54597Y45555D01*
X54613Y45608D01*
X54613Y45671D01*
X54596Y45742D01*
X54562Y45821D01*
X54511Y45909D01*
X54443Y46005D01*
X54359Y46110D01*
X54140Y46345D01*
X54565Y46770D01*
X54686Y46652D01*
D02*
G37*
G36*
X51646Y46238D02*
X51672Y46215D01*
X51708Y46196D01*
X51754Y46178D01*
X51810Y46164D01*
X51877Y46152D01*
X51953Y46143D01*
X52136Y46132D01*
X52242Y46131D01*
Y45531D01*
X52136Y45529D01*
X51877Y45510D01*
X51810Y45498D01*
X51754Y45483D01*
X51708Y45466D01*
X51672Y45446D01*
X51646Y45424D01*
X51630Y45399D01*
Y46263D01*
X51646Y46238D01*
D02*
G37*
G36*
X46766Y45399D02*
X46749Y45424D01*
X46722Y45446D01*
X46684Y45466D01*
X46634Y45483D01*
X46574Y45498D01*
X46503Y45510D01*
X46422Y45519D01*
X46225Y45529D01*
X46111Y45531D01*
Y46131D01*
X46225Y46132D01*
X46503Y46152D01*
X46574Y46164D01*
X46634Y46178D01*
X46684Y46196D01*
X46722Y46215D01*
X46749Y46238D01*
X46766Y46263D01*
Y45399D01*
D02*
G37*
G36*
X49741Y43361D02*
X49690Y43342D01*
X49645Y43312D01*
X49606Y43269D01*
X49573Y43214D01*
X49546Y43146D01*
X49525Y43067D01*
X49510Y42975D01*
X49501Y42871D01*
X49498Y42755D01*
X48898D01*
X48895Y42871D01*
X48886Y42975D01*
X48871Y43067D01*
X48850Y43146D01*
X48823Y43214D01*
X48790Y43269D01*
X48751Y43312D01*
X48706Y43342D01*
X48655Y43361D01*
X48598Y43367D01*
X49798D01*
X49741Y43361D01*
D02*
G37*
G36*
X60335Y44454D02*
X60275Y44387D01*
X60222Y44306D01*
X60177Y44212D01*
X60138Y44104D01*
X60106Y43983D01*
X60082Y43848D01*
X60064Y43700D01*
X60053Y43538D01*
X60053Y43520D01*
X60053Y43502D01*
X60082Y43192D01*
X60106Y43057D01*
X60138Y42936D01*
X60177Y42828D01*
X60222Y42734D01*
X60275Y42653D01*
X60335Y42586D01*
X60402Y42532D01*
X58698D01*
X58765Y42586D01*
X58825Y42653D01*
X58878Y42734D01*
X58923Y42828D01*
X58962Y42936D01*
X58994Y43057D01*
X59018Y43192D01*
X59036Y43340D01*
X59047Y43502D01*
X59047Y43520D01*
X59047Y43538D01*
X59018Y43848D01*
X58994Y43983D01*
X58962Y44104D01*
X58923Y44212D01*
X58878Y44306D01*
X58825Y44387D01*
X58765Y44454D01*
X58698Y44508D01*
X60402D01*
X60335Y44454D01*
D02*
G37*
G36*
X54686Y42972D02*
X54905Y42787D01*
X55001Y42719D01*
X55089Y42669D01*
X55168Y42634D01*
X55239Y42617D01*
X55301Y42617D01*
X55356Y42633D01*
X55401Y42666D01*
X54564Y41829D01*
X54597Y41875D01*
X54613Y41928D01*
X54613Y41991D01*
X54596Y42062D01*
X54562Y42141D01*
X54511Y42229D01*
X54443Y42325D01*
X54359Y42430D01*
X54140Y42665D01*
X54565Y43090D01*
X54686Y42972D01*
D02*
G37*
G36*
X60335Y40774D02*
X60275Y40707D01*
X60222Y40626D01*
X60177Y40532D01*
X60138Y40424D01*
X60106Y40303D01*
X60082Y40168D01*
X60064Y40020D01*
X60053Y39858D01*
X60053Y39840D01*
X60053Y39822D01*
X60082Y39512D01*
X60106Y39377D01*
X60138Y39256D01*
X60177Y39148D01*
X60222Y39054D01*
X60275Y38973D01*
X60335Y38906D01*
X60402Y38852D01*
X58698D01*
X58765Y38906D01*
X58825Y38973D01*
X58878Y39054D01*
X58923Y39148D01*
X58962Y39256D01*
X58994Y39377D01*
X59018Y39512D01*
X59036Y39660D01*
X59047Y39822D01*
X59047Y39840D01*
X59047Y39858D01*
X59018Y40168D01*
X58994Y40303D01*
X58962Y40424D01*
X58923Y40532D01*
X58878Y40626D01*
X58825Y40707D01*
X58765Y40774D01*
X58698Y40828D01*
X60402D01*
X60335Y40774D01*
D02*
G37*
G36*
X54584Y37402D02*
X54578Y37459D01*
X54559Y37510D01*
X54527Y37554D01*
X54483Y37593D01*
X54426Y37626D01*
X54357Y37652D01*
X54275Y37673D01*
X54180Y37688D01*
X54072Y37697D01*
X53952Y37700D01*
Y38300D01*
X54072Y38303D01*
X54180Y38312D01*
X54275Y38327D01*
X54357Y38348D01*
X54426Y38374D01*
X54483Y38407D01*
X54527Y38446D01*
X54559Y38491D01*
X54578Y38541D01*
X54584Y38598D01*
Y37402D01*
D02*
G37*
G36*
X60335Y37094D02*
X60275Y37027D01*
X60222Y36946D01*
X60177Y36852D01*
X60138Y36744D01*
X60106Y36623D01*
X60082Y36488D01*
X60064Y36340D01*
X60053Y36178D01*
X60050Y36002D01*
X59050D01*
X59047Y36178D01*
X59018Y36488D01*
X58994Y36623D01*
X58962Y36744D01*
X58923Y36852D01*
X58878Y36946D01*
X58825Y37027D01*
X58765Y37094D01*
X58698Y37148D01*
X60402D01*
X60335Y37094D01*
D02*
G37*
G36*
X21303Y35377D02*
X21312Y35270D01*
X21327Y35175D01*
X21348Y35093D01*
X21374Y35024D01*
X21407Y34967D01*
X21446Y34923D01*
X21490Y34891D01*
X21541Y34872D01*
X21598Y34866D01*
X20402D01*
X20459Y34872D01*
X20509Y34891D01*
X20554Y34923D01*
X20593Y34967D01*
X20626Y35024D01*
X20652Y35093D01*
X20673Y35175D01*
X20688Y35270D01*
X20697Y35377D01*
X20700Y35498D01*
X21300D01*
X21303Y35377D01*
D02*
G37*
G36*
X17541Y32928D02*
X17491Y32909D01*
X17446Y32877D01*
X17407Y32833D01*
X17374Y32776D01*
X17348Y32707D01*
X17327Y32625D01*
X17312Y32530D01*
X17303Y32423D01*
X17300Y32302D01*
X16700D01*
X16697Y32423D01*
X16688Y32530D01*
X16673Y32625D01*
X16652Y32707D01*
X16626Y32776D01*
X16593Y32833D01*
X16554Y32877D01*
X16510Y32909D01*
X16459Y32928D01*
X16402Y32934D01*
X17598D01*
X17541Y32928D01*
D02*
G37*
G36*
X47802Y32480D02*
X47811Y32376D01*
X47826Y32276D01*
X47847Y32181D01*
X47875Y32091D01*
X47909Y32006D01*
X47950Y31925D01*
X47997Y31850D01*
X48051Y31779D01*
X48111Y31713D01*
X47687Y31289D01*
X47621Y31349D01*
X47550Y31403D01*
X47475Y31450D01*
X47394Y31491D01*
X47309Y31525D01*
X47219Y31553D01*
X47124Y31574D01*
X47024Y31589D01*
X46920Y31598D01*
X46810Y31600D01*
X47800Y32590D01*
X47802Y32480D01*
D02*
G37*
G36*
X22032Y26907D02*
X21948Y26819D01*
X21806Y26645D01*
X21749Y26559D01*
X21701Y26474D01*
X21662Y26390D01*
X21632Y26306D01*
X21611Y26223D01*
X21599Y26140D01*
X21595Y26059D01*
X21570Y27728D01*
X21576Y27651D01*
X21590Y27592D01*
X21614Y27551D01*
X21647Y27527D01*
X21689Y27521D01*
X21739Y27533D01*
X21799Y27562D01*
X21867Y27609D01*
X21945Y27674D01*
X22032Y27756D01*
Y26907D01*
D02*
G37*
G36*
X50403Y27386D02*
X50412Y27282D01*
X50427Y27190D01*
X50448Y27111D01*
X50475Y27044D01*
X50508Y26988D01*
X50547Y26945D01*
X50592Y26915D01*
X50643Y26897D01*
X50700Y26891D01*
X49500D01*
X49557Y26897D01*
X49608Y26915D01*
X49653Y26945D01*
X49692Y26988D01*
X49725Y27044D01*
X49752Y27111D01*
X49773Y27190D01*
X49788Y27282D01*
X49797Y27386D01*
X49800Y27503D01*
X50400D01*
X50403Y27386D01*
D02*
G37*
G36*
X37597Y25943D02*
X37615Y25892D01*
X37646Y25847D01*
X37688Y25808D01*
X37743Y25775D01*
X37811Y25748D01*
X37890Y25727D01*
X37982Y25712D01*
X38086Y25703D01*
X38203Y25700D01*
Y25100D01*
X38086Y25097D01*
X37982Y25088D01*
X37890Y25073D01*
X37811Y25052D01*
X37743Y25025D01*
X37688Y24992D01*
X37646Y24953D01*
X37615Y24908D01*
X37597Y24857D01*
X37591Y24800D01*
Y26000D01*
X37597Y25943D01*
D02*
G37*
G36*
X34609Y24800D02*
X34603Y24857D01*
X34585Y24908D01*
X34554Y24953D01*
X34512Y24992D01*
X34457Y25025D01*
X34389Y25052D01*
X34310Y25073D01*
X34218Y25088D01*
X34114Y25097D01*
X33997Y25100D01*
Y25700D01*
X34114Y25703D01*
X34218Y25712D01*
X34310Y25727D01*
X34389Y25748D01*
X34457Y25775D01*
X34512Y25808D01*
X34554Y25847D01*
X34585Y25892D01*
X34603Y25943D01*
X34609Y26000D01*
Y24800D01*
D02*
G37*
G36*
X32897Y25943D02*
X32915Y25892D01*
X32946Y25847D01*
X32989Y25808D01*
X33044Y25775D01*
X33111Y25748D01*
X33191Y25727D01*
X33283Y25712D01*
X33387Y25703D01*
X33503Y25700D01*
Y25100D01*
X33387Y25097D01*
X33283Y25088D01*
X33191Y25073D01*
X33111Y25052D01*
X33044Y25025D01*
X32989Y24992D01*
X32946Y24953D01*
X32915Y24908D01*
X32897Y24857D01*
X32891Y24800D01*
Y26000D01*
X32897Y25943D01*
D02*
G37*
G36*
X25909Y23449D02*
X25905Y23527D01*
X25892Y23588D01*
X25870Y23632D01*
X25839Y23658D01*
X25800Y23667D01*
X25752Y23658D01*
X25695Y23632D01*
X25630Y23588D01*
X25556Y23527D01*
X25473Y23449D01*
Y24297D01*
X25556Y24384D01*
X25630Y24471D01*
X25695Y24557D01*
X25752Y24642D01*
X25800Y24727D01*
X25839Y24812D01*
X25870Y24896D01*
X25892Y24980D01*
X25905Y25063D01*
X25909Y25146D01*
Y23449D01*
D02*
G37*
G36*
X5999Y23660D02*
X6011Y23577D01*
X6032Y23494D01*
X6062Y23411D01*
X6101Y23326D01*
X6149Y23241D01*
X6207Y23155D01*
X6273Y23068D01*
X6348Y22981D01*
X6432Y22893D01*
Y22044D01*
X6345Y22126D01*
X6267Y22191D01*
X6199Y22238D01*
X6139Y22267D01*
X6089Y22279D01*
X6047Y22273D01*
X6014Y22249D01*
X5990Y22208D01*
X5976Y22149D01*
X5970Y22072D01*
X5995Y23741D01*
X5999Y23660D01*
D02*
G37*
G36*
X46404Y20931D02*
X46417Y20774D01*
X46439Y20629D01*
X46470Y20496D01*
X46510Y20374D01*
X46558Y20264D01*
X46615Y20165D01*
X46680Y20078D01*
X46755Y20002D01*
X46838Y19938D01*
X44962D01*
X45045Y20002D01*
X45120Y20078D01*
X45185Y20165D01*
X45242Y20264D01*
X45290Y20374D01*
X45330Y20496D01*
X45361Y20629D01*
X45382Y20774D01*
X45396Y20931D01*
X45400Y21099D01*
X46400D01*
X46404Y20931D01*
D02*
G37*
G36*
X38813Y18000D02*
X38807Y18057D01*
X38789Y18108D01*
X38758Y18153D01*
X38715Y18192D01*
X38660Y18225D01*
X38593Y18252D01*
X38514Y18273D01*
X38422Y18288D01*
X38318Y18297D01*
X38201Y18300D01*
Y18900D01*
X38318Y18903D01*
X38422Y18912D01*
X38514Y18927D01*
X38593Y18948D01*
X38660Y18975D01*
X38715Y19008D01*
X38758Y19047D01*
X38789Y19092D01*
X38807Y19143D01*
X38813Y19200D01*
Y18000D01*
D02*
G37*
G36*
X37157Y19224D02*
X37237Y19156D01*
X37318Y19096D01*
X37400Y19044D01*
X37484Y19000D01*
X37569Y18964D01*
X37654Y18936D01*
X37741Y18916D01*
X37829Y18904D01*
X37918Y18900D01*
Y18300D01*
X37829Y18296D01*
X37741Y18284D01*
X37654Y18264D01*
X37569Y18236D01*
X37484Y18200D01*
X37400Y18156D01*
X37318Y18104D01*
X37237Y18044D01*
X37157Y17976D01*
X37078Y17900D01*
Y19300D01*
X37157Y19224D01*
D02*
G37*
G36*
X35650Y17900D02*
X35571Y17976D01*
X35491Y18044D01*
X35409Y18104D01*
X35327Y18156D01*
X35244Y18200D01*
X35159Y18236D01*
X35074Y18264D01*
X34987Y18284D01*
X34899Y18296D01*
X34810Y18300D01*
Y18900D01*
X34899Y18904D01*
X34987Y18916D01*
X35074Y18936D01*
X35159Y18964D01*
X35244Y19000D01*
X35327Y19044D01*
X35409Y19096D01*
X35491Y19156D01*
X35571Y19224D01*
X35650Y19300D01*
Y17900D01*
D02*
G37*
G36*
X22386Y17500D02*
X22307Y17576D01*
X22227Y17644D01*
X22146Y17704D01*
X22063Y17756D01*
X21980Y17800D01*
X21895Y17836D01*
X21810Y17864D01*
X21723Y17884D01*
X21635Y17896D01*
X21546Y17900D01*
Y18500D01*
X21635Y18504D01*
X21723Y18516D01*
X21810Y18536D01*
X21895Y18564D01*
X21980Y18600D01*
X22063Y18644D01*
X22146Y18696D01*
X22227Y18756D01*
X22307Y18824D01*
X22386Y18900D01*
Y17500D01*
D02*
G37*
G36*
X1586Y53870D02*
X2044Y53564D01*
X2584Y53456D01*
X4356D01*
X4358Y53443D01*
X4364Y53369D01*
X4367Y53265D01*
X4386Y53222D01*
Y48200D01*
X4441Y47927D01*
X4595Y47695D01*
X14286Y38004D01*
Y20300D01*
X14341Y20027D01*
X14495Y19795D01*
X16313Y17977D01*
X16291Y17766D01*
X16179Y17404D01*
X16060Y17325D01*
X16000Y17300D01*
X15988Y17271D01*
X15961Y17255D01*
X15935Y17221D01*
X15923Y17209D01*
X15909Y17197D01*
X15890Y17185D01*
X15865Y17173D01*
X15832Y17161D01*
X15789Y17150D01*
X15737Y17141D01*
X15676Y17135D01*
X15592Y17133D01*
X15550Y17114D01*
X13250D01*
X13208Y17133D01*
X13124Y17135D01*
X13062Y17141D01*
X13011Y17150D01*
X12968Y17161D01*
X12935Y17173D01*
X12910Y17185D01*
X12891Y17197D01*
X12877Y17209D01*
X12865Y17221D01*
X12839Y17255D01*
X12812Y17271D01*
X12800Y17300D01*
X12740Y17325D01*
X12543Y17457D01*
X12250Y17515D01*
X11044D01*
X11042Y17528D01*
X11035Y17603D01*
X11033Y17706D01*
X11014Y17749D01*
Y18600D01*
X10959Y18873D01*
X10805Y19105D01*
X6762Y23147D01*
X6745Y23191D01*
X6669Y23271D01*
X6609Y23341D01*
X6559Y23406D01*
X6519Y23467D01*
X6487Y23524D01*
X6463Y23575D01*
X6446Y23621D01*
X6436Y23663D01*
X6430Y23700D01*
X6428Y23758D01*
X6427Y23760D01*
Y27600D01*
X6319Y28146D01*
X6009Y28609D01*
X5546Y28919D01*
X5000Y29027D01*
X3000D01*
X2454Y28919D01*
X1991Y28609D01*
X1681Y28146D01*
X1573Y27600D01*
Y22200D01*
X1681Y21654D01*
X1991Y21191D01*
X2454Y20881D01*
X3000Y20773D01*
X5000D01*
X5546Y20881D01*
X6009Y21191D01*
X6067Y21277D01*
X6565Y21326D01*
X9586Y18304D01*
Y17749D01*
X9567Y17706D01*
X9565Y17603D01*
X9558Y17528D01*
X9556Y17515D01*
X8350D01*
X8057Y17457D01*
X7809Y17291D01*
X7643Y17043D01*
X7585Y16750D01*
Y16050D01*
X7643Y15757D01*
X7809Y15509D01*
X8031Y15361D01*
X8057Y15165D01*
Y15035D01*
X8031Y14839D01*
X7860Y14725D01*
X7800Y14700D01*
X7788Y14671D01*
X7761Y14655D01*
X7735Y14621D01*
X7723Y14609D01*
X7709Y14597D01*
X7690Y14585D01*
X7665Y14573D01*
X7632Y14561D01*
X7589Y14550D01*
X7537Y14541D01*
X7476Y14535D01*
X7392Y14533D01*
X7350Y14514D01*
X6200D01*
X5927Y14459D01*
X5695Y14305D01*
X4733Y13343D01*
X4691Y13327D01*
X4467Y13119D01*
X4385Y13053D01*
X4335Y13018D01*
X4151D01*
X4149Y13018D01*
X4147Y13018D01*
X3500D01*
X3149Y12948D01*
X2851Y12749D01*
X2652Y12451D01*
X2582Y12100D01*
Y11100D01*
X2652Y10749D01*
X2851Y10451D01*
X3147Y10253D01*
X3148Y10248D01*
X3158Y10185D01*
X3164Y10102D01*
X3167Y9992D01*
X3186Y9949D01*
Y9451D01*
X3167Y9408D01*
X3164Y9301D01*
X3158Y9222D01*
X3149Y9168D01*
X3049Y9148D01*
X2751Y8949D01*
X2552Y8651D01*
X2482Y8300D01*
Y7300D01*
X2552Y6949D01*
X2751Y6651D01*
X3049Y6452D01*
X3400Y6382D01*
X4400D01*
X4751Y6452D01*
X5049Y6651D01*
X5248Y6949D01*
X5318Y7300D01*
Y8300D01*
X5248Y8651D01*
X5049Y8949D01*
X4751Y9148D01*
X4651Y9168D01*
X4642Y9222D01*
X4636Y9301D01*
X4633Y9408D01*
X4614Y9451D01*
Y9948D01*
X4633Y9991D01*
X4636Y10097D01*
X4642Y10173D01*
X4648Y10212D01*
X4851Y10252D01*
X5149Y10451D01*
X5348Y10749D01*
X5418Y11100D01*
Y11747D01*
X5418Y11749D01*
X5418Y11751D01*
Y11935D01*
X5450Y11981D01*
X5613Y12173D01*
X5721Y12285D01*
X5739Y12329D01*
X6496Y13086D01*
X7350D01*
X7392Y13067D01*
X7476Y13065D01*
X7537Y13059D01*
X7589Y13050D01*
X7632Y13039D01*
X7665Y13027D01*
X7690Y13015D01*
X7709Y13003D01*
X7723Y12991D01*
X7735Y12979D01*
X7761Y12945D01*
X7788Y12929D01*
X7800Y12900D01*
X7860Y12875D01*
X8057Y12743D01*
X8350Y12685D01*
X12250D01*
X12543Y12743D01*
X12791Y12909D01*
X12957Y13157D01*
X13015Y13450D01*
Y14150D01*
X12957Y14443D01*
X12791Y14691D01*
X12569Y14839D01*
X12543Y15035D01*
Y15165D01*
X12569Y15361D01*
X12740Y15475D01*
X12800Y15500D01*
X12812Y15529D01*
X12839Y15545D01*
X12865Y15579D01*
X12877Y15591D01*
X12891Y15603D01*
X12910Y15615D01*
X12935Y15627D01*
X12968Y15639D01*
X13011Y15650D01*
X13063Y15659D01*
X13124Y15665D01*
X13208Y15667D01*
X13250Y15686D01*
X14024D01*
X14215Y15224D01*
X13795Y14805D01*
X13641Y14573D01*
X13586Y14300D01*
Y9529D01*
X11996Y7940D01*
X11952Y7922D01*
X11857Y7831D01*
X11825Y7803D01*
X11825Y7803D01*
X11554Y7984D01*
X11052Y8084D01*
X9280D01*
X8779Y7984D01*
X8353Y7700D01*
X8069Y7275D01*
X7969Y6773D01*
Y3427D01*
X8069Y2925D01*
X8210Y2714D01*
X7950Y2214D01*
X6496D01*
X5643Y3067D01*
X5627Y3109D01*
X5419Y3333D01*
X5353Y3415D01*
X5318Y3466D01*
Y3649D01*
X5319Y3651D01*
X5318Y3653D01*
Y4300D01*
X5248Y4651D01*
X5049Y4949D01*
X4751Y5148D01*
X4400Y5218D01*
X3400D01*
X3049Y5148D01*
X2751Y4949D01*
X2552Y4651D01*
X2482Y4300D01*
Y3300D01*
X2552Y2949D01*
X2751Y2651D01*
X3049Y2452D01*
X3400Y2382D01*
X4047D01*
X4049Y2382D01*
X4051Y2382D01*
X4234D01*
X4281Y2350D01*
X4473Y2187D01*
X4585Y2079D01*
X4629Y2061D01*
X5273Y1418D01*
X5066Y918D01*
X918D01*
Y53970D01*
X1418Y54122D01*
X1586Y53870D01*
D02*
G37*
G36*
X10603Y17578D02*
X10612Y17474D01*
X10627Y17382D01*
X10648Y17303D01*
X10675Y17236D01*
X10708Y17180D01*
X10747Y17138D01*
X10792Y17107D01*
X10843Y17089D01*
X10900Y17083D01*
X9700D01*
X9757Y17089D01*
X9808Y17107D01*
X9853Y17138D01*
X9892Y17180D01*
X9925Y17236D01*
X9952Y17303D01*
X9973Y17382D01*
X9988Y17474D01*
X9997Y17578D01*
X10000Y17695D01*
X10600D01*
X10603Y17578D01*
D02*
G37*
G36*
X23724Y17407D02*
X23656Y17327D01*
X23596Y17246D01*
X23544Y17163D01*
X23500Y17080D01*
X23464Y16995D01*
X23436Y16910D01*
X23416Y16823D01*
X23404Y16735D01*
X23400Y16646D01*
X22800D01*
X22796Y16735D01*
X22784Y16823D01*
X22764Y16910D01*
X22736Y16995D01*
X22700Y17080D01*
X22656Y17163D01*
X22604Y17246D01*
X22544Y17327D01*
X22476Y17407D01*
X22400Y17486D01*
X23800D01*
X23724Y17407D01*
D02*
G37*
G36*
X12536Y16938D02*
X12585Y16888D01*
X12639Y16844D01*
X12700Y16806D01*
X12767Y16773D01*
X12840Y16747D01*
X12920Y16726D01*
X13005Y16712D01*
X13097Y16703D01*
X13195Y16700D01*
Y16100D01*
X13097Y16097D01*
X13005Y16088D01*
X12920Y16074D01*
X12840Y16053D01*
X12767Y16027D01*
X12700Y15994D01*
X12639Y15956D01*
X12585Y15912D01*
X12536Y15862D01*
X12494Y15806D01*
Y16994D01*
X12536Y16938D01*
D02*
G37*
G36*
X16306Y16606D02*
X16550Y15705D01*
X16480Y15715D01*
X16410Y15717D01*
X16340Y15710D01*
X16270Y15694D01*
X16200Y15671D01*
X16130Y15639D01*
X16061Y15598D01*
X15991Y15550D01*
X15921Y15493D01*
X15852Y15427D01*
X15569Y15993D01*
X15672Y16098D01*
X15605Y16100D01*
Y16700D01*
X15703Y16703D01*
X15795Y16712D01*
X15880Y16726D01*
X15960Y16747D01*
X16033Y16773D01*
X16100Y16806D01*
X16161Y16844D01*
X16216Y16888D01*
X16264Y16938D01*
X16306Y16994D01*
Y16606D01*
D02*
G37*
G36*
X25909Y14572D02*
X25903Y14629D01*
X25885Y14680D01*
X25854Y14725D01*
X25811Y14764D01*
X25756Y14797D01*
X25689Y14824D01*
X25609Y14845D01*
X25517Y14860D01*
X25413Y14869D01*
X25297Y14872D01*
Y15472D01*
X25413Y15475D01*
X25517Y15484D01*
X25609Y15499D01*
X25689Y15520D01*
X25756Y15547D01*
X25811Y15580D01*
X25854Y15619D01*
X25885Y15664D01*
X25903Y15715D01*
X25909Y15772D01*
Y14572D01*
D02*
G37*
G36*
X20736Y14338D02*
X20785Y14288D01*
X20839Y14244D01*
X20900Y14206D01*
X20967Y14173D01*
X21040Y14147D01*
X21120Y14126D01*
X21205Y14112D01*
X21297Y14103D01*
X21395Y14100D01*
Y13500D01*
X21297Y13497D01*
X21205Y13488D01*
X21120Y13474D01*
X21040Y13453D01*
X20967Y13427D01*
X20900Y13394D01*
X20839Y13356D01*
X20785Y13312D01*
X20736Y13262D01*
X20694Y13206D01*
Y14394D01*
X20736Y14338D01*
D02*
G37*
G36*
X8106Y13206D02*
X8064Y13262D01*
X8016Y13312D01*
X7961Y13356D01*
X7900Y13394D01*
X7833Y13427D01*
X7760Y13453D01*
X7680Y13474D01*
X7595Y13488D01*
X7503Y13497D01*
X7405Y13500D01*
Y14100D01*
X7503Y14103D01*
X7595Y14112D01*
X7680Y14126D01*
X7760Y14147D01*
X7833Y14173D01*
X7900Y14206D01*
X7961Y14244D01*
X8016Y14288D01*
X8064Y14338D01*
X8106Y14394D01*
Y13206D01*
D02*
G37*
G36*
X5410Y12585D02*
X5292Y12464D01*
X5107Y12245D01*
X5039Y12149D01*
X4989Y12061D01*
X4955Y11982D01*
X4937Y11911D01*
X4937Y11848D01*
X4953Y11795D01*
X4986Y11749D01*
X4149Y12586D01*
X4194Y12553D01*
X4248Y12537D01*
X4311Y12537D01*
X4382Y12554D01*
X4461Y12588D01*
X4549Y12639D01*
X4645Y12707D01*
X4750Y12791D01*
X4985Y13010D01*
X5410Y12585D01*
D02*
G37*
G36*
X34790Y17867D02*
X34860Y17864D01*
X34909Y17858D01*
X34957Y17846D01*
X35007Y17830D01*
X35058Y17809D01*
X35110Y17781D01*
X35165Y17746D01*
X35221Y17705D01*
X35280Y17655D01*
X35349Y17588D01*
X35371Y17580D01*
X35818Y17281D01*
X36364Y17173D01*
X36910Y17281D01*
X37357Y17580D01*
X37378Y17588D01*
X37447Y17655D01*
X37506Y17704D01*
X37563Y17746D01*
X37617Y17781D01*
X37670Y17809D01*
X37721Y17830D01*
X37770Y17846D01*
X37819Y17858D01*
X37868Y17864D01*
X37885Y17865D01*
X38005Y17834D01*
X38291Y17694D01*
X38382Y17645D01*
X38455Y17279D01*
X38665Y16965D01*
X38979Y16755D01*
X39350Y16681D01*
X40450D01*
X40786Y16748D01*
X40835Y16746D01*
X41286Y16465D01*
Y14906D01*
X41341Y14632D01*
X41495Y14401D01*
X42300Y13596D01*
Y11080D01*
X41800Y10835D01*
X41463Y10902D01*
X41261Y11211D01*
X41223Y11362D01*
X41220Y11438D01*
X41237Y11463D01*
X41314Y11850D01*
Y13031D01*
X41237Y13417D01*
X41018Y13745D01*
X40690Y13964D01*
X40304Y14041D01*
X36485D01*
X36099Y13964D01*
X35771Y13745D01*
X35552Y13417D01*
X35475Y13031D01*
Y11850D01*
X35552Y11463D01*
X35771Y11135D01*
X35799Y10854D01*
X34359Y9414D01*
X32751D01*
X32708Y9433D01*
X32601Y9436D01*
X32522Y9442D01*
X32468Y9450D01*
X32448Y9551D01*
X32249Y9849D01*
X31951Y10048D01*
X31600Y10118D01*
X30600D01*
X30249Y10048D01*
X29951Y9849D01*
X29752Y9551D01*
X29682Y9200D01*
Y8200D01*
X29752Y7849D01*
X29951Y7551D01*
X30249Y7352D01*
X30600Y7282D01*
X31600D01*
X31951Y7352D01*
X32249Y7551D01*
X32448Y7849D01*
X32468Y7949D01*
X32522Y7958D01*
X32601Y7965D01*
X32708Y7967D01*
X32751Y7986D01*
X34654D01*
X34927Y8041D01*
X35159Y8195D01*
X37469Y10505D01*
X37513Y10522D01*
X37592Y10598D01*
X37662Y10657D01*
X37727Y10707D01*
X37788Y10748D01*
X37844Y10780D01*
X37896Y10803D01*
X37943Y10820D01*
X37984Y10831D01*
X38022Y10837D01*
X38081Y10839D01*
X38082Y10840D01*
X38707D01*
X38708Y10839D01*
X38767Y10837D01*
X38805Y10831D01*
X38846Y10820D01*
X38893Y10803D01*
X38945Y10780D01*
X39001Y10748D01*
X39057Y10711D01*
X39201Y10594D01*
X39276Y10522D01*
X39320Y10505D01*
X39689Y10136D01*
X39704Y10095D01*
X39751Y10043D01*
X39781Y10004D01*
X39807Y9962D01*
X39831Y9915D01*
X39851Y9864D01*
X39869Y9807D01*
X39883Y9744D01*
X39894Y9674D01*
X39900Y9598D01*
X39902Y9502D01*
X39911Y9480D01*
X40016Y8954D01*
X40325Y8491D01*
X40788Y8181D01*
X41335Y8073D01*
X41800Y8165D01*
X42300Y7920D01*
Y5702D01*
X42256Y5695D01*
X42186Y5692D01*
X42146Y5674D01*
X41548D01*
X41505Y5693D01*
X41401Y5695D01*
X41326Y5702D01*
X41282Y5709D01*
X41237Y5937D01*
X41018Y6265D01*
X40690Y6483D01*
X40304Y6560D01*
X36485D01*
X36099Y6483D01*
X35771Y6265D01*
X35552Y5937D01*
X35475Y5550D01*
Y5443D01*
X35469Y5442D01*
X35391Y5435D01*
X35284Y5433D01*
X35241Y5414D01*
X32751D01*
X32708Y5433D01*
X32601Y5435D01*
X32522Y5442D01*
X32468Y5451D01*
X32448Y5551D01*
X32249Y5849D01*
X31951Y6048D01*
X31600Y6118D01*
X30600D01*
X30249Y6048D01*
X29951Y5849D01*
X29752Y5551D01*
X29682Y5200D01*
Y4200D01*
X29752Y3849D01*
X29951Y3551D01*
X30249Y3352D01*
X30600Y3282D01*
X31600D01*
X31951Y3352D01*
X32249Y3551D01*
X32448Y3849D01*
X32468Y3949D01*
X32522Y3958D01*
X32601Y3965D01*
X32708Y3967D01*
X32751Y3986D01*
X35242D01*
X35285Y3967D01*
X35400Y3965D01*
X35488Y3958D01*
X35556Y3948D01*
X35579Y3943D01*
X35771Y3655D01*
X36099Y3436D01*
X36485Y3359D01*
X40304D01*
X40690Y3436D01*
X41018Y3655D01*
X41237Y3983D01*
X41282Y4211D01*
X41326Y4218D01*
X41401Y4224D01*
X41505Y4227D01*
X41548Y4246D01*
X42146D01*
X42186Y4227D01*
X42256Y4224D01*
X42300Y4218D01*
Y918D01*
X14534D01*
X14327Y1418D01*
X14805Y1895D01*
X14959Y2127D01*
X15014Y2400D01*
Y6704D01*
X16040Y7731D01*
X16428Y7412D01*
X16337Y7275D01*
X16237Y6773D01*
Y3427D01*
X16337Y2925D01*
X16621Y2500D01*
X17046Y2215D01*
X17548Y2116D01*
X19320D01*
X19821Y2215D01*
X20247Y2500D01*
X20531Y2925D01*
X20631Y3427D01*
Y4356D01*
X20644Y4358D01*
X20719Y4364D01*
X20822Y4367D01*
X20865Y4386D01*
X22300D01*
X22573Y4441D01*
X22805Y4595D01*
X24905Y6695D01*
X25059Y6927D01*
X25114Y7200D01*
Y12100D01*
X25059Y12373D01*
X24905Y12605D01*
X23205Y14305D01*
X22973Y14459D01*
X22700Y14514D01*
X21450D01*
X21408Y14533D01*
X21324Y14535D01*
X21262Y14541D01*
X21211Y14550D01*
X21168Y14561D01*
X21135Y14573D01*
X21110Y14585D01*
X21091Y14597D01*
X21077Y14609D01*
X21065Y14621D01*
X21039Y14655D01*
X21012Y14671D01*
X21000Y14700D01*
X20940Y14725D01*
X20769Y14839D01*
X20743Y15035D01*
Y15165D01*
X20769Y15361D01*
X20991Y15509D01*
X21157Y15757D01*
X21215Y16050D01*
Y16750D01*
X21168Y16986D01*
X21197Y17101D01*
X21459Y17482D01*
X21903Y17345D01*
X21958Y17304D01*
X22016Y17255D01*
X22086Y17188D01*
X22087Y17187D01*
X22088Y17186D01*
X22155Y17116D01*
X22204Y17058D01*
X22246Y17001D01*
X22281Y16946D01*
X22309Y16894D01*
X22330Y16843D01*
X22346Y16794D01*
X22358Y16745D01*
X22364Y16696D01*
X22367Y16627D01*
X22386Y16586D01*
Y16572D01*
X22441Y16299D01*
X22595Y16068D01*
X23995Y14668D01*
X24227Y14513D01*
X24500Y14459D01*
X25243D01*
X25286Y14440D01*
X25389Y14437D01*
X25458Y14431D01*
Y14072D01*
X25625Y13234D01*
X26100Y12522D01*
X26811Y12047D01*
X27650Y11880D01*
X31150D01*
X31989Y12047D01*
X32700Y12522D01*
X33175Y13234D01*
X33342Y14072D01*
Y17886D01*
X34750D01*
X34790Y17867D01*
D02*
G37*
G36*
X40324Y11286D02*
X40265Y11271D01*
X40223Y11248D01*
X40199Y11216D01*
X40192Y11175D01*
X40203Y11125D01*
X40232Y11066D01*
X40278Y10998D01*
X40342Y10921D01*
X40424Y10836D01*
X39575D01*
X39487Y10919D01*
X39313Y11060D01*
X39228Y11117D01*
X39142Y11165D01*
X39058Y11204D01*
X38974Y11235D01*
X38891Y11256D01*
X38808Y11268D01*
X38726Y11272D01*
X40401Y11291D01*
X40324Y11286D01*
D02*
G37*
G36*
X38063Y11272D02*
X37981Y11268D01*
X37898Y11256D01*
X37815Y11235D01*
X37731Y11204D01*
X37647Y11165D01*
X37562Y11117D01*
X37476Y11060D01*
X37389Y10994D01*
X37302Y10919D01*
X37214Y10836D01*
X36366D01*
X36447Y10921D01*
X36511Y10998D01*
X36557Y11066D01*
X36586Y11125D01*
X36597Y11175D01*
X36590Y11216D01*
X36566Y11248D01*
X36524Y11271D01*
X36465Y11286D01*
X36388Y11291D01*
X38063Y11272D01*
D02*
G37*
G36*
X18571Y10513D02*
X18488Y10500D01*
X18404Y10478D01*
X18320Y10448D01*
X18236Y10408D01*
X18151Y10360D01*
X18065Y10304D01*
X17979Y10238D01*
X17892Y10164D01*
X17805Y10081D01*
X16957D01*
X17035Y10164D01*
X17097Y10238D01*
X17140Y10304D01*
X17166Y10360D01*
X17175Y10408D01*
X17166Y10448D01*
X17140Y10478D01*
X17097Y10500D01*
X17035Y10513D01*
X16957Y10517D01*
X18654D01*
X18571Y10513D01*
D02*
G37*
G36*
X4500Y10614D02*
X4443Y10610D01*
X4392Y10593D01*
X4347Y10564D01*
X4308Y10522D01*
X4275Y10467D01*
X4248Y10399D01*
X4227Y10319D01*
X4212Y10226D01*
X4203Y10121D01*
X4200Y10002D01*
X3600D01*
X3597Y10125D01*
X3588Y10235D01*
X3574Y10332D01*
X3553Y10416D01*
X3527Y10488D01*
X3494Y10547D01*
X3456Y10593D01*
X3412Y10627D01*
X3362Y10648D01*
X3307Y10657D01*
X4500Y10614D01*
D02*
G37*
G36*
X47113Y10221D02*
X47287Y10080D01*
X47372Y10023D01*
X47458Y9975D01*
X47542Y9936D01*
X47626Y9906D01*
X47709Y9884D01*
X47792Y9872D01*
X47874Y9868D01*
X46199Y9849D01*
X46276Y9854D01*
X46335Y9869D01*
X46377Y9892D01*
X46401Y9924D01*
X46407Y9965D01*
X46396Y10015D01*
X46368Y10074D01*
X46322Y10142D01*
X46258Y10219D01*
X46176Y10305D01*
X47025D01*
X47113Y10221D01*
D02*
G37*
G36*
X40514Y10751D02*
X40584Y10697D01*
X40660Y10650D01*
X40740Y10609D01*
X40825Y10575D01*
X40916Y10547D01*
X41010Y10526D01*
X41110Y10511D01*
X41215Y10502D01*
X41325Y10500D01*
X40335Y9510D01*
X40333Y9620D01*
X40324Y9724D01*
X40309Y9824D01*
X40288Y9919D01*
X40260Y10009D01*
X40225Y10094D01*
X40185Y10175D01*
X40137Y10250D01*
X40084Y10321D01*
X40024Y10387D01*
X40448Y10811D01*
X40514Y10751D01*
D02*
G37*
G36*
X20745Y11213D02*
X20726Y11162D01*
X20725Y11102D01*
X20741Y11032D01*
X20775Y10952D01*
X20828Y10863D01*
X20898Y10764D01*
X20954Y10695D01*
X21025Y10650D01*
X21106Y10609D01*
X21191Y10575D01*
X21281Y10547D01*
X21376Y10526D01*
X21476Y10511D01*
X21580Y10502D01*
X21690Y10500D01*
X20700Y9510D01*
X20698Y9620D01*
X20689Y9724D01*
X20674Y9824D01*
X20653Y9919D01*
X20625Y10009D01*
X20591Y10094D01*
X20550Y10175D01*
X20503Y10250D01*
X20487Y10271D01*
X20359Y10380D01*
X20262Y10447D01*
X20174Y10499D01*
X20093Y10535D01*
X20019Y10554D01*
X19954Y10558D01*
X19896Y10546D01*
X19846Y10517D01*
X20783Y11254D01*
X20745Y11213D01*
D02*
G37*
G36*
X4203Y9278D02*
X4212Y9170D01*
X4227Y9075D01*
X4248Y8993D01*
X4274Y8924D01*
X4307Y8867D01*
X4346Y8823D01*
X4391Y8791D01*
X4441Y8772D01*
X4498Y8766D01*
X3302D01*
X3359Y8772D01*
X3410Y8791D01*
X3454Y8823D01*
X3493Y8867D01*
X3526Y8924D01*
X3552Y8993D01*
X3573Y9075D01*
X3588Y9170D01*
X3597Y9278D01*
X3600Y9398D01*
X4200D01*
X4203Y9278D01*
D02*
G37*
G36*
X32072Y9241D02*
X32091Y9190D01*
X32123Y9146D01*
X32167Y9107D01*
X32224Y9074D01*
X32293Y9048D01*
X32375Y9027D01*
X32470Y9012D01*
X32577Y9003D01*
X32698Y9000D01*
Y8400D01*
X32577Y8397D01*
X32470Y8388D01*
X32375Y8373D01*
X32293Y8352D01*
X32224Y8326D01*
X32167Y8293D01*
X32123Y8254D01*
X32091Y8209D01*
X32072Y8159D01*
X32066Y8102D01*
Y9298D01*
X32072Y9241D01*
D02*
G37*
G36*
X12367Y6877D02*
X12271Y6777D01*
X12115Y6587D01*
X12054Y6497D01*
X12004Y6411D01*
X11966Y6328D01*
X11940Y6248D01*
X11925Y6171D01*
X11922Y6098D01*
X11931Y6028D01*
X11639Y7418D01*
X11658Y7357D01*
X11687Y7314D01*
X11725Y7289D01*
X11772Y7282D01*
X11829Y7292D01*
X11894Y7320D01*
X11970Y7366D01*
X12054Y7429D01*
X12148Y7511D01*
X12252Y7610D01*
X12367Y6877D01*
D02*
G37*
G36*
X20205Y5643D02*
X20223Y5592D01*
X20254Y5547D01*
X20297Y5508D01*
X20352Y5475D01*
X20419Y5448D01*
X20498Y5427D01*
X20590Y5412D01*
X20694Y5403D01*
X20811Y5400D01*
Y4800D01*
X20694Y4797D01*
X20590Y4788D01*
X20498Y4773D01*
X20419Y4752D01*
X20352Y4725D01*
X20297Y4692D01*
X20254Y4653D01*
X20223Y4608D01*
X20205Y4557D01*
X20199Y4500D01*
Y5700D01*
X20205Y5643D01*
D02*
G37*
G36*
X40886Y5501D02*
X40905Y5450D01*
X40935Y5406D01*
X40978Y5367D01*
X41034Y5334D01*
X41101Y5308D01*
X41181Y5287D01*
X41273Y5272D01*
X41377Y5263D01*
X41494Y5260D01*
Y4660D01*
X41377Y4657D01*
X41273Y4648D01*
X41181Y4633D01*
X41101Y4612D01*
X41034Y4585D01*
X40978Y4553D01*
X40935Y4514D01*
X40905Y4469D01*
X40886Y4419D01*
X40880Y4362D01*
Y5557D01*
X40886Y5501D01*
D02*
G37*
G36*
X43046Y4260D02*
X42967Y4336D01*
X42887Y4404D01*
X42805Y4464D01*
X42723Y4516D01*
X42640Y4560D01*
X42555Y4596D01*
X42469Y4624D01*
X42383Y4644D01*
X42295Y4656D01*
X42206Y4660D01*
Y5260D01*
X42295Y5264D01*
X42383Y5276D01*
X42469Y5296D01*
X42555Y5324D01*
X42640Y5360D01*
X42723Y5404D01*
X42805Y5456D01*
X42887Y5516D01*
X42967Y5584D01*
X43046Y5660D01*
Y4260D01*
D02*
G37*
G36*
X35979Y4107D02*
X35969Y4162D01*
X35946Y4212D01*
X35910Y4256D01*
X35861Y4294D01*
X35799Y4327D01*
X35724Y4353D01*
X35637Y4374D01*
X35536Y4388D01*
X35422Y4397D01*
X35295Y4400D01*
Y5000D01*
X35415Y5003D01*
X35521Y5012D01*
X35615Y5027D01*
X35695Y5048D01*
X35763Y5075D01*
X35818Y5108D01*
X35860Y5147D01*
X35888Y5192D01*
X35904Y5243D01*
X35907Y5300D01*
X35979Y4107D01*
D02*
G37*
G36*
X32072Y5241D02*
X32091Y5190D01*
X32123Y5146D01*
X32167Y5107D01*
X32224Y5074D01*
X32293Y5048D01*
X32375Y5027D01*
X32470Y5012D01*
X32577Y5003D01*
X32698Y5000D01*
Y4400D01*
X32577Y4397D01*
X32470Y4388D01*
X32375Y4373D01*
X32293Y4352D01*
X32224Y4326D01*
X32167Y4293D01*
X32123Y4254D01*
X32091Y4210D01*
X32072Y4159D01*
X32066Y4102D01*
Y5298D01*
X32072Y5241D01*
D02*
G37*
G36*
X4853Y3605D02*
X4837Y3552D01*
X4837Y3489D01*
X4854Y3418D01*
X4888Y3339D01*
X4939Y3251D01*
X5007Y3155D01*
X5091Y3050D01*
X5310Y2815D01*
X4885Y2390D01*
X4764Y2508D01*
X4545Y2693D01*
X4449Y2761D01*
X4361Y2812D01*
X4282Y2846D01*
X4211Y2863D01*
X4148Y2863D01*
X4095Y2847D01*
X4049Y2814D01*
X4886Y3651D01*
X4853Y3605D01*
D02*
G37*
G36*
X16609Y127812D02*
X6067D01*
Y121392D01*
X3900D01*
Y130407D01*
X16609D01*
Y127812D01*
D02*
G37*
G36*
X9778Y115021D02*
X7315D01*
Y119849D01*
X9778D01*
Y115021D01*
D02*
G37*
G36*
X13194Y106368D02*
X11814D01*
X11831Y106351D01*
X11880Y106319D01*
X11962Y106237D01*
X12061Y106154D01*
X12176Y106023D01*
X12307Y105892D01*
X12455Y105711D01*
X12603Y105530D01*
X12750Y105317D01*
X12898Y105087D01*
X13029Y104841D01*
X13145Y104562D01*
X13243Y104282D01*
X13325Y103971D01*
X13374Y103658D01*
X13391Y103314D01*
Y103182D01*
X13374Y103018D01*
X13358Y102821D01*
X13325Y102591D01*
X13259Y102329D01*
X13194Y102082D01*
X13095Y101820D01*
X13079Y101787D01*
X13046Y101705D01*
X12980Y101590D01*
X12898Y101442D01*
X12783Y101278D01*
X12652Y101113D01*
X12504Y100949D01*
X12340Y100802D01*
X12324Y100785D01*
X12258Y100752D01*
X12159Y100687D01*
X12044Y100604D01*
X11880Y100539D01*
X11716Y100457D01*
X11519Y100391D01*
X11305Y100325D01*
X11273D01*
X11207Y100309D01*
X11075Y100276D01*
X10879Y100243D01*
X10649Y100227D01*
X10369Y100194D01*
X10041Y100178D01*
X9663D01*
X3900D01*
Y102640D01*
X8629D01*
X8645D01*
X8695D01*
X8777D01*
X8875D01*
X8990D01*
X9138D01*
X9433Y102657D01*
X9778Y102673D01*
X10090Y102706D01*
X10238Y102723D01*
X10369Y102755D01*
X10484Y102772D01*
X10583Y102805D01*
X10599D01*
X10649Y102838D01*
X10731Y102870D01*
X10829Y102936D01*
X10944Y103002D01*
X11059Y103100D01*
X11174Y103199D01*
X11273Y103330D01*
X11289Y103347D01*
X11305Y103396D01*
X11355Y103462D01*
X11404Y103560D01*
X11437Y103691D01*
X11486Y103823D01*
X11502Y103987D01*
X11519Y104168D01*
Y104282D01*
X11502Y104397D01*
X11470Y104545D01*
X11437Y104726D01*
X11371Y104923D01*
X11273Y105120D01*
X11158Y105317D01*
X11141Y105333D01*
X11092Y105399D01*
X11026Y105481D01*
X10911Y105596D01*
X10780Y105711D01*
X10632Y105826D01*
X10435Y105924D01*
X10238Y106007D01*
X10205D01*
X10123Y106039D01*
X10058Y106056D01*
X9975D01*
X9877Y106072D01*
X9762Y106089D01*
X9614Y106105D01*
X9466Y106122D01*
X9286Y106138D01*
X9089Y106154D01*
X8875Y106171D01*
X8645D01*
X8383Y106187D01*
X8104D01*
X3900D01*
Y108650D01*
X13194D01*
Y106368D01*
D02*
G37*
G36*
X16724Y95317D02*
X9910D01*
X13194Y92460D01*
Y89439D01*
X9795Y92608D01*
X3900Y89209D01*
Y91853D01*
X8071Y94184D01*
X6872Y95317D01*
X3900D01*
Y97780D01*
X16724D01*
Y95317D01*
D02*
G37*
%LPC*%
G36*
X11800Y30235D02*
X11098Y30096D01*
X10502Y29698D01*
X10104Y29102D01*
X9965Y28400D01*
X10104Y27698D01*
X10502Y27102D01*
X11098Y26704D01*
X11800Y26565D01*
X12502Y26704D01*
X13098Y27102D01*
X13496Y27698D01*
X13635Y28400D01*
X13496Y29102D01*
X13098Y29698D01*
X12502Y30096D01*
X11800Y30235D01*
D02*
G37*
G36*
Y23235D02*
X11098Y23096D01*
X10502Y22698D01*
X10104Y22102D01*
X9965Y21400D01*
X10104Y20698D01*
X10502Y20102D01*
X11098Y19704D01*
X11800Y19565D01*
X12502Y19704D01*
X13098Y20102D01*
X13496Y20698D01*
X13635Y21400D01*
X13496Y22102D01*
X13098Y22698D01*
X12502Y23096D01*
X11800Y23235D01*
D02*
G37*
%LPD*%
D11*
X181000Y42000D02*
G03*
X176000Y47000I-5000J0D01*
G01*
X180300Y3700D02*
G03*
X181000Y5390I-1690J1690D01*
G01*
X177162Y2400D02*
G03*
X180300Y3700I0J4439D01*
G01*
X53074Y4811D02*
G03*
X53700Y3300I2137J0D01*
G01*
D02*
G03*
X55873Y2400I2173J2173D01*
G01*
X52624Y10976D02*
G03*
X51600Y11400I-1024J-1024D01*
G01*
X53074Y9889D02*
G03*
X52624Y10976I-1536J0D01*
G01*
X26500Y112400D02*
X29100Y109800D01*
X18500Y112400D02*
X26500D01*
X11098Y80900D02*
X12714Y79284D01*
Y71340D02*
Y79284D01*
X181000Y5390D02*
Y42000D01*
X164900Y47000D02*
X176000D01*
X56700Y2400D02*
X177162Y2400D01*
X55873Y2400D02*
X56700D01*
X48000Y11400D02*
X51600D01*
X53074Y4811D02*
Y9889D01*
X16100Y21200D02*
Y29800D01*
X17000Y30700D01*
Y33900D01*
X12800Y44300D02*
Y58700D01*
Y44300D02*
X21000Y36100D01*
Y33900D02*
Y36100D01*
X16300Y65000D02*
Y69500D01*
Y62200D02*
Y65000D01*
X5100Y48200D02*
X15000Y38300D01*
X12800Y58700D02*
X16300Y62200D01*
X43500Y15900D02*
X48000Y11400D01*
X43500Y15900D02*
Y25600D01*
X38600Y30500D02*
X43500Y25600D01*
X25200Y30500D02*
X38600D01*
X19600Y24900D02*
X25200Y30500D01*
X39100Y25400D02*
X42000Y22500D01*
Y14906D02*
Y22500D01*
Y14906D02*
X48206Y8700D01*
X36100Y25400D02*
X39100D01*
X16400Y16400D02*
X18500D01*
X10300D02*
X16400D01*
X10166Y5100D02*
X14300Y9234D01*
Y14300D01*
X16400Y16400D01*
X10300D02*
Y18600D01*
X4000Y24900D02*
X10300Y18600D01*
X29400Y15172D02*
X32828Y18600D01*
X24500Y15172D02*
X29400D01*
X15000Y20300D02*
Y38300D01*
Y20300D02*
X17100Y18200D01*
X16100Y21200D02*
X17400Y19900D01*
X17100Y18200D02*
X23100D01*
X17400Y19900D02*
X21500D01*
X26728Y25128D01*
X29400D01*
X5100Y48200D02*
Y55852D01*
X29400Y25128D02*
X29672Y25400D01*
X23100Y16572D02*
X24500Y15172D01*
X23100Y16572D02*
Y18200D01*
X44868Y49768D02*
X49198D01*
X43800Y48700D02*
X44868Y49768D01*
X56200Y89000D02*
Y95600D01*
X51800Y100000D02*
X56200Y95600D01*
X54600Y89500D02*
Y93100D01*
X51800Y95900D02*
X54600Y93100D01*
X56600Y111700D02*
X61800Y106500D01*
Y90946D02*
Y106500D01*
Y90946D02*
X64300Y88446D01*
X49198Y73390D02*
X62302D01*
X64300Y75388D02*
Y88446D01*
X62302Y73390D02*
X64300Y75388D01*
X43273Y58235D02*
X44648Y59610D01*
X43273Y55673D02*
Y58235D01*
Y55673D02*
X49198D01*
X40200Y52600D02*
X43273Y55673D01*
X44648Y59610D02*
X49198D01*
X37800Y130500D02*
X39400Y128900D01*
X32500Y130500D02*
X37800D01*
X29100Y127100D02*
X32500Y130500D01*
X43400Y128900D02*
X44400Y129900D01*
X45900D01*
X13400Y1500D02*
X14300Y2400D01*
X6200Y1500D02*
X13400D01*
X3900Y3800D02*
X6200Y1500D01*
X36364Y18600D02*
X39900D01*
X32828D02*
X36364D01*
X49198Y59610D02*
Y61579D01*
X32600Y52600D02*
X40200D01*
X22100Y63100D02*
X32600Y52600D01*
X31500Y100500D02*
X33300Y102300D01*
X31500Y94000D02*
Y100500D01*
Y94000D02*
X33600Y91900D01*
X38400Y102300D02*
X39400Y103300D01*
X33300Y102300D02*
X38400D01*
X28100Y86400D02*
Y100379D01*
X32700Y103500D02*
X36400D01*
X30300Y101100D02*
X32700Y103500D01*
X30300Y93300D02*
Y101100D01*
X28100Y86400D02*
X38500Y76000D01*
Y73700D02*
Y76000D01*
X32800Y72500D02*
Y76175D01*
X25100Y83875D02*
X32800Y76175D01*
X26100Y84289D02*
X36114Y74275D01*
X26100Y84289D02*
Y102400D01*
X25100Y83875D02*
Y90686D01*
X36114Y57700D02*
Y74275D01*
X23400Y92386D02*
X25100Y90686D01*
X23400Y92386D02*
Y100100D01*
X28100Y100379D02*
X37421Y109700D01*
X39000D01*
X31300Y106600D02*
X34400Y109700D01*
X25800Y106600D02*
X31300D01*
X25412Y65112D02*
X32800Y72500D01*
X34900Y91900D02*
X38900Y87900D01*
X33600Y91900D02*
X34900D01*
X34300Y87500D02*
Y89300D01*
X30300Y93300D02*
X34300Y89300D01*
X36400Y103500D02*
X37400Y104500D01*
Y106700D01*
X39400Y103300D02*
Y106700D01*
X54300Y111700D02*
X56600D01*
X43400Y101543D02*
Y106700D01*
X42400Y100543D02*
X43400Y101543D01*
X42400Y67500D02*
Y100543D01*
X45400Y102128D02*
Y106700D01*
X43400Y100128D02*
X45400Y102128D01*
X43400Y69092D02*
Y100128D01*
X47400Y102714D02*
Y106700D01*
X44400Y99714D02*
X47400Y102714D01*
X44400Y70600D02*
Y99714D01*
X49400Y103300D02*
Y106700D01*
X45400Y99300D02*
X49400Y103300D01*
X45400Y71900D02*
Y99300D01*
X52401Y85201D02*
X56200Y89000D01*
X52269Y87169D02*
X54600Y89500D01*
X39000Y109700D02*
X54300D01*
X37200Y111500D02*
X39000Y109700D01*
X37200Y111500D02*
Y116700D01*
X25100Y107300D02*
X25800Y106600D01*
X25100Y107300D02*
Y109800D01*
X28900Y116800D02*
X30400D01*
X25300D02*
X28900D01*
X31300Y117700D02*
X34400D01*
X30400Y116800D02*
X31300Y117700D01*
X34400Y115700D02*
X36200D01*
X37200Y116700D01*
Y122800D01*
X36300Y123700D02*
X37200Y122800D01*
X34400Y123700D02*
X36300D01*
X28900Y120800D02*
X29400D01*
X32300Y123700D01*
X34400D01*
X43400Y126700D02*
Y128900D01*
X41400Y126700D02*
Y129435D01*
X39400Y126700D02*
Y128900D01*
X29100Y124200D02*
Y127100D01*
X55700Y132500D02*
X57200Y131000D01*
Y122900D02*
Y131000D01*
X56000Y121700D02*
X57200Y122900D01*
X54300Y121700D02*
X56000D01*
X54300Y123700D02*
Y129435D01*
X5100Y63726D02*
X12714Y71340D01*
X5100Y71600D02*
X10600Y77100D01*
X49198Y87169D02*
X52269D01*
X49198Y85201D02*
X52401D01*
X55300Y84900D02*
X59300Y80900D01*
X38394Y4960D02*
X43760D01*
X38394Y12440D02*
X41335Y9500D01*
X55300Y84900D02*
Y85000D01*
X52968Y83232D02*
X55300Y80900D01*
X49198Y83232D02*
X52968D01*
X52336Y81264D02*
X53111Y80489D01*
X49198Y81264D02*
X52336D01*
X53111Y78989D02*
X55300Y76800D01*
X53111Y78989D02*
Y80489D01*
X45400Y71900D02*
X45879Y71421D01*
X44400Y70600D02*
X45547Y69453D01*
X43400Y69092D02*
X45008Y67484D01*
X42400Y67500D02*
X44384Y65516D01*
X41400Y65800D02*
Y106700D01*
Y65800D02*
X43653Y63547D01*
X49198D01*
X44384Y65516D02*
X49198D01*
X45008Y67484D02*
X49198D01*
X45547Y69453D02*
X49198D01*
X45879Y71421D02*
X49198D01*
X5252Y55700D02*
X10500D01*
X46800Y32600D02*
X50100Y29300D01*
Y25400D02*
Y29300D01*
X16300Y51000D02*
X21469Y45831D01*
X49198D01*
X52069Y38000D02*
X55550D01*
X49198Y40871D02*
X52069Y38000D01*
X49198Y40871D02*
Y43862D01*
X53200Y44030D02*
X55550Y41680D01*
X53200Y44030D02*
Y44873D01*
X52242Y45831D02*
X53200Y44873D01*
X49198Y45831D02*
X52242D01*
X53111Y47799D02*
X55550Y45360D01*
X49198Y47799D02*
X53111D01*
X52364Y51736D02*
X55060Y49040D01*
X49198Y51736D02*
X52364D01*
X53680Y52720D02*
X55550D01*
X52695Y53705D02*
X53680Y52720D01*
X49198Y53705D02*
X52695D01*
X53900Y56400D02*
X55550D01*
X53173Y55673D02*
X53900Y56400D01*
X49198Y55673D02*
X53173D01*
X31100Y4700D02*
X38135D01*
X34654Y8700D02*
X38394Y12440D01*
X31100Y8700D02*
X34654D01*
X29672Y25400D02*
X36100D01*
X24400Y7200D02*
Y12100D01*
X22700Y13800D02*
X24400Y12100D01*
X18500Y13800D02*
X22700D01*
X20000Y11200D02*
X21700Y9500D01*
X18500Y11200D02*
X20000D01*
X22300Y5100D02*
X24400Y7200D01*
X18434Y5100D02*
X22300D01*
X14300Y2400D02*
Y7000D01*
X18500Y11200D01*
X3900Y7800D02*
Y11500D01*
X4000Y11600D02*
X6200Y13800D01*
X10300D01*
D15*
X83900Y51360D02*
G03*
X80971Y58431I-10000J0D01*
G01*
X77331Y62071D02*
G03*
X70260Y65000I-7071J-7071D01*
G01*
X56794D02*
G03*
X53900Y63801I0J-4093D01*
G01*
D02*
G03*
X52849Y61263I2538J-2538D01*
G01*
Y60807D02*
G03*
X53714Y58719I2953J0D01*
G01*
X83900Y47000D02*
Y51360D01*
X77331Y62071D02*
X80971Y58431D01*
X56794Y65000D02*
X70260D01*
X52849Y60807D02*
Y61263D01*
X53714Y58719D02*
X53932Y58500D01*
X59300Y85000D02*
Y98600D01*
X54800Y103100D02*
X59300Y98600D01*
X51800Y103100D02*
X54800D01*
X59300Y76800D02*
X61100D01*
X62300Y78000D01*
Y83875D01*
X61175Y85000D02*
X62300Y83875D01*
X59300Y85000D02*
X61175D01*
X57209Y74709D02*
X59300Y76800D01*
X53497Y74709D02*
X57209D01*
X52849Y75358D02*
X53497Y74709D01*
X49198Y75358D02*
X52849D01*
X57450Y58500D02*
X59550Y56400D01*
X53932Y58500D02*
X57450D01*
X53074Y57642D02*
X53932Y58500D01*
X49198Y57642D02*
X53074D01*
X47198Y39000D02*
X52944Y33254D01*
X43800Y39000D02*
X47198D01*
X40800Y36000D02*
X43800Y39000D01*
X52944Y33254D02*
X57054D01*
X36800Y36000D02*
X40800D01*
X59550Y52720D02*
Y56400D01*
Y49040D02*
Y52720D01*
Y45360D02*
Y49040D01*
Y41680D02*
Y45360D01*
Y38000D02*
Y41680D01*
X57054Y33254D02*
X59550Y35750D01*
Y38000D01*
X36800Y36000D02*
X45900Y26900D01*
Y18600D02*
Y26900D01*
D16*
X83989Y80953D02*
G03*
X86706Y74394I9276J0D01*
G01*
X94900Y62058D02*
G03*
X91971Y69129I-10000J0D01*
G01*
X94900Y61887D02*
G03*
X96800Y57300I6487J0D01*
G01*
D02*
G03*
X102353Y55000I5553J5553D01*
G01*
X120423Y35500D02*
G03*
X126700Y38100I0J8877D01*
G01*
D02*
G03*
X129100Y43894I-5794J5794D01*
G01*
X104300Y87362D02*
G03*
X103000Y90500I-4439J0D01*
G01*
X101706Y93625D02*
G03*
X103000Y90500I4420J0D01*
G01*
X83989Y80953D02*
Y102500D01*
X86706Y74394D02*
X91971Y69129D01*
X94900Y61887D02*
Y62058D01*
X102353Y55000D02*
X104300D01*
X84840Y35500D02*
X120423D01*
X129100Y55000D02*
Y76800D01*
Y43894D02*
Y55000D01*
X104300Y76800D02*
Y87362D01*
X101706Y93625D02*
Y102500D01*
D19*
X95800D02*
D03*
X89894D02*
D03*
X107611D02*
D03*
X101706D02*
D03*
X83989D02*
D03*
X78083D02*
D03*
D20*
X114111Y117642D02*
D03*
X71583D02*
D03*
D21*
X4000Y24900D02*
D03*
X19600D02*
D03*
D22*
X164900Y47000D02*
D03*
D23*
X83900D02*
D03*
D24*
X21000Y33900D02*
D03*
X17000D02*
D03*
X31100Y4700D02*
D03*
X27100D02*
D03*
X31100Y8700D02*
D03*
X27100D02*
D03*
X59300Y80900D02*
D03*
X55300D02*
D03*
X55550Y56400D02*
D03*
X59550D02*
D03*
X25100Y109800D02*
D03*
X29100D02*
D03*
X25100Y124200D02*
D03*
X29100D02*
D03*
X18500Y112400D02*
D03*
X14500D02*
D03*
X55300Y85000D02*
D03*
X59300D02*
D03*
X55300Y76800D02*
D03*
X59300D02*
D03*
X55550Y52720D02*
D03*
X59550D02*
D03*
X55550Y49040D02*
D03*
X59550D02*
D03*
X55550Y45360D02*
D03*
X59550D02*
D03*
X55550Y41680D02*
D03*
X59550D02*
D03*
X55550Y38000D02*
D03*
X59550D02*
D03*
D25*
X48206Y8700D02*
D03*
X38394Y4960D02*
D03*
Y12440D02*
D03*
D26*
X18434Y5100D02*
D03*
X10166D02*
D03*
D27*
X3900Y7800D02*
D03*
Y3800D02*
D03*
X4000Y15600D02*
D03*
Y11600D02*
D03*
X28900Y120800D02*
D03*
Y116800D02*
D03*
X25300Y120800D02*
D03*
Y116800D02*
D03*
D28*
X10300Y16400D02*
D03*
Y13800D02*
D03*
Y11200D02*
D03*
X18500D02*
D03*
Y13800D02*
D03*
Y16400D02*
D03*
D29*
X39900Y18600D02*
D03*
X45900D02*
D03*
D30*
X29400Y25128D02*
D03*
Y16072D02*
D03*
D31*
X36100Y25400D02*
D03*
D32*
X50100D02*
D03*
D33*
X16300Y69500D02*
D03*
Y51000D02*
D03*
Y65000D02*
D03*
D34*
Y83500D02*
D03*
D35*
X5100Y63726D02*
D03*
Y55852D02*
D03*
Y71600D02*
D03*
Y79474D02*
D03*
D36*
X44400Y116700D02*
D03*
D37*
X34400Y109700D02*
D03*
Y111700D02*
D03*
Y113700D02*
D03*
Y115700D02*
D03*
Y117700D02*
D03*
Y119700D02*
D03*
Y123700D02*
D03*
Y121700D02*
D03*
X54300Y123700D02*
D03*
Y121700D02*
D03*
Y119700D02*
D03*
Y117700D02*
D03*
Y115700D02*
D03*
Y113700D02*
D03*
Y109700D02*
D03*
Y111700D02*
D03*
D38*
X51400Y106700D02*
D03*
X49400D02*
D03*
X47400D02*
D03*
X45400D02*
D03*
X43400D02*
D03*
X41400D02*
D03*
X37400D02*
D03*
X39400D02*
D03*
X51400Y126700D02*
D03*
X49400D02*
D03*
X47400D02*
D03*
X45400D02*
D03*
X43400D02*
D03*
X41400D02*
D03*
X37400D02*
D03*
X39400D02*
D03*
D39*
X49198Y43862D02*
D03*
Y45831D02*
D03*
Y47799D02*
D03*
Y49768D02*
D03*
Y51736D02*
D03*
Y53705D02*
D03*
Y55673D02*
D03*
Y57642D02*
D03*
Y59610D02*
D03*
Y61579D02*
D03*
Y63547D02*
D03*
Y65516D02*
D03*
Y67484D02*
D03*
Y69453D02*
D03*
Y71421D02*
D03*
Y73390D02*
D03*
Y75358D02*
D03*
Y77327D02*
D03*
Y79295D02*
D03*
Y81264D02*
D03*
Y83232D02*
D03*
Y85201D02*
D03*
Y87169D02*
D03*
Y89138D02*
D03*
D40*
X36800Y36000D02*
D03*
D41*
Y97000D02*
D03*
D42*
X8158Y112400D02*
D03*
D45*
X104300Y55000D02*
D03*
X129100D02*
D03*
Y76800D02*
D03*
X104300D02*
D03*
D46*
X77769Y38429D02*
G03*
X84840Y35500I7071J7071D01*
G01*
X74600Y45740D02*
G03*
X77529Y38669I10000J0D01*
G01*
X74600Y50658D02*
G03*
X71671Y57729I-10000J0D01*
G01*
X71522Y57878D02*
G03*
X64451Y60807I-7071J-7071D01*
G01*
X55391D02*
X64451D01*
X77529Y38669D02*
X77769Y38429D01*
X71522Y57878D02*
X71671Y57729D01*
X74600Y45740D02*
Y50658D01*
D47*
X87345Y108655D02*
G03*
X81442Y111100I-5903J-5903D01*
G01*
X79792D02*
G03*
X72721Y108171I0J-10000D01*
G01*
X63318Y69892D02*
G03*
X67200Y71500I0J5490D01*
G01*
X72629Y108079D02*
G03*
X69700Y101008I7071J-7071D01*
G01*
X67204Y71504D02*
G03*
X69700Y77535I-6039J6032D01*
G01*
X67200Y71500D02*
G03*
X67204Y71504I-6036J6036D01*
G01*
X89894Y102500D02*
G03*
X87345Y108655I-8704J0D01*
G01*
X107611Y94811D02*
Y102500D01*
X79792Y111100D02*
X81442D01*
X72629Y108079D02*
X72721Y108171D01*
X67204Y71504D02*
X67971Y72271D01*
X67200Y71500D02*
X67204Y71504D01*
X69700Y77535D02*
Y101008D01*
X54805Y69892D02*
X63318D01*
D48*
X28700Y104500D02*
D03*
X21903Y89404D02*
D03*
X15600Y112400D02*
D03*
X54300Y129435D02*
D03*
X11098Y80900D02*
D03*
X10600Y77100D02*
D03*
X23100Y18200D02*
D03*
X25100Y75300D02*
D03*
X7300Y9200D02*
D03*
X19400Y55951D02*
D03*
X15300D02*
D03*
X43800Y48700D02*
D03*
X33976Y84100D02*
D03*
X54800Y103100D02*
D03*
X51800D02*
D03*
Y100000D02*
D03*
Y95900D02*
D03*
X40300Y116700D02*
D03*
X33800Y100000D02*
D03*
X38800Y92000D02*
D03*
X38300Y80500D02*
D03*
X26800Y10500D02*
D03*
X24300Y3000D02*
D03*
X8200Y33000D02*
D03*
X6100Y18900D02*
D03*
X8800Y24700D02*
D03*
X4900Y34700D02*
D03*
X27300Y33200D02*
D03*
X23300Y42500D02*
D03*
X27300D02*
D03*
X31300D02*
D03*
X35300D02*
D03*
X36300Y49500D02*
D03*
X24800Y50500D02*
D03*
X17200Y45100D02*
D03*
X25300Y71900D02*
D03*
X40300Y113500D02*
D03*
X33300Y127500D02*
D03*
X26300D02*
D03*
X21300Y110500D02*
D03*
Y114500D02*
D03*
Y118500D02*
D03*
Y122500D02*
D03*
X45900Y129900D02*
D03*
X36364Y18600D02*
D03*
X40200Y52600D02*
D03*
X22100Y63100D02*
D03*
X26100Y102400D02*
D03*
X23400Y100100D02*
D03*
X38500Y73700D02*
D03*
X34300Y87500D02*
D03*
X38900Y87900D02*
D03*
X25412Y65112D02*
D03*
X36114Y57700D02*
D03*
X41400Y129435D02*
D03*
X55700Y132500D02*
D03*
X43760Y4960D02*
D03*
X41335Y9500D02*
D03*
X10500Y55700D02*
D03*
X46800Y32600D02*
D03*
X21700Y9500D02*
D03*
D49*
X55391Y60807D02*
D03*
X107611Y94811D02*
D03*
X54805Y69892D02*
D03*
M02*
