G04*
G04 #@! TF.GenerationSoftware,Altium Limited,Altium Designer,20.0.13 (296)*
G04*
G04 Layer_Color=16711935*
%FSLAX25Y25*%
%MOIN*%
G70*
G01*
G75*
G04:AMPARAMS|DCode=24|XSize=20mil|YSize=20mil|CornerRadius=5mil|HoleSize=0mil|Usage=FLASHONLY|Rotation=270.000|XOffset=0mil|YOffset=0mil|HoleType=Round|Shape=RoundedRectangle|*
%AMROUNDEDRECTD24*
21,1,0.02000,0.01000,0,0,270.0*
21,1,0.01000,0.02000,0,0,270.0*
1,1,0.01000,-0.00500,-0.00500*
1,1,0.01000,-0.00500,0.00500*
1,1,0.01000,0.00500,0.00500*
1,1,0.01000,0.00500,-0.00500*
%
%ADD24ROUNDEDRECTD24*%
G04:AMPARAMS|DCode=27|XSize=20mil|YSize=20mil|CornerRadius=5mil|HoleSize=0mil|Usage=FLASHONLY|Rotation=180.000|XOffset=0mil|YOffset=0mil|HoleType=Round|Shape=RoundedRectangle|*
%AMROUNDEDRECTD27*
21,1,0.02000,0.01000,0,0,180.0*
21,1,0.01000,0.02000,0,0,180.0*
1,1,0.01000,-0.00500,0.00500*
1,1,0.01000,0.00500,0.00500*
1,1,0.01000,0.00500,-0.00500*
1,1,0.01000,-0.00500,-0.00500*
%
%ADD27ROUNDEDRECTD27*%
%ADD45O,0.03150X0.11811*%
%ADD51R,0.01968X0.01968*%
G36*
X36038Y62664D02*
X36010Y62663D01*
X35982Y62659D01*
X35954Y62655D01*
X35926Y62649D01*
X35899Y62641D01*
X35872Y62632D01*
X35846Y62622D01*
X35820Y62610D01*
X35795Y62597D01*
X35770Y62582D01*
X35746Y62567D01*
X35724Y62550D01*
X35702Y62532D01*
X35681Y62513D01*
X35661Y62493D01*
X35642Y62471D01*
X35625Y62449D01*
X35608Y62426D01*
X35593Y62402D01*
X35579Y62377D01*
X35566Y62352D01*
X35555Y62326D01*
X35545Y62300D01*
X35537Y62273D01*
X35530Y62245D01*
X35524Y62217D01*
X35520Y62189D01*
X35517Y62161D01*
X35516Y62133D01*
Y61385D01*
X35517Y61360D01*
X35519Y61334D01*
X35523Y61308D01*
X35528Y61282D01*
X35535Y61256D01*
X35543Y61231D01*
X35552Y61207D01*
X35563Y61183D01*
X35574Y61159D01*
X35587Y61136D01*
X35601Y61114D01*
X35617Y61093D01*
X35633Y61072D01*
X35651Y61053D01*
X35669Y61034D01*
X35688Y61016D01*
X35709Y60999D01*
X35730Y60984D01*
X35752Y60969D01*
X35774Y60956D01*
X35798Y60944D01*
X35822Y60933D01*
X35846Y60923D01*
X35871Y60915D01*
X35896Y60908D01*
X35922Y60902D01*
X35948Y60898D01*
X35974Y60895D01*
X36000Y60893D01*
X36028Y60893D01*
X37051D01*
X37079Y60893D01*
X37105Y60895D01*
X37131Y60898D01*
X37157Y60902D01*
X37183Y60908D01*
X37208Y60915D01*
X37233Y60923D01*
X37257Y60933D01*
X37281Y60944D01*
X37304Y60956D01*
X37327Y60969D01*
X37349Y60984D01*
X37370Y60999D01*
X37390Y61016D01*
X37410Y61034D01*
X37428Y61053D01*
X37446Y61072D01*
X37462Y61093D01*
X37477Y61114D01*
X37491Y61136D01*
X37504Y61159D01*
X37516Y61183D01*
X37527Y61207D01*
X37536Y61231D01*
X37544Y61256D01*
X37550Y61282D01*
X37556Y61308D01*
X37559Y61334D01*
X37562Y61360D01*
X37563Y61385D01*
Y61424D01*
Y62133D01*
X37562Y62161D01*
X37559Y62189D01*
X37555Y62217D01*
X37549Y62245D01*
X37542Y62273D01*
X37534Y62300D01*
X37524Y62326D01*
X37512Y62352D01*
X37500Y62377D01*
X37486Y62402D01*
X37470Y62426D01*
X37454Y62449D01*
X37436Y62471D01*
X37418Y62493D01*
X37398Y62513D01*
X37377Y62532D01*
X37355Y62550D01*
X37332Y62567D01*
X37309Y62582D01*
X37284Y62597D01*
X37259Y62610D01*
X37233Y62622D01*
X37207Y62632D01*
X37180Y62641D01*
X37153Y62649D01*
X37125Y62655D01*
X37097Y62659D01*
X37069Y62663D01*
X37041Y62664D01*
X37012Y62665D01*
X36067D01*
X36038Y62664D01*
D02*
G37*
G36*
Y64633D02*
X36010Y64631D01*
X35982Y64628D01*
X35954Y64623D01*
X35926Y64617D01*
X35899Y64609D01*
X35872Y64600D01*
X35846Y64590D01*
X35820Y64578D01*
X35795Y64565D01*
X35770Y64551D01*
X35746Y64535D01*
X35724Y64518D01*
X35702Y64500D01*
X35681Y64481D01*
X35661Y64461D01*
X35642Y64440D01*
X35625Y64418D01*
X35608Y64394D01*
X35593Y64371D01*
X35579Y64346D01*
X35566Y64321D01*
X35555Y64295D01*
X35545Y64268D01*
X35537Y64241D01*
X35530Y64214D01*
X35524Y64186D01*
X35520Y64158D01*
X35517Y64130D01*
X35516Y64102D01*
Y63354D01*
X35517Y63328D01*
X35519Y63302D01*
X35523Y63276D01*
X35528Y63250D01*
X35535Y63225D01*
X35543Y63200D01*
X35552Y63175D01*
X35563Y63151D01*
X35574Y63128D01*
X35587Y63105D01*
X35601Y63083D01*
X35617Y63061D01*
X35633Y63041D01*
X35651Y63021D01*
X35669Y63002D01*
X35688Y62985D01*
X35709Y62968D01*
X35730Y62952D01*
X35752Y62938D01*
X35774Y62924D01*
X35798Y62912D01*
X35822Y62901D01*
X35846Y62892D01*
X35871Y62883D01*
X35896Y62876D01*
X35922Y62871D01*
X35948Y62866D01*
X35974Y62863D01*
X36000Y62862D01*
X36028Y62861D01*
X37051D01*
X37079Y62862D01*
X37105Y62863D01*
X37131Y62866D01*
X37157Y62871D01*
X37183Y62876D01*
X37208Y62883D01*
X37233Y62892D01*
X37257Y62901D01*
X37281Y62912D01*
X37304Y62924D01*
X37327Y62938D01*
X37349Y62952D01*
X37370Y62968D01*
X37390Y62985D01*
X37410Y63002D01*
X37428Y63021D01*
X37446Y63041D01*
X37462Y63061D01*
X37477Y63083D01*
X37491Y63105D01*
X37504Y63128D01*
X37516Y63151D01*
X37527Y63175D01*
X37536Y63200D01*
X37544Y63225D01*
X37550Y63250D01*
X37556Y63276D01*
X37559Y63302D01*
X37562Y63328D01*
X37563Y63354D01*
Y63393D01*
Y64102D01*
X37562Y64130D01*
X37559Y64158D01*
X37555Y64186D01*
X37549Y64214D01*
X37542Y64241D01*
X37534Y64268D01*
X37524Y64295D01*
X37512Y64321D01*
X37500Y64346D01*
X37486Y64371D01*
X37470Y64394D01*
X37454Y64418D01*
X37436Y64440D01*
X37418Y64461D01*
X37398Y64481D01*
X37377Y64500D01*
X37355Y64518D01*
X37332Y64535D01*
X37309Y64551D01*
X37284Y64565D01*
X37259Y64578D01*
X37233Y64590D01*
X37207Y64600D01*
X37180Y64609D01*
X37153Y64617D01*
X37125Y64623D01*
X37097Y64628D01*
X37069Y64631D01*
X37041Y64633D01*
X37012Y64633D01*
X36067D01*
X36038Y64633D01*
D02*
G37*
G36*
Y66601D02*
X36010Y66600D01*
X35982Y66596D01*
X35954Y66592D01*
X35926Y66586D01*
X35899Y66578D01*
X35872Y66569D01*
X35846Y66559D01*
X35820Y66547D01*
X35795Y66534D01*
X35770Y66519D01*
X35746Y66504D01*
X35724Y66487D01*
X35702Y66469D01*
X35681Y66450D01*
X35661Y66430D01*
X35642Y66408D01*
X35625Y66386D01*
X35608Y66363D01*
X35593Y66339D01*
X35579Y66314D01*
X35566Y66289D01*
X35555Y66263D01*
X35545Y66237D01*
X35537Y66210D01*
X35530Y66182D01*
X35524Y66154D01*
X35520Y66126D01*
X35517Y66098D01*
X35516Y66070D01*
Y65322D01*
X35517Y65297D01*
X35519Y65271D01*
X35523Y65245D01*
X35528Y65219D01*
X35535Y65193D01*
X35543Y65168D01*
X35552Y65144D01*
X35563Y65120D01*
X35574Y65096D01*
X35587Y65073D01*
X35601Y65051D01*
X35617Y65030D01*
X35633Y65009D01*
X35651Y64990D01*
X35669Y64971D01*
X35688Y64953D01*
X35709Y64936D01*
X35730Y64921D01*
X35752Y64906D01*
X35774Y64893D01*
X35798Y64881D01*
X35822Y64870D01*
X35846Y64860D01*
X35871Y64852D01*
X35896Y64845D01*
X35922Y64839D01*
X35948Y64835D01*
X35974Y64832D01*
X36000Y64830D01*
X36028Y64830D01*
X37051D01*
X37079Y64830D01*
X37105Y64832D01*
X37131Y64835D01*
X37157Y64839D01*
X37183Y64845D01*
X37208Y64852D01*
X37233Y64860D01*
X37257Y64870D01*
X37281Y64881D01*
X37304Y64893D01*
X37327Y64906D01*
X37349Y64921D01*
X37370Y64936D01*
X37390Y64953D01*
X37410Y64971D01*
X37428Y64990D01*
X37446Y65009D01*
X37462Y65030D01*
X37477Y65051D01*
X37491Y65073D01*
X37504Y65096D01*
X37516Y65120D01*
X37527Y65144D01*
X37536Y65168D01*
X37544Y65193D01*
X37550Y65219D01*
X37556Y65245D01*
X37559Y65271D01*
X37562Y65297D01*
X37563Y65322D01*
Y65361D01*
Y66070D01*
X37562Y66098D01*
X37559Y66126D01*
X37555Y66154D01*
X37549Y66182D01*
X37542Y66210D01*
X37534Y66237D01*
X37524Y66263D01*
X37512Y66289D01*
X37500Y66314D01*
X37486Y66339D01*
X37470Y66363D01*
X37454Y66386D01*
X37436Y66408D01*
X37418Y66430D01*
X37398Y66450D01*
X37377Y66469D01*
X37355Y66487D01*
X37332Y66504D01*
X37309Y66519D01*
X37284Y66534D01*
X37259Y66547D01*
X37233Y66559D01*
X37207Y66569D01*
X37180Y66578D01*
X37153Y66586D01*
X37125Y66592D01*
X37097Y66596D01*
X37069Y66600D01*
X37041Y66601D01*
X37012Y66602D01*
X36067D01*
X36038Y66601D01*
D02*
G37*
G36*
Y68570D02*
X36010Y68568D01*
X35982Y68565D01*
X35954Y68560D01*
X35926Y68554D01*
X35899Y68546D01*
X35872Y68537D01*
X35846Y68527D01*
X35820Y68515D01*
X35795Y68502D01*
X35770Y68488D01*
X35746Y68472D01*
X35724Y68455D01*
X35702Y68437D01*
X35681Y68418D01*
X35661Y68398D01*
X35642Y68377D01*
X35625Y68355D01*
X35608Y68331D01*
X35593Y68308D01*
X35579Y68283D01*
X35566Y68258D01*
X35555Y68232D01*
X35545Y68205D01*
X35537Y68178D01*
X35530Y68151D01*
X35524Y68123D01*
X35520Y68095D01*
X35517Y68067D01*
X35516Y68039D01*
Y67291D01*
X35517Y67265D01*
X35519Y67239D01*
X35523Y67213D01*
X35528Y67188D01*
X35535Y67162D01*
X35543Y67137D01*
X35552Y67112D01*
X35563Y67088D01*
X35574Y67065D01*
X35587Y67042D01*
X35601Y67020D01*
X35617Y66998D01*
X35633Y66978D01*
X35651Y66958D01*
X35669Y66939D01*
X35688Y66922D01*
X35709Y66905D01*
X35730Y66889D01*
X35752Y66875D01*
X35774Y66861D01*
X35798Y66849D01*
X35822Y66838D01*
X35846Y66829D01*
X35871Y66820D01*
X35896Y66813D01*
X35922Y66808D01*
X35948Y66803D01*
X35974Y66800D01*
X36000Y66799D01*
X36028Y66798D01*
X37051D01*
X37079Y66799D01*
X37105Y66800D01*
X37131Y66803D01*
X37157Y66808D01*
X37183Y66813D01*
X37208Y66820D01*
X37233Y66829D01*
X37257Y66838D01*
X37281Y66849D01*
X37304Y66861D01*
X37327Y66875D01*
X37349Y66889D01*
X37370Y66905D01*
X37390Y66922D01*
X37410Y66939D01*
X37428Y66958D01*
X37446Y66978D01*
X37462Y66998D01*
X37477Y67020D01*
X37491Y67042D01*
X37504Y67065D01*
X37516Y67088D01*
X37527Y67112D01*
X37536Y67137D01*
X37544Y67162D01*
X37550Y67188D01*
X37556Y67213D01*
X37559Y67239D01*
X37562Y67265D01*
X37563Y67291D01*
Y67330D01*
Y68039D01*
X37562Y68067D01*
X37559Y68095D01*
X37555Y68123D01*
X37549Y68151D01*
X37542Y68178D01*
X37534Y68205D01*
X37524Y68232D01*
X37512Y68258D01*
X37500Y68283D01*
X37486Y68308D01*
X37470Y68331D01*
X37454Y68355D01*
X37436Y68377D01*
X37418Y68398D01*
X37398Y68418D01*
X37377Y68437D01*
X37355Y68455D01*
X37332Y68472D01*
X37309Y68488D01*
X37284Y68502D01*
X37259Y68515D01*
X37233Y68527D01*
X37207Y68537D01*
X37180Y68546D01*
X37153Y68554D01*
X37125Y68560D01*
X37097Y68565D01*
X37069Y68568D01*
X37041Y68570D01*
X37012Y68570D01*
X36067D01*
X36038Y68570D01*
D02*
G37*
G36*
Y70538D02*
X36010Y70537D01*
X35982Y70533D01*
X35954Y70529D01*
X35926Y70523D01*
X35899Y70515D01*
X35872Y70506D01*
X35846Y70496D01*
X35820Y70484D01*
X35795Y70471D01*
X35770Y70456D01*
X35746Y70441D01*
X35724Y70424D01*
X35702Y70406D01*
X35681Y70387D01*
X35661Y70367D01*
X35642Y70345D01*
X35625Y70323D01*
X35608Y70300D01*
X35593Y70276D01*
X35579Y70251D01*
X35566Y70226D01*
X35555Y70200D01*
X35545Y70174D01*
X35537Y70147D01*
X35530Y70119D01*
X35524Y70091D01*
X35520Y70063D01*
X35517Y70035D01*
X35516Y70007D01*
Y69259D01*
X35517Y69234D01*
X35519Y69208D01*
X35523Y69182D01*
X35528Y69156D01*
X35535Y69130D01*
X35543Y69105D01*
X35552Y69081D01*
X35563Y69057D01*
X35574Y69033D01*
X35587Y69010D01*
X35601Y68988D01*
X35617Y68967D01*
X35633Y68946D01*
X35651Y68927D01*
X35669Y68908D01*
X35688Y68890D01*
X35709Y68873D01*
X35730Y68858D01*
X35752Y68843D01*
X35774Y68830D01*
X35798Y68818D01*
X35822Y68807D01*
X35846Y68797D01*
X35871Y68789D01*
X35896Y68782D01*
X35922Y68776D01*
X35948Y68772D01*
X35974Y68769D01*
X36000Y68767D01*
X36028Y68767D01*
X37051D01*
X37079Y68767D01*
X37105Y68769D01*
X37131Y68772D01*
X37157Y68776D01*
X37183Y68782D01*
X37208Y68789D01*
X37233Y68797D01*
X37257Y68807D01*
X37281Y68818D01*
X37304Y68830D01*
X37327Y68843D01*
X37349Y68858D01*
X37370Y68873D01*
X37390Y68890D01*
X37410Y68908D01*
X37428Y68927D01*
X37446Y68946D01*
X37462Y68967D01*
X37477Y68988D01*
X37491Y69010D01*
X37504Y69033D01*
X37516Y69057D01*
X37527Y69081D01*
X37536Y69105D01*
X37544Y69130D01*
X37550Y69156D01*
X37556Y69182D01*
X37559Y69208D01*
X37562Y69234D01*
X37563Y69259D01*
Y69298D01*
Y70007D01*
X37562Y70035D01*
X37559Y70063D01*
X37555Y70091D01*
X37549Y70119D01*
X37542Y70147D01*
X37534Y70174D01*
X37524Y70200D01*
X37512Y70226D01*
X37500Y70251D01*
X37486Y70276D01*
X37470Y70300D01*
X37454Y70323D01*
X37436Y70345D01*
X37418Y70367D01*
X37398Y70387D01*
X37377Y70406D01*
X37355Y70424D01*
X37332Y70441D01*
X37309Y70456D01*
X37284Y70471D01*
X37259Y70484D01*
X37233Y70496D01*
X37207Y70506D01*
X37180Y70515D01*
X37153Y70523D01*
X37125Y70529D01*
X37097Y70533D01*
X37069Y70537D01*
X37041Y70538D01*
X37012Y70539D01*
X36067D01*
X36038Y70538D01*
D02*
G37*
G36*
Y72507D02*
X36010Y72505D01*
X35982Y72502D01*
X35954Y72497D01*
X35926Y72491D01*
X35899Y72483D01*
X35872Y72474D01*
X35846Y72464D01*
X35820Y72452D01*
X35795Y72439D01*
X35770Y72425D01*
X35746Y72409D01*
X35724Y72392D01*
X35702Y72374D01*
X35681Y72355D01*
X35661Y72335D01*
X35642Y72314D01*
X35625Y72292D01*
X35608Y72268D01*
X35593Y72245D01*
X35579Y72220D01*
X35566Y72195D01*
X35555Y72169D01*
X35545Y72142D01*
X35537Y72115D01*
X35530Y72088D01*
X35524Y72060D01*
X35520Y72032D01*
X35517Y72004D01*
X35516Y71976D01*
Y71228D01*
X35517Y71202D01*
X35519Y71176D01*
X35523Y71150D01*
X35528Y71125D01*
X35535Y71099D01*
X35543Y71074D01*
X35552Y71049D01*
X35563Y71025D01*
X35574Y71002D01*
X35587Y70979D01*
X35601Y70957D01*
X35617Y70935D01*
X35633Y70915D01*
X35651Y70895D01*
X35669Y70876D01*
X35688Y70859D01*
X35709Y70842D01*
X35730Y70826D01*
X35752Y70812D01*
X35774Y70798D01*
X35798Y70786D01*
X35822Y70775D01*
X35846Y70766D01*
X35871Y70757D01*
X35896Y70750D01*
X35922Y70745D01*
X35948Y70740D01*
X35974Y70737D01*
X36000Y70736D01*
X36028Y70735D01*
X37051D01*
X37079Y70736D01*
X37105Y70737D01*
X37131Y70740D01*
X37157Y70745D01*
X37183Y70750D01*
X37208Y70757D01*
X37233Y70766D01*
X37257Y70775D01*
X37281Y70786D01*
X37304Y70798D01*
X37327Y70812D01*
X37349Y70826D01*
X37370Y70842D01*
X37390Y70859D01*
X37410Y70876D01*
X37428Y70895D01*
X37446Y70915D01*
X37462Y70935D01*
X37477Y70957D01*
X37491Y70979D01*
X37504Y71002D01*
X37516Y71025D01*
X37527Y71049D01*
X37536Y71074D01*
X37544Y71099D01*
X37550Y71125D01*
X37556Y71150D01*
X37559Y71176D01*
X37562Y71202D01*
X37563Y71228D01*
Y71267D01*
Y71976D01*
X37562Y72004D01*
X37559Y72032D01*
X37555Y72060D01*
X37549Y72088D01*
X37542Y72115D01*
X37534Y72142D01*
X37524Y72169D01*
X37512Y72195D01*
X37500Y72220D01*
X37486Y72245D01*
X37470Y72268D01*
X37454Y72292D01*
X37436Y72314D01*
X37418Y72335D01*
X37398Y72355D01*
X37377Y72374D01*
X37355Y72392D01*
X37332Y72409D01*
X37309Y72425D01*
X37284Y72439D01*
X37259Y72452D01*
X37233Y72464D01*
X37207Y72474D01*
X37180Y72483D01*
X37153Y72491D01*
X37125Y72497D01*
X37097Y72502D01*
X37069Y72505D01*
X37041Y72507D01*
X37012Y72507D01*
X36067D01*
X36038Y72507D01*
D02*
G37*
G36*
X45921Y62664D02*
X45895Y62663D01*
X45869Y62660D01*
X45843Y62655D01*
X45818Y62650D01*
X45792Y62643D01*
X45767Y62634D01*
X45743Y62625D01*
X45719Y62614D01*
X45696Y62602D01*
X45673Y62588D01*
X45651Y62574D01*
X45630Y62558D01*
X45610Y62542D01*
X45590Y62524D01*
X45572Y62505D01*
X45554Y62485D01*
X45538Y62465D01*
X45523Y62443D01*
X45509Y62421D01*
X45496Y62398D01*
X45484Y62375D01*
X45474Y62351D01*
X45464Y62326D01*
X45456Y62301D01*
X45450Y62275D01*
X45445Y62250D01*
X45441Y62224D01*
X45438Y62198D01*
X45437Y62172D01*
Y62133D01*
Y61424D01*
X45438Y61396D01*
X45441Y61368D01*
X45445Y61340D01*
X45451Y61313D01*
X45458Y61285D01*
X45466Y61258D01*
X45476Y61231D01*
X45488Y61205D01*
X45500Y61180D01*
X45514Y61155D01*
X45529Y61132D01*
X45546Y61108D01*
X45564Y61086D01*
X45582Y61065D01*
X45602Y61045D01*
X45623Y61026D01*
X45645Y61008D01*
X45668Y60991D01*
X45691Y60975D01*
X45716Y60961D01*
X45741Y60948D01*
X45767Y60936D01*
X45793Y60926D01*
X45820Y60917D01*
X45847Y60909D01*
X45875Y60903D01*
X45903Y60898D01*
X45931Y60895D01*
X45959Y60893D01*
X45988Y60893D01*
X46933D01*
X46962Y60893D01*
X46990Y60895D01*
X47018Y60898D01*
X47046Y60903D01*
X47074Y60909D01*
X47101Y60917D01*
X47128Y60926D01*
X47155Y60936D01*
X47180Y60948D01*
X47205Y60961D01*
X47230Y60975D01*
X47254Y60991D01*
X47276Y61008D01*
X47298Y61026D01*
X47319Y61045D01*
X47339Y61065D01*
X47358Y61086D01*
X47375Y61108D01*
X47392Y61132D01*
X47407Y61155D01*
X47421Y61180D01*
X47434Y61205D01*
X47445Y61231D01*
X47455Y61258D01*
X47463Y61285D01*
X47471Y61313D01*
X47476Y61340D01*
X47480Y61368D01*
X47483Y61396D01*
X47484Y61424D01*
Y62172D01*
X47483Y62198D01*
X47481Y62224D01*
X47477Y62250D01*
X47471Y62275D01*
X47465Y62301D01*
X47457Y62326D01*
X47448Y62351D01*
X47437Y62375D01*
X47426Y62398D01*
X47413Y62421D01*
X47398Y62443D01*
X47383Y62465D01*
X47367Y62485D01*
X47350Y62505D01*
X47331Y62524D01*
X47312Y62542D01*
X47291Y62558D01*
X47270Y62574D01*
X47248Y62588D01*
X47226Y62602D01*
X47202Y62614D01*
X47179Y62625D01*
X47154Y62634D01*
X47129Y62643D01*
X47104Y62650D01*
X47078Y62655D01*
X47052Y62660D01*
X47026Y62663D01*
X47000Y62664D01*
X46972Y62665D01*
X45949D01*
X45921Y62664D01*
D02*
G37*
G36*
Y64633D02*
X45895Y64631D01*
X45869Y64628D01*
X45843Y64624D01*
X45818Y64618D01*
X45792Y64611D01*
X45767Y64603D01*
X45743Y64593D01*
X45719Y64582D01*
X45696Y64570D01*
X45673Y64557D01*
X45651Y64542D01*
X45630Y64527D01*
X45610Y64510D01*
X45590Y64492D01*
X45572Y64473D01*
X45554Y64454D01*
X45538Y64433D01*
X45523Y64412D01*
X45509Y64390D01*
X45496Y64367D01*
X45484Y64343D01*
X45474Y64319D01*
X45464Y64295D01*
X45456Y64270D01*
X45450Y64244D01*
X45445Y64218D01*
X45441Y64192D01*
X45438Y64166D01*
X45437Y64141D01*
Y64102D01*
Y63393D01*
X45438Y63365D01*
X45441Y63337D01*
X45445Y63309D01*
X45451Y63281D01*
X45458Y63253D01*
X45466Y63226D01*
X45476Y63200D01*
X45488Y63174D01*
X45500Y63149D01*
X45514Y63124D01*
X45529Y63100D01*
X45546Y63077D01*
X45564Y63055D01*
X45582Y63033D01*
X45602Y63013D01*
X45623Y62994D01*
X45645Y62976D01*
X45668Y62959D01*
X45691Y62944D01*
X45716Y62929D01*
X45741Y62916D01*
X45767Y62904D01*
X45793Y62894D01*
X45820Y62885D01*
X45847Y62877D01*
X45875Y62871D01*
X45903Y62867D01*
X45931Y62863D01*
X45959Y62862D01*
X45988Y62861D01*
X46933D01*
X46962Y62862D01*
X46990Y62863D01*
X47018Y62867D01*
X47046Y62871D01*
X47074Y62877D01*
X47101Y62885D01*
X47128Y62894D01*
X47155Y62904D01*
X47180Y62916D01*
X47205Y62929D01*
X47230Y62944D01*
X47254Y62959D01*
X47276Y62976D01*
X47298Y62994D01*
X47319Y63013D01*
X47339Y63033D01*
X47358Y63055D01*
X47375Y63077D01*
X47392Y63100D01*
X47407Y63124D01*
X47421Y63149D01*
X47434Y63174D01*
X47445Y63200D01*
X47455Y63226D01*
X47463Y63253D01*
X47471Y63281D01*
X47476Y63309D01*
X47480Y63337D01*
X47483Y63365D01*
X47484Y63393D01*
Y64141D01*
X47483Y64166D01*
X47481Y64192D01*
X47477Y64218D01*
X47471Y64244D01*
X47465Y64270D01*
X47457Y64295D01*
X47448Y64319D01*
X47437Y64343D01*
X47426Y64367D01*
X47413Y64390D01*
X47398Y64412D01*
X47383Y64433D01*
X47367Y64454D01*
X47350Y64473D01*
X47331Y64492D01*
X47312Y64510D01*
X47291Y64527D01*
X47270Y64542D01*
X47248Y64557D01*
X47226Y64570D01*
X47202Y64582D01*
X47179Y64593D01*
X47154Y64603D01*
X47129Y64611D01*
X47104Y64618D01*
X47078Y64624D01*
X47052Y64628D01*
X47026Y64631D01*
X47000Y64633D01*
X46972Y64633D01*
X45949D01*
X45921Y64633D01*
D02*
G37*
G36*
Y66601D02*
X45895Y66600D01*
X45869Y66597D01*
X45843Y66592D01*
X45818Y66587D01*
X45792Y66580D01*
X45767Y66571D01*
X45743Y66562D01*
X45719Y66551D01*
X45696Y66539D01*
X45673Y66525D01*
X45651Y66511D01*
X45630Y66495D01*
X45610Y66479D01*
X45590Y66461D01*
X45572Y66442D01*
X45554Y66422D01*
X45538Y66402D01*
X45523Y66380D01*
X45509Y66358D01*
X45496Y66335D01*
X45484Y66312D01*
X45474Y66288D01*
X45464Y66263D01*
X45456Y66238D01*
X45450Y66212D01*
X45445Y66187D01*
X45441Y66161D01*
X45438Y66135D01*
X45437Y66110D01*
Y66070D01*
Y65361D01*
X45438Y65333D01*
X45441Y65305D01*
X45445Y65277D01*
X45451Y65250D01*
X45458Y65222D01*
X45466Y65195D01*
X45476Y65168D01*
X45488Y65142D01*
X45500Y65117D01*
X45514Y65092D01*
X45529Y65069D01*
X45546Y65045D01*
X45564Y65023D01*
X45582Y65002D01*
X45602Y64982D01*
X45623Y64963D01*
X45645Y64945D01*
X45668Y64928D01*
X45691Y64912D01*
X45716Y64898D01*
X45741Y64885D01*
X45767Y64873D01*
X45793Y64863D01*
X45820Y64854D01*
X45847Y64846D01*
X45875Y64840D01*
X45903Y64835D01*
X45931Y64832D01*
X45959Y64830D01*
X45988Y64830D01*
X46933D01*
X46962Y64830D01*
X46990Y64832D01*
X47018Y64835D01*
X47046Y64840D01*
X47074Y64846D01*
X47101Y64854D01*
X47128Y64863D01*
X47155Y64873D01*
X47180Y64885D01*
X47205Y64898D01*
X47230Y64912D01*
X47254Y64928D01*
X47276Y64945D01*
X47298Y64963D01*
X47319Y64982D01*
X47339Y65002D01*
X47358Y65023D01*
X47375Y65045D01*
X47392Y65069D01*
X47407Y65092D01*
X47421Y65117D01*
X47434Y65142D01*
X47445Y65168D01*
X47455Y65195D01*
X47463Y65222D01*
X47471Y65250D01*
X47476Y65277D01*
X47480Y65305D01*
X47483Y65333D01*
X47484Y65361D01*
Y66110D01*
X47483Y66135D01*
X47481Y66161D01*
X47477Y66187D01*
X47471Y66212D01*
X47465Y66238D01*
X47457Y66263D01*
X47448Y66288D01*
X47437Y66312D01*
X47426Y66335D01*
X47413Y66358D01*
X47398Y66380D01*
X47383Y66402D01*
X47367Y66422D01*
X47350Y66442D01*
X47331Y66461D01*
X47312Y66479D01*
X47291Y66495D01*
X47270Y66511D01*
X47248Y66525D01*
X47226Y66539D01*
X47202Y66551D01*
X47179Y66562D01*
X47154Y66571D01*
X47129Y66580D01*
X47104Y66587D01*
X47078Y66592D01*
X47052Y66597D01*
X47026Y66600D01*
X47000Y66601D01*
X46972Y66602D01*
X45949D01*
X45921Y66601D01*
D02*
G37*
G36*
Y68570D02*
X45895Y68568D01*
X45869Y68565D01*
X45843Y68561D01*
X45818Y68555D01*
X45792Y68548D01*
X45767Y68540D01*
X45743Y68530D01*
X45719Y68519D01*
X45696Y68507D01*
X45673Y68494D01*
X45651Y68479D01*
X45630Y68464D01*
X45610Y68447D01*
X45590Y68429D01*
X45572Y68410D01*
X45554Y68391D01*
X45538Y68370D01*
X45523Y68349D01*
X45509Y68327D01*
X45496Y68304D01*
X45484Y68280D01*
X45474Y68256D01*
X45464Y68232D01*
X45456Y68207D01*
X45450Y68181D01*
X45445Y68155D01*
X45441Y68129D01*
X45438Y68103D01*
X45437Y68078D01*
Y68039D01*
Y67330D01*
X45438Y67302D01*
X45441Y67274D01*
X45445Y67246D01*
X45451Y67218D01*
X45458Y67190D01*
X45466Y67163D01*
X45476Y67137D01*
X45488Y67111D01*
X45500Y67086D01*
X45514Y67061D01*
X45529Y67037D01*
X45546Y67014D01*
X45564Y66992D01*
X45582Y66970D01*
X45602Y66950D01*
X45623Y66931D01*
X45645Y66913D01*
X45668Y66896D01*
X45691Y66881D01*
X45716Y66866D01*
X45741Y66853D01*
X45767Y66841D01*
X45793Y66831D01*
X45820Y66822D01*
X45847Y66814D01*
X45875Y66808D01*
X45903Y66804D01*
X45931Y66800D01*
X45959Y66799D01*
X45988Y66798D01*
X46933D01*
X46962Y66799D01*
X46990Y66800D01*
X47018Y66804D01*
X47046Y66808D01*
X47074Y66814D01*
X47101Y66822D01*
X47128Y66831D01*
X47155Y66841D01*
X47180Y66853D01*
X47205Y66866D01*
X47230Y66881D01*
X47254Y66896D01*
X47276Y66913D01*
X47298Y66931D01*
X47319Y66950D01*
X47339Y66970D01*
X47358Y66992D01*
X47375Y67014D01*
X47392Y67037D01*
X47407Y67061D01*
X47421Y67086D01*
X47434Y67111D01*
X47445Y67137D01*
X47455Y67163D01*
X47463Y67190D01*
X47471Y67218D01*
X47476Y67246D01*
X47480Y67274D01*
X47483Y67302D01*
X47484Y67330D01*
Y68078D01*
X47483Y68103D01*
X47481Y68129D01*
X47477Y68155D01*
X47471Y68181D01*
X47465Y68207D01*
X47457Y68232D01*
X47448Y68256D01*
X47437Y68280D01*
X47426Y68304D01*
X47413Y68327D01*
X47398Y68349D01*
X47383Y68370D01*
X47367Y68391D01*
X47350Y68410D01*
X47331Y68429D01*
X47312Y68447D01*
X47291Y68464D01*
X47270Y68479D01*
X47248Y68494D01*
X47226Y68507D01*
X47202Y68519D01*
X47179Y68530D01*
X47154Y68540D01*
X47129Y68548D01*
X47104Y68555D01*
X47078Y68561D01*
X47052Y68565D01*
X47026Y68568D01*
X47000Y68570D01*
X46972Y68570D01*
X45949D01*
X45921Y68570D01*
D02*
G37*
G36*
Y70538D02*
X45895Y70537D01*
X45869Y70534D01*
X45843Y70529D01*
X45818Y70524D01*
X45792Y70517D01*
X45767Y70508D01*
X45743Y70499D01*
X45719Y70488D01*
X45696Y70476D01*
X45673Y70462D01*
X45651Y70448D01*
X45630Y70432D01*
X45610Y70416D01*
X45590Y70398D01*
X45572Y70379D01*
X45554Y70359D01*
X45538Y70339D01*
X45523Y70317D01*
X45509Y70295D01*
X45496Y70272D01*
X45484Y70249D01*
X45474Y70225D01*
X45464Y70200D01*
X45456Y70175D01*
X45450Y70149D01*
X45445Y70124D01*
X45441Y70098D01*
X45438Y70072D01*
X45437Y70047D01*
Y70007D01*
Y69298D01*
X45438Y69270D01*
X45441Y69242D01*
X45445Y69214D01*
X45451Y69187D01*
X45458Y69159D01*
X45466Y69132D01*
X45476Y69105D01*
X45488Y69079D01*
X45500Y69054D01*
X45514Y69029D01*
X45529Y69006D01*
X45546Y68982D01*
X45564Y68960D01*
X45582Y68939D01*
X45602Y68919D01*
X45623Y68900D01*
X45645Y68882D01*
X45668Y68865D01*
X45691Y68849D01*
X45716Y68835D01*
X45741Y68822D01*
X45767Y68810D01*
X45793Y68800D01*
X45820Y68791D01*
X45847Y68783D01*
X45875Y68777D01*
X45903Y68772D01*
X45931Y68769D01*
X45959Y68767D01*
X45988Y68767D01*
X46933D01*
X46962Y68767D01*
X46990Y68769D01*
X47018Y68772D01*
X47046Y68777D01*
X47074Y68783D01*
X47101Y68791D01*
X47128Y68800D01*
X47155Y68810D01*
X47180Y68822D01*
X47205Y68835D01*
X47230Y68849D01*
X47254Y68865D01*
X47276Y68882D01*
X47298Y68900D01*
X47319Y68919D01*
X47339Y68939D01*
X47358Y68960D01*
X47375Y68982D01*
X47392Y69006D01*
X47407Y69029D01*
X47421Y69054D01*
X47434Y69079D01*
X47445Y69105D01*
X47455Y69132D01*
X47463Y69159D01*
X47471Y69187D01*
X47476Y69214D01*
X47480Y69242D01*
X47483Y69270D01*
X47484Y69298D01*
Y70047D01*
X47483Y70072D01*
X47481Y70098D01*
X47477Y70124D01*
X47471Y70149D01*
X47465Y70175D01*
X47457Y70200D01*
X47448Y70225D01*
X47437Y70249D01*
X47426Y70272D01*
X47413Y70295D01*
X47398Y70317D01*
X47383Y70339D01*
X47367Y70359D01*
X47350Y70379D01*
X47331Y70398D01*
X47312Y70416D01*
X47291Y70432D01*
X47270Y70448D01*
X47248Y70462D01*
X47226Y70476D01*
X47202Y70488D01*
X47179Y70499D01*
X47154Y70508D01*
X47129Y70517D01*
X47104Y70524D01*
X47078Y70529D01*
X47052Y70534D01*
X47026Y70537D01*
X47000Y70538D01*
X46972Y70539D01*
X45949D01*
X45921Y70538D01*
D02*
G37*
G36*
Y72507D02*
X45895Y72505D01*
X45869Y72502D01*
X45843Y72498D01*
X45818Y72492D01*
X45792Y72485D01*
X45767Y72477D01*
X45743Y72467D01*
X45719Y72456D01*
X45696Y72444D01*
X45673Y72431D01*
X45651Y72416D01*
X45630Y72401D01*
X45610Y72384D01*
X45590Y72366D01*
X45572Y72347D01*
X45554Y72328D01*
X45538Y72307D01*
X45523Y72286D01*
X45509Y72264D01*
X45496Y72241D01*
X45484Y72217D01*
X45474Y72193D01*
X45464Y72169D01*
X45456Y72144D01*
X45450Y72118D01*
X45445Y72092D01*
X45441Y72066D01*
X45438Y72040D01*
X45437Y72015D01*
Y71976D01*
Y71267D01*
X45438Y71239D01*
X45441Y71211D01*
X45445Y71183D01*
X45451Y71155D01*
X45458Y71127D01*
X45466Y71100D01*
X45476Y71074D01*
X45488Y71048D01*
X45500Y71023D01*
X45514Y70998D01*
X45529Y70974D01*
X45546Y70951D01*
X45564Y70929D01*
X45582Y70907D01*
X45602Y70887D01*
X45623Y70868D01*
X45645Y70850D01*
X45668Y70833D01*
X45691Y70818D01*
X45716Y70803D01*
X45741Y70790D01*
X45767Y70778D01*
X45793Y70768D01*
X45820Y70759D01*
X45847Y70751D01*
X45875Y70745D01*
X45903Y70741D01*
X45931Y70737D01*
X45959Y70736D01*
X45988Y70735D01*
X46933D01*
X46962Y70736D01*
X46990Y70737D01*
X47018Y70741D01*
X47046Y70745D01*
X47074Y70751D01*
X47101Y70759D01*
X47128Y70768D01*
X47155Y70778D01*
X47180Y70790D01*
X47205Y70803D01*
X47230Y70818D01*
X47254Y70833D01*
X47276Y70850D01*
X47298Y70868D01*
X47319Y70887D01*
X47339Y70907D01*
X47358Y70929D01*
X47375Y70951D01*
X47392Y70974D01*
X47407Y70998D01*
X47421Y71023D01*
X47434Y71048D01*
X47445Y71074D01*
X47455Y71100D01*
X47463Y71127D01*
X47471Y71155D01*
X47476Y71183D01*
X47480Y71211D01*
X47483Y71239D01*
X47484Y71267D01*
Y72015D01*
X47483Y72040D01*
X47481Y72066D01*
X47477Y72092D01*
X47471Y72118D01*
X47465Y72144D01*
X47457Y72169D01*
X47448Y72193D01*
X47437Y72217D01*
X47426Y72241D01*
X47413Y72264D01*
X47398Y72286D01*
X47383Y72307D01*
X47367Y72328D01*
X47350Y72347D01*
X47331Y72366D01*
X47312Y72384D01*
X47291Y72401D01*
X47270Y72416D01*
X47248Y72431D01*
X47226Y72444D01*
X47202Y72456D01*
X47179Y72467D01*
X47154Y72477D01*
X47129Y72485D01*
X47104Y72492D01*
X47078Y72498D01*
X47052Y72502D01*
X47026Y72505D01*
X47000Y72507D01*
X46972Y72507D01*
X45949D01*
X45921Y72507D01*
D02*
G37*
D24*
X29000Y76300D02*
D03*
X33000D02*
D03*
X29000Y57100D02*
D03*
X33000D02*
D03*
Y52800D02*
D03*
X29000D02*
D03*
D27*
X41500Y66700D02*
D03*
X32700Y61100D02*
D03*
Y65100D02*
D03*
Y68400D02*
D03*
Y72400D02*
D03*
X29000Y68400D02*
D03*
Y72400D02*
D03*
Y61112D02*
D03*
Y65112D02*
D03*
D45*
X104300Y55000D02*
D03*
X129100D02*
D03*
Y76800D02*
D03*
X104300D02*
D03*
D51*
X42800Y57200D02*
D03*
X39400D02*
D03*
M02*
