G04*
G04 #@! TF.GenerationSoftware,Altium Limited,Altium Designer,20.0.13 (296)*
G04*
G04 Layer_Color=32896*
%FSLAX25Y25*%
%MOIN*%
G70*
G01*
G75*
%ADD10C,0.00800*%
%ADD14C,0.00100*%
%ADD15C,0.01000*%
%ADD18C,0.00500*%
%ADD52C,0.00400*%
G36*
X31650Y76900D02*
X30350D01*
Y77250D01*
X31650D01*
Y76900D01*
D02*
G37*
G36*
Y75350D02*
X30350D01*
X30350Y75700D01*
X31650D01*
X31650Y75350D01*
D02*
G37*
G36*
X29900Y70700D02*
X28100D01*
Y71050D01*
X29900D01*
Y70700D01*
D02*
G37*
G36*
X33650Y69750D02*
X33300D01*
Y71050D01*
X33650D01*
Y69750D01*
D02*
G37*
G36*
X32100Y71050D02*
Y69750D01*
X31750Y69750D01*
Y71050D01*
X32100Y71050D01*
D02*
G37*
G36*
X29900Y69750D02*
X28100D01*
Y70100D01*
X29900D01*
Y69750D01*
D02*
G37*
G36*
X29950Y62462D02*
X29600D01*
Y63762D01*
X29950D01*
Y62462D01*
D02*
G37*
G36*
X28400Y63762D02*
Y62462D01*
X28050Y62462D01*
Y63762D01*
X28400Y63762D01*
D02*
G37*
G36*
X33650Y62450D02*
X33300D01*
Y63750D01*
X33650D01*
Y62450D01*
D02*
G37*
G36*
X32100Y63750D02*
Y62450D01*
X31750Y62450D01*
Y63750D01*
X32100Y63750D01*
D02*
G37*
G36*
X31650Y56200D02*
X31300D01*
Y58000D01*
X31650D01*
Y56200D01*
D02*
G37*
G36*
X30700D02*
X30350D01*
Y58000D01*
X30700D01*
Y56200D01*
D02*
G37*
G36*
X31650Y51900D02*
X31300D01*
Y53700D01*
X31650D01*
Y51900D01*
D02*
G37*
G36*
X30700D02*
X30350D01*
Y53700D01*
X30700D01*
Y51900D01*
D02*
G37*
G36*
X96715Y85656D02*
Y68500D01*
X87936D01*
Y85656D01*
X96715D01*
D02*
G37*
G36*
X96728Y63827D02*
Y46500D01*
X87936D01*
Y63827D01*
X96728D01*
D02*
G37*
%LPC*%
G36*
X95182Y84157D02*
X90800D01*
Y81132D01*
D01*
Y81257D01*
X91522D01*
Y82366D01*
X94323D01*
X93791Y81395D01*
X94454Y81132D01*
X95182Y82510D01*
Y83199D01*
X91522D01*
Y84157D01*
X95182D01*
D02*
G37*
G36*
X90078Y80752D02*
X89435D01*
Y76999D01*
X90800D01*
X90078D01*
Y80752D01*
D02*
G37*
G36*
X95215Y76593D02*
X94244D01*
X94251Y76580D01*
X94264Y76547D01*
X94290Y76488D01*
X94316Y76416D01*
X94349Y76330D01*
X94382Y76239D01*
X94408Y76147D01*
X94434Y76048D01*
Y76035D01*
X94441Y76002D01*
X94454Y75956D01*
X94467Y75897D01*
X94474Y75825D01*
X94487Y75747D01*
X94493Y75583D01*
Y75530D01*
X94487Y75471D01*
X94480Y75399D01*
X94467Y75320D01*
X94441Y75228D01*
X94415Y75137D01*
X94375Y75051D01*
X94369Y75045D01*
X94355Y75018D01*
X94329Y74972D01*
X94296Y74927D01*
X94251Y74867D01*
X94198Y74809D01*
X94133Y74749D01*
X94060Y74690D01*
X94054Y74684D01*
X94028Y74671D01*
X93982Y74645D01*
X93929Y74612D01*
X93857Y74579D01*
X93778Y74546D01*
X93686Y74513D01*
X93581Y74487D01*
X93568D01*
X93536Y74474D01*
X93476Y74467D01*
X93404Y74454D01*
X93313Y74441D01*
X93208Y74435D01*
X93096Y74421D01*
X92971D01*
X92965D01*
X92958D01*
X92939D01*
X92912D01*
X92847Y74428D01*
X92761D01*
X92663Y74435D01*
X92551Y74448D01*
X92447Y74467D01*
X92335Y74487D01*
X92322Y74494D01*
X92289Y74500D01*
X92237Y74513D01*
X92171Y74540D01*
X92099Y74566D01*
X92020Y74605D01*
X91941Y74645D01*
X91869Y74697D01*
X91863Y74704D01*
X91837Y74723D01*
X91804Y74756D01*
X91764Y74795D01*
X91712Y74848D01*
X91666Y74913D01*
X91620Y74986D01*
X91574Y75064D01*
X91567Y75077D01*
X91561Y75104D01*
X91541Y75150D01*
X91528Y75215D01*
X91509Y75294D01*
X91489Y75386D01*
X91482Y75484D01*
X91476Y75596D01*
Y75668D01*
X91482Y75740D01*
X91495Y75832D01*
Y75838D01*
X91502Y75852D01*
Y75878D01*
X91509Y75917D01*
X91528Y75996D01*
X91548Y76094D01*
Y76101D01*
X91554Y76114D01*
X91561Y76140D01*
X91574Y76173D01*
X91600Y76258D01*
X91633Y76350D01*
Y76357D01*
X91640Y76370D01*
X91653Y76396D01*
X91666Y76429D01*
X91699Y76508D01*
X91738Y76593D01*
X90971D01*
X90964Y76580D01*
X90951Y76540D01*
X90931Y76488D01*
X90905Y76409D01*
X90879Y76324D01*
X90846Y76232D01*
X90800Y76029D01*
Y76016D01*
X90793Y75983D01*
X90780Y75930D01*
X90774Y75858D01*
X90761Y75773D01*
X90747Y75674D01*
X90741Y75576D01*
Y75386D01*
X90747Y75346D01*
Y75294D01*
X90761Y75182D01*
X90774Y75051D01*
X90800Y74913D01*
X90833Y74769D01*
X90879Y74631D01*
Y74625D01*
X90885Y74618D01*
X90892Y74599D01*
X90905Y74572D01*
X90938Y74507D01*
X90984Y74421D01*
X91036Y74323D01*
X91108Y74225D01*
X91194Y74120D01*
X91285Y74021D01*
X91299Y74008D01*
X91338Y73982D01*
X91397Y73936D01*
X91476Y73883D01*
X91574Y73825D01*
X91686Y73759D01*
X91817Y73700D01*
X91961Y73647D01*
X91968D01*
X91981Y73641D01*
X92001Y73634D01*
X92033Y73628D01*
X92073Y73621D01*
X92119Y73608D01*
X92171Y73595D01*
X92230Y73588D01*
X92368Y73562D01*
X92532Y73542D01*
X92709Y73529D01*
X92906Y73523D01*
X95215D01*
X92998D01*
X93044Y73529D01*
X93103D01*
X93168Y73536D01*
X93234Y73542D01*
X93385Y73555D01*
X93549Y73582D01*
X93719Y73615D01*
X93883Y73660D01*
X93890D01*
X93903Y73667D01*
X93923Y73674D01*
X93955Y73687D01*
X93988Y73700D01*
X94034Y73720D01*
X94133Y73759D01*
X94244Y73818D01*
X94369Y73883D01*
X94487Y73962D01*
X94605Y74054D01*
X94611D01*
X94618Y74067D01*
X94651Y74100D01*
X94710Y74159D01*
X94775Y74231D01*
X94848Y74323D01*
X94920Y74435D01*
X94992Y74553D01*
X95057Y74690D01*
Y74697D01*
X95064Y74710D01*
X95071Y74730D01*
X95084Y74756D01*
X95097Y74789D01*
X95110Y74835D01*
X95136Y74933D01*
X95162Y75058D01*
X95189Y75202D01*
X95208Y75353D01*
X95215Y75524D01*
Y75615D01*
X95208Y75707D01*
X95202Y75806D01*
Y75852D01*
X95195Y75884D01*
X95189Y75970D01*
X95175Y76061D01*
Y76081D01*
X95169Y76107D01*
X95162Y76140D01*
X95149Y76225D01*
X95130Y76317D01*
Y76324D01*
X95123Y76344D01*
X95117Y76370D01*
X95110Y76403D01*
X95103Y76442D01*
X95090Y76488D01*
X95057Y76593D01*
X95215D01*
D02*
G37*
G36*
X95156Y72749D02*
X94487D01*
Y71791D01*
X91476D01*
Y72749D01*
X90800D01*
Y70000D01*
X95156D01*
Y72749D01*
D02*
G37*
%LPD*%
G36*
X94487Y70000D02*
X91476D01*
Y70958D01*
X94487D01*
Y70000D01*
D02*
G37*
%LPC*%
G36*
X92991Y62327D02*
X90721D01*
X92899D01*
X92853Y62321D01*
X92801D01*
X92735D01*
X92670Y62314D01*
X92519Y62301D01*
X92355Y62275D01*
X92191Y62248D01*
X92027Y62209D01*
X92020D01*
X92007Y62202D01*
X91987Y62196D01*
X91955Y62189D01*
X91922Y62176D01*
X91876Y62156D01*
X91777Y62124D01*
X91666Y62071D01*
X91548Y62012D01*
X91430Y61940D01*
X91312Y61861D01*
X91299Y61848D01*
X91266Y61822D01*
X91213Y61776D01*
X91148Y61710D01*
X91075Y61632D01*
X91003Y61540D01*
X90938Y61435D01*
X90872Y61317D01*
Y61310D01*
X90866Y61304D01*
X90859Y61284D01*
X90846Y61258D01*
X90826Y61192D01*
X90800Y61107D01*
X90767Y60995D01*
X90747Y60871D01*
X90728Y60726D01*
X90721Y60575D01*
Y58929D01*
D01*
Y60517D01*
X90728Y60444D01*
X90734Y60359D01*
X90754Y60261D01*
X90774Y60149D01*
X90807Y60031D01*
X90846Y59913D01*
X90852Y59900D01*
X90872Y59860D01*
X90898Y59808D01*
X90944Y59736D01*
X90997Y59651D01*
X91062Y59565D01*
X91148Y59473D01*
X91240Y59388D01*
X91253Y59382D01*
X91292Y59355D01*
X91351Y59316D01*
X91430Y59263D01*
X91528Y59211D01*
X91646Y59152D01*
X91784Y59100D01*
X91935Y59047D01*
X91941D01*
X91955Y59040D01*
X91981Y59034D01*
X92014Y59027D01*
X92053Y59021D01*
X92099Y59008D01*
X92158Y59001D01*
X92224Y58988D01*
X92296Y58975D01*
X92368Y58968D01*
X92545Y58949D01*
X92742Y58935D01*
X92952Y58929D01*
X93044D01*
X93089Y58935D01*
X93142D01*
X93208Y58942D01*
X93273D01*
X93424Y58955D01*
X93581Y58981D01*
X93745Y59008D01*
X93909Y59047D01*
X93916D01*
X93929Y59054D01*
X93949Y59060D01*
X93982Y59067D01*
X94014Y59080D01*
X94060Y59100D01*
X94159Y59132D01*
X94270Y59185D01*
X94388Y59244D01*
X94513Y59309D01*
X94625Y59388D01*
X94631D01*
X94638Y59401D01*
X94670Y59427D01*
X94723Y59473D01*
X94788Y59539D01*
X94861Y59618D01*
X94939Y59710D01*
X95012Y59815D01*
X95071Y59933D01*
Y59939D01*
X95077Y59946D01*
X95084Y59965D01*
X95097Y59992D01*
X95123Y60057D01*
X95149Y60149D01*
X95175Y60261D01*
X95202Y60385D01*
X95221Y60523D01*
X95228Y60674D01*
Y60733D01*
X95221Y60805D01*
X95215Y60890D01*
X95195Y60995D01*
X95175Y61107D01*
X95143Y61218D01*
X95097Y61336D01*
Y61343D01*
X95090Y61350D01*
X95071Y61389D01*
X95044Y61441D01*
X94998Y61514D01*
X94946Y61599D01*
X94880Y61684D01*
X94795Y61769D01*
X94703Y61855D01*
X94690Y61868D01*
X94657Y61894D01*
X94598Y61933D01*
X94513Y61979D01*
X94415Y62038D01*
X94296Y62097D01*
X94159Y62150D01*
X94008Y62202D01*
X94001D01*
X93988Y62209D01*
X93968Y62216D01*
X93936Y62222D01*
X93890Y62229D01*
X93844Y62242D01*
X93785Y62255D01*
X93726Y62268D01*
X93654Y62275D01*
X93575Y62288D01*
X93404Y62307D01*
X93208Y62321D01*
X92991Y62327D01*
D02*
G37*
G36*
X90078Y58752D02*
X89435D01*
Y55000D01*
X90800D01*
X90078D01*
Y58752D01*
D02*
G37*
G36*
X95215Y54593D02*
X94244D01*
X94251Y54580D01*
X94264Y54547D01*
X94290Y54488D01*
X94316Y54416D01*
X94349Y54330D01*
X94382Y54239D01*
X94408Y54147D01*
X94434Y54048D01*
Y54035D01*
X94441Y54002D01*
X94454Y53957D01*
X94467Y53897D01*
X94474Y53825D01*
X94487Y53747D01*
X94493Y53583D01*
Y53530D01*
X94487Y53471D01*
X94480Y53399D01*
X94467Y53320D01*
X94441Y53228D01*
X94415Y53136D01*
X94375Y53051D01*
X94369Y53045D01*
X94355Y53018D01*
X94329Y52973D01*
X94296Y52927D01*
X94251Y52868D01*
X94198Y52808D01*
X94133Y52749D01*
X94060Y52690D01*
X94054Y52684D01*
X94028Y52671D01*
X93982Y52644D01*
X93929Y52612D01*
X93857Y52579D01*
X93778Y52546D01*
X93686Y52513D01*
X93581Y52487D01*
X93568D01*
X93536Y52474D01*
X93476Y52467D01*
X93404Y52454D01*
X93313Y52441D01*
X93208Y52435D01*
X93096Y52421D01*
X92971D01*
X92965D01*
X92958D01*
X92939D01*
X92912D01*
X92847Y52428D01*
X92761D01*
X92663Y52435D01*
X92551Y52448D01*
X92447Y52467D01*
X92335Y52487D01*
X92322Y52494D01*
X92289Y52500D01*
X92237Y52513D01*
X92171Y52539D01*
X92099Y52566D01*
X92020Y52605D01*
X91941Y52644D01*
X91869Y52697D01*
X91863Y52703D01*
X91837Y52723D01*
X91804Y52756D01*
X91764Y52795D01*
X91712Y52848D01*
X91666Y52913D01*
X91620Y52986D01*
X91574Y53064D01*
X91567Y53077D01*
X91561Y53104D01*
X91541Y53150D01*
X91528Y53215D01*
X91509Y53294D01*
X91489Y53386D01*
X91482Y53484D01*
X91476Y53596D01*
Y53668D01*
X91482Y53740D01*
X91495Y53832D01*
Y53838D01*
X91502Y53851D01*
Y53878D01*
X91509Y53917D01*
X91528Y53996D01*
X91548Y54094D01*
Y54101D01*
X91554Y54114D01*
X91561Y54140D01*
X91574Y54173D01*
X91600Y54258D01*
X91633Y54350D01*
Y54357D01*
X91640Y54370D01*
X91653Y54396D01*
X91666Y54429D01*
X91699Y54507D01*
X91738Y54593D01*
X90971D01*
X90964Y54580D01*
X90951Y54540D01*
X90931Y54488D01*
X90905Y54409D01*
X90879Y54324D01*
X90846Y54232D01*
X90800Y54029D01*
Y54015D01*
X90793Y53983D01*
X90780Y53930D01*
X90774Y53858D01*
X90761Y53773D01*
X90747Y53674D01*
X90741Y53576D01*
Y53386D01*
X90747Y53346D01*
Y53294D01*
X90761Y53182D01*
X90774Y53051D01*
X90800Y52913D01*
X90833Y52769D01*
X90879Y52631D01*
Y52625D01*
X90885Y52618D01*
X90892Y52599D01*
X90905Y52572D01*
X90938Y52507D01*
X90984Y52421D01*
X91036Y52323D01*
X91108Y52225D01*
X91194Y52120D01*
X91285Y52021D01*
X91299Y52008D01*
X91338Y51982D01*
X91397Y51936D01*
X91476Y51884D01*
X91574Y51824D01*
X91686Y51759D01*
X91817Y51700D01*
X91961Y51647D01*
X91968D01*
X91981Y51641D01*
X92001Y51634D01*
X92033Y51628D01*
X92073Y51621D01*
X92119Y51608D01*
X92171Y51595D01*
X92230Y51588D01*
X92368Y51562D01*
X92532Y51542D01*
X92709Y51529D01*
X92906Y51523D01*
X95215D01*
X92998D01*
X93044Y51529D01*
X93103D01*
X93168Y51536D01*
X93234Y51542D01*
X93385Y51556D01*
X93549Y51582D01*
X93719Y51615D01*
X93883Y51661D01*
X93890D01*
X93903Y51667D01*
X93923Y51674D01*
X93955Y51687D01*
X93988Y51700D01*
X94034Y51719D01*
X94133Y51759D01*
X94244Y51818D01*
X94369Y51884D01*
X94487Y51962D01*
X94605Y52054D01*
X94611D01*
X94618Y52067D01*
X94651Y52100D01*
X94710Y52159D01*
X94775Y52231D01*
X94848Y52323D01*
X94920Y52435D01*
X94992Y52553D01*
X95057Y52690D01*
Y52697D01*
X95064Y52710D01*
X95071Y52730D01*
X95084Y52756D01*
X95097Y52789D01*
X95110Y52835D01*
X95136Y52933D01*
X95162Y53058D01*
X95189Y53202D01*
X95208Y53353D01*
X95215Y53523D01*
Y53615D01*
X95208Y53707D01*
X95202Y53806D01*
Y53851D01*
X95195Y53884D01*
X95189Y53970D01*
X95175Y54061D01*
Y54081D01*
X95169Y54107D01*
X95162Y54140D01*
X95149Y54225D01*
X95130Y54317D01*
Y54324D01*
X95123Y54343D01*
X95117Y54370D01*
X95110Y54403D01*
X95103Y54442D01*
X95090Y54488D01*
X95057Y54593D01*
X95215D01*
D02*
G37*
G36*
X95156Y50749D02*
X94487D01*
Y49791D01*
X91476D01*
Y50749D01*
X90800D01*
Y48000D01*
X95156D01*
Y50749D01*
D02*
G37*
%LPD*%
G36*
X93076Y61501D02*
X93089D01*
X93116D01*
X93148Y61494D01*
X93194D01*
X92020Y59874D01*
X92014D01*
X92007Y59880D01*
X91968Y59893D01*
X91909Y59920D01*
X91837Y59952D01*
X91758Y59998D01*
X91679Y60051D01*
X91600Y60110D01*
X91535Y60175D01*
X91528Y60182D01*
X91509Y60208D01*
X91489Y60247D01*
X91463Y60307D01*
X91430Y60372D01*
X91410Y60444D01*
X91390Y60536D01*
X91384Y60628D01*
Y60661D01*
X91390Y60694D01*
X91397Y60739D01*
X91404Y60792D01*
X91423Y60851D01*
X91443Y60910D01*
X91476Y60969D01*
X91482Y60976D01*
X91495Y60995D01*
X91515Y61028D01*
X91548Y61067D01*
X91587Y61113D01*
X91640Y61159D01*
X91699Y61205D01*
X91764Y61251D01*
X91771Y61258D01*
X91797Y61271D01*
X91843Y61291D01*
X91902Y61317D01*
X91974Y61350D01*
X92053Y61376D01*
X92151Y61409D01*
X92256Y61435D01*
X92263D01*
X92269Y61441D01*
X92309Y61448D01*
X92374Y61461D01*
X92460Y61474D01*
X92565Y61487D01*
X92683Y61494D01*
X92821Y61507D01*
X92965D01*
X92971D01*
X92998D01*
X93037D01*
X93076Y61501D01*
D02*
G37*
G36*
X93929Y61376D02*
X93968Y61363D01*
X94028Y61336D01*
X94100Y61297D01*
X94178Y61258D01*
X94257Y61205D01*
X94336Y61140D01*
X94401Y61074D01*
X94408Y61067D01*
X94428Y61041D01*
X94454Y61002D01*
X94487Y60949D01*
X94513Y60884D01*
X94539Y60805D01*
X94559Y60720D01*
X94565Y60628D01*
Y60595D01*
X94559Y60562D01*
X94552Y60510D01*
X94539Y60457D01*
X94526Y60398D01*
X94500Y60339D01*
X94467Y60274D01*
X94460Y60267D01*
X94447Y60247D01*
X94428Y60215D01*
X94395Y60182D01*
X94355Y60136D01*
X94303Y60090D01*
X94244Y60044D01*
X94172Y59998D01*
X94165Y59992D01*
X94139Y59979D01*
X94093Y59959D01*
X94034Y59933D01*
X93968Y59900D01*
X93883Y59874D01*
X93785Y59841D01*
X93680Y59815D01*
X93667D01*
X93627Y59801D01*
X93568Y59795D01*
X93483Y59782D01*
X93378Y59769D01*
X93260Y59762D01*
X93122Y59749D01*
X92978D01*
X92965D01*
X92939D01*
X92899D01*
X92853D01*
X92840D01*
X92814D01*
X92781D01*
X92735Y59755D01*
X93916Y61382D01*
X93923D01*
X93929Y61376D01*
D02*
G37*
G36*
X94487Y48000D02*
X91476D01*
Y48958D01*
X94487D01*
Y48000D01*
D02*
G37*
D10*
X50111Y73106D02*
G03*
X50111Y73106I-300J0D01*
G01*
D14*
X33650Y62450D02*
Y63750D01*
X33300D02*
X33650D01*
X33300Y62450D02*
Y63750D01*
Y62450D02*
X33650D01*
X31750Y63750D02*
X32100Y63750D01*
Y62450D02*
Y63750D01*
X31750Y62450D02*
X32100Y62450D01*
X31750Y62450D02*
Y63750D01*
X33650Y69750D02*
Y71050D01*
X33300D02*
X33650D01*
X33300Y69750D02*
Y71050D01*
Y69750D02*
X33650D01*
X31750Y71050D02*
X32100Y71050D01*
Y69750D02*
Y71050D01*
X31750Y69750D02*
X32100Y69750D01*
X31750Y69750D02*
Y71050D01*
X30350Y75350D02*
X31650D01*
X31650Y75700D02*
X31650Y75350D01*
X30350Y75700D02*
X31650D01*
X30350Y75350D02*
X30350Y75700D01*
X31650Y76900D02*
Y77250D01*
X30350Y76900D02*
X31650D01*
X30350D02*
Y77250D01*
X31650D01*
X31300Y58000D02*
X31650D01*
X31300Y56200D02*
X31650D01*
X31300D02*
Y58000D01*
X31650Y56200D02*
Y58000D01*
X30350Y56200D02*
Y58000D01*
X30700Y56200D02*
Y58000D01*
X30350D02*
X30700D01*
X30350Y56200D02*
X30700D01*
X28100Y70700D02*
Y71050D01*
X29900Y70700D02*
Y71050D01*
X28100Y70700D02*
X29900D01*
X28100Y71050D02*
X29900D01*
X28100Y69750D02*
X29900D01*
X28100Y70100D02*
X29900D01*
X28100Y69750D02*
Y70100D01*
X29900Y69750D02*
Y70100D01*
X29950Y62462D02*
Y63762D01*
X29600D02*
X29950D01*
X29600Y62462D02*
Y63762D01*
Y62462D02*
X29950D01*
X28050Y63762D02*
X28400Y63762D01*
Y62462D02*
Y63762D01*
X28050Y62462D02*
X28400Y62462D01*
X28050Y62462D02*
Y63762D01*
X30350Y51900D02*
X30700D01*
X30350Y53700D02*
X30700D01*
Y51900D02*
Y53700D01*
X30350Y51900D02*
Y53700D01*
X31650Y51900D02*
Y53700D01*
X31300Y51900D02*
Y53700D01*
Y51900D02*
X31650D01*
X31300Y53700D02*
X31650D01*
D15*
X106788Y47325D02*
Y63073D01*
Y47325D02*
X126473D01*
Y63073D01*
X106788D02*
X126473D01*
X106788Y84799D02*
X126473D01*
Y69051D02*
Y84799D01*
X106788Y69051D02*
X126473D01*
X106788D02*
Y84799D01*
D18*
X35398Y59850D02*
X47602D01*
X35398Y73550D02*
X47602D01*
D52*
X37800Y55900D02*
G03*
X38300Y55400I500J0D01*
G01*
X43900D02*
G03*
X44400Y55900I0J500D01*
G01*
Y58500D02*
G03*
X43900Y59000I-500J0D01*
G01*
X38300D02*
G03*
X37800Y58500I0J-500D01*
G01*
X38300Y55400D02*
X43900D01*
X38300Y59000D02*
X43900D01*
M02*
