G04*
G04 #@! TF.GenerationSoftware,Altium Limited,Altium Designer,20.0.13 (296)*
G04*
G04 Layer_Color=2752767*
%FSLAX25Y25*%
%MOIN*%
G70*
G01*
G75*
%ADD15C,0.01000*%
%ADD16C,0.01500*%
%ADD47C,0.01400*%
%ADD53C,0.00200*%
%ADD54C,0.01600*%
D15*
X9872Y241133D02*
G03*
X9872Y241133I-3333J0D01*
G01*
X6539Y252800D02*
X9872Y259467D01*
X3206D02*
X9872D01*
X3206D02*
X6539Y252800D01*
X3206Y222800D02*
Y224467D01*
X4872Y226133D01*
X3206Y227800D02*
X4872Y226133D01*
X3206Y227800D02*
Y229467D01*
X4872D01*
X6539Y227800D01*
X8206Y229467D01*
X9872D01*
Y227800D02*
Y229467D01*
X8206Y226133D02*
X9872Y227800D01*
X8206Y226133D02*
X9872Y224467D01*
Y222800D02*
Y224467D01*
X8206Y222800D02*
X9872D01*
X6539Y224467D02*
X8206Y222800D01*
X4872D02*
X6539Y224467D01*
X3206Y222800D02*
X4872D01*
X3206Y207800D02*
X9872D01*
Y214467D01*
X3206D02*
X9872D01*
X3206Y207800D02*
Y214467D01*
X1179296Y255799D02*
X1183295D01*
X1179296Y240799D02*
X1183295D01*
X1179296Y225799D02*
X1183295D01*
X1185295Y227798D02*
X1186294Y228798D01*
X1188294D01*
X1189293Y227798D01*
Y226799D01*
X1188294Y225799D01*
X1189293Y224799D01*
Y223800D01*
X1188294Y222800D01*
X1186294D01*
X1185295Y223800D01*
Y224799D01*
X1186294Y225799D01*
X1185295Y226799D01*
Y227798D01*
X1186294Y225799D02*
X1188294D01*
X1195291Y222800D02*
X1191293D01*
X1195291Y226799D01*
Y227798D01*
X1194292Y228798D01*
X1192292D01*
X1191293Y227798D01*
X1197291Y222800D02*
Y223800D01*
X1198290D01*
Y222800D01*
X1197291D01*
X1206288Y228798D02*
X1204288Y227798D01*
X1202289Y225799D01*
Y223800D01*
X1203289Y222800D01*
X1205288D01*
X1206288Y223800D01*
Y224799D01*
X1205288Y225799D01*
X1202289D01*
X1208287Y227798D02*
X1209287Y228798D01*
X1211286D01*
X1212286Y227798D01*
Y226799D01*
X1211286Y225799D01*
X1212286Y224799D01*
Y223800D01*
X1211286Y222800D01*
X1209287D01*
X1208287Y223800D01*
Y224799D01*
X1209287Y225799D01*
X1208287Y226799D01*
Y227798D01*
X1209287Y225799D02*
X1211286D01*
X1214285Y222800D02*
Y226799D01*
X1215285D01*
X1216284Y225799D01*
Y222800D01*
Y225799D01*
X1217284Y226799D01*
X1218284Y225799D01*
Y222800D01*
X1220283D02*
X1222283D01*
X1221283D01*
Y226799D01*
X1220283D01*
X1225282Y222800D02*
X1227281D01*
X1226281D01*
Y228798D01*
X1225282D01*
X1238277Y222800D02*
X1236278Y224799D01*
Y226799D01*
X1238277Y228798D01*
X1241276Y225799D02*
X1245275D01*
X1251273Y222800D02*
X1247274D01*
X1251273Y226799D01*
Y227798D01*
X1250274Y228798D01*
X1248274D01*
X1247274Y227798D01*
X1253273Y222800D02*
Y223800D01*
X1254272D01*
Y222800D01*
X1253273D01*
X1258271D02*
X1260270D01*
X1259271D01*
Y228798D01*
X1258271Y227798D01*
X1263269D02*
X1264269Y228798D01*
X1266268D01*
X1267268Y227798D01*
Y223800D01*
X1266268Y222800D01*
X1264269D01*
X1263269Y223800D01*
Y227798D01*
X1269267D02*
X1270267Y228798D01*
X1272266D01*
X1273266Y227798D01*
Y223800D01*
X1272266Y222800D01*
X1270267D01*
X1269267Y223800D01*
Y227798D01*
X1275265Y222800D02*
Y226799D01*
X1276265D01*
X1277265Y225799D01*
Y222800D01*
Y225799D01*
X1278264Y226799D01*
X1279264Y225799D01*
Y222800D01*
X1281264D02*
Y226799D01*
X1282263D01*
X1283263Y225799D01*
Y222800D01*
Y225799D01*
X1284262Y226799D01*
X1285262Y225799D01*
Y222800D01*
X1287261D02*
X1289261Y224799D01*
Y226799D01*
X1287261Y228798D01*
X1179296Y210799D02*
X1183295D01*
X1070328Y255799D02*
X1074327D01*
X1070328Y240799D02*
X1074327D01*
X1070328Y222800D02*
X1072328D01*
X1071328D01*
Y228798D01*
X1070328Y227798D01*
X1075327Y223800D02*
X1076326Y222800D01*
X1078326D01*
X1079325Y223800D01*
Y227798D01*
X1078326Y228798D01*
X1076326D01*
X1075327Y227798D01*
Y226799D01*
X1076326Y225799D01*
X1079325D01*
X1081325Y222800D02*
Y223800D01*
X1082324D01*
Y222800D01*
X1081325D01*
X1090322Y228798D02*
X1088322Y227798D01*
X1086323Y225799D01*
Y223800D01*
X1087323Y222800D01*
X1089322D01*
X1090322Y223800D01*
Y224799D01*
X1089322Y225799D01*
X1086323D01*
X1092321Y223800D02*
X1093321Y222800D01*
X1095320D01*
X1096320Y223800D01*
Y227798D01*
X1095320Y228798D01*
X1093321D01*
X1092321Y227798D01*
Y226799D01*
X1093321Y225799D01*
X1096320D01*
X1098319Y222800D02*
Y226799D01*
X1099319D01*
X1100319Y225799D01*
Y222800D01*
Y225799D01*
X1101318Y226799D01*
X1102318Y225799D01*
Y222800D01*
X1104317D02*
X1106316D01*
X1105317D01*
Y226799D01*
X1104317D01*
X1109316Y222800D02*
X1111315D01*
X1110315D01*
Y228798D01*
X1109316D01*
X1122311Y222800D02*
X1120312Y224799D01*
Y226799D01*
X1122311Y228798D01*
X1125310Y227798D02*
X1126310Y228798D01*
X1128309D01*
X1129309Y227798D01*
Y223800D01*
X1128309Y222800D01*
X1126310D01*
X1125310Y223800D01*
Y227798D01*
X1131308Y222800D02*
Y223800D01*
X1132308D01*
Y222800D01*
X1131308D01*
X1140306Y228798D02*
X1136307D01*
Y225799D01*
X1138306Y226799D01*
X1139306D01*
X1140306Y225799D01*
Y223800D01*
X1139306Y222800D01*
X1137306D01*
X1136307Y223800D01*
X1142305Y227798D02*
X1143305Y228798D01*
X1145304D01*
X1146304Y227798D01*
Y223800D01*
X1145304Y222800D01*
X1143305D01*
X1142305Y223800D01*
Y227798D01*
X1148303D02*
X1149303Y228798D01*
X1151302D01*
X1152302Y227798D01*
Y223800D01*
X1151302Y222800D01*
X1149303D01*
X1148303Y223800D01*
Y227798D01*
X1154301Y222800D02*
Y226799D01*
X1155301D01*
X1156300Y225799D01*
Y222800D01*
Y225799D01*
X1157300Y226799D01*
X1158300Y225799D01*
Y222800D01*
X1160299D02*
Y226799D01*
X1161299D01*
X1162298Y225799D01*
Y222800D01*
Y225799D01*
X1163298Y226799D01*
X1164298Y225799D01*
Y222800D01*
X1166297D02*
X1168297Y224799D01*
Y226799D01*
X1166297Y228798D01*
X1070328Y210799D02*
X1074327D01*
X606263Y256799D02*
X603264D01*
X602264Y255799D01*
Y253800D01*
X603264Y252800D01*
X606263D01*
X608262Y257798D02*
X609262Y258798D01*
X611261D01*
X612261Y257798D01*
Y253800D01*
X611261Y252800D01*
X609262D01*
X608262Y253800D01*
Y257798D01*
X614260Y258798D02*
Y252800D01*
Y255799D01*
X615260Y256799D01*
X617259D01*
X618259Y255799D01*
Y252800D01*
X620258Y258798D02*
X624257D01*
Y257798D01*
X620258Y253800D01*
Y252800D01*
X626257D02*
X628256D01*
X627256D01*
Y258798D01*
X626257Y257798D01*
X602264Y241799D02*
X604264Y237800D01*
X606263Y241799D01*
X612261Y243798D02*
X610262Y242798D01*
X608262Y240799D01*
Y238800D01*
X609262Y237800D01*
X611261D01*
X612261Y238800D01*
Y239799D01*
X611261Y240799D01*
X608262D01*
X614260Y242798D02*
X615260Y243798D01*
X617259D01*
X618259Y242798D01*
Y238800D01*
X617259Y237800D01*
X615260D01*
X614260Y238800D01*
Y242798D01*
X620258Y243798D02*
Y237800D01*
Y240799D01*
X621258Y241799D01*
X623257D01*
X624257Y240799D01*
Y237800D01*
X629255D02*
Y243798D01*
X626257Y240799D01*
X630255D01*
X632255Y242798D02*
X633254Y243798D01*
X635254D01*
X636253Y242798D01*
Y238800D01*
X635254Y237800D01*
X633254D01*
X632255Y238800D01*
Y242798D01*
X638253Y237800D02*
Y241799D01*
X639252D01*
X640252Y240799D01*
Y237800D01*
Y240799D01*
X641252Y241799D01*
X642251Y240799D01*
Y237800D01*
X644251Y242798D02*
X645250Y243798D01*
X647250D01*
X648249Y242798D01*
Y238800D01*
X647250Y237800D01*
X645250D01*
X644251Y238800D01*
Y242798D01*
X650249Y237800D02*
Y241799D01*
X651248D01*
X652248Y240799D01*
Y237800D01*
Y240799D01*
X653248Y241799D01*
X654247Y240799D01*
Y237800D01*
X656247Y241799D02*
X660246Y237800D01*
X658246Y239799D01*
X660246Y241799D01*
X656247Y237800D01*
X662245Y242798D02*
X663244Y243798D01*
X665244D01*
X666244Y242798D01*
Y238800D01*
X665244Y237800D01*
X663244D01*
X662245Y238800D01*
Y242798D01*
X602264Y226799D02*
Y222800D01*
Y224799D01*
X603264Y225799D01*
X604264Y226799D01*
X605263D01*
X608262Y227798D02*
X609262Y228798D01*
X611261D01*
X612261Y227798D01*
Y226799D01*
X611261Y225799D01*
X612261Y224799D01*
Y223800D01*
X611261Y222800D01*
X609262D01*
X608262Y223800D01*
Y224799D01*
X609262Y225799D01*
X608262Y226799D01*
Y227798D01*
X609262Y225799D02*
X611261D01*
X614260Y227798D02*
X615260Y228798D01*
X617259D01*
X618259Y227798D01*
Y223800D01*
X617259Y222800D01*
X615260D01*
X614260Y223800D01*
Y227798D01*
X620258Y221800D02*
X624257D01*
X626257Y227798D02*
X627256Y228798D01*
X629255D01*
X630255Y227798D01*
Y226799D01*
X629255Y225799D01*
X628256D01*
X629255D01*
X630255Y224799D01*
Y223800D01*
X629255Y222800D01*
X627256D01*
X626257Y223800D01*
X632255Y227798D02*
X633254Y228798D01*
X635254D01*
X636253Y227798D01*
Y223800D01*
X635254Y222800D01*
X633254D01*
X632255Y223800D01*
Y227798D01*
X638253D02*
X639252Y228798D01*
X641252D01*
X642251Y227798D01*
Y223800D01*
X641252Y222800D01*
X639252D01*
X638253Y223800D01*
Y227798D01*
X644251Y228798D02*
Y222800D01*
Y225799D01*
X645250Y226799D01*
X647250D01*
X648249Y225799D01*
Y222800D01*
X654247D02*
X650249D01*
X654247Y226799D01*
Y227798D01*
X653248Y228798D01*
X651248D01*
X650249Y227798D01*
X660246Y228798D02*
X658246Y227798D01*
X656247Y225799D01*
Y223800D01*
X657246Y222800D01*
X659246D01*
X660246Y223800D01*
Y224799D01*
X659246Y225799D01*
X656247D01*
X662245Y227798D02*
X663244Y228798D01*
X665244D01*
X666244Y227798D01*
Y223800D01*
X665244Y222800D01*
X663244D01*
X662245Y223800D01*
Y227798D01*
X668243Y221800D02*
X672242D01*
X678240Y228798D02*
X674241D01*
Y225799D01*
X676240Y226799D01*
X677240D01*
X678240Y225799D01*
Y223800D01*
X677240Y222800D01*
X675241D01*
X674241Y223800D01*
X680239Y227798D02*
X681239Y228798D01*
X683238D01*
X684238Y227798D01*
Y223800D01*
X683238Y222800D01*
X681239D01*
X680239Y223800D01*
Y227798D01*
X686237Y226799D02*
Y222800D01*
Y224799D01*
X687237Y225799D01*
X688236Y226799D01*
X689236D01*
X692235Y222800D02*
X694235D01*
X693235D01*
Y228798D01*
X692235Y227798D01*
X697233D02*
X698233Y228798D01*
X700233D01*
X701232Y227798D01*
Y223800D01*
X700233Y222800D01*
X698233D01*
X697233Y223800D01*
Y227798D01*
X703232D02*
X704231Y228798D01*
X706231D01*
X707230Y227798D01*
Y223800D01*
X706231Y222800D01*
X704231D01*
X703232Y223800D01*
Y227798D01*
X602264Y211799D02*
X604264Y207800D01*
X606263Y211799D01*
X612261Y213798D02*
X608262D01*
Y210799D01*
X610262Y211799D01*
X611261D01*
X612261Y210799D01*
Y208800D01*
X611261Y207800D01*
X609262D01*
X608262Y208800D01*
X614260Y207800D02*
X616260D01*
X615260D01*
Y213798D01*
X614260Y212798D01*
X619259Y213798D02*
Y207800D01*
Y210799D01*
X620258Y211799D01*
X622258D01*
X623257Y210799D01*
Y207800D01*
X625257Y212798D02*
X626257Y213798D01*
X628256D01*
X629255Y212798D01*
Y211799D01*
X628256Y210799D01*
X627256D01*
X628256D01*
X629255Y209799D01*
Y208800D01*
X628256Y207800D01*
X626257D01*
X625257Y208800D01*
X631255Y212798D02*
X632255Y213798D01*
X634254D01*
X635254Y212798D01*
Y208800D01*
X634254Y207800D01*
X632255D01*
X631255Y208800D01*
Y212798D01*
X637253Y207800D02*
Y211799D01*
X638253D01*
X639252Y210799D01*
Y207800D01*
Y210799D01*
X640252Y211799D01*
X641252Y210799D01*
Y207800D01*
X643251Y212798D02*
X644251Y213798D01*
X646250D01*
X647250Y212798D01*
Y208800D01*
X646250Y207800D01*
X644251D01*
X643251Y208800D01*
Y212798D01*
X649249Y207800D02*
Y211799D01*
X650249D01*
X651248Y210799D01*
Y207800D01*
Y210799D01*
X652248Y211799D01*
X653248Y210799D01*
Y207800D01*
X655247Y211799D02*
X659246Y207800D01*
X657246Y209799D01*
X659246Y211799D01*
X655247Y207800D01*
X661245Y212798D02*
X662245Y213798D01*
X664244D01*
X665244Y212798D01*
Y208800D01*
X664244Y207800D01*
X662245D01*
X661245Y208800D01*
Y212798D01*
X527684Y252800D02*
Y258798D01*
X530684D01*
X531683Y257798D01*
Y255799D01*
X530684Y254799D01*
X527684D01*
X529684D02*
X531683Y252800D01*
X534682D02*
X536682D01*
X537681Y253800D01*
Y255799D01*
X536682Y256799D01*
X534682D01*
X533682Y255799D01*
Y253800D01*
X534682Y252800D01*
X539681Y256799D02*
Y253800D01*
X540680Y252800D01*
X543679D01*
Y256799D01*
X545679Y252800D02*
Y256799D01*
X548678D01*
X549677Y255799D01*
Y252800D01*
X555675Y258798D02*
Y252800D01*
X552676D01*
X551677Y253800D01*
Y255799D01*
X552676Y256799D01*
X555675D01*
X560674Y252800D02*
X558674D01*
X557675Y253800D01*
Y255799D01*
X558674Y256799D01*
X560674D01*
X561673Y255799D01*
Y254799D01*
X557675D01*
X567671Y258798D02*
Y252800D01*
X564673D01*
X563673Y253800D01*
Y255799D01*
X564673Y256799D01*
X567671D01*
X527684Y237800D02*
Y243798D01*
X530684D01*
X531683Y242798D01*
Y240799D01*
X530684Y239799D01*
X527684D01*
X529684D02*
X531683Y237800D01*
X534682D02*
X536682D01*
X537681Y238800D01*
Y240799D01*
X536682Y241799D01*
X534682D01*
X533682Y240799D01*
Y238800D01*
X534682Y237800D01*
X539681Y241799D02*
Y238800D01*
X540680Y237800D01*
X543679D01*
Y241799D01*
X545679Y237800D02*
Y241799D01*
X548678D01*
X549677Y240799D01*
Y237800D01*
X555675Y243798D02*
Y237800D01*
X552676D01*
X551677Y238800D01*
Y240799D01*
X552676Y241799D01*
X555675D01*
X560674Y237800D02*
X558674D01*
X557675Y238800D01*
Y240799D01*
X558674Y241799D01*
X560674D01*
X561673Y240799D01*
Y239799D01*
X557675D01*
X567671Y243798D02*
Y237800D01*
X564673D01*
X563673Y238800D01*
Y240799D01*
X564673Y241799D01*
X567671D01*
X527684Y222800D02*
Y228798D01*
X530684D01*
X531683Y227798D01*
Y225799D01*
X530684Y224799D01*
X527684D01*
X529684D02*
X531683Y222800D01*
X534682D02*
X536682D01*
X537681Y223800D01*
Y225799D01*
X536682Y226799D01*
X534682D01*
X533682Y225799D01*
Y223800D01*
X534682Y222800D01*
X539681Y226799D02*
Y223800D01*
X540680Y222800D01*
X543679D01*
Y226799D01*
X545679Y222800D02*
Y226799D01*
X548678D01*
X549677Y225799D01*
Y222800D01*
X555675Y228798D02*
Y222800D01*
X552676D01*
X551677Y223800D01*
Y225799D01*
X552676Y226799D01*
X555675D01*
X560674Y222800D02*
X558674D01*
X557675Y223800D01*
Y225799D01*
X558674Y226799D01*
X560674D01*
X561673Y225799D01*
Y224799D01*
X557675D01*
X567671Y228798D02*
Y222800D01*
X564673D01*
X563673Y223800D01*
Y225799D01*
X564673Y226799D01*
X567671D01*
X527684Y207800D02*
Y213798D01*
X530684D01*
X531683Y212798D01*
Y210799D01*
X530684Y209799D01*
X527684D01*
X529684D02*
X531683Y207800D01*
X534682D02*
X536682D01*
X537681Y208800D01*
Y210799D01*
X536682Y211799D01*
X534682D01*
X533682Y210799D01*
Y208800D01*
X534682Y207800D01*
X539681Y211799D02*
Y208800D01*
X540680Y207800D01*
X543679D01*
Y211799D01*
X545679Y207800D02*
Y211799D01*
X548678D01*
X549677Y210799D01*
Y207800D01*
X555675Y213798D02*
Y207800D01*
X552676D01*
X551677Y208800D01*
Y210799D01*
X552676Y211799D01*
X555675D01*
X560674Y207800D02*
X558674D01*
X557675Y208800D01*
Y210799D01*
X558674Y211799D01*
X560674D01*
X561673Y210799D01*
Y209799D01*
X557675D01*
X567671Y213798D02*
Y207800D01*
X564673D01*
X563673Y208800D01*
Y210799D01*
X564673Y211799D01*
X567671D01*
X468700Y252800D02*
Y258798D01*
X471699D01*
X472698Y257798D01*
Y255799D01*
X471699Y254799D01*
X468700D01*
X475697Y256799D02*
X477697D01*
X478696Y255799D01*
Y252800D01*
X475697D01*
X474698Y253800D01*
X475697Y254799D01*
X478696D01*
X484694Y258798D02*
Y252800D01*
X481695D01*
X480696Y253800D01*
Y255799D01*
X481695Y256799D01*
X484694D01*
X468700Y243798D02*
Y239799D01*
X470699Y237800D01*
X472698Y239799D01*
Y243798D01*
X474698Y237800D02*
X476697D01*
X475697D01*
Y241799D01*
X474698D01*
X480696D02*
X482695D01*
X483695Y240799D01*
Y237800D01*
X480696D01*
X479696Y238800D01*
X480696Y239799D01*
X483695D01*
X468700Y222800D02*
Y228798D01*
X471699D01*
X472698Y227798D01*
Y225799D01*
X471699Y224799D01*
X468700D01*
X475697Y226799D02*
X477697D01*
X478696Y225799D01*
Y222800D01*
X475697D01*
X474698Y223800D01*
X475697Y224799D01*
X478696D01*
X484694Y228798D02*
Y222800D01*
X481695D01*
X480696Y223800D01*
Y225799D01*
X481695Y226799D01*
X484694D01*
X468700Y213798D02*
Y209799D01*
X470699Y207800D01*
X472698Y209799D01*
Y213798D01*
X474698Y207800D02*
X476697D01*
X475697D01*
Y211799D01*
X474698D01*
X480696D02*
X482695D01*
X483695Y210799D01*
Y207800D01*
X480696D01*
X479696Y208800D01*
X480696Y209799D01*
X483695D01*
X349734Y258798D02*
X353733D01*
X351733D01*
Y252800D01*
X356732D02*
X358731D01*
X359731Y253800D01*
Y255799D01*
X358731Y256799D01*
X356732D01*
X355732Y255799D01*
Y253800D01*
X356732Y252800D01*
X361730Y250801D02*
Y256799D01*
X364729D01*
X365729Y255799D01*
Y253800D01*
X364729Y252800D01*
X361730D01*
X367728D02*
X369728D01*
X368728D01*
Y258798D01*
X367728Y257798D01*
X378725Y255799D02*
X382723D01*
X390721Y258798D02*
Y252800D01*
X393720D01*
X394720Y253800D01*
Y254799D01*
X393720Y255799D01*
X390721D01*
X393720D01*
X394720Y256799D01*
Y257798D01*
X393720Y258798D01*
X390721D01*
X397719Y252800D02*
X399718D01*
X400718Y253800D01*
Y255799D01*
X399718Y256799D01*
X397719D01*
X396719Y255799D01*
Y253800D01*
X397719Y252800D01*
X403717Y257798D02*
Y256799D01*
X402717D01*
X404716D01*
X403717D01*
Y253800D01*
X404716Y252800D01*
X408715Y257798D02*
Y256799D01*
X407715D01*
X409715D01*
X408715D01*
Y253800D01*
X409715Y252800D01*
X413713D02*
X415713D01*
X416713Y253800D01*
Y255799D01*
X415713Y256799D01*
X413713D01*
X412714Y255799D01*
Y253800D01*
X413713Y252800D01*
X418712D02*
Y256799D01*
X419711D01*
X420711Y255799D01*
Y252800D01*
Y255799D01*
X421711Y256799D01*
X422711Y255799D01*
Y252800D01*
X428709D02*
X424710D01*
X428709Y256799D01*
Y257798D01*
X427709Y258798D01*
X425710D01*
X424710Y257798D01*
X349734Y243798D02*
X353733D01*
X351733D01*
Y237800D01*
X356732D02*
X358731D01*
X359731Y238800D01*
Y240799D01*
X358731Y241799D01*
X356732D01*
X355732Y240799D01*
Y238800D01*
X356732Y237800D01*
X361730Y235801D02*
Y241799D01*
X364729D01*
X365729Y240799D01*
Y238800D01*
X364729Y237800D01*
X361730D01*
X367728D02*
X369728D01*
X368728D01*
Y243798D01*
X367728Y242798D01*
X378725Y240799D02*
X382723D01*
X390721Y243798D02*
Y237800D01*
X393720D01*
X394720Y238800D01*
Y239799D01*
X393720Y240799D01*
X390721D01*
X393720D01*
X394720Y241799D01*
Y242798D01*
X393720Y243798D01*
X390721D01*
X397719Y237800D02*
X399718D01*
X400718Y238800D01*
Y240799D01*
X399718Y241799D01*
X397719D01*
X396719Y240799D01*
Y238800D01*
X397719Y237800D01*
X403717Y242798D02*
Y241799D01*
X402717D01*
X404716D01*
X403717D01*
Y238800D01*
X404716Y237800D01*
X408715Y242798D02*
Y241799D01*
X407715D01*
X409715D01*
X408715D01*
Y238800D01*
X409715Y237800D01*
X413713D02*
X415713D01*
X416713Y238800D01*
Y240799D01*
X415713Y241799D01*
X413713D01*
X412714Y240799D01*
Y238800D01*
X413713Y237800D01*
X418712D02*
Y241799D01*
X419711D01*
X420711Y240799D01*
Y237800D01*
Y240799D01*
X421711Y241799D01*
X422711Y240799D01*
Y237800D01*
X428709D02*
X424710D01*
X428709Y241799D01*
Y242798D01*
X427709Y243798D01*
X425710D01*
X424710Y242798D01*
X349734Y228798D02*
X353733D01*
X351733D01*
Y222800D01*
X356732D02*
X358731D01*
X359731Y223800D01*
Y225799D01*
X358731Y226799D01*
X356732D01*
X355732Y225799D01*
Y223800D01*
X356732Y222800D01*
X361730Y220801D02*
Y226799D01*
X364729D01*
X365729Y225799D01*
Y223800D01*
X364729Y222800D01*
X361730D01*
X367728D02*
X369728D01*
X368728D01*
Y228798D01*
X367728Y227798D01*
X378725Y225799D02*
X382723D01*
X390721Y228798D02*
Y222800D01*
X393720D01*
X394720Y223800D01*
Y224799D01*
X393720Y225799D01*
X390721D01*
X393720D01*
X394720Y226799D01*
Y227798D01*
X393720Y228798D01*
X390721D01*
X397719Y222800D02*
X399718D01*
X400718Y223800D01*
Y225799D01*
X399718Y226799D01*
X397719D01*
X396719Y225799D01*
Y223800D01*
X397719Y222800D01*
X403717Y227798D02*
Y226799D01*
X402717D01*
X404716D01*
X403717D01*
Y223800D01*
X404716Y222800D01*
X408715Y227798D02*
Y226799D01*
X407715D01*
X409715D01*
X408715D01*
Y223800D01*
X409715Y222800D01*
X413713D02*
X415713D01*
X416713Y223800D01*
Y225799D01*
X415713Y226799D01*
X413713D01*
X412714Y225799D01*
Y223800D01*
X413713Y222800D01*
X418712D02*
Y226799D01*
X419711D01*
X420711Y225799D01*
Y222800D01*
Y225799D01*
X421711Y226799D01*
X422711Y225799D01*
Y222800D01*
X428709D02*
X424710D01*
X428709Y226799D01*
Y227798D01*
X427709Y228798D01*
X425710D01*
X424710Y227798D01*
X349734Y213798D02*
X353733D01*
X351733D01*
Y207800D01*
X356732D02*
X358731D01*
X359731Y208800D01*
Y210799D01*
X358731Y211799D01*
X356732D01*
X355732Y210799D01*
Y208800D01*
X356732Y207800D01*
X361730Y205801D02*
Y211799D01*
X364729D01*
X365729Y210799D01*
Y208800D01*
X364729Y207800D01*
X361730D01*
X367728D02*
X369728D01*
X368728D01*
Y213798D01*
X367728Y212798D01*
X378725Y210799D02*
X382723D01*
X390721Y213798D02*
Y207800D01*
X393720D01*
X394720Y208800D01*
Y209799D01*
X393720Y210799D01*
X390721D01*
X393720D01*
X394720Y211799D01*
Y212798D01*
X393720Y213798D01*
X390721D01*
X397719Y207800D02*
X399718D01*
X400718Y208800D01*
Y210799D01*
X399718Y211799D01*
X397719D01*
X396719Y210799D01*
Y208800D01*
X397719Y207800D01*
X403717Y212798D02*
Y211799D01*
X402717D01*
X404716D01*
X403717D01*
Y208800D01*
X404716Y207800D01*
X408715Y212798D02*
Y211799D01*
X407715D01*
X409715D01*
X408715D01*
Y208800D01*
X409715Y207800D01*
X413713D02*
X415713D01*
X416713Y208800D01*
Y210799D01*
X415713Y211799D01*
X413713D01*
X412714Y210799D01*
Y208800D01*
X413713Y207800D01*
X418712D02*
Y211799D01*
X419711D01*
X420711Y210799D01*
Y207800D01*
Y210799D01*
X421711Y211799D01*
X422711Y210799D01*
Y207800D01*
X428709D02*
X424710D01*
X428709Y211799D01*
Y212798D01*
X427709Y213798D01*
X425710D01*
X424710Y212798D01*
X276354Y252800D02*
Y258798D01*
X279353D01*
X280353Y257798D01*
Y255799D01*
X279353Y254799D01*
X276354D01*
X278353D02*
X280353Y252800D01*
X283352D02*
X285351D01*
X286351Y253800D01*
Y255799D01*
X285351Y256799D01*
X283352D01*
X282352Y255799D01*
Y253800D01*
X283352Y252800D01*
X288350Y256799D02*
Y253800D01*
X289350Y252800D01*
X292349D01*
Y256799D01*
X294348Y252800D02*
Y256799D01*
X297347D01*
X298347Y255799D01*
Y252800D01*
X304345Y258798D02*
Y252800D01*
X301346D01*
X300346Y253800D01*
Y255799D01*
X301346Y256799D01*
X304345D01*
X276354Y237800D02*
Y243798D01*
X279353D01*
X280353Y242798D01*
Y240799D01*
X279353Y239799D01*
X276354D01*
X278353D02*
X280353Y237800D01*
X283352D02*
X285351D01*
X286351Y238800D01*
Y240799D01*
X285351Y241799D01*
X283352D01*
X282352Y240799D01*
Y238800D01*
X283352Y237800D01*
X288350Y241799D02*
Y238800D01*
X289350Y237800D01*
X292349D01*
Y241799D01*
X294348Y237800D02*
Y241799D01*
X297347D01*
X298347Y240799D01*
Y237800D01*
X304345Y243798D02*
Y237800D01*
X301346D01*
X300346Y238800D01*
Y240799D01*
X301346Y241799D01*
X304345D01*
X280353Y227798D02*
X279353Y228798D01*
X277354D01*
X276354Y227798D01*
Y226799D01*
X277354Y225799D01*
X279353D01*
X280353Y224799D01*
Y223800D01*
X279353Y222800D01*
X277354D01*
X276354Y223800D01*
X282352Y222800D02*
X284351D01*
X283352D01*
Y228798D01*
X282352D01*
X288350Y222800D02*
X290349D01*
X291349Y223800D01*
Y225799D01*
X290349Y226799D01*
X288350D01*
X287350Y225799D01*
Y223800D01*
X288350Y222800D01*
X294348Y227798D02*
Y226799D01*
X293348D01*
X295348D01*
X294348D01*
Y223800D01*
X295348Y222800D01*
X276354Y207800D02*
Y213798D01*
X279353D01*
X280353Y212798D01*
Y210799D01*
X279353Y209799D01*
X276354D01*
X278353D02*
X280353Y207800D01*
X283352D02*
X285351D01*
X286351Y208800D01*
Y210799D01*
X285351Y211799D01*
X283352D01*
X282352Y210799D01*
Y208800D01*
X283352Y207800D01*
X288350Y211799D02*
Y208800D01*
X289350Y207800D01*
X292349D01*
Y211799D01*
X294348Y207800D02*
Y211799D01*
X297347D01*
X298347Y210799D01*
Y207800D01*
X304345Y213798D02*
Y207800D01*
X301346D01*
X300346Y208800D01*
Y210799D01*
X301346Y211799D01*
X304345D01*
X225766Y252800D02*
Y258798D01*
X228765D01*
X229765Y257798D01*
Y255799D01*
X228765Y254799D01*
X225766D01*
X231764Y258798D02*
X235763D01*
X233764D01*
Y252800D01*
X237762Y258798D02*
Y252800D01*
Y255799D01*
X241761D01*
Y258798D01*
Y252800D01*
X225766Y237800D02*
Y243798D01*
X228765D01*
X229765Y242798D01*
Y240799D01*
X228765Y239799D01*
X225766D01*
X231764Y243798D02*
X235763D01*
X233764D01*
Y237800D01*
X237762Y243798D02*
Y237800D01*
Y240799D01*
X241761D01*
Y243798D01*
Y237800D01*
X225766Y222800D02*
Y228798D01*
X228765D01*
X229765Y227798D01*
Y225799D01*
X228765Y224799D01*
X225766D01*
X231764Y228798D02*
X235763D01*
X233764D01*
Y222800D01*
X237762Y228798D02*
Y222800D01*
Y225799D01*
X241761D01*
Y228798D01*
Y222800D01*
X225766Y207800D02*
Y213798D01*
X228765D01*
X229765Y212798D01*
Y210799D01*
X228765Y209799D01*
X225766D01*
X231764Y213798D02*
X235763D01*
X233764D01*
Y207800D01*
X237762Y213798D02*
Y207800D01*
Y210799D01*
X241761D01*
Y213798D01*
Y207800D01*
X114799Y252800D02*
X110800D01*
X114799Y256799D01*
Y257798D01*
X113799Y258798D01*
X111800D01*
X110800Y257798D01*
X116798D02*
X117798Y258798D01*
X119797D01*
X120797Y257798D01*
Y256799D01*
X119797Y255799D01*
X120797Y254799D01*
Y253800D01*
X119797Y252800D01*
X117798D01*
X116798Y253800D01*
Y254799D01*
X117798Y255799D01*
X116798Y256799D01*
Y257798D01*
X117798Y255799D02*
X119797D01*
X122796Y252800D02*
Y253800D01*
X123796D01*
Y252800D01*
X122796D01*
X127795Y257798D02*
X128794Y258798D01*
X130793D01*
X131793Y257798D01*
Y253800D01*
X130793Y252800D01*
X128794D01*
X127795Y253800D01*
Y257798D01*
X133793D02*
X134792Y258798D01*
X136792D01*
X137791Y257798D01*
Y253800D01*
X136792Y252800D01*
X134792D01*
X133793Y253800D01*
Y257798D01*
X139791Y252800D02*
Y256799D01*
X140790D01*
X141790Y255799D01*
Y252800D01*
Y255799D01*
X142790Y256799D01*
X143789Y255799D01*
Y252800D01*
X145789D02*
X147788D01*
X146788D01*
Y256799D01*
X145789D01*
X150787Y252800D02*
X152786D01*
X151787D01*
Y258798D01*
X150787D01*
X163783Y252800D02*
X161784Y254799D01*
Y256799D01*
X163783Y258798D01*
X166782Y257798D02*
X167782Y258798D01*
X169781D01*
X170781Y257798D01*
Y253800D01*
X169781Y252800D01*
X167782D01*
X166782Y253800D01*
Y257798D01*
X172780Y252800D02*
Y253800D01*
X173780D01*
Y252800D01*
X172780D01*
X177778Y258798D02*
X181777D01*
Y257798D01*
X177778Y253800D01*
Y252800D01*
X183776D02*
X185776D01*
X184776D01*
Y258798D01*
X183776Y257798D01*
X188775Y252800D02*
X190774D01*
X189774D01*
Y258798D01*
X188775Y257798D01*
X193773Y252800D02*
Y256799D01*
X194773D01*
X195773Y255799D01*
Y252800D01*
Y255799D01*
X196772Y256799D01*
X197772Y255799D01*
Y252800D01*
X199771D02*
Y256799D01*
X200771D01*
X201771Y255799D01*
Y252800D01*
Y255799D01*
X202770Y256799D01*
X203770Y255799D01*
Y252800D01*
X205769D02*
X207769Y254799D01*
Y256799D01*
X205769Y258798D01*
X110800Y237800D02*
X112799D01*
X111800D01*
Y243798D01*
X110800Y242798D01*
X119797Y243798D02*
X115798D01*
Y240799D01*
X117798Y241799D01*
X118797D01*
X119797Y240799D01*
Y238800D01*
X118797Y237800D01*
X116798D01*
X115798Y238800D01*
X121796Y237800D02*
Y238800D01*
X122796D01*
Y237800D01*
X121796D01*
X126795Y243798D02*
X130793D01*
Y242798D01*
X126795Y238800D01*
Y237800D01*
X136792Y243798D02*
X132793D01*
Y240799D01*
X134792Y241799D01*
X135792D01*
X136792Y240799D01*
Y238800D01*
X135792Y237800D01*
X133793D01*
X132793Y238800D01*
X138791Y237800D02*
Y241799D01*
X139791D01*
X140790Y240799D01*
Y237800D01*
Y240799D01*
X141790Y241799D01*
X142790Y240799D01*
Y237800D01*
X144789D02*
X146788D01*
X145789D01*
Y241799D01*
X144789D01*
X149787Y237800D02*
X151787D01*
X150787D01*
Y243798D01*
X149787D01*
X162783Y237800D02*
X160784Y239799D01*
Y241799D01*
X162783Y243798D01*
X165782Y242798D02*
X166782Y243798D01*
X168781D01*
X169781Y242798D01*
Y238800D01*
X168781Y237800D01*
X166782D01*
X165782Y238800D01*
Y242798D01*
X171780Y237800D02*
Y238800D01*
X172780D01*
Y237800D01*
X171780D01*
X179778D02*
Y243798D01*
X176779Y240799D01*
X180777D01*
X182777Y242798D02*
X183776Y243798D01*
X185776D01*
X186775Y242798D01*
Y238800D01*
X185776Y237800D01*
X183776D01*
X182777Y238800D01*
Y242798D01*
X188775D02*
X189774Y243798D01*
X191774D01*
X192773Y242798D01*
Y238800D01*
X191774Y237800D01*
X189774D01*
X188775Y238800D01*
Y242798D01*
X194773Y237800D02*
Y241799D01*
X195773D01*
X196772Y240799D01*
Y237800D01*
Y240799D01*
X197772Y241799D01*
X198772Y240799D01*
Y237800D01*
X200771D02*
Y241799D01*
X201771D01*
X202770Y240799D01*
Y237800D01*
Y240799D01*
X203770Y241799D01*
X204770Y240799D01*
Y237800D01*
X206769D02*
X208768Y239799D01*
Y241799D01*
X206769Y243798D01*
X110800Y222800D02*
X112799D01*
X111800D01*
Y228798D01*
X110800Y227798D01*
X115798D02*
X116798Y228798D01*
X118797D01*
X119797Y227798D01*
Y223800D01*
X118797Y222800D01*
X116798D01*
X115798Y223800D01*
Y227798D01*
X125795Y222800D02*
X121796D01*
X125795Y226799D01*
Y227798D01*
X124795Y228798D01*
X122796D01*
X121796Y227798D01*
X127795Y222800D02*
Y223800D01*
X128794D01*
Y222800D01*
X127795D01*
X132793Y227798D02*
X133793Y228798D01*
X135792D01*
X136792Y227798D01*
Y226799D01*
X135792Y225799D01*
X134792D01*
X135792D01*
X136792Y224799D01*
Y223800D01*
X135792Y222800D01*
X133793D01*
X132793Y223800D01*
X142790Y228798D02*
X140790Y227798D01*
X138791Y225799D01*
Y223800D01*
X139791Y222800D01*
X141790D01*
X142790Y223800D01*
Y224799D01*
X141790Y225799D01*
X138791D01*
X144789Y222800D02*
Y226799D01*
X145789D01*
X146788Y225799D01*
Y222800D01*
Y225799D01*
X147788Y226799D01*
X148788Y225799D01*
Y222800D01*
X150787D02*
X152786D01*
X151787D01*
Y226799D01*
X150787D01*
X155785Y222800D02*
X157785D01*
X156785D01*
Y228798D01*
X155785D01*
X168781Y222800D02*
X166782Y224799D01*
Y226799D01*
X168781Y228798D01*
X175779Y222800D02*
X171780D01*
X175779Y226799D01*
Y227798D01*
X174779Y228798D01*
X172780D01*
X171780Y227798D01*
X177778Y222800D02*
Y223800D01*
X178778D01*
Y222800D01*
X177778D01*
X186775Y228798D02*
X184776Y227798D01*
X182777Y225799D01*
Y223800D01*
X183776Y222800D01*
X185776D01*
X186775Y223800D01*
Y224799D01*
X185776Y225799D01*
X182777D01*
X188775Y227798D02*
X189774Y228798D01*
X191774D01*
X192773Y227798D01*
Y223800D01*
X191774Y222800D01*
X189774D01*
X188775Y223800D01*
Y227798D01*
X194773D02*
X195773Y228798D01*
X197772D01*
X198772Y227798D01*
Y223800D01*
X197772Y222800D01*
X195773D01*
X194773Y223800D01*
Y227798D01*
X200771Y222800D02*
Y226799D01*
X201771D01*
X202770Y225799D01*
Y222800D01*
Y225799D01*
X203770Y226799D01*
X204770Y225799D01*
Y222800D01*
X206769D02*
Y226799D01*
X207769D01*
X208768Y225799D01*
Y222800D01*
Y225799D01*
X209768Y226799D01*
X210768Y225799D01*
Y222800D01*
X212767D02*
X214766Y224799D01*
Y226799D01*
X212767Y228798D01*
X110800Y207800D02*
X112799D01*
X111800D01*
Y213798D01*
X110800Y212798D01*
X119797Y207800D02*
X115798D01*
X119797Y211799D01*
Y212798D01*
X118797Y213798D01*
X116798D01*
X115798Y212798D01*
X121796Y207800D02*
Y208800D01*
X122796D01*
Y207800D01*
X121796D01*
X126795Y212798D02*
X127795Y213798D01*
X129794D01*
X130793Y212798D01*
Y208800D01*
X129794Y207800D01*
X127795D01*
X126795Y208800D01*
Y212798D01*
X132793D02*
X133793Y213798D01*
X135792D01*
X136792Y212798D01*
Y208800D01*
X135792Y207800D01*
X133793D01*
X132793Y208800D01*
Y212798D01*
X138791Y207800D02*
Y211799D01*
X139791D01*
X140790Y210799D01*
Y207800D01*
Y210799D01*
X141790Y211799D01*
X142790Y210799D01*
Y207800D01*
X144789D02*
X146788D01*
X145789D01*
Y211799D01*
X144789D01*
X149787Y207800D02*
X151787D01*
X150787D01*
Y213798D01*
X149787D01*
X162783Y207800D02*
X160784Y209799D01*
Y211799D01*
X162783Y213798D01*
X165782Y212798D02*
X166782Y213798D01*
X168781D01*
X169781Y212798D01*
Y208800D01*
X168781Y207800D01*
X166782D01*
X165782Y208800D01*
Y212798D01*
X171780Y207800D02*
Y208800D01*
X172780D01*
Y207800D01*
X171780D01*
X176779Y212798D02*
X177778Y213798D01*
X179778D01*
X180777Y212798D01*
Y211799D01*
X179778Y210799D01*
X178778D01*
X179778D01*
X180777Y209799D01*
Y208800D01*
X179778Y207800D01*
X177778D01*
X176779Y208800D01*
X182777Y212798D02*
X183776Y213798D01*
X185776D01*
X186775Y212798D01*
Y208800D01*
X185776Y207800D01*
X183776D01*
X182777Y208800D01*
Y212798D01*
X192773Y213798D02*
X188775D01*
Y210799D01*
X190774Y211799D01*
X191774D01*
X192773Y210799D01*
Y208800D01*
X191774Y207800D01*
X189774D01*
X188775Y208800D01*
X194773Y207800D02*
Y211799D01*
X195773D01*
X196772Y210799D01*
Y207800D01*
Y210799D01*
X197772Y211799D01*
X198772Y210799D01*
Y207800D01*
X200771D02*
Y211799D01*
X201771D01*
X202770Y210799D01*
Y207800D01*
Y210799D01*
X203770Y211799D01*
X204770Y210799D01*
Y207800D01*
X206769D02*
X208768Y209799D01*
Y211799D01*
X206769Y213798D01*
X56814Y198798D02*
X60813D01*
Y197798D01*
X56814Y193800D01*
Y192800D01*
X62812Y197798D02*
X63812Y198798D01*
X65811D01*
X66811Y197798D01*
Y193800D01*
X65811Y192800D01*
X63812D01*
X62812Y193800D01*
Y197798D01*
X74808Y198798D02*
X78807D01*
X76807D01*
Y192800D01*
X81806D02*
X83805D01*
X84805Y193800D01*
Y195799D01*
X83805Y196799D01*
X81806D01*
X80806Y195799D01*
Y193800D01*
X81806Y192800D01*
X87804Y197798D02*
Y196799D01*
X86804D01*
X88804D01*
X87804D01*
Y193800D01*
X88804Y192800D01*
X92802Y196799D02*
X94802D01*
X95801Y195799D01*
Y192800D01*
X92802D01*
X91803Y193800D01*
X92802Y194799D01*
X95801D01*
X97801Y192800D02*
X99800D01*
X98800D01*
Y198798D01*
X97801D01*
X60813Y252800D02*
X56814D01*
X60813Y256799D01*
Y257798D01*
X59813Y258798D01*
X57814D01*
X56814Y257798D01*
Y242798D02*
X57814Y243798D01*
X59813D01*
X60813Y242798D01*
Y241799D01*
X59813Y240799D01*
X58813D01*
X59813D01*
X60813Y239799D01*
Y238800D01*
X59813Y237800D01*
X57814D01*
X56814Y238800D01*
X59813Y222800D02*
Y228798D01*
X56814Y225799D01*
X60813D01*
Y213798D02*
X58813Y212798D01*
X56814Y210799D01*
Y208800D01*
X57814Y207800D01*
X59813D01*
X60813Y208800D01*
Y209799D01*
X59813Y210799D01*
X56814D01*
X62812Y207800D02*
X64811D01*
X63812D01*
Y213798D01*
X62812Y212798D01*
X184773Y170305D02*
X188772D01*
X184773Y172304D02*
X188772D01*
X196769Y168305D02*
Y174303D01*
X199768D01*
X200768Y173304D01*
Y171304D01*
X199768Y170305D01*
X196769D01*
X198769D02*
X200768Y168305D01*
X203767D02*
X205767D01*
X206766Y169305D01*
Y171304D01*
X205767Y172304D01*
X203767D01*
X202767Y171304D01*
Y169305D01*
X203767Y168305D01*
X208766Y172304D02*
Y169305D01*
X209765Y168305D01*
X212764D01*
Y172304D01*
X215763Y173304D02*
Y172304D01*
X214764D01*
X216763D01*
X215763D01*
Y169305D01*
X216763Y168305D01*
X222761D02*
X220762D01*
X219762Y169305D01*
Y171304D01*
X220762Y172304D01*
X222761D01*
X223761Y171304D01*
Y170305D01*
X219762D01*
X229759Y174303D02*
Y168305D01*
X226760D01*
X225760Y169305D01*
Y171304D01*
X226760Y172304D01*
X229759D01*
X237756Y168305D02*
Y174303D01*
X240755D01*
X241755Y173304D01*
Y171304D01*
X240755Y170305D01*
X237756D01*
X244754Y172304D02*
X246753D01*
X247753Y171304D01*
Y168305D01*
X244754D01*
X243754Y169305D01*
X244754Y170305D01*
X247753D01*
X250752Y173304D02*
Y172304D01*
X249752D01*
X251752D01*
X250752D01*
Y169305D01*
X251752Y168305D01*
X254751Y174303D02*
Y168305D01*
Y171304D01*
X255750Y172304D01*
X257750D01*
X258749Y171304D01*
Y168305D01*
X266747Y174303D02*
Y168305D01*
X270745D01*
X275744D02*
X273745D01*
X272745Y169305D01*
Y171304D01*
X273745Y172304D01*
X275744D01*
X276744Y171304D01*
Y170305D01*
X272745D01*
X278743Y168305D02*
Y172304D01*
X281742D01*
X282742Y171304D01*
Y168305D01*
X286740Y166306D02*
X287740D01*
X288740Y167306D01*
Y172304D01*
X285741D01*
X284741Y171304D01*
Y169305D01*
X285741Y168305D01*
X288740D01*
X291739Y173304D02*
Y172304D01*
X290739D01*
X292738D01*
X291739D01*
Y169305D01*
X292738Y168305D01*
X295737Y174303D02*
Y168305D01*
Y171304D01*
X296737Y172304D01*
X298736D01*
X299736Y171304D01*
Y168305D01*
X307733Y171304D02*
X311732D01*
X309733Y173304D02*
Y169305D01*
X319730Y174303D02*
X323728D01*
X321729D01*
Y168305D01*
X326727D02*
X328727D01*
X329726Y169305D01*
Y171304D01*
X328727Y172304D01*
X326727D01*
X325728Y171304D01*
Y169305D01*
X326727Y168305D01*
X332725D02*
X334725D01*
X335724Y169305D01*
Y171304D01*
X334725Y172304D01*
X332725D01*
X331726Y171304D01*
Y169305D01*
X332725Y168305D01*
X337724D02*
X339723D01*
X338723D01*
Y174303D01*
X337724D01*
X352719Y173304D02*
X351719Y174303D01*
X349720D01*
X348720Y173304D01*
Y172304D01*
X349720Y171304D01*
X351719D01*
X352719Y170305D01*
Y169305D01*
X351719Y168305D01*
X349720D01*
X348720Y169305D01*
X354718Y168305D02*
X356718D01*
X355718D01*
Y172304D01*
X354718D01*
X359717D02*
X363715D01*
X359717Y168305D01*
X363715D01*
X368714D02*
X366714D01*
X365715Y169305D01*
Y171304D01*
X366714Y172304D01*
X368714D01*
X369713Y171304D01*
Y170305D01*
X365715D01*
X377711D02*
X381710D01*
X377711Y172304D02*
X381710D01*
X393706Y173304D02*
X392706Y174303D01*
X390707D01*
X389707Y173304D01*
Y172304D01*
X390707Y171304D01*
X392706D01*
X393706Y170305D01*
Y169305D01*
X392706Y168305D01*
X390707D01*
X389707Y169305D01*
X395705Y168305D02*
X397704D01*
X396705D01*
Y174303D01*
X395705D01*
X401703Y168305D02*
X403702D01*
X404702Y169305D01*
Y171304D01*
X403702Y172304D01*
X401703D01*
X400703Y171304D01*
Y169305D01*
X401703Y168305D01*
X407701Y173304D02*
Y172304D01*
X406702D01*
X408701D01*
X407701D01*
Y169305D01*
X408701Y168305D01*
X417698D02*
X419697D01*
X418698D01*
Y174303D01*
X417698D01*
X425695Y168305D02*
X423696D01*
X422696Y169305D01*
Y171304D01*
X423696Y172304D01*
X425695D01*
X426695Y171304D01*
Y170305D01*
X422696D01*
X428694Y168305D02*
Y172304D01*
X431693D01*
X432693Y171304D01*
Y168305D01*
X436692Y166306D02*
X437691D01*
X438691Y167306D01*
Y172304D01*
X435692D01*
X434692Y171304D01*
Y169305D01*
X435692Y168305D01*
X438691D01*
X441690Y173304D02*
Y172304D01*
X440691D01*
X442690D01*
X441690D01*
Y169305D01*
X442690Y168305D01*
X445689Y174303D02*
Y168305D01*
Y171304D01*
X446689Y172304D01*
X448688D01*
X449688Y171304D01*
Y168305D01*
X458685Y172304D02*
X460684D01*
X461684Y171304D01*
Y168305D01*
X458685D01*
X457685Y169305D01*
X458685Y170305D01*
X461684D01*
X463683Y168305D02*
X466682D01*
X467682Y169305D01*
X466682Y170305D01*
X464683D01*
X463683Y171304D01*
X464683Y172304D01*
X467682D01*
X479678Y174303D02*
Y168305D01*
X476679D01*
X475679Y169305D01*
Y171304D01*
X476679Y172304D01*
X479678D01*
X484676Y168305D02*
X482677D01*
X481677Y169305D01*
Y171304D01*
X482677Y172304D01*
X484676D01*
X485676Y171304D01*
Y170305D01*
X481677D01*
X488675Y168305D02*
Y173304D01*
Y171304D01*
X487675D01*
X489675D01*
X488675D01*
Y173304D01*
X489675Y174303D01*
X492674Y168305D02*
X494673D01*
X493673D01*
Y172304D01*
X492674D01*
X497672Y168305D02*
Y172304D01*
X500671D01*
X501671Y171304D01*
Y168305D01*
X506669D02*
X504670D01*
X503670Y169305D01*
Y171304D01*
X504670Y172304D01*
X506669D01*
X507669Y171304D01*
Y170305D01*
X503670D01*
X513667Y174303D02*
Y168305D01*
X510668D01*
X509668Y169305D01*
Y171304D01*
X510668Y172304D01*
X513667D01*
X521664Y168305D02*
X523664D01*
X522664D01*
Y172304D01*
X521664D01*
X526663Y168305D02*
Y172304D01*
X529662D01*
X530661Y171304D01*
Y168305D01*
X539658Y173304D02*
Y172304D01*
X538659D01*
X540658D01*
X539658D01*
Y169305D01*
X540658Y168305D01*
X543657Y174303D02*
Y168305D01*
Y171304D01*
X544657Y172304D01*
X546656D01*
X547656Y171304D01*
Y168305D01*
X552654D02*
X550655D01*
X549655Y169305D01*
Y171304D01*
X550655Y172304D01*
X552654D01*
X553654Y171304D01*
Y170305D01*
X549655D01*
X561651Y168305D02*
Y174303D01*
X564650D01*
X565650Y173304D01*
Y171304D01*
X564650Y170305D01*
X561651D01*
X571648Y173304D02*
X570648Y174303D01*
X568649D01*
X567649Y173304D01*
Y169305D01*
X568649Y168305D01*
X570648D01*
X571648Y169305D01*
X573647Y174303D02*
Y168305D01*
X576647D01*
X577646Y169305D01*
Y170305D01*
X576647Y171304D01*
X573647D01*
X576647D01*
X577646Y172304D01*
Y173304D01*
X576647Y174303D01*
X573647D01*
X585644Y168305D02*
X587643D01*
X586643D01*
Y174303D01*
X585644D01*
X591642Y172304D02*
X593641D01*
X594641Y171304D01*
Y168305D01*
X591642D01*
X590642Y169305D01*
X591642Y170305D01*
X594641D01*
X596640Y172304D02*
Y169305D01*
X597640Y168305D01*
X600639D01*
Y167306D01*
X599639Y166306D01*
X598639D01*
X600639Y168305D02*
Y172304D01*
X603638Y168305D02*
X605637D01*
X606637Y169305D01*
Y171304D01*
X605637Y172304D01*
X603638D01*
X602638Y171304D01*
Y169305D01*
X603638Y168305D01*
X608636Y172304D02*
Y169305D01*
X609636Y168305D01*
X612635D01*
Y172304D01*
X615634Y173304D02*
Y172304D01*
X614634D01*
X616634D01*
X615634D01*
Y169305D01*
X616634Y168305D01*
X219762Y180302D02*
X223761D01*
X219762Y182301D02*
X223761D01*
X235757Y183301D02*
X234757Y184301D01*
X232758D01*
X231758Y183301D01*
Y179302D01*
X232758Y178303D01*
X234757D01*
X235757Y179302D01*
X238756Y182301D02*
X240755D01*
X241755Y181302D01*
Y178303D01*
X238756D01*
X237756Y179302D01*
X238756Y180302D01*
X241755D01*
X243754Y178303D02*
X245754D01*
X244754D01*
Y184301D01*
X243754D01*
X252751Y182301D02*
X249752D01*
X248753Y181302D01*
Y179302D01*
X249752Y178303D01*
X252751D01*
X254751Y182301D02*
Y179302D01*
X255750Y178303D01*
X258749D01*
Y182301D01*
X260749Y178303D02*
X262748D01*
X261748D01*
Y184301D01*
X260749D01*
X266747Y182301D02*
X268746D01*
X269746Y181302D01*
Y178303D01*
X266747D01*
X265747Y179302D01*
X266747Y180302D01*
X269746D01*
X272745Y183301D02*
Y182301D01*
X271745D01*
X273745D01*
X272745D01*
Y179302D01*
X273745Y178303D01*
X279743D02*
X277743D01*
X276744Y179302D01*
Y181302D01*
X277743Y182301D01*
X279743D01*
X280742Y181302D01*
Y180302D01*
X276744D01*
X286740Y184301D02*
Y178303D01*
X283741D01*
X282742Y179302D01*
Y181302D01*
X283741Y182301D01*
X286740D01*
X295737Y178303D02*
Y183301D01*
Y181302D01*
X294738D01*
X296737D01*
X295737D01*
Y183301D01*
X296737Y184301D01*
X299736Y182301D02*
Y178303D01*
Y180302D01*
X300736Y181302D01*
X301735Y182301D01*
X302735D01*
X306734Y178303D02*
X308733D01*
X309733Y179302D01*
Y181302D01*
X308733Y182301D01*
X306734D01*
X305734Y181302D01*
Y179302D01*
X306734Y178303D01*
X311732D02*
Y182301D01*
X312732D01*
X313732Y181302D01*
Y178303D01*
Y181302D01*
X314731Y182301D01*
X315731Y181302D01*
Y178303D01*
X324728Y183301D02*
Y182301D01*
X323728D01*
X325728D01*
X324728D01*
Y179302D01*
X325728Y178303D01*
X329726D02*
X331726D01*
X332725Y179302D01*
Y181302D01*
X331726Y182301D01*
X329726D01*
X328727Y181302D01*
Y179302D01*
X329726Y178303D01*
X335724D02*
X337724D01*
X338723Y179302D01*
Y181302D01*
X337724Y182301D01*
X335724D01*
X334725Y181302D01*
Y179302D01*
X335724Y178303D01*
X340723D02*
X342722D01*
X341722D01*
Y184301D01*
X340723D01*
X351719Y178303D02*
X354718D01*
X355718Y179302D01*
X354718Y180302D01*
X352719D01*
X351719Y181302D01*
X352719Y182301D01*
X355718D01*
X358717Y183301D02*
Y182301D01*
X357717D01*
X359717D01*
X358717D01*
Y179302D01*
X359717Y178303D01*
X363715Y182301D02*
X365715D01*
X366714Y181302D01*
Y178303D01*
X363715D01*
X362716Y179302D01*
X363715Y180302D01*
X366714D01*
X368714Y182301D02*
Y178303D01*
Y180302D01*
X369713Y181302D01*
X370713Y182301D01*
X371713D01*
X375711Y183301D02*
Y182301D01*
X374712D01*
X376711D01*
X375711D01*
Y179302D01*
X376711Y178303D01*
X389707Y182301D02*
X386708D01*
X385708Y181302D01*
Y179302D01*
X386708Y178303D01*
X389707D01*
X394705D02*
X392706D01*
X391706Y179302D01*
Y181302D01*
X392706Y182301D01*
X394705D01*
X395705Y181302D01*
Y180302D01*
X391706D01*
X397704Y178303D02*
Y182301D01*
X400703D01*
X401703Y181302D01*
Y178303D01*
X404702Y183301D02*
Y182301D01*
X403702D01*
X405702D01*
X404702D01*
Y179302D01*
X405702Y178303D01*
X408701Y182301D02*
Y178303D01*
Y180302D01*
X409700Y181302D01*
X410700Y182301D01*
X411700D01*
X417698Y178303D02*
X415699D01*
X414699Y179302D01*
Y181302D01*
X415699Y182301D01*
X417698D01*
X418698Y181302D01*
Y180302D01*
X414699D01*
X426695Y176303D02*
Y182301D01*
X429694D01*
X430694Y181302D01*
Y179302D01*
X429694Y178303D01*
X426695D01*
X433693D02*
X435692D01*
X436692Y179302D01*
Y181302D01*
X435692Y182301D01*
X433693D01*
X432693Y181302D01*
Y179302D01*
X433693Y178303D01*
X438691D02*
X441690D01*
X442690Y179302D01*
X441690Y180302D01*
X439691D01*
X438691Y181302D01*
X439691Y182301D01*
X442690D01*
X444689Y178303D02*
X446689D01*
X445689D01*
Y182301D01*
X444689D01*
X450687Y183301D02*
Y182301D01*
X449688D01*
X451687D01*
X450687D01*
Y179302D01*
X451687Y178303D01*
X454686D02*
X456685D01*
X455686D01*
Y182301D01*
X454686D01*
X460684Y178303D02*
X462683D01*
X463683Y179302D01*
Y181302D01*
X462683Y182301D01*
X460684D01*
X459684Y181302D01*
Y179302D01*
X460684Y178303D01*
X465682D02*
Y182301D01*
X468681D01*
X469681Y181302D01*
Y178303D01*
X478678Y183301D02*
Y182301D01*
X477678D01*
X479678D01*
X478678D01*
Y179302D01*
X479678Y178303D01*
X483677D02*
X485676D01*
X486676Y179302D01*
Y181302D01*
X485676Y182301D01*
X483677D01*
X482677Y181302D01*
Y179302D01*
X483677Y178303D01*
X495673Y183301D02*
Y182301D01*
X494673D01*
X496672D01*
X495673D01*
Y179302D01*
X496672Y178303D01*
X500671D02*
X502670D01*
X503670Y179302D01*
Y181302D01*
X502670Y182301D01*
X500671D01*
X499671Y181302D01*
Y179302D01*
X500671Y178303D01*
X506669D02*
X508669D01*
X509668Y179302D01*
Y181302D01*
X508669Y182301D01*
X506669D01*
X505669Y181302D01*
Y179302D01*
X506669Y178303D01*
X511667D02*
X513667D01*
X512667D01*
Y184301D01*
X511667D01*
X525663Y178303D02*
X523664D01*
X522664Y179302D01*
Y181302D01*
X523664Y182301D01*
X525663D01*
X526663Y181302D01*
Y180302D01*
X522664D01*
X528662Y178303D02*
Y182301D01*
X531661D01*
X532661Y181302D01*
Y178303D01*
X538659Y184301D02*
Y178303D01*
X535660D01*
X534660Y179302D01*
Y181302D01*
X535660Y182301D01*
X538659D01*
X550655D02*
X547656D01*
X546656Y181302D01*
Y179302D01*
X547656Y178303D01*
X550655D01*
X555653D02*
X553654D01*
X552654Y179302D01*
Y181302D01*
X553654Y182301D01*
X555653D01*
X556653Y181302D01*
Y180302D01*
X552654D01*
X558652Y178303D02*
Y182301D01*
X561651D01*
X562651Y181302D01*
Y178303D01*
X565650Y183301D02*
Y182301D01*
X564650D01*
X566650D01*
X565650D01*
Y179302D01*
X566650Y178303D01*
X569649Y182301D02*
Y178303D01*
Y180302D01*
X570648Y181302D01*
X571648Y182301D01*
X572648D01*
X578646Y178303D02*
X576647D01*
X575647Y179302D01*
Y181302D01*
X576647Y182301D01*
X578646D01*
X579645Y181302D01*
Y180302D01*
X575647D01*
X587643Y176303D02*
Y182301D01*
X590642D01*
X591642Y181302D01*
Y179302D01*
X590642Y178303D01*
X587643D01*
X594641D02*
X596640D01*
X597640Y179302D01*
Y181302D01*
X596640Y182301D01*
X594641D01*
X593641Y181302D01*
Y179302D01*
X594641Y178303D01*
X599639D02*
X602638D01*
X603638Y179302D01*
X602638Y180302D01*
X600639D01*
X599639Y181302D01*
X600639Y182301D01*
X603638D01*
X605637Y178303D02*
X607636D01*
X606637D01*
Y182301D01*
X605637D01*
X611635Y183301D02*
Y182301D01*
X610636D01*
X612635D01*
X611635D01*
Y179302D01*
X612635Y178303D01*
X615634D02*
X617633D01*
X616634D01*
Y182301D01*
X615634D01*
X621632Y178303D02*
X623631D01*
X624631Y179302D01*
Y181302D01*
X623631Y182301D01*
X621632D01*
X620632Y181302D01*
Y179302D01*
X621632Y178303D01*
X626630D02*
Y182301D01*
X629629D01*
X630629Y181302D01*
Y178303D01*
X632628D02*
Y179302D01*
X633628D01*
Y178303D01*
X632628D01*
D16*
X-2774Y263300D02*
X1315057D01*
X-2774Y203300D02*
X1315057D01*
X-2774Y188300D02*
X1315057D01*
Y278300D01*
X-2774D02*
X1315057D01*
X-2774Y188300D02*
Y278300D01*
X1174796Y188300D02*
Y278300D01*
X1065828Y188300D02*
Y278300D01*
X932467Y188300D02*
Y278300D01*
X799107Y188300D02*
Y278300D01*
X713730Y188300D02*
Y278300D01*
X597764Y188300D02*
Y278300D01*
X523184Y188300D02*
Y278300D01*
X464200Y188300D02*
Y278300D01*
X345234Y188300D02*
Y278300D01*
X271854Y188300D02*
Y278300D01*
X221266Y188300D02*
Y278300D01*
X106300Y188300D02*
Y278300D01*
X52314Y188300D02*
Y278300D01*
D47*
X109495Y174303D02*
Y168305D01*
Y171304D01*
X113494D01*
Y174303D01*
Y168305D01*
X116493D02*
X118492D01*
X119492Y169305D01*
Y171304D01*
X118492Y172304D01*
X116493D01*
X115493Y171304D01*
Y169305D01*
X116493Y168305D01*
X121491D02*
X123491D01*
X122491D01*
Y174303D01*
X121491D01*
X129489Y168305D02*
X127489D01*
X126490Y169305D01*
Y171304D01*
X127489Y172304D01*
X129489D01*
X130489Y171304D01*
Y170305D01*
X126490D01*
X138486Y174303D02*
Y168305D01*
X142485D01*
X147483D02*
X145484D01*
X144484Y169305D01*
Y171304D01*
X145484Y172304D01*
X147483D01*
X148483Y171304D01*
Y170305D01*
X144484D01*
X150482Y168305D02*
Y172304D01*
X153481D01*
X154481Y171304D01*
Y168305D01*
X158479Y166306D02*
X159479D01*
X160479Y167306D01*
Y172304D01*
X157480D01*
X156480Y171304D01*
Y169305D01*
X157480Y168305D01*
X160479D01*
X163478Y173304D02*
Y172304D01*
X162478D01*
X164478D01*
X163478D01*
Y169305D01*
X164478Y168305D01*
X167476Y174303D02*
Y168305D01*
Y171304D01*
X168476Y172304D01*
X170475D01*
X171475Y171304D01*
Y168305D01*
X109495Y178303D02*
Y184301D01*
X112494D01*
X113494Y183301D01*
Y181302D01*
X112494Y180302D01*
X109495D01*
X111495D02*
X113494Y178303D01*
X116493D02*
X118492D01*
X119492Y179302D01*
Y181302D01*
X118492Y182301D01*
X116493D01*
X115493Y181302D01*
Y179302D01*
X116493Y178303D01*
X121491Y182301D02*
Y179302D01*
X122491Y178303D01*
X125490D01*
Y182301D01*
X128489Y183301D02*
Y182301D01*
X127489D01*
X129489D01*
X128489D01*
Y179302D01*
X129489Y178303D01*
X135487D02*
X133487D01*
X132488Y179302D01*
Y181302D01*
X133487Y182301D01*
X135487D01*
X136487Y181302D01*
Y180302D01*
X132488D01*
X142485Y184301D02*
Y178303D01*
X139486D01*
X138486Y179302D01*
Y181302D01*
X139486Y182301D01*
X142485D01*
X150482Y178303D02*
Y184301D01*
X153481D01*
X154481Y183301D01*
Y181302D01*
X153481Y180302D01*
X150482D01*
X157480Y182301D02*
X159479D01*
X160479Y181302D01*
Y178303D01*
X157480D01*
X156480Y179302D01*
X157480Y180302D01*
X160479D01*
X163478Y183301D02*
Y182301D01*
X162478D01*
X164478D01*
X163478D01*
Y179302D01*
X164478Y178303D01*
X167476Y184301D02*
Y178303D01*
Y181302D01*
X168476Y182301D01*
X170475D01*
X171475Y181302D01*
Y178303D01*
X179473Y184301D02*
Y178303D01*
X183471D01*
X188470D02*
X186470D01*
X185471Y179302D01*
Y181302D01*
X186470Y182301D01*
X188470D01*
X189469Y181302D01*
Y180302D01*
X185471D01*
X191469Y178303D02*
Y182301D01*
X194468D01*
X195467Y181302D01*
Y178303D01*
X199466Y176303D02*
X200466D01*
X201466Y177303D01*
Y182301D01*
X198467D01*
X197467Y181302D01*
Y179302D01*
X198467Y178303D01*
X201466D01*
X204465Y183301D02*
Y182301D01*
X203465D01*
X205464D01*
X204465D01*
Y179302D01*
X205464Y178303D01*
X208463Y184301D02*
Y178303D01*
Y181302D01*
X209463Y182301D01*
X211462D01*
X212462Y181302D01*
Y178303D01*
X10225Y183301D02*
X9225Y184301D01*
X7226D01*
X6226Y183301D01*
Y182301D01*
X7226Y181302D01*
X9225D01*
X10225Y180302D01*
Y179302D01*
X9225Y178303D01*
X7226D01*
X6226Y179302D01*
X12224Y178303D02*
X14224D01*
X13224D01*
Y184301D01*
X12224D01*
X18223Y178303D02*
X20222D01*
X21222Y179302D01*
Y181302D01*
X20222Y182301D01*
X18223D01*
X17223Y181302D01*
Y179302D01*
X18223Y178303D01*
X24220Y183301D02*
Y182301D01*
X23221D01*
X25220D01*
X24220D01*
Y179302D01*
X25220Y178303D01*
X38216Y184301D02*
Y178303D01*
X35217D01*
X34217Y179302D01*
Y181302D01*
X35217Y182301D01*
X38216D01*
X43214Y178303D02*
X41215D01*
X40215Y179302D01*
Y181302D01*
X41215Y182301D01*
X43214D01*
X44214Y181302D01*
Y180302D01*
X40215D01*
X47213Y178303D02*
Y183301D01*
Y181302D01*
X46213D01*
X48213D01*
X47213D01*
Y183301D01*
X48213Y184301D01*
X51212Y178303D02*
X53211D01*
X52211D01*
Y182301D01*
X51212D01*
X56210Y178303D02*
Y182301D01*
X59209D01*
X60209Y181302D01*
Y178303D01*
X62208D02*
X64208D01*
X63208D01*
Y182301D01*
X62208D01*
X68206Y183301D02*
Y182301D01*
X67207D01*
X69206D01*
X68206D01*
Y179302D01*
X69206Y178303D01*
X72205D02*
X74204D01*
X73205D01*
Y182301D01*
X72205D01*
X78203Y178303D02*
X80202D01*
X81202Y179302D01*
Y181302D01*
X80202Y182301D01*
X78203D01*
X77203Y181302D01*
Y179302D01*
X78203Y178303D01*
X83201D02*
Y182301D01*
X86200D01*
X87200Y181302D01*
Y178303D01*
X89200D02*
X92198D01*
X93198Y179302D01*
X92198Y180302D01*
X90199D01*
X89200Y181302D01*
X90199Y182301D01*
X93198D01*
X101196D02*
X102195D01*
Y181302D01*
X101196D01*
Y182301D01*
Y179302D02*
X102195D01*
Y178303D01*
X101196D01*
Y179302D01*
D53*
X55805Y69892D02*
G03*
X55805Y69892I-1000J0D01*
G01*
X108611Y94811D02*
G03*
X108611Y94811I-1000J0D01*
G01*
X56391Y60807D02*
G03*
X56391Y60807I-1000J0D01*
G01*
X20700Y8500D02*
X22700D01*
Y10500D01*
X20700D02*
X22700D01*
X20700Y8500D02*
Y10500D01*
X45800Y31600D02*
X47800D01*
Y33600D01*
X45800D02*
X47800D01*
X45800Y31600D02*
Y33600D01*
X9500Y54700D02*
X11500D01*
Y56700D01*
X9500D02*
X11500D01*
X9500Y54700D02*
Y56700D01*
X40335Y8500D02*
X42335D01*
Y10500D01*
X40335D02*
X42335D01*
X40335Y8500D02*
Y10500D01*
X42760Y3960D02*
X44760D01*
Y5960D01*
X42760D02*
X44760D01*
X42760Y3960D02*
Y5960D01*
X54700Y131500D02*
X56700D01*
Y133500D01*
X54700D02*
X56700D01*
X54700Y131500D02*
Y133500D01*
X40400Y128435D02*
X42400D01*
Y130435D01*
X40400D02*
X42400D01*
X40400Y128435D02*
Y130435D01*
X35114Y56700D02*
X37114D01*
Y58700D01*
X35114D02*
X37114D01*
X35114Y56700D02*
Y58700D01*
X24412Y64112D02*
X26412D01*
Y66112D01*
X24412D02*
X26412D01*
X24412Y64112D02*
Y66112D01*
X37900Y86900D02*
X39900D01*
Y88900D01*
X37900D02*
X39900D01*
X37900Y86900D02*
Y88900D01*
X33300Y86500D02*
X35300D01*
Y88500D01*
X33300D02*
X35300D01*
X33300Y86500D02*
Y88500D01*
X37500Y72700D02*
X39500D01*
Y74700D01*
X37500D02*
X39500D01*
X37500Y72700D02*
Y74700D01*
X22400Y99100D02*
X24400D01*
Y101100D01*
X22400D02*
X24400D01*
X22400Y99100D02*
Y101100D01*
X25100Y101400D02*
X27100D01*
Y103400D01*
X25100D02*
X27100D01*
X25100Y101400D02*
Y103400D01*
X21100Y62100D02*
X23100D01*
Y64100D01*
X21100D02*
X23100D01*
X21100Y62100D02*
Y64100D01*
X39200Y51600D02*
X41200D01*
Y53600D01*
X39200D02*
X41200D01*
X39200Y51600D02*
Y53600D01*
X35364Y17600D02*
X37364D01*
Y19600D01*
X35364D02*
X37364D01*
X35364Y17600D02*
Y19600D01*
X44900Y128900D02*
X46900D01*
Y130900D01*
X44900D02*
X46900D01*
X44900Y128900D02*
Y130900D01*
X20300Y121500D02*
X22300D01*
Y123500D01*
X20300D02*
X22300D01*
X20300Y121500D02*
Y123500D01*
Y117500D02*
X22300D01*
Y119500D01*
X20300D02*
X22300D01*
X20300Y117500D02*
Y119500D01*
Y113500D02*
X22300D01*
Y115500D01*
X20300D02*
X22300D01*
X20300Y113500D02*
Y115500D01*
Y109500D02*
X22300D01*
Y111500D01*
X20300D02*
X22300D01*
X20300Y109500D02*
Y111500D01*
X25300Y126500D02*
X27300D01*
Y128500D01*
X25300D02*
X27300D01*
X25300Y126500D02*
Y128500D01*
X32300Y126500D02*
X34300D01*
Y128500D01*
X32300D02*
X34300D01*
X32300Y126500D02*
Y128500D01*
X39300Y112500D02*
X41300D01*
Y114500D01*
X39300D02*
X41300D01*
X39300Y112500D02*
Y114500D01*
X24300Y70900D02*
X26300D01*
Y72900D01*
X24300D02*
X26300D01*
X24300Y70900D02*
Y72900D01*
X16200Y44100D02*
X18200D01*
Y46100D01*
X16200D02*
X18200D01*
X16200Y44100D02*
Y46100D01*
X23800Y49500D02*
X25800D01*
Y51500D01*
X23800D02*
X25800D01*
X23800Y49500D02*
Y51500D01*
X35300Y48500D02*
X37300D01*
Y50500D01*
X35300D02*
X37300D01*
X35300Y48500D02*
Y50500D01*
X34300Y41500D02*
X36300D01*
Y43500D01*
X34300D02*
X36300D01*
X34300Y41500D02*
Y43500D01*
X30300Y41500D02*
X32300D01*
Y43500D01*
X30300D02*
X32300D01*
X30300Y41500D02*
Y43500D01*
X26300Y41500D02*
X28300D01*
Y43500D01*
X26300D02*
X28300D01*
X26300Y41500D02*
Y43500D01*
X22300Y41500D02*
X24300D01*
Y43500D01*
X22300D02*
X24300D01*
X22300Y41500D02*
Y43500D01*
X26300Y32200D02*
X28300D01*
Y34200D01*
X26300D02*
X28300D01*
X26300Y32200D02*
Y34200D01*
X3900Y33700D02*
X5900D01*
Y35700D01*
X3900D02*
X5900D01*
X3900Y33700D02*
Y35700D01*
X7800Y23700D02*
X9800D01*
Y25700D01*
X7800D02*
X9800D01*
X7800Y23700D02*
Y25700D01*
X5100Y17900D02*
X7100D01*
Y19900D01*
X5100D02*
X7100D01*
X5100Y17900D02*
Y19900D01*
X7200Y32000D02*
X9200D01*
Y34000D01*
X7200D02*
X9200D01*
X7200Y32000D02*
Y34000D01*
X23300Y2000D02*
X25300D01*
Y4000D01*
X23300D02*
X25300D01*
X23300Y2000D02*
Y4000D01*
X25800Y9500D02*
X27800D01*
Y11500D01*
X25800D02*
X27800D01*
X25800Y9500D02*
Y11500D01*
X37300Y79500D02*
X39300D01*
Y81500D01*
X37300D02*
X39300D01*
X37300Y79500D02*
Y81500D01*
X37800Y91000D02*
X39800D01*
Y93000D01*
X37800D02*
X39800D01*
X37800Y91000D02*
Y93000D01*
X32800Y99000D02*
X34800D01*
Y101000D01*
X32800D02*
X34800D01*
X32800Y99000D02*
Y101000D01*
X39300Y115700D02*
X41300D01*
Y117700D01*
X39300D02*
X41300D01*
X39300Y115700D02*
Y117700D01*
X50800Y94900D02*
X52800D01*
Y96900D01*
X50800D02*
X52800D01*
X50800Y94900D02*
Y96900D01*
Y99000D02*
X52800D01*
Y101000D01*
X50800D02*
X52800D01*
X50800Y99000D02*
Y101000D01*
Y102100D02*
X52800D01*
Y104100D01*
X50800D02*
X52800D01*
X50800Y102100D02*
Y104100D01*
X53800Y102100D02*
X55800D01*
Y104100D01*
X53800D02*
X55800D01*
X53800Y102100D02*
Y104100D01*
X32976Y83100D02*
X34976D01*
Y85100D01*
X32976D02*
X34976D01*
X32976Y83100D02*
Y85100D01*
X42800Y47700D02*
X44800D01*
Y49700D01*
X42800D02*
X44800D01*
X42800Y47700D02*
Y49700D01*
X14300Y54951D02*
X16300D01*
Y56951D01*
X14300D02*
X16300D01*
X14300Y54951D02*
Y56951D01*
X18400Y54951D02*
X20400D01*
Y56951D01*
X18400D02*
X20400D01*
X18400Y54951D02*
Y56951D01*
X6300Y8200D02*
X8300D01*
Y10200D01*
X6300D02*
X8300D01*
X6300Y8200D02*
Y10200D01*
X24100Y74300D02*
X26100D01*
Y76300D01*
X24100D02*
X26100D01*
X24100Y74300D02*
Y76300D01*
X22100Y17200D02*
X24100D01*
Y19200D01*
X22100D02*
X24100D01*
X22100Y17200D02*
Y19200D01*
X9600Y76100D02*
X11600D01*
Y78100D01*
X9600D02*
X11600D01*
X9600Y76100D02*
Y78100D01*
X10098Y79900D02*
X12098D01*
Y81900D01*
X10098D02*
X12098D01*
X10098Y79900D02*
Y81900D01*
X53300Y128435D02*
X55300D01*
Y130435D01*
X53300D02*
X55300D01*
X53300Y128435D02*
Y130435D01*
X14600Y111400D02*
X16600D01*
Y113400D01*
X14600D02*
X16600D01*
X14600Y111400D02*
Y113400D01*
X20903Y88404D02*
X22904D01*
Y90404D01*
X20903D02*
X22904D01*
X20903Y88404D02*
Y90404D01*
X27700Y103500D02*
X29700D01*
Y105500D01*
X27700D02*
X29700D01*
X27700Y103500D02*
Y105500D01*
X103300Y75800D02*
Y76300D01*
X103800Y76800D01*
X103300Y77300D02*
X103800Y76800D01*
X103300Y77300D02*
Y77800D01*
X103800D01*
X104300Y77300D01*
X104800Y77800D01*
X105300D01*
Y77300D02*
Y77800D01*
X104800Y76800D02*
X105300Y77300D01*
X104800Y76800D02*
X105300Y76300D01*
Y75800D02*
Y76300D01*
X104800Y75800D02*
X105300D01*
X104300Y76300D02*
X104800Y75800D01*
X103800D02*
X104300Y76300D01*
X103300Y75800D02*
X103800D01*
X128100D02*
Y76300D01*
X128600Y76800D01*
X128100Y77300D02*
X128600Y76800D01*
X128100Y77300D02*
Y77800D01*
X128600D01*
X129100Y77300D01*
X129600Y77800D01*
X130100D01*
Y77300D02*
Y77800D01*
X129600Y76800D02*
X130100Y77300D01*
X129600Y76800D02*
X130100Y76300D01*
Y75800D02*
Y76300D01*
X129600Y75800D02*
X130100D01*
X129100Y76300D02*
X129600Y75800D01*
X128600D02*
X129100Y76300D01*
X128100Y75800D02*
X128600D01*
X128100Y54000D02*
Y54500D01*
X128600Y55000D01*
X128100Y55500D02*
X128600Y55000D01*
X128100Y55500D02*
Y56000D01*
X128600D01*
X129100Y55500D01*
X129600Y56000D01*
X130100D01*
Y55500D02*
Y56000D01*
X129600Y55000D02*
X130100Y55500D01*
X129600Y55000D02*
X130100Y54500D01*
Y54000D02*
Y54500D01*
X129600Y54000D02*
X130100D01*
X129100Y54500D02*
X129600Y54000D01*
X128600D02*
X129100Y54500D01*
X128100Y54000D02*
X128600D01*
X103300D02*
Y54500D01*
X103800Y55000D01*
X103300Y55500D02*
X103800Y55000D01*
X103300Y55500D02*
Y56000D01*
X103800D01*
X104300Y55500D01*
X104800Y56000D01*
X105300D01*
Y55500D02*
Y56000D01*
X104800Y55000D02*
X105300Y55500D01*
X104800Y55000D02*
X105300Y54500D01*
Y54000D02*
Y54500D01*
X104800Y54000D02*
X105300D01*
X104300Y54500D02*
X104800Y54000D01*
X103800D02*
X104300Y54500D01*
X103300Y54000D02*
X103800D01*
X11800Y27400D02*
X12800Y29400D01*
X10800D02*
X12800D01*
X10800D02*
X11800Y27400D01*
Y20400D02*
X12800Y22400D01*
X10800D02*
X12800D01*
X10800D02*
X11800Y20400D01*
D54*
X1179296Y267800D02*
Y274998D01*
X1182895D01*
X1184095Y273798D01*
Y271399D01*
X1182895Y270199D01*
X1179296D01*
X1181696D02*
X1184095Y267800D01*
X1187694D02*
X1190093D01*
X1191293Y269000D01*
Y271399D01*
X1190093Y272599D01*
X1187694D01*
X1186494Y271399D01*
Y269000D01*
X1187694Y267800D01*
X1193692Y272599D02*
Y269000D01*
X1194891Y267800D01*
X1198490D01*
Y272599D01*
X1202089Y273798D02*
Y272599D01*
X1200889D01*
X1203289D01*
X1202089D01*
Y269000D01*
X1203289Y267800D01*
X1210486D02*
X1208087D01*
X1206888Y269000D01*
Y271399D01*
X1208087Y272599D01*
X1210486D01*
X1211686Y271399D01*
Y270199D01*
X1206888D01*
X1218884Y274998D02*
Y267800D01*
X1215285D01*
X1214085Y269000D01*
Y271399D01*
X1215285Y272599D01*
X1218884D01*
X1228481Y267800D02*
Y274998D01*
X1232079D01*
X1233279Y273798D01*
Y271399D01*
X1232079Y270199D01*
X1228481D01*
X1236878Y272599D02*
X1239277D01*
X1240477Y271399D01*
Y267800D01*
X1236878D01*
X1235678Y269000D01*
X1236878Y270199D01*
X1240477D01*
X1244075Y273798D02*
Y272599D01*
X1242876D01*
X1245275D01*
X1244075D01*
Y269000D01*
X1245275Y267800D01*
X1248874Y274998D02*
Y267800D01*
Y271399D01*
X1250074Y272599D01*
X1252473D01*
X1253672Y271399D01*
Y267800D01*
X1263269Y274998D02*
Y267800D01*
X1268068D01*
X1274066D02*
X1271667D01*
X1270467Y269000D01*
Y271399D01*
X1271667Y272599D01*
X1274066D01*
X1275265Y271399D01*
Y270199D01*
X1270467D01*
X1277665Y267800D02*
Y272599D01*
X1281264D01*
X1282463Y271399D01*
Y267800D01*
X1287261Y265401D02*
X1288461D01*
X1289661Y266600D01*
Y272599D01*
X1286062D01*
X1284862Y271399D01*
Y269000D01*
X1286062Y267800D01*
X1289661D01*
X1293260Y273798D02*
Y272599D01*
X1292060D01*
X1294459D01*
X1293260D01*
Y269000D01*
X1294459Y267800D01*
X1298058Y274998D02*
Y267800D01*
Y271399D01*
X1299258Y272599D01*
X1301657D01*
X1302857Y271399D01*
Y267800D01*
X1070328Y274998D02*
Y267800D01*
Y271399D01*
X1075127D01*
Y274998D01*
Y267800D01*
X1078726D02*
X1081125D01*
X1082324Y269000D01*
Y271399D01*
X1081125Y272599D01*
X1078726D01*
X1077526Y271399D01*
Y269000D01*
X1078726Y267800D01*
X1084723D02*
X1087123D01*
X1085923D01*
Y274998D01*
X1084723D01*
X1094320Y267800D02*
X1091921D01*
X1090722Y269000D01*
Y271399D01*
X1091921Y272599D01*
X1094320D01*
X1095520Y271399D01*
Y270199D01*
X1090722D01*
X1105117Y274998D02*
Y267800D01*
X1109915D01*
X1115913D02*
X1113514D01*
X1112315Y269000D01*
Y271399D01*
X1113514Y272599D01*
X1115913D01*
X1117113Y271399D01*
Y270199D01*
X1112315D01*
X1119512Y267800D02*
Y272599D01*
X1123111D01*
X1124311Y271399D01*
Y267800D01*
X1129109Y265401D02*
X1130309D01*
X1131508Y266600D01*
Y272599D01*
X1127909D01*
X1126710Y271399D01*
Y269000D01*
X1127909Y267800D01*
X1131508D01*
X1135107Y273798D02*
Y272599D01*
X1133908D01*
X1136307D01*
X1135107D01*
Y269000D01*
X1136307Y267800D01*
X1139906Y274998D02*
Y267800D01*
Y271399D01*
X1141105Y272599D01*
X1143505D01*
X1144704Y271399D01*
Y267800D01*
X936967Y274998D02*
Y267800D01*
Y271399D01*
X941766D01*
Y274998D01*
Y267800D01*
X945365D02*
X947764D01*
X948964Y269000D01*
Y271399D01*
X947764Y272599D01*
X945365D01*
X944165Y271399D01*
Y269000D01*
X945365Y267800D01*
X951363D02*
X953762D01*
X952562D01*
Y274998D01*
X951363D01*
X960960Y267800D02*
X958560D01*
X957361Y269000D01*
Y271399D01*
X958560Y272599D01*
X960960D01*
X962159Y271399D01*
Y270199D01*
X957361D01*
X971756Y274998D02*
X976555D01*
X974155D01*
Y267800D01*
X980153D02*
X982553D01*
X983752Y269000D01*
Y271399D01*
X982553Y272599D01*
X980153D01*
X978954Y271399D01*
Y269000D01*
X980153Y267800D01*
X986152D02*
X988551D01*
X987351D01*
Y274998D01*
X986152D01*
X995748Y267800D02*
X993349D01*
X992150Y269000D01*
Y271399D01*
X993349Y272599D01*
X995748D01*
X996948Y271399D01*
Y270199D01*
X992150D01*
X999347Y272599D02*
Y267800D01*
Y270199D01*
X1000547Y271399D01*
X1001746Y272599D01*
X1002946D01*
X1007745D02*
X1010144D01*
X1011343Y271399D01*
Y267800D01*
X1007745D01*
X1006545Y269000D01*
X1007745Y270199D01*
X1011343D01*
X1013743Y267800D02*
Y272599D01*
X1017341D01*
X1018541Y271399D01*
Y267800D01*
X1025739Y272599D02*
X1022140D01*
X1020940Y271399D01*
Y269000D01*
X1022140Y267800D01*
X1025739D01*
X1031737D02*
X1029338D01*
X1028138Y269000D01*
Y271399D01*
X1029338Y272599D01*
X1031737D01*
X1032936Y271399D01*
Y270199D01*
X1028138D01*
X1044932Y267800D02*
X1042533Y270199D01*
Y272599D01*
X1044932Y274998D01*
X1048531Y271399D02*
X1053330D01*
X1055729Y267800D02*
X1058128Y270199D01*
Y272599D01*
X1055729Y274998D01*
X803607D02*
Y267800D01*
Y271399D01*
X808405D01*
Y274998D01*
Y267800D01*
X812004D02*
X814403D01*
X815603Y269000D01*
Y271399D01*
X814403Y272599D01*
X812004D01*
X810804Y271399D01*
Y269000D01*
X812004Y267800D01*
X818002D02*
X820401D01*
X819202D01*
Y274998D01*
X818002D01*
X827599Y267800D02*
X825200D01*
X824000Y269000D01*
Y271399D01*
X825200Y272599D01*
X827599D01*
X828798Y271399D01*
Y270199D01*
X824000D01*
X838395Y274998D02*
X843194D01*
X840795D01*
Y267800D01*
X846793D02*
X849192D01*
X850391Y269000D01*
Y271399D01*
X849192Y272599D01*
X846793D01*
X845593Y271399D01*
Y269000D01*
X846793Y267800D01*
X852791D02*
X855190D01*
X853990D01*
Y274998D01*
X852791D01*
X862388Y267800D02*
X859988D01*
X858789Y269000D01*
Y271399D01*
X859988Y272599D01*
X862388D01*
X863587Y271399D01*
Y270199D01*
X858789D01*
X865986Y272599D02*
Y267800D01*
Y270199D01*
X867186Y271399D01*
X868386Y272599D01*
X869585D01*
X874384D02*
X876783D01*
X877983Y271399D01*
Y267800D01*
X874384D01*
X873184Y269000D01*
X874384Y270199D01*
X877983D01*
X880382Y267800D02*
Y272599D01*
X883981D01*
X885180Y271399D01*
Y267800D01*
X892378Y272599D02*
X888779D01*
X887579Y271399D01*
Y269000D01*
X888779Y267800D01*
X892378D01*
X898376D02*
X895977D01*
X894777Y269000D01*
Y271399D01*
X895977Y272599D01*
X898376D01*
X899576Y271399D01*
Y270199D01*
X894777D01*
X911572Y267800D02*
X909173Y270199D01*
Y272599D01*
X911572Y274998D01*
X915170Y271399D02*
X919969D01*
X917570Y273798D02*
Y269000D01*
X922368Y267800D02*
X924767Y270199D01*
Y272599D01*
X922368Y274998D01*
X718230D02*
Y267800D01*
X721829D01*
X723029Y269000D01*
Y273798D01*
X721829Y274998D01*
X718230D01*
X729027Y267800D02*
X726628D01*
X725428Y269000D01*
Y271399D01*
X726628Y272599D01*
X729027D01*
X730226Y271399D01*
Y270199D01*
X725428D01*
X732626Y267800D02*
X736225D01*
X737424Y269000D01*
X736225Y270199D01*
X733825D01*
X732626Y271399D01*
X733825Y272599D01*
X737424D01*
X744622D02*
X741023D01*
X739823Y271399D01*
Y269000D01*
X741023Y267800D01*
X744622D01*
X747021Y272599D02*
Y267800D01*
Y270199D01*
X748221Y271399D01*
X749420Y272599D01*
X750620D01*
X754219Y267800D02*
X756618D01*
X755418D01*
Y272599D01*
X754219D01*
X760217Y265401D02*
Y272599D01*
X763815D01*
X765015Y271399D01*
Y269000D01*
X763815Y267800D01*
X760217D01*
X768614Y273798D02*
Y272599D01*
X767414D01*
X769814D01*
X768614D01*
Y269000D01*
X769814Y267800D01*
X773412D02*
X775812D01*
X774612D01*
Y272599D01*
X773412D01*
X780610Y267800D02*
X783009D01*
X784209Y269000D01*
Y271399D01*
X783009Y272599D01*
X780610D01*
X779411Y271399D01*
Y269000D01*
X780610Y267800D01*
X786608D02*
Y272599D01*
X790207D01*
X791407Y271399D01*
Y267800D01*
X602264Y274998D02*
X607063D01*
X604664D01*
Y267800D01*
X613061D02*
X610662D01*
X609462Y269000D01*
Y271399D01*
X610662Y272599D01*
X613061D01*
X614260Y271399D01*
Y270199D01*
X609462D01*
X616660Y267800D02*
Y272599D01*
X617859D01*
X619059Y271399D01*
Y267800D01*
Y271399D01*
X620258Y272599D01*
X621458Y271399D01*
Y267800D01*
X623857Y265401D02*
Y272599D01*
X627456D01*
X628656Y271399D01*
Y269000D01*
X627456Y267800D01*
X623857D01*
X631055D02*
X633454D01*
X632255D01*
Y274998D01*
X631055D01*
X638253Y272599D02*
X640652D01*
X641851Y271399D01*
Y267800D01*
X638253D01*
X637053Y269000D01*
X638253Y270199D01*
X641851D01*
X645450Y273798D02*
Y272599D01*
X644251D01*
X646650D01*
X645450D01*
Y269000D01*
X646650Y267800D01*
X653848D02*
X651448D01*
X650249Y269000D01*
Y271399D01*
X651448Y272599D01*
X653848D01*
X655047Y271399D01*
Y270199D01*
X650249D01*
X527684Y267800D02*
Y274998D01*
X531283D01*
X532483Y273798D01*
Y271399D01*
X531283Y270199D01*
X527684D01*
X536082Y272599D02*
X538481D01*
X539681Y271399D01*
Y267800D01*
X536082D01*
X534882Y269000D01*
X536082Y270199D01*
X539681D01*
X546878Y274998D02*
Y267800D01*
X543279D01*
X542080Y269000D01*
Y271399D01*
X543279Y272599D01*
X546878D01*
X561274Y273798D02*
X560074Y274998D01*
X557675D01*
X556475Y273798D01*
Y272599D01*
X557675Y271399D01*
X560074D01*
X561274Y270199D01*
Y269000D01*
X560074Y267800D01*
X557675D01*
X556475Y269000D01*
X563673Y274998D02*
Y267800D01*
Y271399D01*
X564872Y272599D01*
X567272D01*
X568471Y271399D01*
Y267800D01*
X572070Y272599D02*
X574469D01*
X575669Y271399D01*
Y267800D01*
X572070D01*
X570870Y269000D01*
X572070Y270199D01*
X575669D01*
X578068Y265401D02*
Y272599D01*
X581667D01*
X582867Y271399D01*
Y269000D01*
X581667Y267800D01*
X578068D01*
X588865D02*
X586465D01*
X585266Y269000D01*
Y271399D01*
X586465Y272599D01*
X588865D01*
X590064Y271399D01*
Y270199D01*
X585266D01*
X468700Y274998D02*
Y270199D01*
X471099Y267800D01*
X473498Y270199D01*
Y274998D01*
X475897Y267800D02*
X478297D01*
X477097D01*
Y272599D01*
X475897D01*
X483095D02*
X485494D01*
X486694Y271399D01*
Y267800D01*
X483095D01*
X481895Y269000D01*
X483095Y270199D01*
X486694D01*
X489093Y267800D02*
X493891Y272599D01*
X496291Y267800D02*
Y274998D01*
X499890D01*
X501089Y273798D01*
Y271399D01*
X499890Y270199D01*
X496291D01*
X504688Y272599D02*
X507087D01*
X508287Y271399D01*
Y267800D01*
X504688D01*
X503488Y269000D01*
X504688Y270199D01*
X508287D01*
X515484Y274998D02*
Y267800D01*
X511886D01*
X510686Y269000D01*
Y271399D01*
X511886Y272599D01*
X515484D01*
X349734Y274998D02*
Y267800D01*
X353333D01*
X354533Y269000D01*
Y273798D01*
X353333Y274998D01*
X349734D01*
X356932Y272599D02*
Y267800D01*
Y270199D01*
X358131Y271399D01*
X359331Y272599D01*
X360531D01*
X364129Y267800D02*
X366529D01*
X365329D01*
Y272599D01*
X364129D01*
X370128Y267800D02*
X372527D01*
X371327D01*
Y274998D01*
X370128D01*
X376126Y267800D02*
X378525D01*
X377325D01*
Y274998D01*
X376126D01*
X389321D02*
Y267800D01*
X394120D01*
X397719Y272599D02*
X400118D01*
X401317Y271399D01*
Y267800D01*
X397719D01*
X396519Y269000D01*
X397719Y270199D01*
X401317D01*
X403717Y272599D02*
Y269000D01*
X404916Y267800D01*
X408515D01*
Y266600D01*
X407315Y265401D01*
X406116D01*
X408515Y267800D02*
Y272599D01*
X414513Y267800D02*
X412114D01*
X410914Y269000D01*
Y271399D01*
X412114Y272599D01*
X414513D01*
X415713Y271399D01*
Y270199D01*
X410914D01*
X418112Y272599D02*
Y267800D01*
Y270199D01*
X419312Y271399D01*
X420511Y272599D01*
X421711D01*
X432507Y267800D02*
Y274998D01*
X436106D01*
X437306Y273798D01*
Y271399D01*
X436106Y270199D01*
X432507D01*
X440905Y272599D02*
X443304D01*
X444503Y271399D01*
Y267800D01*
X440905D01*
X439705Y269000D01*
X440905Y270199D01*
X444503D01*
X446903Y267800D02*
X449302D01*
X448102D01*
Y272599D01*
X446903D01*
X452901D02*
Y267800D01*
Y270199D01*
X454100Y271399D01*
X455300Y272599D01*
X456500D01*
X276354Y274998D02*
Y267800D01*
Y271399D01*
X281152D01*
Y274998D01*
Y267800D01*
X284751D02*
X287150D01*
X288350Y269000D01*
Y271399D01*
X287150Y272599D01*
X284751D01*
X283552Y271399D01*
Y269000D01*
X284751Y267800D01*
X290749D02*
X293148D01*
X291949D01*
Y274998D01*
X290749D01*
X300346Y267800D02*
X297947D01*
X296747Y269000D01*
Y271399D01*
X297947Y272599D01*
X300346D01*
X301546Y271399D01*
Y270199D01*
X296747D01*
X311143Y274998D02*
X315941D01*
X313542D01*
Y267800D01*
X318340Y272599D02*
Y269000D01*
X319540Y267800D01*
X323139D01*
Y266600D01*
X321939Y265401D01*
X320740D01*
X323139Y267800D02*
Y272599D01*
X325538Y265401D02*
Y272599D01*
X329137D01*
X330336Y271399D01*
Y269000D01*
X329137Y267800D01*
X325538D01*
X336334D02*
X333935D01*
X332736Y269000D01*
Y271399D01*
X333935Y272599D01*
X336334D01*
X337534Y271399D01*
Y270199D01*
X332736D01*
X225766Y267800D02*
Y274998D01*
X229365D01*
X230565Y273798D01*
Y271399D01*
X229365Y270199D01*
X225766D01*
X232964Y267800D02*
X235363D01*
X234164D01*
Y274998D01*
X232964D01*
X240162Y272599D02*
X242561D01*
X243760Y271399D01*
Y267800D01*
X240162D01*
X238962Y269000D01*
X240162Y270199D01*
X243760D01*
X247359Y273798D02*
Y272599D01*
X246160D01*
X248559D01*
X247359D01*
Y269000D01*
X248559Y267800D01*
X255757D02*
X253357D01*
X252158Y269000D01*
Y271399D01*
X253357Y272599D01*
X255757D01*
X256956Y271399D01*
Y270199D01*
X252158D01*
X264154Y274998D02*
Y267800D01*
X260555D01*
X259355Y269000D01*
Y271399D01*
X260555Y272599D01*
X264154D01*
X110800Y274998D02*
Y267800D01*
Y271399D01*
X115598D01*
Y274998D01*
Y267800D01*
X119197D02*
X121597D01*
X122796Y269000D01*
Y271399D01*
X121597Y272599D01*
X119197D01*
X117998Y271399D01*
Y269000D01*
X119197Y267800D01*
X125195D02*
X127595D01*
X126395D01*
Y274998D01*
X125195D01*
X134792Y267800D02*
X132393D01*
X131193Y269000D01*
Y271399D01*
X132393Y272599D01*
X134792D01*
X135992Y271399D01*
Y270199D01*
X131193D01*
X150387Y273798D02*
X149188Y274998D01*
X146788D01*
X145589Y273798D01*
Y272599D01*
X146788Y271399D01*
X149188D01*
X150387Y270199D01*
Y269000D01*
X149188Y267800D01*
X146788D01*
X145589Y269000D01*
X152786Y267800D02*
X155186D01*
X153986D01*
Y272599D01*
X152786D01*
X158784D02*
X163583D01*
X158784Y267800D01*
X163583D01*
X169581D02*
X167182D01*
X165982Y269000D01*
Y271399D01*
X167182Y272599D01*
X169581D01*
X170781Y271399D01*
Y270199D01*
X165982D01*
X61612Y273798D02*
X60413Y274998D01*
X58013D01*
X56814Y273798D01*
Y269000D01*
X58013Y267800D01*
X60413D01*
X61612Y269000D01*
X65211Y267800D02*
X67610D01*
X68810Y269000D01*
Y271399D01*
X67610Y272599D01*
X65211D01*
X64012Y271399D01*
Y269000D01*
X65211Y267800D01*
X71209Y272599D02*
Y269000D01*
X72409Y267800D01*
X76008D01*
Y272599D01*
X78407Y267800D02*
Y272599D01*
X82006D01*
X83205Y271399D01*
Y267800D01*
X86804Y273798D02*
Y272599D01*
X85605D01*
X88004D01*
X86804D01*
Y269000D01*
X88004Y267800D01*
X11025Y273798D02*
X9825Y274998D01*
X7426D01*
X6226Y273798D01*
Y272599D01*
X7426Y271399D01*
X9825D01*
X11025Y270199D01*
Y269000D01*
X9825Y267800D01*
X7426D01*
X6226Y269000D01*
X13424Y272599D02*
Y269000D01*
X14624Y267800D01*
X18223D01*
Y266600D01*
X17023Y265401D01*
X15823D01*
X18223Y267800D02*
Y272599D01*
X20622Y267800D02*
Y272599D01*
X21821D01*
X23021Y271399D01*
Y267800D01*
Y271399D01*
X24220Y272599D01*
X25420Y271399D01*
Y267800D01*
X27819Y274998D02*
Y267800D01*
X31418D01*
X32618Y269000D01*
Y270199D01*
Y271399D01*
X31418Y272599D01*
X27819D01*
X36217Y267800D02*
X38616D01*
X39816Y269000D01*
Y271399D01*
X38616Y272599D01*
X36217D01*
X35017Y271399D01*
Y269000D01*
X36217Y267800D01*
X42215D02*
X44614D01*
X43414D01*
Y274998D01*
X42215D01*
M02*
